G04 #@! TF.GenerationSoftware,KiCad,Pcbnew,6.0.9-8da3e8f707~116~ubuntu22.04.1*
G04 #@! TF.CreationDate,2022-11-08T11:27:41+01:00*
G04 #@! TF.ProjectId,PCB-Horloge,5043422d-486f-4726-9c6f-67652e6b6963,1.0*
G04 #@! TF.SameCoordinates,Original*
G04 #@! TF.FileFunction,Copper,L2,Bot*
G04 #@! TF.FilePolarity,Positive*
%FSLAX46Y46*%
G04 Gerber Fmt 4.6, Leading zero omitted, Abs format (unit mm)*
G04 Created by KiCad (PCBNEW 6.0.9-8da3e8f707~116~ubuntu22.04.1) date 2022-11-08 11:27:41*
%MOMM*%
%LPD*%
G01*
G04 APERTURE LIST*
G04 Aperture macros list*
%AMRoundRect*
0 Rectangle with rounded corners*
0 $1 Rounding radius*
0 $2 $3 $4 $5 $6 $7 $8 $9 X,Y pos of 4 corners*
0 Add a 4 corners polygon primitive as box body*
4,1,4,$2,$3,$4,$5,$6,$7,$8,$9,$2,$3,0*
0 Add four circle primitives for the rounded corners*
1,1,$1+$1,$2,$3*
1,1,$1+$1,$4,$5*
1,1,$1+$1,$6,$7*
1,1,$1+$1,$8,$9*
0 Add four rect primitives between the rounded corners*
20,1,$1+$1,$2,$3,$4,$5,0*
20,1,$1+$1,$4,$5,$6,$7,0*
20,1,$1+$1,$6,$7,$8,$9,0*
20,1,$1+$1,$8,$9,$2,$3,0*%
G04 Aperture macros list end*
G04 #@! TA.AperFunction,ComponentPad*
%ADD10R,1.700000X1.700000*%
G04 #@! TD*
G04 #@! TA.AperFunction,ComponentPad*
%ADD11O,1.700000X1.700000*%
G04 #@! TD*
G04 #@! TA.AperFunction,SMDPad,CuDef*
%ADD12RoundRect,0.250000X-0.475000X0.337500X-0.475000X-0.337500X0.475000X-0.337500X0.475000X0.337500X0*%
G04 #@! TD*
G04 #@! TA.AperFunction,SMDPad,CuDef*
%ADD13RoundRect,0.250000X0.337500X0.475000X-0.337500X0.475000X-0.337500X-0.475000X0.337500X-0.475000X0*%
G04 #@! TD*
G04 #@! TA.AperFunction,SMDPad,CuDef*
%ADD14R,3.000000X1.600000*%
G04 #@! TD*
G04 #@! TA.AperFunction,SMDPad,CuDef*
%ADD15R,0.650000X1.560000*%
G04 #@! TD*
G04 #@! TA.AperFunction,SMDPad,CuDef*
%ADD16R,1.550000X0.700000*%
G04 #@! TD*
G04 #@! TA.AperFunction,SMDPad,CuDef*
%ADD17R,3.000000X3.600000*%
G04 #@! TD*
G04 #@! TA.AperFunction,SMDPad,CuDef*
%ADD18R,3.000000X2.600000*%
G04 #@! TD*
G04 #@! TA.AperFunction,SMDPad,CuDef*
%ADD19RoundRect,0.250000X0.350000X0.450000X-0.350000X0.450000X-0.350000X-0.450000X0.350000X-0.450000X0*%
G04 #@! TD*
G04 #@! TA.AperFunction,SMDPad,CuDef*
%ADD20RoundRect,0.250000X-0.337500X-0.475000X0.337500X-0.475000X0.337500X0.475000X-0.337500X0.475000X0*%
G04 #@! TD*
G04 #@! TA.AperFunction,SMDPad,CuDef*
%ADD21RoundRect,0.250000X0.475000X-0.337500X0.475000X0.337500X-0.475000X0.337500X-0.475000X-0.337500X0*%
G04 #@! TD*
G04 #@! TA.AperFunction,SMDPad,CuDef*
%ADD22R,1.800000X1.000000*%
G04 #@! TD*
G04 #@! TA.AperFunction,ViaPad*
%ADD23C,0.800000*%
G04 #@! TD*
G04 #@! TA.AperFunction,Conductor*
%ADD24C,0.250000*%
G04 #@! TD*
G04 APERTURE END LIST*
D10*
X134620000Y-77996867D03*
D11*
X137160000Y-77996867D03*
X139700000Y-77996867D03*
D12*
X134112000Y-73638500D03*
X134112000Y-75713500D03*
D13*
X139721500Y-108712000D03*
X137646500Y-108712000D03*
D14*
X143000000Y-73800000D03*
X143000000Y-76200000D03*
D15*
X138061090Y-75518000D03*
X137111090Y-75518000D03*
X136161090Y-75518000D03*
X136161090Y-72818000D03*
X138061090Y-72818000D03*
D16*
X134435000Y-106787000D03*
X134435000Y-105517000D03*
X134435000Y-104247000D03*
X134435000Y-102977000D03*
X139885000Y-102977000D03*
X139885000Y-104247000D03*
X139885000Y-105517000D03*
X139885000Y-106787000D03*
D17*
X148990000Y-93980000D03*
D18*
X127590000Y-93980000D03*
D19*
X145780000Y-103124000D03*
X143780000Y-103124000D03*
X145780000Y-105156000D03*
X143780000Y-105156000D03*
D20*
X135106500Y-84600867D03*
X137181500Y-84600867D03*
X135106500Y-82568867D03*
X137181500Y-82568867D03*
D21*
X140208000Y-75713500D03*
X140208000Y-73638500D03*
D22*
X131572000Y-106914000D03*
X131572000Y-104414000D03*
D20*
X135106500Y-80536867D03*
X137181500Y-80536867D03*
D23*
X138176000Y-104140000D03*
X139683070Y-99759190D03*
X142748000Y-100584000D03*
X144272000Y-108204000D03*
X147823701Y-80776299D03*
X154940000Y-97028000D03*
X149860000Y-83820000D03*
X144272000Y-77724000D03*
X126492000Y-81788000D03*
X156401999Y-89250000D03*
X150368000Y-82296000D03*
X132588000Y-95504000D03*
X126700000Y-103200000D03*
X132588000Y-101092000D03*
X118600000Y-97800000D03*
X124656387Y-84639613D03*
X140716000Y-100483690D03*
X141732000Y-102108000D03*
X120904000Y-96520000D03*
X118364000Y-93980000D03*
X125984000Y-107696000D03*
X127508000Y-105156000D03*
X121920000Y-88900000D03*
X125011587Y-83705355D03*
X131572000Y-108204000D03*
X134635922Y-99750278D03*
X132588000Y-97028000D03*
X142240000Y-94996000D03*
X138176000Y-94996000D03*
X137160000Y-89916000D03*
X139700000Y-91948000D03*
D24*
X143000000Y-76200000D02*
X142513500Y-75713500D01*
X140500893Y-76500893D02*
X147807107Y-83807107D01*
X148100000Y-84514214D02*
X148100000Y-92675786D01*
X137808579Y-74258579D02*
X138002512Y-74452512D01*
X140208000Y-75713500D02*
X138256590Y-75713500D01*
X136219669Y-74429421D02*
X136390512Y-74258578D01*
X140208000Y-75713500D02*
X140208000Y-75793786D01*
X142513500Y-75713500D02*
X140208000Y-75713500D01*
X136531933Y-74200000D02*
X137667157Y-74200000D01*
X138061090Y-74593933D02*
X138061090Y-75518000D01*
X136161090Y-75518000D02*
X136161090Y-74570843D01*
X148392893Y-93382893D02*
X148990000Y-93980000D01*
X138256590Y-75713500D02*
X138061090Y-75518000D01*
X148392886Y-93382900D02*
G75*
G02*
X148100000Y-92675786I707114J707100D01*
G01*
X140208010Y-75793786D02*
G75*
G03*
X140500893Y-76500893I999990J-14D01*
G01*
X136219646Y-74429398D02*
G75*
G03*
X136161090Y-74570843I141454J-141402D01*
G01*
X136390496Y-74258562D02*
G75*
G02*
X136531933Y-74200000I141404J-141438D01*
G01*
X138061069Y-74593933D02*
G75*
G03*
X138002511Y-74452513I-199969J33D01*
G01*
X137667157Y-74200031D02*
G75*
G02*
X137808578Y-74258580I43J-199969D01*
G01*
X148099990Y-84514214D02*
G75*
G03*
X147807107Y-83807107I-999990J14D01*
G01*
X136915433Y-77996867D02*
X137160000Y-77996867D01*
X134924959Y-76006393D02*
X136915433Y-77996867D01*
X137160000Y-77996867D02*
X137160000Y-75566910D01*
X137160000Y-75566910D02*
X137111090Y-75518000D01*
X134112000Y-75713500D02*
X134217852Y-75713500D01*
X134217852Y-75713534D02*
G75*
G02*
X134924959Y-76006393I48J-999966D01*
G01*
X144441893Y-106494107D02*
X145780000Y-105156000D01*
X139885000Y-108548500D02*
X139721500Y-108712000D01*
X134396867Y-77996867D02*
X133092893Y-76692893D01*
X145780000Y-96410214D02*
X145780000Y-103124000D01*
X134112000Y-73638500D02*
X134926376Y-73638500D01*
X135106500Y-80536867D02*
X135106500Y-82568867D01*
X139885000Y-106787000D02*
X143734786Y-106787000D01*
X135106500Y-84600867D02*
X135106500Y-84908286D01*
X134912893Y-80343260D02*
X135106500Y-80536867D01*
X145780000Y-105156000D02*
X145780000Y-103124000D01*
X134620000Y-77996867D02*
X134620000Y-79636153D01*
X132800000Y-75985786D02*
X132800000Y-75364714D01*
X133092893Y-74657607D02*
X134112000Y-73638500D01*
X135399393Y-85615393D02*
X145487107Y-95703107D01*
X139885000Y-106787000D02*
X139885000Y-108548500D01*
X135633483Y-73345607D02*
X136161090Y-72818000D01*
X135106500Y-82568867D02*
X135106500Y-84600867D01*
X134620000Y-77996867D02*
X134396867Y-77996867D01*
X132800010Y-75364714D02*
G75*
G02*
X133092893Y-74657607I999990J14D01*
G01*
X145487114Y-95703100D02*
G75*
G02*
X145780000Y-96410214I-707114J-707100D01*
G01*
X135633495Y-73345619D02*
G75*
G02*
X134926376Y-73638500I-707095J707119D01*
G01*
X134620033Y-79636153D02*
G75*
G03*
X134912893Y-80343260I999967J-47D01*
G01*
X143734786Y-106786990D02*
G75*
G03*
X144441893Y-106494107I14J999990D01*
G01*
X132800010Y-75985786D02*
G75*
G03*
X133092893Y-76692893I999990J-14D01*
G01*
X135399386Y-85615400D02*
G75*
G02*
X135106500Y-84908286I707114J707100D01*
G01*
X138176000Y-101680474D02*
X138176000Y-104140000D01*
X141508976Y-99759190D02*
X139683070Y-99759190D01*
X139683070Y-99759190D02*
X138468893Y-100973367D01*
X142748000Y-100584000D02*
X142216083Y-100052083D01*
X142216097Y-100052069D02*
G75*
G03*
X141508976Y-99759190I-707097J-707131D01*
G01*
X138468906Y-100973380D02*
G75*
G03*
X138176000Y-101680474I707094J-707120D01*
G01*
X144272000Y-108204000D02*
X144873786Y-108204000D01*
X149860000Y-83820000D02*
X148116594Y-82076594D01*
X145580893Y-107911107D02*
X154647107Y-98844893D01*
X147823701Y-81369487D02*
X147823701Y-80776299D01*
X154940000Y-98137786D02*
X154940000Y-97028000D01*
X147823710Y-81369487D02*
G75*
G03*
X148116594Y-82076594I999990J-13D01*
G01*
X154939990Y-98137786D02*
G75*
G02*
X154647107Y-98844893I-999990J-14D01*
G01*
X145580900Y-107911114D02*
G75*
G02*
X144873786Y-108204000I-707100J707114D01*
G01*
X126619690Y-81788000D02*
X132295107Y-87463417D01*
X156401999Y-89250000D02*
X156401999Y-89051999D01*
X132155893Y-95936107D02*
X132588000Y-95504000D01*
X156401999Y-89051999D02*
X150660893Y-83310893D01*
X150368000Y-82296000D02*
X146088893Y-78016893D01*
X132588000Y-101092000D02*
X132155893Y-100659893D01*
X150368000Y-82603786D02*
X150368000Y-82296000D01*
X131863000Y-99952786D02*
X131863000Y-96643214D01*
X118600000Y-97800000D02*
X123707107Y-102907107D01*
X132588000Y-88170524D02*
X132588000Y-95504000D01*
X124414214Y-103200000D02*
X126700000Y-103200000D01*
X126492000Y-81788000D02*
X126619690Y-81788000D01*
X145381786Y-77724000D02*
X144272000Y-77724000D01*
X145381786Y-77724010D02*
G75*
G02*
X146088893Y-78016893I14J-999990D01*
G01*
X131863010Y-99952786D02*
G75*
G03*
X132155893Y-100659893I999990J-14D01*
G01*
X150660886Y-83310900D02*
G75*
G02*
X150368000Y-82603786I707114J707100D01*
G01*
X124414214Y-103199990D02*
G75*
G02*
X123707107Y-102907107I-14J999990D01*
G01*
X132587983Y-88170524D02*
G75*
G03*
X132295107Y-87463417I-999983J24D01*
G01*
X131863010Y-96643214D02*
G75*
G02*
X132155893Y-95936107I999990J14D01*
G01*
X140716000Y-100677786D02*
X140716000Y-100483690D01*
X118364000Y-93980000D02*
X120904000Y-96520000D01*
X141732000Y-102108000D02*
X141008893Y-101384893D01*
X118364000Y-93980000D02*
X118364000Y-91346214D01*
X118656893Y-90639107D02*
X124656387Y-84639613D01*
X118656886Y-90639100D02*
G75*
G03*
X118364000Y-91346214I707114J-707100D01*
G01*
X141008886Y-101384900D02*
G75*
G02*
X140716000Y-100677786I707114J707100D01*
G01*
X127508000Y-105757786D02*
X127508000Y-105156000D01*
X131572000Y-108204000D02*
X130970214Y-108204000D01*
X130263107Y-107911107D02*
X127508000Y-105156000D01*
X127508000Y-105156000D02*
X127508000Y-101506214D01*
X125380887Y-85024899D02*
X125380887Y-84488869D01*
X121920000Y-95089786D02*
X121920000Y-88900000D01*
X122212893Y-95796893D02*
X127215107Y-100799107D01*
X125984000Y-107696000D02*
X127215107Y-106464893D01*
X125087994Y-83781762D02*
X125011587Y-83705355D01*
X121920000Y-88900000D02*
X125087994Y-85732006D01*
X127215114Y-106464900D02*
G75*
G03*
X127508000Y-105757786I-707114J707100D01*
G01*
X125087976Y-83781780D02*
G75*
G02*
X125380887Y-84488869I-707076J-707120D01*
G01*
X130263100Y-107911114D02*
G75*
G03*
X130970214Y-108204000I707100J707114D01*
G01*
X127215114Y-100799100D02*
G75*
G02*
X127508000Y-101506214I-707114J-707100D01*
G01*
X125087992Y-85732004D02*
G75*
G03*
X125380887Y-85024899I-707092J707104D01*
G01*
X122212886Y-95796900D02*
G75*
G02*
X121920000Y-95089786I707114J707100D01*
G01*
X134635922Y-99490136D02*
X134635922Y-99750278D01*
X132588000Y-97028000D02*
X134343029Y-98783029D01*
X134343051Y-98783007D02*
G75*
G02*
X134635922Y-99490136I-707151J-707093D01*
G01*
X138061090Y-72818000D02*
X138061090Y-72858786D01*
X142314214Y-73800000D02*
X143000000Y-73800000D01*
X138353983Y-73565893D02*
X139046197Y-74258107D01*
X139753304Y-74551000D02*
X140734786Y-74551000D01*
X141441893Y-74258107D02*
X141607107Y-74092893D01*
X140734786Y-74550990D02*
G75*
G03*
X141441893Y-74258107I14J999990D01*
G01*
X141607100Y-74092886D02*
G75*
G02*
X142314214Y-73800000I707100J-707114D01*
G01*
X139753304Y-74550997D02*
G75*
G02*
X139046197Y-74258107I-4J999997D01*
G01*
X138061103Y-72858786D02*
G75*
G03*
X138353983Y-73565893I999997J-14D01*
G01*
X144412107Y-97168107D02*
X142240000Y-94996000D01*
X143163893Y-104539893D02*
X143780000Y-105156000D01*
X139885000Y-104247000D02*
X142456786Y-104247000D01*
X143780000Y-105156000D02*
X144412107Y-104523893D01*
X144705000Y-103816786D02*
X144705000Y-97875214D01*
X144704990Y-103816786D02*
G75*
G02*
X144412107Y-104523893I-999990J-14D01*
G01*
X144704990Y-97875214D02*
G75*
G03*
X144412107Y-97168107I-999990J14D01*
G01*
X142456786Y-104247010D02*
G75*
G02*
X143163893Y-104539893I14J-999990D01*
G01*
X139885000Y-102977000D02*
X143633000Y-102977000D01*
X138184598Y-94996000D02*
X138176000Y-94996000D01*
X143633000Y-102977000D02*
X143780000Y-103124000D01*
X143780000Y-100591402D02*
X138184598Y-94996000D01*
X143780000Y-103124000D02*
X143780000Y-100591402D01*
X139885000Y-105517000D02*
X138942616Y-105517000D01*
X138235509Y-105224107D02*
X137452893Y-104441491D01*
X137160000Y-103734384D02*
X137160000Y-89916000D01*
X137160012Y-103734384D02*
G75*
G03*
X137452894Y-104441490I999988J-16D01*
G01*
X138235501Y-105224115D02*
G75*
G03*
X138942616Y-105517000I707099J707115D01*
G01*
X131572000Y-106914000D02*
X134308000Y-106914000D01*
X134308000Y-106914000D02*
X134435000Y-106787000D01*
X131572000Y-104414000D02*
X132382107Y-105224107D01*
X133089214Y-105517000D02*
X134435000Y-105517000D01*
X133089214Y-105516990D02*
G75*
G02*
X132382107Y-105224107I-14J999990D01*
G01*
X136359107Y-89192893D02*
X136144000Y-89408000D01*
X136144000Y-89408000D02*
X136144000Y-102548786D01*
X137245188Y-88900000D02*
X137066214Y-88900000D01*
X134445786Y-104247000D02*
X134435000Y-104247000D01*
X135851107Y-103255893D02*
X135152893Y-103954107D01*
X139407107Y-90647705D02*
X137952295Y-89192893D01*
X139700000Y-91948000D02*
X139700000Y-91354812D01*
X139699991Y-91354812D02*
G75*
G03*
X139407106Y-90647706I-999991J12D01*
G01*
X135152900Y-103954114D02*
G75*
G02*
X134445786Y-104247000I-707100J707114D01*
G01*
X135851114Y-103255900D02*
G75*
G03*
X136144000Y-102548786I-707114J707100D01*
G01*
X137066214Y-88900010D02*
G75*
G03*
X136359107Y-89192893I-14J-999990D01*
G01*
X137952301Y-89192887D02*
G75*
G03*
X137245188Y-88900000I-707101J-707113D01*
G01*
G04 #@! TA.AperFunction,Conductor*
G36*
X137612733Y-69953324D02*
G01*
X138506821Y-69990798D01*
X138512079Y-69991129D01*
X138744192Y-70010620D01*
X139403850Y-70066013D01*
X139409099Y-70066565D01*
X139778148Y-70113186D01*
X140296919Y-70178723D01*
X140302123Y-70179491D01*
X141184506Y-70328735D01*
X141189679Y-70329721D01*
X141546389Y-70405542D01*
X142065042Y-70515785D01*
X142070180Y-70516991D01*
X142936929Y-70739535D01*
X142942012Y-70740954D01*
X143798717Y-70999608D01*
X143803736Y-71001239D01*
X144330237Y-71184586D01*
X144648839Y-71295534D01*
X144653763Y-71297365D01*
X145264137Y-71539029D01*
X145485836Y-71626806D01*
X145490701Y-71628851D01*
X146308226Y-71992836D01*
X146313001Y-71995083D01*
X147114561Y-72392982D01*
X147119238Y-72395427D01*
X147903447Y-72826549D01*
X147908017Y-72829188D01*
X148673478Y-73292767D01*
X148677911Y-73295581D01*
X149386701Y-73766500D01*
X149423289Y-73790809D01*
X149427623Y-73793821D01*
X149982577Y-74197018D01*
X150151606Y-74319825D01*
X150155808Y-74323014D01*
X150816541Y-74846705D01*
X150857134Y-74878879D01*
X150861198Y-74882241D01*
X151409222Y-75355283D01*
X151538617Y-75466974D01*
X151542539Y-75470505D01*
X152194881Y-76083094D01*
X152198652Y-76086786D01*
X152763635Y-76663728D01*
X152824801Y-76726189D01*
X152828384Y-76730005D01*
X153427225Y-77395086D01*
X153430616Y-77399014D01*
X153582126Y-77582158D01*
X154001067Y-78088571D01*
X154004345Y-78092706D01*
X154545407Y-78805529D01*
X154548489Y-78809772D01*
X155006059Y-79468128D01*
X155059229Y-79544630D01*
X155062139Y-79549011D01*
X155130934Y-79657414D01*
X155541644Y-80304591D01*
X155544378Y-80309105D01*
X155991821Y-81084098D01*
X155994364Y-81088723D01*
X156408971Y-81881794D01*
X156411317Y-81886521D01*
X156792333Y-82696220D01*
X156794480Y-82701041D01*
X157141275Y-83526035D01*
X157143217Y-83530942D01*
X157345725Y-84075467D01*
X157452232Y-84361854D01*
X157455142Y-84369680D01*
X157456878Y-84374664D01*
X157733413Y-85225753D01*
X157734941Y-85230813D01*
X157735686Y-85233482D01*
X157734735Y-85304473D01*
X157697650Y-85361872D01*
X157603884Y-85444538D01*
X157525262Y-85513853D01*
X157366076Y-85707649D01*
X157239922Y-85924404D01*
X157238109Y-85929127D01*
X157238108Y-85929129D01*
X157211100Y-85999488D01*
X157150045Y-86158539D01*
X157149012Y-86163485D01*
X157149010Y-86163491D01*
X157137593Y-86218143D01*
X157098759Y-86404033D01*
X157087382Y-86654568D01*
X157116208Y-86903699D01*
X157117587Y-86908573D01*
X157117588Y-86908577D01*
X157158534Y-87053276D01*
X157184494Y-87145017D01*
X157186628Y-87149592D01*
X157186630Y-87149599D01*
X157279425Y-87348597D01*
X157290484Y-87372313D01*
X157293326Y-87376494D01*
X157293326Y-87376495D01*
X157428605Y-87575552D01*
X157428608Y-87575556D01*
X157431451Y-87579739D01*
X157434928Y-87583416D01*
X157434929Y-87583417D01*
X157535238Y-87689491D01*
X157603767Y-87761959D01*
X157607793Y-87765037D01*
X157607794Y-87765038D01*
X157798981Y-87911212D01*
X157798985Y-87911215D01*
X157803001Y-87914285D01*
X158024026Y-88032797D01*
X158028807Y-88034443D01*
X158028811Y-88034445D01*
X158103987Y-88060330D01*
X158261156Y-88114448D01*
X158302177Y-88121534D01*
X158365897Y-88152837D01*
X158402579Y-88213623D01*
X158405377Y-88227288D01*
X158481645Y-88743775D01*
X158482307Y-88749010D01*
X158500466Y-88921777D01*
X158574016Y-89621556D01*
X158575852Y-89639028D01*
X158576293Y-89644287D01*
X158632482Y-90537395D01*
X158632703Y-90542668D01*
X158640579Y-90918629D01*
X158651014Y-91416774D01*
X158651445Y-91437361D01*
X158651445Y-91442639D01*
X158632703Y-92337332D01*
X158632482Y-92342605D01*
X158576293Y-93235713D01*
X158575853Y-93240957D01*
X158537229Y-93608444D01*
X158482307Y-94130990D01*
X158481645Y-94136225D01*
X158350920Y-95021495D01*
X158350040Y-95026699D01*
X158182354Y-95905737D01*
X158181257Y-95910899D01*
X157976905Y-96782160D01*
X157975592Y-96787272D01*
X157734943Y-97649179D01*
X157733418Y-97654231D01*
X157512483Y-98334202D01*
X157460694Y-98493593D01*
X157456878Y-98505336D01*
X157455142Y-98510320D01*
X157143217Y-99349058D01*
X157141275Y-99353965D01*
X156794480Y-100178959D01*
X156792333Y-100183780D01*
X156411317Y-100993479D01*
X156408971Y-100998206D01*
X155994364Y-101791277D01*
X155991821Y-101795902D01*
X155544378Y-102570895D01*
X155541644Y-102575409D01*
X155404690Y-102791215D01*
X155062562Y-103330324D01*
X155062149Y-103330974D01*
X155059239Y-103335355D01*
X154564423Y-104047303D01*
X154548491Y-104070226D01*
X154545407Y-104074471D01*
X154114844Y-104641717D01*
X154004345Y-104787294D01*
X154001067Y-104791429D01*
X153775130Y-105064540D01*
X153430616Y-105480986D01*
X153427225Y-105484914D01*
X152828384Y-106149995D01*
X152824808Y-106153804D01*
X152615660Y-106367379D01*
X152198652Y-106793214D01*
X152194881Y-106796906D01*
X151542539Y-107409495D01*
X151538619Y-107413025D01*
X150949633Y-107921424D01*
X150861200Y-107997757D01*
X150857137Y-108001119D01*
X150385279Y-108375109D01*
X150155810Y-108556984D01*
X150151606Y-108560175D01*
X149427623Y-109086179D01*
X149423289Y-109089191D01*
X148677911Y-109584419D01*
X148673478Y-109587233D01*
X148188472Y-109880963D01*
X147908017Y-110050812D01*
X147903447Y-110053451D01*
X147119238Y-110484573D01*
X147114561Y-110487018D01*
X146313001Y-110884917D01*
X146308226Y-110887164D01*
X145490701Y-111251149D01*
X145485836Y-111253194D01*
X144653763Y-111582635D01*
X144648839Y-111584466D01*
X144330237Y-111695414D01*
X143803736Y-111878761D01*
X143798717Y-111880392D01*
X142942012Y-112139046D01*
X142936929Y-112140465D01*
X142070180Y-112363009D01*
X142065042Y-112364215D01*
X141546389Y-112474458D01*
X141189679Y-112550279D01*
X141184506Y-112551265D01*
X140302123Y-112700509D01*
X140296919Y-112701277D01*
X139778148Y-112766814D01*
X139409099Y-112813435D01*
X139403850Y-112813987D01*
X138744192Y-112869380D01*
X138512079Y-112888871D01*
X138506821Y-112889202D01*
X137720337Y-112922166D01*
X137612732Y-112926676D01*
X137607456Y-112926787D01*
X136712544Y-112926787D01*
X136707268Y-112926676D01*
X136599663Y-112922166D01*
X135813179Y-112889202D01*
X135807921Y-112888871D01*
X135575808Y-112869380D01*
X134916150Y-112813987D01*
X134910901Y-112813435D01*
X134541852Y-112766814D01*
X134023081Y-112701277D01*
X134017877Y-112700509D01*
X133135494Y-112551265D01*
X133130321Y-112550279D01*
X132773611Y-112474458D01*
X132254958Y-112364215D01*
X132249820Y-112363009D01*
X131383071Y-112140465D01*
X131377988Y-112139046D01*
X130521283Y-111880392D01*
X130516264Y-111878761D01*
X129989763Y-111695414D01*
X129671161Y-111584466D01*
X129666237Y-111582635D01*
X128834164Y-111253194D01*
X128829299Y-111251149D01*
X128011774Y-110887164D01*
X128006999Y-110884917D01*
X127205439Y-110487018D01*
X127200762Y-110484573D01*
X126416553Y-110053451D01*
X126411983Y-110050812D01*
X126131528Y-109880963D01*
X125646522Y-109587233D01*
X125642089Y-109584419D01*
X125114809Y-109234095D01*
X136551001Y-109234095D01*
X136551338Y-109240614D01*
X136561257Y-109336206D01*
X136564149Y-109349600D01*
X136615588Y-109503784D01*
X136621761Y-109516962D01*
X136707063Y-109654807D01*
X136716099Y-109666208D01*
X136830829Y-109780739D01*
X136842240Y-109789751D01*
X136980243Y-109874816D01*
X136993424Y-109880963D01*
X137147710Y-109932138D01*
X137161086Y-109935005D01*
X137255438Y-109944672D01*
X137261854Y-109945000D01*
X137374385Y-109945000D01*
X137389624Y-109940525D01*
X137390829Y-109939135D01*
X137392500Y-109931452D01*
X137392500Y-108984115D01*
X137388025Y-108968876D01*
X137386635Y-108967671D01*
X137378952Y-108966000D01*
X136569116Y-108966000D01*
X136553877Y-108970475D01*
X136552672Y-108971865D01*
X136551001Y-108979548D01*
X136551001Y-109234095D01*
X125114809Y-109234095D01*
X124896711Y-109089191D01*
X124892377Y-109086179D01*
X124168394Y-108560175D01*
X124164190Y-108556984D01*
X123934721Y-108375109D01*
X123462863Y-108001119D01*
X123458800Y-107997757D01*
X123370368Y-107921424D01*
X122781381Y-107413025D01*
X122777461Y-107409495D01*
X122125119Y-106796906D01*
X122121348Y-106793214D01*
X121704340Y-106367379D01*
X121495192Y-106153804D01*
X121491616Y-106149995D01*
X120892775Y-105484914D01*
X120889384Y-105480986D01*
X120544870Y-105064540D01*
X120318933Y-104791429D01*
X120315655Y-104787294D01*
X120205156Y-104641717D01*
X119774593Y-104074471D01*
X119771509Y-104070226D01*
X119755577Y-104047303D01*
X119260761Y-103335355D01*
X119257851Y-103330974D01*
X119257439Y-103330324D01*
X118915310Y-102791215D01*
X118778356Y-102575409D01*
X118775622Y-102570895D01*
X118328179Y-101795902D01*
X118325636Y-101791277D01*
X117911029Y-100998206D01*
X117908683Y-100993479D01*
X117527667Y-100183780D01*
X117525520Y-100178959D01*
X117178725Y-99353965D01*
X117176783Y-99349058D01*
X116864858Y-98510320D01*
X116863122Y-98505336D01*
X116859307Y-98493593D01*
X116807517Y-98334202D01*
X116586582Y-97654231D01*
X116585057Y-97649179D01*
X116344408Y-96787272D01*
X116343095Y-96782160D01*
X116138743Y-95910899D01*
X116137646Y-95905737D01*
X115969960Y-95026699D01*
X115969080Y-95021495D01*
X115838355Y-94136225D01*
X115837693Y-94130990D01*
X115821823Y-93980000D01*
X117450496Y-93980000D01*
X117451186Y-93986565D01*
X117465824Y-94125834D01*
X117470458Y-94169928D01*
X117529473Y-94351556D01*
X117624960Y-94516944D01*
X117752747Y-94658866D01*
X117907248Y-94771118D01*
X117913276Y-94773802D01*
X117913278Y-94773803D01*
X117985756Y-94806072D01*
X118081712Y-94848794D01*
X118175113Y-94868647D01*
X118262056Y-94887128D01*
X118262061Y-94887128D01*
X118268513Y-94888500D01*
X118324406Y-94888500D01*
X118392527Y-94908502D01*
X118413501Y-94925405D01*
X119956878Y-96468782D01*
X119990904Y-96531094D01*
X119993092Y-96544703D01*
X119998948Y-96600417D01*
X120008676Y-96692970D01*
X120010458Y-96709928D01*
X120069473Y-96891556D01*
X120164960Y-97056944D01*
X120169378Y-97061851D01*
X120169379Y-97061852D01*
X120222757Y-97121134D01*
X120292747Y-97198866D01*
X120447248Y-97311118D01*
X120453276Y-97313802D01*
X120453278Y-97313803D01*
X120615681Y-97386109D01*
X120621712Y-97388794D01*
X120715112Y-97408647D01*
X120802056Y-97427128D01*
X120802061Y-97427128D01*
X120808513Y-97428500D01*
X120999487Y-97428500D01*
X121005939Y-97427128D01*
X121005944Y-97427128D01*
X121092888Y-97408647D01*
X121186288Y-97388794D01*
X121192319Y-97386109D01*
X121354722Y-97313803D01*
X121354724Y-97313802D01*
X121360752Y-97311118D01*
X121515253Y-97198866D01*
X121585243Y-97121134D01*
X121638621Y-97061852D01*
X121638622Y-97061851D01*
X121643040Y-97056944D01*
X121738527Y-96891556D01*
X121797542Y-96709928D01*
X121798832Y-96697655D01*
X121811062Y-96581295D01*
X121838075Y-96515638D01*
X121896297Y-96475009D01*
X121967242Y-96472306D01*
X122025467Y-96505371D01*
X124380094Y-98859999D01*
X126731783Y-101211688D01*
X126742651Y-101224080D01*
X126759159Y-101245594D01*
X126765118Y-101250368D01*
X126786304Y-101272002D01*
X126815304Y-101309797D01*
X126831747Y-101338278D01*
X126855666Y-101396024D01*
X126864178Y-101427795D01*
X126869838Y-101470796D01*
X126870909Y-101488556D01*
X126870873Y-101491995D01*
X126869882Y-101499522D01*
X126870715Y-101507068D01*
X126870715Y-101507072D01*
X126873739Y-101534462D01*
X126874500Y-101548287D01*
X126874500Y-102165500D01*
X126854498Y-102233621D01*
X126800842Y-102280114D01*
X126748500Y-102291500D01*
X126604513Y-102291500D01*
X126598061Y-102292872D01*
X126598056Y-102292872D01*
X126525499Y-102308295D01*
X126417712Y-102331206D01*
X126411682Y-102333891D01*
X126411681Y-102333891D01*
X126249278Y-102406197D01*
X126249276Y-102406198D01*
X126243248Y-102408882D01*
X126237907Y-102412762D01*
X126237906Y-102412763D01*
X126144135Y-102480892D01*
X126088747Y-102521134D01*
X126084332Y-102526037D01*
X126079420Y-102530460D01*
X126078295Y-102529211D01*
X126024986Y-102562051D01*
X125991800Y-102566500D01*
X124464224Y-102566500D01*
X124447779Y-102565422D01*
X124428420Y-102562873D01*
X124428416Y-102562873D01*
X124420888Y-102561882D01*
X124413339Y-102562715D01*
X124405742Y-102562636D01*
X124405742Y-102562632D01*
X124383100Y-102562395D01*
X124346234Y-102557542D01*
X124335797Y-102556168D01*
X124304026Y-102547655D01*
X124246283Y-102523738D01*
X124217798Y-102507293D01*
X124206200Y-102498394D01*
X124183385Y-102480887D01*
X124170070Y-102469087D01*
X124167669Y-102466635D01*
X124163046Y-102460611D01*
X124135610Y-102438631D01*
X124125295Y-102429391D01*
X119547122Y-97851217D01*
X119513096Y-97788905D01*
X119510907Y-97775292D01*
X119494232Y-97616635D01*
X119494232Y-97616633D01*
X119493542Y-97610072D01*
X119434527Y-97428444D01*
X119417849Y-97399556D01*
X119342341Y-97268774D01*
X119339040Y-97263056D01*
X119304060Y-97224206D01*
X119215675Y-97126045D01*
X119215674Y-97126044D01*
X119211253Y-97121134D01*
X119098019Y-97038864D01*
X119062094Y-97012763D01*
X119062093Y-97012762D01*
X119056752Y-97008882D01*
X119050724Y-97006198D01*
X119050722Y-97006197D01*
X118888319Y-96933891D01*
X118888318Y-96933891D01*
X118882288Y-96931206D01*
X118788887Y-96911353D01*
X118701944Y-96892872D01*
X118701939Y-96892872D01*
X118695487Y-96891500D01*
X118504513Y-96891500D01*
X118498061Y-96892872D01*
X118498056Y-96892872D01*
X118411112Y-96911353D01*
X118317712Y-96931206D01*
X118311682Y-96933891D01*
X118311681Y-96933891D01*
X118149278Y-97006197D01*
X118149276Y-97006198D01*
X118143248Y-97008882D01*
X118137907Y-97012762D01*
X118137906Y-97012763D01*
X118101981Y-97038864D01*
X117988747Y-97121134D01*
X117984326Y-97126044D01*
X117984325Y-97126045D01*
X117895941Y-97224206D01*
X117860960Y-97263056D01*
X117857659Y-97268774D01*
X117782152Y-97399556D01*
X117765473Y-97428444D01*
X117706458Y-97610072D01*
X117705768Y-97616633D01*
X117705768Y-97616635D01*
X117697851Y-97691959D01*
X117686496Y-97800000D01*
X117687186Y-97806565D01*
X117701957Y-97947099D01*
X117706458Y-97989928D01*
X117765473Y-98171556D01*
X117860960Y-98336944D01*
X117865378Y-98341851D01*
X117865379Y-98341852D01*
X117905182Y-98386058D01*
X117988747Y-98478866D01*
X118143248Y-98591118D01*
X118149276Y-98593802D01*
X118149278Y-98593803D01*
X118311681Y-98666109D01*
X118317712Y-98668794D01*
X118411112Y-98688647D01*
X118498056Y-98707128D01*
X118498061Y-98707128D01*
X118504513Y-98708500D01*
X118560406Y-98708500D01*
X118628527Y-98728502D01*
X118649501Y-98745405D01*
X120938890Y-101034795D01*
X123220977Y-103316882D01*
X123232641Y-103330323D01*
X123246518Y-103348805D01*
X123255869Y-103358354D01*
X123269555Y-103369085D01*
X123274869Y-103373492D01*
X123417674Y-103498726D01*
X123595718Y-103617688D01*
X123599427Y-103619517D01*
X123744108Y-103690864D01*
X123787767Y-103712394D01*
X123990534Y-103781221D01*
X123994576Y-103782025D01*
X123994580Y-103782026D01*
X124196507Y-103822189D01*
X124196512Y-103822190D01*
X124200551Y-103822993D01*
X124204663Y-103823262D01*
X124204667Y-103823263D01*
X124318084Y-103830695D01*
X124325638Y-103831419D01*
X124326509Y-103831529D01*
X124334184Y-103833500D01*
X124356769Y-103833500D01*
X124365008Y-103833770D01*
X124371417Y-103834190D01*
X124380930Y-103835177D01*
X124396774Y-103837432D01*
X124396779Y-103837432D01*
X124400859Y-103838013D01*
X124407074Y-103838078D01*
X124410089Y-103838110D01*
X124410094Y-103838110D01*
X124414223Y-103838153D01*
X124445125Y-103834413D01*
X124460264Y-103833500D01*
X125991800Y-103833500D01*
X126059921Y-103853502D01*
X126079147Y-103869843D01*
X126079420Y-103869540D01*
X126084332Y-103873963D01*
X126088747Y-103878866D01*
X126243248Y-103991118D01*
X126249276Y-103993802D01*
X126249278Y-103993803D01*
X126395660Y-104058976D01*
X126417712Y-104068794D01*
X126511113Y-104088647D01*
X126598056Y-104107128D01*
X126598061Y-104107128D01*
X126604513Y-104108500D01*
X126748500Y-104108500D01*
X126816621Y-104128502D01*
X126863114Y-104182158D01*
X126874500Y-104234500D01*
X126874500Y-104453476D01*
X126854498Y-104521597D01*
X126842142Y-104537779D01*
X126768960Y-104619056D01*
X126673473Y-104784444D01*
X126614458Y-104966072D01*
X126613768Y-104972633D01*
X126613768Y-104972635D01*
X126606520Y-105041600D01*
X126594496Y-105156000D01*
X126614458Y-105345928D01*
X126673473Y-105527556D01*
X126768960Y-105692944D01*
X126824810Y-105754971D01*
X126855525Y-105818976D01*
X126847581Y-105887495D01*
X126836133Y-105915134D01*
X126831748Y-105925721D01*
X126815302Y-105954206D01*
X126788940Y-105988562D01*
X126777139Y-106001879D01*
X126774635Y-106004331D01*
X126768611Y-106008954D01*
X126763862Y-106014882D01*
X126746635Y-106036385D01*
X126737395Y-106046700D01*
X126033500Y-106750595D01*
X125971188Y-106784621D01*
X125944405Y-106787500D01*
X125888513Y-106787500D01*
X125882061Y-106788872D01*
X125882056Y-106788872D01*
X125795113Y-106807353D01*
X125701712Y-106827206D01*
X125695682Y-106829891D01*
X125695681Y-106829891D01*
X125533278Y-106902197D01*
X125533276Y-106902198D01*
X125527248Y-106904882D01*
X125521907Y-106908762D01*
X125521906Y-106908763D01*
X125495488Y-106927957D01*
X125372747Y-107017134D01*
X125368326Y-107022044D01*
X125368325Y-107022045D01*
X125308925Y-107088016D01*
X125244960Y-107159056D01*
X125149473Y-107324444D01*
X125090458Y-107506072D01*
X125089768Y-107512633D01*
X125089768Y-107512635D01*
X125081556Y-107590767D01*
X125070496Y-107696000D01*
X125071186Y-107702565D01*
X125082694Y-107812054D01*
X125090458Y-107885928D01*
X125149473Y-108067556D01*
X125152776Y-108073278D01*
X125152777Y-108073279D01*
X125161903Y-108089086D01*
X125244960Y-108232944D01*
X125249378Y-108237851D01*
X125249379Y-108237852D01*
X125334033Y-108331870D01*
X125372747Y-108374866D01*
X125527248Y-108487118D01*
X125533276Y-108489802D01*
X125533278Y-108489803D01*
X125695681Y-108562109D01*
X125701712Y-108564794D01*
X125795113Y-108584647D01*
X125882056Y-108603128D01*
X125882061Y-108603128D01*
X125888513Y-108604500D01*
X126079487Y-108604500D01*
X126085939Y-108603128D01*
X126085944Y-108603128D01*
X126172888Y-108584647D01*
X126266288Y-108564794D01*
X126272319Y-108562109D01*
X126434722Y-108489803D01*
X126434724Y-108489802D01*
X126440752Y-108487118D01*
X126595253Y-108374866D01*
X126633967Y-108331870D01*
X126718621Y-108237852D01*
X126718622Y-108237851D01*
X126723040Y-108232944D01*
X126806097Y-108089086D01*
X126815223Y-108073279D01*
X126815224Y-108073278D01*
X126818527Y-108067556D01*
X126877542Y-107885928D01*
X126894907Y-107720706D01*
X126921920Y-107655050D01*
X126931122Y-107644782D01*
X127624878Y-106951026D01*
X127638320Y-106939361D01*
X127653509Y-106927957D01*
X127653511Y-106927955D01*
X127656805Y-106925482D01*
X127666354Y-106916131D01*
X127676980Y-106902579D01*
X127681373Y-106897282D01*
X127806734Y-106754332D01*
X127809027Y-106750900D01*
X127809031Y-106750895D01*
X127883132Y-106639992D01*
X127937608Y-106594463D01*
X128008051Y-106585614D01*
X128076993Y-106620897D01*
X129776974Y-108320878D01*
X129788638Y-108334319D01*
X129802518Y-108352805D01*
X129811869Y-108362354D01*
X129823794Y-108371704D01*
X129825416Y-108372976D01*
X129830718Y-108377373D01*
X129973668Y-108502734D01*
X130151713Y-108621697D01*
X130155406Y-108623518D01*
X130155411Y-108623521D01*
X130340072Y-108714583D01*
X130343763Y-108716403D01*
X130546532Y-108785231D01*
X130550574Y-108786035D01*
X130550578Y-108786036D01*
X130752506Y-108826199D01*
X130752511Y-108826200D01*
X130756550Y-108827003D01*
X130760660Y-108827272D01*
X130760665Y-108827273D01*
X130868979Y-108834371D01*
X130935646Y-108858785D01*
X130954370Y-108875785D01*
X130956327Y-108877958D01*
X130956331Y-108877962D01*
X130960747Y-108882866D01*
X130982329Y-108898546D01*
X131100104Y-108984115D01*
X131115248Y-108995118D01*
X131121276Y-108997802D01*
X131121278Y-108997803D01*
X131283681Y-109070109D01*
X131289712Y-109072794D01*
X131383113Y-109092647D01*
X131470056Y-109111128D01*
X131470061Y-109111128D01*
X131476513Y-109112500D01*
X131667487Y-109112500D01*
X131673939Y-109111128D01*
X131673944Y-109111128D01*
X131760888Y-109092647D01*
X131854288Y-109072794D01*
X131860319Y-109070109D01*
X132022722Y-108997803D01*
X132022724Y-108997802D01*
X132028752Y-108995118D01*
X132066530Y-108967671D01*
X132084157Y-108954864D01*
X132183253Y-108882866D01*
X132311040Y-108740944D01*
X132406527Y-108575556D01*
X132450610Y-108439885D01*
X136551000Y-108439885D01*
X136555475Y-108455124D01*
X136556865Y-108456329D01*
X136564548Y-108458000D01*
X137374385Y-108458000D01*
X137389624Y-108453525D01*
X137390829Y-108452135D01*
X137392500Y-108444452D01*
X137392500Y-107497116D01*
X137388025Y-107481877D01*
X137386635Y-107480672D01*
X137378952Y-107479001D01*
X137261905Y-107479001D01*
X137255386Y-107479338D01*
X137159794Y-107489257D01*
X137146400Y-107492149D01*
X136992216Y-107543588D01*
X136979038Y-107549761D01*
X136841193Y-107635063D01*
X136829792Y-107644099D01*
X136715261Y-107758829D01*
X136706249Y-107770240D01*
X136621184Y-107908243D01*
X136615037Y-107921424D01*
X136563862Y-108075710D01*
X136560995Y-108089086D01*
X136551328Y-108183438D01*
X136551000Y-108189855D01*
X136551000Y-108439885D01*
X132450610Y-108439885D01*
X132465542Y-108393928D01*
X132467138Y-108378749D01*
X132484814Y-108210565D01*
X132485504Y-108204000D01*
X132469767Y-108054270D01*
X132482539Y-107984432D01*
X132531041Y-107932585D01*
X132567283Y-107920549D01*
X132566778Y-107918425D01*
X132574460Y-107916598D01*
X132582316Y-107915745D01*
X132718705Y-107864615D01*
X132835261Y-107777261D01*
X132922615Y-107660705D01*
X132925769Y-107652293D01*
X132934401Y-107629269D01*
X132977043Y-107572505D01*
X133043605Y-107547806D01*
X133052382Y-107547500D01*
X133317794Y-107547500D01*
X133385915Y-107567502D01*
X133393358Y-107572673D01*
X133406109Y-107582230D01*
X133406112Y-107582232D01*
X133413295Y-107587615D01*
X133549684Y-107638745D01*
X133611866Y-107645500D01*
X135258134Y-107645500D01*
X135320316Y-107638745D01*
X135456705Y-107587615D01*
X135573261Y-107500261D01*
X135660615Y-107383705D01*
X135711745Y-107247316D01*
X135718500Y-107185134D01*
X135718500Y-106388866D01*
X135711745Y-106326684D01*
X135708973Y-106319288D01*
X135708971Y-106319282D01*
X135662840Y-106196229D01*
X135657657Y-106125422D01*
X135662840Y-106107771D01*
X135708971Y-105984718D01*
X135708973Y-105984712D01*
X135711745Y-105977316D01*
X135718500Y-105915134D01*
X135718500Y-105118866D01*
X135711745Y-105056684D01*
X135708973Y-105049288D01*
X135708971Y-105049282D01*
X135662840Y-104926229D01*
X135657657Y-104855422D01*
X135662840Y-104837771D01*
X135708971Y-104714718D01*
X135708973Y-104714712D01*
X135711745Y-104707316D01*
X135718500Y-104645134D01*
X135718500Y-104336594D01*
X135738502Y-104268473D01*
X135755405Y-104247499D01*
X136260878Y-103742026D01*
X136274320Y-103730361D01*
X136289509Y-103718957D01*
X136289511Y-103718955D01*
X136292805Y-103716482D01*
X136302354Y-103707131D01*
X136304892Y-103703894D01*
X136306294Y-103702329D01*
X136366645Y-103664934D01*
X136437632Y-103666104D01*
X136496717Y-103705467D01*
X136525142Y-103770525D01*
X136525876Y-103778160D01*
X136533778Y-103898746D01*
X136537008Y-103948046D01*
X136537811Y-103952085D01*
X136537812Y-103952090D01*
X136575198Y-104140052D01*
X136578780Y-104158062D01*
X136647607Y-104360829D01*
X136649426Y-104364518D01*
X136649427Y-104364520D01*
X136737587Y-104543296D01*
X136742312Y-104552878D01*
X136861274Y-104730922D01*
X136863997Y-104734027D01*
X136939037Y-104819597D01*
X136943862Y-104825444D01*
X136944314Y-104826027D01*
X136948351Y-104832853D01*
X136964209Y-104848711D01*
X136969849Y-104854732D01*
X136974252Y-104859753D01*
X136980276Y-104867173D01*
X136989813Y-104879875D01*
X136989823Y-104879887D01*
X136992295Y-104883179D01*
X137001646Y-104892728D01*
X137026158Y-104911948D01*
X137037498Y-104922000D01*
X137749377Y-105633879D01*
X137761041Y-105647320D01*
X137767859Y-105656400D01*
X137774921Y-105665806D01*
X137784272Y-105675354D01*
X137787531Y-105677909D01*
X137787532Y-105677910D01*
X137797791Y-105685954D01*
X137803109Y-105690363D01*
X137946070Y-105815735D01*
X138028136Y-105870568D01*
X138110681Y-105925721D01*
X138124116Y-105934698D01*
X138316166Y-106029404D01*
X138397192Y-106056908D01*
X138515025Y-106096905D01*
X138515028Y-106096906D01*
X138518935Y-106098232D01*
X138536294Y-106101685D01*
X138599201Y-106134589D01*
X138634335Y-106196283D01*
X138629695Y-106269493D01*
X138608255Y-106326684D01*
X138601500Y-106388866D01*
X138601500Y-107185134D01*
X138608255Y-107247316D01*
X138659385Y-107383705D01*
X138746739Y-107500261D01*
X138753919Y-107505642D01*
X138802690Y-107542194D01*
X138845205Y-107599053D01*
X138850231Y-107669872D01*
X138816299Y-107732037D01*
X138791198Y-107757183D01*
X138784695Y-107763697D01*
X138781898Y-107768235D01*
X138724647Y-107808824D01*
X138653724Y-107812054D01*
X138592313Y-107776428D01*
X138584938Y-107767932D01*
X138576902Y-107757793D01*
X138462171Y-107643261D01*
X138450760Y-107634249D01*
X138312757Y-107549184D01*
X138299576Y-107543037D01*
X138145290Y-107491862D01*
X138131914Y-107488995D01*
X138037562Y-107479328D01*
X138031145Y-107479000D01*
X137918615Y-107479000D01*
X137903376Y-107483475D01*
X137902171Y-107484865D01*
X137900500Y-107492548D01*
X137900500Y-109926884D01*
X137904975Y-109942123D01*
X137906365Y-109943328D01*
X137914048Y-109944999D01*
X138031095Y-109944999D01*
X138037614Y-109944662D01*
X138133206Y-109934743D01*
X138146600Y-109931851D01*
X138300784Y-109880412D01*
X138313962Y-109874239D01*
X138451807Y-109788937D01*
X138463208Y-109779901D01*
X138577738Y-109665172D01*
X138584794Y-109656238D01*
X138642712Y-109615177D01*
X138713635Y-109611947D01*
X138775046Y-109647574D01*
X138781846Y-109655407D01*
X138785522Y-109661348D01*
X138910697Y-109786305D01*
X138916927Y-109790145D01*
X138916928Y-109790146D01*
X139054288Y-109874816D01*
X139061262Y-109879115D01*
X139141005Y-109905564D01*
X139222611Y-109932632D01*
X139222613Y-109932632D01*
X139229139Y-109934797D01*
X139235975Y-109935497D01*
X139235978Y-109935498D01*
X139279031Y-109939909D01*
X139333600Y-109945500D01*
X140109400Y-109945500D01*
X140112646Y-109945163D01*
X140112650Y-109945163D01*
X140208308Y-109935238D01*
X140208312Y-109935237D01*
X140215166Y-109934526D01*
X140221702Y-109932345D01*
X140221704Y-109932345D01*
X140353806Y-109888272D01*
X140382946Y-109878550D01*
X140533348Y-109785478D01*
X140658305Y-109660303D01*
X140751115Y-109509738D01*
X140777564Y-109429995D01*
X140804632Y-109348389D01*
X140804632Y-109348387D01*
X140806797Y-109341861D01*
X140817500Y-109237400D01*
X140817500Y-108186600D01*
X140815855Y-108170745D01*
X140807238Y-108087692D01*
X140807237Y-108087688D01*
X140806526Y-108080834D01*
X140804006Y-108073279D01*
X140753342Y-107921424D01*
X140750550Y-107913054D01*
X140696451Y-107825631D01*
X140677614Y-107757183D01*
X140698775Y-107689413D01*
X140753215Y-107643842D01*
X140767582Y-107639042D01*
X140770316Y-107638745D01*
X140777711Y-107635973D01*
X140777714Y-107635972D01*
X140898297Y-107590767D01*
X140906705Y-107587615D01*
X141023261Y-107500261D01*
X141045241Y-107470933D01*
X141102100Y-107428420D01*
X141146066Y-107420500D01*
X143471960Y-107420500D01*
X143540081Y-107440502D01*
X143586574Y-107494158D01*
X143596678Y-107564432D01*
X143565596Y-107630810D01*
X143553016Y-107644782D01*
X143532960Y-107667056D01*
X143437473Y-107832444D01*
X143378458Y-108014072D01*
X143358496Y-108204000D01*
X143359186Y-108210565D01*
X143376863Y-108378749D01*
X143378458Y-108393928D01*
X143437473Y-108575556D01*
X143532960Y-108740944D01*
X143660747Y-108882866D01*
X143759843Y-108954864D01*
X143777471Y-108967671D01*
X143815248Y-108995118D01*
X143821276Y-108997802D01*
X143821278Y-108997803D01*
X143983681Y-109070109D01*
X143989712Y-109072794D01*
X144083113Y-109092647D01*
X144170056Y-109111128D01*
X144170061Y-109111128D01*
X144176513Y-109112500D01*
X144367487Y-109112500D01*
X144373939Y-109111128D01*
X144373944Y-109111128D01*
X144460888Y-109092647D01*
X144554288Y-109072794D01*
X144560319Y-109070109D01*
X144722722Y-108997803D01*
X144722724Y-108997802D01*
X144728752Y-108995118D01*
X144734094Y-108991237D01*
X144877909Y-108886749D01*
X144877911Y-108886747D01*
X144883253Y-108882866D01*
X144889624Y-108875791D01*
X144891067Y-108874902D01*
X144892580Y-108873539D01*
X144892829Y-108873816D01*
X144950068Y-108838551D01*
X144975020Y-108834370D01*
X145014332Y-108831794D01*
X145083335Y-108827273D01*
X145083340Y-108827272D01*
X145087450Y-108827003D01*
X145091489Y-108826200D01*
X145091494Y-108826199D01*
X145293422Y-108786036D01*
X145293426Y-108786035D01*
X145297468Y-108785231D01*
X145500237Y-108716403D01*
X145503928Y-108714583D01*
X145688589Y-108623521D01*
X145688594Y-108623518D01*
X145692287Y-108621697D01*
X145870332Y-108502734D01*
X145959141Y-108424853D01*
X145964988Y-108420029D01*
X145965433Y-108419684D01*
X145972255Y-108415649D01*
X145987992Y-108399912D01*
X145994009Y-108394276D01*
X145999277Y-108389656D01*
X146006702Y-108383627D01*
X146018047Y-108375109D01*
X146022582Y-108371704D01*
X146032131Y-108362354D01*
X146034675Y-108359110D01*
X146034680Y-108359104D01*
X146051352Y-108337842D01*
X146061410Y-108326494D01*
X155056882Y-99331023D01*
X155070324Y-99319358D01*
X155085509Y-99307957D01*
X155085511Y-99307955D01*
X155088805Y-99305482D01*
X155098354Y-99296131D01*
X155109085Y-99282445D01*
X155113498Y-99277124D01*
X155155261Y-99229502D01*
X155238726Y-99134326D01*
X155357688Y-98956282D01*
X155452394Y-98764233D01*
X155521221Y-98561466D01*
X155549001Y-98421796D01*
X155562189Y-98355493D01*
X155562190Y-98355488D01*
X155562993Y-98351449D01*
X155563655Y-98341354D01*
X155570695Y-98233916D01*
X155571419Y-98226362D01*
X155571529Y-98225491D01*
X155573500Y-98217816D01*
X155573500Y-98195231D01*
X155573770Y-98186992D01*
X155574190Y-98180583D01*
X155575177Y-98171070D01*
X155577432Y-98155226D01*
X155577432Y-98155221D01*
X155578013Y-98151141D01*
X155578153Y-98137777D01*
X155574413Y-98106875D01*
X155573500Y-98091736D01*
X155573500Y-97730524D01*
X155593502Y-97662403D01*
X155605858Y-97646221D01*
X155679040Y-97564944D01*
X155757816Y-97428500D01*
X155771223Y-97405279D01*
X155771224Y-97405278D01*
X155774527Y-97399556D01*
X155833542Y-97217928D01*
X155835138Y-97202749D01*
X155852814Y-97034565D01*
X155853504Y-97028000D01*
X155843331Y-96931206D01*
X155834232Y-96844635D01*
X155834232Y-96844633D01*
X155833542Y-96838072D01*
X155774527Y-96656444D01*
X155679040Y-96491056D01*
X155662158Y-96472306D01*
X155555675Y-96354045D01*
X155555674Y-96354044D01*
X155551253Y-96349134D01*
X155436829Y-96266000D01*
X155402094Y-96240763D01*
X155402093Y-96240762D01*
X155396752Y-96236882D01*
X155390724Y-96234198D01*
X155390722Y-96234197D01*
X155228319Y-96161891D01*
X155228318Y-96161891D01*
X155222288Y-96159206D01*
X155113494Y-96136081D01*
X155041944Y-96120872D01*
X155041939Y-96120872D01*
X155035487Y-96119500D01*
X154844513Y-96119500D01*
X154838061Y-96120872D01*
X154838056Y-96120872D01*
X154766506Y-96136081D01*
X154657712Y-96159206D01*
X154651682Y-96161891D01*
X154651681Y-96161891D01*
X154489278Y-96234197D01*
X154489276Y-96234198D01*
X154483248Y-96236882D01*
X154477907Y-96240762D01*
X154477906Y-96240763D01*
X154443171Y-96266000D01*
X154328747Y-96349134D01*
X154324326Y-96354044D01*
X154324325Y-96354045D01*
X154217843Y-96472306D01*
X154200960Y-96491056D01*
X154105473Y-96656444D01*
X154046458Y-96838072D01*
X154045768Y-96844633D01*
X154045768Y-96844635D01*
X154036669Y-96931206D01*
X154026496Y-97028000D01*
X154027186Y-97034565D01*
X154044863Y-97202749D01*
X154046458Y-97217928D01*
X154105473Y-97399556D01*
X154108776Y-97405278D01*
X154108777Y-97405279D01*
X154122184Y-97428500D01*
X154200960Y-97564944D01*
X154274137Y-97646215D01*
X154304853Y-97710221D01*
X154306500Y-97730524D01*
X154306500Y-98087776D01*
X154305422Y-98104221D01*
X154302873Y-98123580D01*
X154302873Y-98123584D01*
X154301882Y-98131112D01*
X154302715Y-98138661D01*
X154302636Y-98146258D01*
X154302632Y-98146258D01*
X154302395Y-98168900D01*
X154299471Y-98191112D01*
X154296168Y-98216203D01*
X154287655Y-98247974D01*
X154263738Y-98305717D01*
X154247293Y-98334202D01*
X154238394Y-98345800D01*
X154220887Y-98368615D01*
X154209087Y-98381930D01*
X154206635Y-98384331D01*
X154200611Y-98388954D01*
X154195865Y-98394878D01*
X154195864Y-98394879D01*
X154178631Y-98416390D01*
X154169391Y-98426705D01*
X147103595Y-105492500D01*
X147041283Y-105526526D01*
X146970468Y-105521461D01*
X146913632Y-105478914D01*
X146888821Y-105412394D01*
X146888500Y-105403405D01*
X146888500Y-104655600D01*
X146885302Y-104624774D01*
X146878238Y-104556692D01*
X146878237Y-104556688D01*
X146877526Y-104549834D01*
X146868106Y-104521597D01*
X146823868Y-104389002D01*
X146821550Y-104382054D01*
X146728478Y-104231652D01*
X146723296Y-104226479D01*
X146718749Y-104220742D01*
X146720551Y-104219314D01*
X146691809Y-104166774D01*
X146696819Y-104095955D01*
X146720542Y-104058976D01*
X146719596Y-104058229D01*
X146724134Y-104052483D01*
X146729305Y-104047303D01*
X146763938Y-103991118D01*
X146818275Y-103902968D01*
X146818276Y-103902966D01*
X146822115Y-103896738D01*
X146873264Y-103742527D01*
X146875632Y-103735389D01*
X146875632Y-103735387D01*
X146877797Y-103728861D01*
X146878602Y-103721010D01*
X146888172Y-103627598D01*
X146888500Y-103624400D01*
X146888500Y-102623600D01*
X146883500Y-102575409D01*
X146878238Y-102524692D01*
X146878237Y-102524688D01*
X146877526Y-102517834D01*
X146842472Y-102412763D01*
X146823868Y-102357002D01*
X146821550Y-102350054D01*
X146728478Y-102199652D01*
X146603303Y-102074695D01*
X146549839Y-102041739D01*
X146473384Y-101994611D01*
X146425890Y-101941838D01*
X146413500Y-101887351D01*
X146413500Y-96464218D01*
X146414757Y-96446463D01*
X146417432Y-96427667D01*
X146418013Y-96423587D01*
X146418153Y-96410223D01*
X146417316Y-96403306D01*
X146416064Y-96392953D01*
X146415422Y-96386059D01*
X146403273Y-96200666D01*
X146403272Y-96200662D01*
X146403003Y-96196550D01*
X146400282Y-96182866D01*
X146362036Y-95990578D01*
X146362035Y-95990574D01*
X146361231Y-95986532D01*
X146292403Y-95783763D01*
X146289797Y-95778478D01*
X146199521Y-95595411D01*
X146199518Y-95595406D01*
X146197697Y-95591713D01*
X146078734Y-95413668D01*
X146032785Y-95361271D01*
X146000853Y-95324859D01*
X145996029Y-95319012D01*
X145995684Y-95318567D01*
X145991649Y-95311745D01*
X145975912Y-95296008D01*
X145970276Y-95289991D01*
X145965656Y-95284723D01*
X145959627Y-95277298D01*
X145947704Y-95261418D01*
X145938354Y-95251869D01*
X145935110Y-95249325D01*
X145935104Y-95249320D01*
X145913842Y-95232648D01*
X145902494Y-95222590D01*
X136728867Y-86048962D01*
X136694841Y-85986650D01*
X136699906Y-85915835D01*
X136742453Y-85858999D01*
X136808973Y-85834188D01*
X136817962Y-85833867D01*
X136909385Y-85833867D01*
X136924624Y-85829392D01*
X136925829Y-85828002D01*
X136927500Y-85820319D01*
X136927500Y-85815751D01*
X137435500Y-85815751D01*
X137439975Y-85830990D01*
X137441365Y-85832195D01*
X137449048Y-85833866D01*
X137566095Y-85833866D01*
X137572614Y-85833529D01*
X137668206Y-85823610D01*
X137681600Y-85820718D01*
X137835784Y-85769279D01*
X137848962Y-85763106D01*
X137986807Y-85677804D01*
X137998208Y-85668768D01*
X138112739Y-85554038D01*
X138121751Y-85542627D01*
X138206816Y-85404624D01*
X138212963Y-85391443D01*
X138264138Y-85237157D01*
X138267005Y-85223781D01*
X138276672Y-85129429D01*
X138277000Y-85123013D01*
X138277000Y-84872982D01*
X138272525Y-84857743D01*
X138271135Y-84856538D01*
X138263452Y-84854867D01*
X137453615Y-84854867D01*
X137438376Y-84859342D01*
X137437171Y-84860732D01*
X137435500Y-84868415D01*
X137435500Y-85815751D01*
X136927500Y-85815751D01*
X136927500Y-84328752D01*
X137435500Y-84328752D01*
X137439975Y-84343991D01*
X137441365Y-84345196D01*
X137449048Y-84346867D01*
X138258884Y-84346867D01*
X138274123Y-84342392D01*
X138275328Y-84341002D01*
X138276999Y-84333319D01*
X138276999Y-84078772D01*
X138276662Y-84072253D01*
X138266743Y-83976661D01*
X138263851Y-83963267D01*
X138212412Y-83809083D01*
X138206239Y-83795905D01*
X138117083Y-83651832D01*
X138119714Y-83650204D01*
X138098304Y-83597285D01*
X138111485Y-83527523D01*
X138118208Y-83517042D01*
X138117910Y-83516858D01*
X138206816Y-83372624D01*
X138212963Y-83359443D01*
X138264138Y-83205157D01*
X138267005Y-83191781D01*
X138276672Y-83097429D01*
X138277000Y-83091013D01*
X138277000Y-82840982D01*
X138272525Y-82825743D01*
X138271135Y-82824538D01*
X138263452Y-82822867D01*
X137453615Y-82822867D01*
X137438376Y-82827342D01*
X137437171Y-82828732D01*
X137435500Y-82836415D01*
X137435500Y-84328752D01*
X136927500Y-84328752D01*
X136927500Y-82296752D01*
X137435500Y-82296752D01*
X137439975Y-82311991D01*
X137441365Y-82313196D01*
X137449048Y-82314867D01*
X138258884Y-82314867D01*
X138274123Y-82310392D01*
X138275328Y-82309002D01*
X138276999Y-82301319D01*
X138276999Y-82046772D01*
X138276662Y-82040253D01*
X138266743Y-81944661D01*
X138263851Y-81931267D01*
X138212412Y-81777083D01*
X138206239Y-81763905D01*
X138117083Y-81619832D01*
X138119714Y-81618204D01*
X138098304Y-81565285D01*
X138111485Y-81495523D01*
X138118208Y-81485042D01*
X138117910Y-81484858D01*
X138206816Y-81340624D01*
X138212963Y-81327443D01*
X138264138Y-81173157D01*
X138267005Y-81159781D01*
X138276672Y-81065429D01*
X138277000Y-81059013D01*
X138277000Y-80808982D01*
X138272525Y-80793743D01*
X138271135Y-80792538D01*
X138263452Y-80790867D01*
X137453615Y-80790867D01*
X137438376Y-80795342D01*
X137437171Y-80796732D01*
X137435500Y-80804415D01*
X137435500Y-82296752D01*
X136927500Y-82296752D01*
X136927500Y-79412982D01*
X136913161Y-79364148D01*
X136911104Y-79360947D01*
X136906000Y-79325448D01*
X136906000Y-76864115D01*
X136901525Y-76848876D01*
X136900577Y-76848054D01*
X136862194Y-76788328D01*
X136857090Y-76752830D01*
X136857090Y-76692910D01*
X136877092Y-76624789D01*
X136882264Y-76617345D01*
X136886095Y-76612233D01*
X136936705Y-76544705D01*
X136987835Y-76408316D01*
X136988629Y-76401010D01*
X137023725Y-76339576D01*
X137086680Y-76306756D01*
X137157385Y-76313182D01*
X137213392Y-76356814D01*
X137233544Y-76400940D01*
X137234345Y-76408316D01*
X137285475Y-76544705D01*
X137372829Y-76661261D01*
X137377770Y-76664964D01*
X137411121Y-76726040D01*
X137414000Y-76752823D01*
X137414000Y-79245752D01*
X137428339Y-79294586D01*
X137430396Y-79297787D01*
X137435500Y-79333286D01*
X137435500Y-80264752D01*
X137439975Y-80279991D01*
X137441365Y-80281196D01*
X137449048Y-80282867D01*
X138258884Y-80282867D01*
X138274123Y-80278392D01*
X138275328Y-80277002D01*
X138276999Y-80269319D01*
X138276999Y-80014772D01*
X138276662Y-80008253D01*
X138266743Y-79912661D01*
X138263851Y-79899267D01*
X138212412Y-79745083D01*
X138206239Y-79731905D01*
X138120937Y-79594060D01*
X138111901Y-79582659D01*
X137997171Y-79468128D01*
X137985760Y-79459116D01*
X137858704Y-79380798D01*
X137811211Y-79328026D01*
X137799787Y-79257954D01*
X137828061Y-79192831D01*
X137857812Y-79167437D01*
X137857737Y-79167332D01*
X137858938Y-79166475D01*
X137860308Y-79165306D01*
X137861947Y-79164329D01*
X138035328Y-79040659D01*
X138043200Y-79034006D01*
X138194052Y-78883679D01*
X138200730Y-78875832D01*
X138328022Y-78698686D01*
X138329279Y-78699589D01*
X138376373Y-78656229D01*
X138446311Y-78644012D01*
X138511751Y-78671545D01*
X138539579Y-78703378D01*
X138599987Y-78801955D01*
X138746250Y-78970805D01*
X138918126Y-79113499D01*
X139111000Y-79226205D01*
X139319692Y-79305897D01*
X139324760Y-79306928D01*
X139324763Y-79306929D01*
X139423519Y-79327021D01*
X139538597Y-79350434D01*
X139543772Y-79350624D01*
X139543774Y-79350624D01*
X139756673Y-79358431D01*
X139756677Y-79358431D01*
X139761837Y-79358620D01*
X139766957Y-79357964D01*
X139766959Y-79357964D01*
X139978288Y-79330892D01*
X139978289Y-79330892D01*
X139983416Y-79330235D01*
X139999372Y-79325448D01*
X140192429Y-79267528D01*
X140192434Y-79267526D01*
X140197384Y-79266041D01*
X140397994Y-79167763D01*
X140579860Y-79038040D01*
X140738096Y-78880356D01*
X140868453Y-78698944D01*
X140881995Y-78671545D01*
X140965136Y-78503320D01*
X140965137Y-78503318D01*
X140967430Y-78498678D01*
X141032370Y-78284936D01*
X141036282Y-78255226D01*
X141040513Y-78223083D01*
X141069235Y-78158156D01*
X141128500Y-78119064D01*
X141199492Y-78118219D01*
X141254530Y-78150434D01*
X144350243Y-81246148D01*
X147323783Y-84219688D01*
X147334651Y-84232080D01*
X147351159Y-84253594D01*
X147357088Y-84258344D01*
X147357090Y-84258346D01*
X147357097Y-84258352D01*
X147378273Y-84279977D01*
X147407295Y-84317799D01*
X147423739Y-84346283D01*
X147447656Y-84404027D01*
X147456168Y-84435797D01*
X147461838Y-84478872D01*
X147462909Y-84496632D01*
X147462874Y-84499988D01*
X147461882Y-84507522D01*
X147462716Y-84515074D01*
X147465739Y-84542462D01*
X147466500Y-84556287D01*
X147466500Y-91559073D01*
X147446498Y-91627194D01*
X147392842Y-91673687D01*
X147379668Y-91678213D01*
X147379684Y-91678255D01*
X147243295Y-91729385D01*
X147126739Y-91816739D01*
X147039385Y-91933295D01*
X146988255Y-92069684D01*
X146981500Y-92131866D01*
X146981500Y-95828134D01*
X146988255Y-95890316D01*
X147039385Y-96026705D01*
X147126739Y-96143261D01*
X147243295Y-96230615D01*
X147379684Y-96281745D01*
X147441866Y-96288500D01*
X150538134Y-96288500D01*
X150600316Y-96281745D01*
X150736705Y-96230615D01*
X150853261Y-96143261D01*
X150940615Y-96026705D01*
X150991745Y-95890316D01*
X150998500Y-95828134D01*
X150998500Y-92131866D01*
X150991745Y-92069684D01*
X150940615Y-91933295D01*
X150853261Y-91816739D01*
X150736705Y-91729385D01*
X150600316Y-91678255D01*
X150538134Y-91671500D01*
X148859500Y-91671500D01*
X148791379Y-91651498D01*
X148744886Y-91597842D01*
X148733500Y-91545500D01*
X148733500Y-84568218D01*
X148734757Y-84550463D01*
X148737432Y-84531667D01*
X148738013Y-84527587D01*
X148738153Y-84514223D01*
X148737657Y-84510122D01*
X148736042Y-84496769D01*
X148735400Y-84489876D01*
X148723263Y-84304667D01*
X148723262Y-84304663D01*
X148722993Y-84300551D01*
X148718765Y-84279290D01*
X148682026Y-84094580D01*
X148682025Y-84094576D01*
X148681221Y-84090534D01*
X148612394Y-83887767D01*
X148541813Y-83744640D01*
X148529623Y-83674698D01*
X148557183Y-83609269D01*
X148615741Y-83569126D01*
X148686706Y-83567015D01*
X148743914Y-83599818D01*
X148912878Y-83768782D01*
X148946904Y-83831094D01*
X148949092Y-83844703D01*
X148954520Y-83896340D01*
X148962962Y-83976661D01*
X148966458Y-84009928D01*
X149025473Y-84191556D01*
X149028776Y-84197278D01*
X149028777Y-84197279D01*
X149048870Y-84232080D01*
X149120960Y-84356944D01*
X149125378Y-84361851D01*
X149125379Y-84361852D01*
X149217978Y-84464694D01*
X149248747Y-84498866D01*
X149403248Y-84611118D01*
X149409276Y-84613802D01*
X149409278Y-84613803D01*
X149571681Y-84686109D01*
X149577712Y-84688794D01*
X149671113Y-84708647D01*
X149758056Y-84727128D01*
X149758061Y-84727128D01*
X149764513Y-84728500D01*
X149955487Y-84728500D01*
X149961939Y-84727128D01*
X149961944Y-84727128D01*
X150048887Y-84708647D01*
X150142288Y-84688794D01*
X150148319Y-84686109D01*
X150310722Y-84613803D01*
X150310724Y-84613802D01*
X150316752Y-84611118D01*
X150471253Y-84498866D01*
X150521189Y-84443407D01*
X150594619Y-84361854D01*
X150599040Y-84356944D01*
X150601525Y-84352640D01*
X150657269Y-84309658D01*
X150728005Y-84303584D01*
X150792074Y-84337979D01*
X155466503Y-89012408D01*
X155500529Y-89074720D01*
X155502718Y-89114673D01*
X155500666Y-89134198D01*
X155488495Y-89250000D01*
X155489185Y-89256565D01*
X155507620Y-89431961D01*
X155508457Y-89439928D01*
X155567472Y-89621556D01*
X155662959Y-89786944D01*
X155790746Y-89928866D01*
X155945247Y-90041118D01*
X155951275Y-90043802D01*
X155951277Y-90043803D01*
X156113680Y-90116109D01*
X156119711Y-90118794D01*
X156213111Y-90138647D01*
X156300055Y-90157128D01*
X156300060Y-90157128D01*
X156306512Y-90158500D01*
X156497486Y-90158500D01*
X156503938Y-90157128D01*
X156503943Y-90157128D01*
X156590887Y-90138647D01*
X156684287Y-90118794D01*
X156690318Y-90116109D01*
X156852721Y-90043803D01*
X156852723Y-90043802D01*
X156858751Y-90041118D01*
X157013252Y-89928866D01*
X157141039Y-89786944D01*
X157236526Y-89621556D01*
X157295541Y-89439928D01*
X157296379Y-89431961D01*
X157314813Y-89256565D01*
X157315503Y-89250000D01*
X157303332Y-89134198D01*
X157296231Y-89066635D01*
X157296231Y-89066633D01*
X157295541Y-89060072D01*
X157236526Y-88878444D01*
X157141039Y-88713056D01*
X157110415Y-88679044D01*
X157017674Y-88576045D01*
X157017673Y-88576044D01*
X157013252Y-88571134D01*
X156894157Y-88484606D01*
X156864093Y-88462763D01*
X156864092Y-88462762D01*
X156858751Y-88458882D01*
X156852723Y-88456198D01*
X156852721Y-88456197D01*
X156690318Y-88383891D01*
X156690317Y-88383891D01*
X156684287Y-88381206D01*
X156677832Y-88379834D01*
X156677829Y-88379833D01*
X156658786Y-88375786D01*
X156648182Y-88373532D01*
X156585284Y-88339380D01*
X151165087Y-82919182D01*
X151131061Y-82856870D01*
X151136126Y-82786055D01*
X151145063Y-82767087D01*
X151199223Y-82673279D01*
X151199224Y-82673278D01*
X151202527Y-82667556D01*
X151261542Y-82485928D01*
X151263138Y-82470749D01*
X151280814Y-82302565D01*
X151281504Y-82296000D01*
X151261542Y-82106072D01*
X151202527Y-81924444D01*
X151107040Y-81759056D01*
X151050742Y-81696530D01*
X150983675Y-81622045D01*
X150983674Y-81622044D01*
X150979253Y-81617134D01*
X150824752Y-81504882D01*
X150818724Y-81502198D01*
X150818722Y-81502197D01*
X150656319Y-81429891D01*
X150656318Y-81429891D01*
X150650288Y-81427206D01*
X150556888Y-81407353D01*
X150469944Y-81388872D01*
X150469939Y-81388872D01*
X150463487Y-81387500D01*
X150407594Y-81387500D01*
X150339473Y-81367498D01*
X150318499Y-81350595D01*
X148449272Y-79481367D01*
X146575023Y-77607118D01*
X146563358Y-77593676D01*
X146551957Y-77578491D01*
X146551955Y-77578489D01*
X146549482Y-77575195D01*
X146540131Y-77565646D01*
X146526445Y-77554915D01*
X146521124Y-77550502D01*
X146496038Y-77528502D01*
X146378326Y-77425274D01*
X146200282Y-77306312D01*
X146008233Y-77211606D01*
X145805466Y-77142779D01*
X145801424Y-77141975D01*
X145801420Y-77141974D01*
X145599493Y-77101811D01*
X145599488Y-77101810D01*
X145595449Y-77101007D01*
X145591337Y-77100738D01*
X145591333Y-77100737D01*
X145477916Y-77093305D01*
X145470362Y-77092581D01*
X145469491Y-77092471D01*
X145461816Y-77090500D01*
X145439231Y-77090500D01*
X145430992Y-77090230D01*
X145424583Y-77089810D01*
X145415070Y-77088823D01*
X145399226Y-77086568D01*
X145399221Y-77086568D01*
X145395141Y-77085987D01*
X145388926Y-77085922D01*
X145385911Y-77085890D01*
X145385906Y-77085890D01*
X145381777Y-77085847D01*
X145350875Y-77089587D01*
X145335736Y-77090500D01*
X145134500Y-77090500D01*
X145066379Y-77070498D01*
X145019886Y-77016842D01*
X145008500Y-76964500D01*
X145008500Y-75351866D01*
X145001745Y-75289684D01*
X144950615Y-75153295D01*
X144896211Y-75080704D01*
X144892360Y-75075565D01*
X144867512Y-75009058D01*
X144882565Y-74939676D01*
X144892360Y-74924435D01*
X144945229Y-74853892D01*
X144945230Y-74853890D01*
X144950615Y-74846705D01*
X145001745Y-74710316D01*
X145008500Y-74648134D01*
X145008500Y-72951866D01*
X145001745Y-72889684D01*
X144950615Y-72753295D01*
X144863261Y-72636739D01*
X144746705Y-72549385D01*
X144610316Y-72498255D01*
X144548134Y-72491500D01*
X141451866Y-72491500D01*
X141389684Y-72498255D01*
X141253295Y-72549385D01*
X141166231Y-72614636D01*
X141099725Y-72639484D01*
X141024549Y-72621069D01*
X141011757Y-72613184D01*
X140998576Y-72607037D01*
X140844290Y-72555862D01*
X140830914Y-72552995D01*
X140736562Y-72543328D01*
X140730145Y-72543000D01*
X140480115Y-72543000D01*
X140464876Y-72547475D01*
X140463671Y-72548865D01*
X140462000Y-72556548D01*
X140462000Y-73766500D01*
X140441998Y-73834621D01*
X140388342Y-73881114D01*
X140336000Y-73892500D01*
X140080000Y-73892500D01*
X140011879Y-73872498D01*
X139965386Y-73818842D01*
X139954000Y-73766500D01*
X139954000Y-72561116D01*
X139949525Y-72545877D01*
X139948135Y-72544672D01*
X139940452Y-72543001D01*
X139685905Y-72543001D01*
X139679386Y-72543338D01*
X139583794Y-72553257D01*
X139570400Y-72556149D01*
X139416216Y-72607588D01*
X139403038Y-72613761D01*
X139265193Y-72699063D01*
X139253792Y-72708099D01*
X139139261Y-72822829D01*
X139130247Y-72834243D01*
X139127849Y-72838133D01*
X139075077Y-72885626D01*
X139005005Y-72897048D01*
X138939882Y-72868774D01*
X138900382Y-72809780D01*
X138894590Y-72772016D01*
X138894590Y-71989866D01*
X138887835Y-71927684D01*
X138836705Y-71791295D01*
X138749351Y-71674739D01*
X138632795Y-71587385D01*
X138496406Y-71536255D01*
X138434224Y-71529500D01*
X137687956Y-71529500D01*
X137625774Y-71536255D01*
X137489385Y-71587385D01*
X137372829Y-71674739D01*
X137285475Y-71791295D01*
X137234345Y-71927684D01*
X137233551Y-71934990D01*
X137198455Y-71996424D01*
X137135500Y-72029244D01*
X137064795Y-72022818D01*
X137008788Y-71979186D01*
X136988636Y-71935060D01*
X136987835Y-71927684D01*
X136936705Y-71791295D01*
X136849351Y-71674739D01*
X136732795Y-71587385D01*
X136596406Y-71536255D01*
X136534224Y-71529500D01*
X135787956Y-71529500D01*
X135725774Y-71536255D01*
X135589385Y-71587385D01*
X135472829Y-71674739D01*
X135385475Y-71791295D01*
X135334345Y-71927684D01*
X135327590Y-71989866D01*
X135327590Y-72664700D01*
X135307588Y-72732821D01*
X135253932Y-72779314D01*
X135183658Y-72789418D01*
X135119078Y-72759924D01*
X135112572Y-72753873D01*
X135065483Y-72706866D01*
X135060303Y-72701695D01*
X135054072Y-72697854D01*
X134915968Y-72612725D01*
X134915966Y-72612724D01*
X134909738Y-72608885D01*
X134829995Y-72582436D01*
X134748389Y-72555368D01*
X134748387Y-72555368D01*
X134741861Y-72553203D01*
X134735025Y-72552503D01*
X134735022Y-72552502D01*
X134691969Y-72548091D01*
X134637400Y-72542500D01*
X133586600Y-72542500D01*
X133583354Y-72542837D01*
X133583350Y-72542837D01*
X133487692Y-72552762D01*
X133487688Y-72552763D01*
X133480834Y-72553474D01*
X133474298Y-72555655D01*
X133474296Y-72555655D01*
X133457928Y-72561116D01*
X133313054Y-72609450D01*
X133162652Y-72702522D01*
X133037695Y-72827697D01*
X133033855Y-72833927D01*
X133033854Y-72833928D01*
X132959050Y-72955283D01*
X132944885Y-72978262D01*
X132889203Y-73146139D01*
X132878500Y-73250600D01*
X132878500Y-73923905D01*
X132858498Y-73992026D01*
X132841595Y-74013000D01*
X132683118Y-74171477D01*
X132669677Y-74183141D01*
X132651195Y-74197018D01*
X132641646Y-74206369D01*
X132630915Y-74220055D01*
X132626508Y-74225369D01*
X132501274Y-74368174D01*
X132382312Y-74546218D01*
X132287606Y-74738267D01*
X132218779Y-74941034D01*
X132217975Y-74945076D01*
X132217974Y-74945080D01*
X132184467Y-75113546D01*
X132177007Y-75151051D01*
X132176738Y-75155163D01*
X132176737Y-75155167D01*
X132169305Y-75268584D01*
X132168581Y-75276138D01*
X132168471Y-75277009D01*
X132166500Y-75284684D01*
X132166500Y-75307269D01*
X132166230Y-75315508D01*
X132165810Y-75321917D01*
X132164823Y-75331430D01*
X132161987Y-75351359D01*
X132161847Y-75364723D01*
X132162344Y-75368828D01*
X132165587Y-75395625D01*
X132166500Y-75410764D01*
X132166500Y-75931782D01*
X132165243Y-75949537D01*
X132161987Y-75972413D01*
X132161847Y-75985777D01*
X132162343Y-75989875D01*
X132162343Y-75989878D01*
X132163958Y-76003231D01*
X132164600Y-76010124D01*
X132177007Y-76199449D01*
X132177810Y-76203488D01*
X132177811Y-76203493D01*
X132211913Y-76374946D01*
X132218779Y-76409466D01*
X132287606Y-76612233D01*
X132382312Y-76804282D01*
X132501274Y-76982326D01*
X132503991Y-76985424D01*
X132503997Y-76985432D01*
X132579053Y-77071019D01*
X132583879Y-77076868D01*
X132584315Y-77077431D01*
X132588351Y-77084255D01*
X132604195Y-77100099D01*
X132609831Y-77106115D01*
X132614266Y-77111172D01*
X132620291Y-77118593D01*
X132632296Y-77134582D01*
X132641646Y-77144131D01*
X132644890Y-77146675D01*
X132644896Y-77146680D01*
X132666158Y-77163352D01*
X132677506Y-77173410D01*
X133224595Y-77720499D01*
X133258621Y-77782811D01*
X133261500Y-77809594D01*
X133261500Y-78895001D01*
X133268255Y-78957183D01*
X133319385Y-79093572D01*
X133406739Y-79210128D01*
X133523295Y-79297482D01*
X133659684Y-79348612D01*
X133721866Y-79355367D01*
X133860500Y-79355367D01*
X133928621Y-79375369D01*
X133975114Y-79429025D01*
X133986500Y-79481367D01*
X133986500Y-79582143D01*
X133985242Y-79599902D01*
X133981988Y-79622759D01*
X133981847Y-79636123D01*
X133984005Y-79653964D01*
X133984647Y-79660854D01*
X133997023Y-79849795D01*
X133997826Y-79853830D01*
X133997826Y-79853834D01*
X134013155Y-79930915D01*
X134014919Y-79968333D01*
X134013648Y-79980744D01*
X134010500Y-80011467D01*
X134010500Y-81062267D01*
X134010837Y-81065513D01*
X134010837Y-81065517D01*
X134020618Y-81159781D01*
X134021474Y-81168033D01*
X134077450Y-81335813D01*
X134155904Y-81462592D01*
X134170522Y-81486215D01*
X134167788Y-81487907D01*
X134189049Y-81540405D01*
X134175893Y-81610172D01*
X134169362Y-81620359D01*
X134169695Y-81620564D01*
X134161279Y-81634218D01*
X134076885Y-81771129D01*
X134021203Y-81939006D01*
X134020503Y-81945842D01*
X134020502Y-81945845D01*
X134017215Y-81977928D01*
X134010500Y-82043467D01*
X134010500Y-83094267D01*
X134010837Y-83097513D01*
X134010837Y-83097517D01*
X134020618Y-83191781D01*
X134021474Y-83200033D01*
X134077450Y-83367813D01*
X134112118Y-83423835D01*
X134170522Y-83518215D01*
X134167788Y-83519907D01*
X134189049Y-83572405D01*
X134175893Y-83642172D01*
X134169362Y-83652359D01*
X134169695Y-83652564D01*
X134076885Y-83803129D01*
X134066467Y-83834539D01*
X134025893Y-83956867D01*
X134021203Y-83971006D01*
X134020503Y-83977842D01*
X134020502Y-83977845D01*
X134017215Y-84009928D01*
X134010500Y-84075467D01*
X134010500Y-85126267D01*
X134010837Y-85129513D01*
X134010837Y-85129517D01*
X134020618Y-85223781D01*
X134021474Y-85232033D01*
X134077450Y-85399813D01*
X134170522Y-85550215D01*
X134295697Y-85675172D01*
X134301927Y-85679012D01*
X134301928Y-85679013D01*
X134438352Y-85763106D01*
X134446262Y-85767982D01*
X134526005Y-85794431D01*
X134607611Y-85821499D01*
X134607613Y-85821499D01*
X134614139Y-85823664D01*
X134620977Y-85824365D01*
X134620979Y-85824365D01*
X134649576Y-85827295D01*
X134704794Y-85832952D01*
X134770520Y-85859793D01*
X134796718Y-85888297D01*
X134807766Y-85904832D01*
X134810488Y-85907936D01*
X134885647Y-85993641D01*
X134890471Y-85999488D01*
X134890816Y-85999933D01*
X134894851Y-86006755D01*
X134910588Y-86022492D01*
X134916224Y-86028509D01*
X134920844Y-86033777D01*
X134926872Y-86041201D01*
X134938796Y-86057082D01*
X134948146Y-86066631D01*
X134951390Y-86069175D01*
X134951396Y-86069180D01*
X134972658Y-86085852D01*
X134984006Y-86095910D01*
X136949240Y-88061144D01*
X136983266Y-88123456D01*
X136978201Y-88194271D01*
X136935654Y-88251107D01*
X136868388Y-88275969D01*
X136865220Y-88276177D01*
X136852551Y-88277007D01*
X136848512Y-88277810D01*
X136848507Y-88277811D01*
X136646580Y-88317974D01*
X136646576Y-88317975D01*
X136642534Y-88318779D01*
X136439767Y-88387606D01*
X136247718Y-88482312D01*
X136069674Y-88601274D01*
X136066576Y-88603991D01*
X136066568Y-88603997D01*
X135980991Y-88679044D01*
X135975144Y-88683869D01*
X135974570Y-88684314D01*
X135967744Y-88688351D01*
X135951885Y-88704210D01*
X135945877Y-88709839D01*
X135940825Y-88714269D01*
X135933407Y-88720291D01*
X135920720Y-88729816D01*
X135920713Y-88729822D01*
X135917418Y-88732296D01*
X135907869Y-88741646D01*
X135888649Y-88766158D01*
X135878597Y-88777498D01*
X135751747Y-88904348D01*
X135743461Y-88911888D01*
X135736982Y-88916000D01*
X135731557Y-88921777D01*
X135690357Y-88965651D01*
X135687602Y-88968493D01*
X135667865Y-88988230D01*
X135665385Y-88991427D01*
X135657682Y-89000447D01*
X135627414Y-89032679D01*
X135623595Y-89039625D01*
X135623593Y-89039628D01*
X135617652Y-89050434D01*
X135606801Y-89066953D01*
X135594386Y-89082959D01*
X135591241Y-89090228D01*
X135591238Y-89090232D01*
X135576826Y-89123537D01*
X135571609Y-89134187D01*
X135550305Y-89172940D01*
X135548334Y-89180615D01*
X135548334Y-89180616D01*
X135545267Y-89192562D01*
X135538863Y-89211266D01*
X135530819Y-89229855D01*
X135529580Y-89237678D01*
X135529577Y-89237688D01*
X135523901Y-89273524D01*
X135521495Y-89285144D01*
X135510500Y-89327970D01*
X135510500Y-89348224D01*
X135508949Y-89367934D01*
X135505780Y-89387943D01*
X135509872Y-89431226D01*
X135509941Y-89431961D01*
X135510500Y-89443819D01*
X135510500Y-99035624D01*
X135490498Y-99103745D01*
X135436842Y-99150238D01*
X135366568Y-99160342D01*
X135301988Y-99130848D01*
X135290875Y-99119945D01*
X135247175Y-99071412D01*
X135241830Y-99067529D01*
X135236924Y-99063111D01*
X135237866Y-99062065D01*
X135196702Y-99006182D01*
X135148340Y-98863695D01*
X135141928Y-98850690D01*
X135090011Y-98745405D01*
X135053639Y-98671642D01*
X134934681Y-98493593D01*
X134856556Y-98404501D01*
X134851745Y-98398670D01*
X134851610Y-98398496D01*
X134847571Y-98391667D01*
X134832057Y-98376153D01*
X134826415Y-98370130D01*
X134821430Y-98364445D01*
X134815405Y-98357023D01*
X134806119Y-98344655D01*
X134806113Y-98344648D01*
X134803640Y-98341354D01*
X134800764Y-98338417D01*
X134800759Y-98338411D01*
X134797171Y-98334747D01*
X134797168Y-98334745D01*
X134794290Y-98331805D01*
X134791046Y-98329261D01*
X134769768Y-98312575D01*
X134758423Y-98302519D01*
X133535122Y-97079217D01*
X133501096Y-97016905D01*
X133498907Y-97003292D01*
X133482232Y-96844635D01*
X133482232Y-96844633D01*
X133481542Y-96838072D01*
X133422527Y-96656444D01*
X133327040Y-96491056D01*
X133310158Y-96472306D01*
X133200312Y-96350310D01*
X133169594Y-96286303D01*
X133178359Y-96215849D01*
X133200312Y-96181690D01*
X133322621Y-96045852D01*
X133322622Y-96045851D01*
X133327040Y-96040944D01*
X133406608Y-95903128D01*
X133419223Y-95881279D01*
X133419224Y-95881278D01*
X133422527Y-95875556D01*
X133481542Y-95693928D01*
X133483138Y-95678749D01*
X133500814Y-95510565D01*
X133501504Y-95504000D01*
X133499348Y-95483490D01*
X133482232Y-95320635D01*
X133482232Y-95320633D01*
X133481542Y-95314072D01*
X133422527Y-95132444D01*
X133409842Y-95110472D01*
X133343751Y-94996000D01*
X133327040Y-94967056D01*
X133253863Y-94885785D01*
X133223147Y-94821779D01*
X133221500Y-94801476D01*
X133221500Y-88224534D01*
X133222757Y-88206778D01*
X133225433Y-88187980D01*
X133225433Y-88187975D01*
X133226013Y-88183903D01*
X133226153Y-88170539D01*
X133224027Y-88152966D01*
X133223385Y-88146071D01*
X133211258Y-87960984D01*
X133211258Y-87960980D01*
X133210988Y-87956867D01*
X133169218Y-87746851D01*
X133100393Y-87544083D01*
X133005689Y-87352033D01*
X132886728Y-87173988D01*
X132884011Y-87170889D01*
X132884005Y-87170882D01*
X132808963Y-87085311D01*
X132804138Y-87079464D01*
X132803686Y-87078881D01*
X132799649Y-87072055D01*
X132783793Y-87056199D01*
X132778160Y-87050186D01*
X132773741Y-87045147D01*
X132767728Y-87037741D01*
X132755708Y-87021731D01*
X132746357Y-87012182D01*
X132721843Y-86992960D01*
X132710496Y-86982902D01*
X127424125Y-81696530D01*
X127390099Y-81634218D01*
X127387910Y-81620604D01*
X127386232Y-81604636D01*
X127386232Y-81604635D01*
X127385542Y-81598072D01*
X127326527Y-81416444D01*
X127231040Y-81251056D01*
X127132459Y-81141570D01*
X127107675Y-81114045D01*
X127107674Y-81114044D01*
X127103253Y-81109134D01*
X126948752Y-80996882D01*
X126942724Y-80994198D01*
X126942722Y-80994197D01*
X126780319Y-80921891D01*
X126780318Y-80921891D01*
X126774288Y-80919206D01*
X126680888Y-80899353D01*
X126593944Y-80880872D01*
X126593939Y-80880872D01*
X126587487Y-80879500D01*
X126396513Y-80879500D01*
X126390061Y-80880872D01*
X126390056Y-80880872D01*
X126303112Y-80899353D01*
X126209712Y-80919206D01*
X126203682Y-80921891D01*
X126203681Y-80921891D01*
X126041278Y-80994197D01*
X126041276Y-80994198D01*
X126035248Y-80996882D01*
X125880747Y-81109134D01*
X125876326Y-81114044D01*
X125876325Y-81114045D01*
X125851542Y-81141570D01*
X125752960Y-81251056D01*
X125657473Y-81416444D01*
X125598458Y-81598072D01*
X125597768Y-81604633D01*
X125597768Y-81604635D01*
X125591426Y-81664979D01*
X125578496Y-81788000D01*
X125579186Y-81794565D01*
X125594962Y-81944661D01*
X125598458Y-81977928D01*
X125657473Y-82159556D01*
X125752960Y-82324944D01*
X125880747Y-82466866D01*
X125924223Y-82498453D01*
X126014278Y-82563882D01*
X126035248Y-82579118D01*
X126041276Y-82581802D01*
X126041278Y-82581803D01*
X126203681Y-82654109D01*
X126209712Y-82656794D01*
X126303112Y-82676647D01*
X126390056Y-82695128D01*
X126390061Y-82695128D01*
X126396513Y-82696500D01*
X126580096Y-82696500D01*
X126648217Y-82716502D01*
X126669191Y-82733405D01*
X131811778Y-87875992D01*
X131822647Y-87888385D01*
X131839156Y-87909901D01*
X131845082Y-87914649D01*
X131845084Y-87914651D01*
X131845089Y-87914655D01*
X131866271Y-87936287D01*
X131895289Y-87974106D01*
X131911734Y-88002590D01*
X131924929Y-88034445D01*
X131935650Y-88060330D01*
X131944162Y-88092102D01*
X131947104Y-88114448D01*
X131949838Y-88135221D01*
X131950909Y-88152989D01*
X131950874Y-88156290D01*
X131949882Y-88163826D01*
X131950716Y-88171380D01*
X131953739Y-88198768D01*
X131954500Y-88212592D01*
X131954500Y-94801476D01*
X131934498Y-94869597D01*
X131922142Y-94885779D01*
X131848960Y-94967056D01*
X131832249Y-94996000D01*
X131766159Y-95110472D01*
X131753473Y-95132444D01*
X131694458Y-95314072D01*
X131693768Y-95320633D01*
X131693768Y-95320635D01*
X131676652Y-95483490D01*
X131646076Y-95553394D01*
X131564274Y-95646674D01*
X131445312Y-95824718D01*
X131350606Y-96016767D01*
X131281779Y-96219534D01*
X131280975Y-96223576D01*
X131280974Y-96223580D01*
X131243031Y-96414349D01*
X131240007Y-96429551D01*
X131239738Y-96433663D01*
X131239737Y-96433667D01*
X131232305Y-96547084D01*
X131231581Y-96554638D01*
X131231471Y-96555509D01*
X131229500Y-96563184D01*
X131229500Y-96585769D01*
X131229230Y-96594008D01*
X131228810Y-96600417D01*
X131227823Y-96609930D01*
X131224987Y-96629859D01*
X131224847Y-96643223D01*
X131226447Y-96656444D01*
X131228587Y-96674125D01*
X131229500Y-96689264D01*
X131229500Y-99898782D01*
X131228243Y-99916537D01*
X131224987Y-99939413D01*
X131224847Y-99952777D01*
X131225343Y-99956875D01*
X131225343Y-99956878D01*
X131226958Y-99970231D01*
X131227600Y-99977124D01*
X131237083Y-100121834D01*
X131240007Y-100166449D01*
X131240810Y-100170488D01*
X131240811Y-100170493D01*
X131275467Y-100344733D01*
X131281779Y-100376466D01*
X131350606Y-100579233D01*
X131352434Y-100582939D01*
X131352434Y-100582940D01*
X131402235Y-100683929D01*
X131445312Y-100771282D01*
X131564274Y-100949326D01*
X131566991Y-100952424D01*
X131566997Y-100952432D01*
X131642053Y-101038019D01*
X131646871Y-101043857D01*
X131647313Y-101044427D01*
X131651351Y-101051255D01*
X131652133Y-101052037D01*
X131676724Y-101113201D01*
X131687076Y-101211688D01*
X131692455Y-101262866D01*
X131694458Y-101281928D01*
X131753473Y-101463556D01*
X131756776Y-101469278D01*
X131756777Y-101469279D01*
X131767907Y-101488556D01*
X131848960Y-101628944D01*
X131853378Y-101633851D01*
X131853379Y-101633852D01*
X131940600Y-101730721D01*
X131976747Y-101770866D01*
X132048894Y-101823284D01*
X132106870Y-101865406D01*
X132131248Y-101883118D01*
X132137276Y-101885802D01*
X132137278Y-101885803D01*
X132293462Y-101955340D01*
X132305712Y-101960794D01*
X132399113Y-101980647D01*
X132486056Y-101999128D01*
X132486061Y-101999128D01*
X132492513Y-102000500D01*
X132683487Y-102000500D01*
X132689939Y-101999128D01*
X132689944Y-101999128D01*
X132776887Y-101980647D01*
X132870288Y-101960794D01*
X132882538Y-101955340D01*
X133038722Y-101885803D01*
X133038724Y-101885802D01*
X133044752Y-101883118D01*
X133069131Y-101865406D01*
X133127106Y-101823284D01*
X133199253Y-101770866D01*
X133235400Y-101730721D01*
X133322621Y-101633852D01*
X133322622Y-101633851D01*
X133327040Y-101628944D01*
X133408093Y-101488556D01*
X133419223Y-101469279D01*
X133419224Y-101469278D01*
X133422527Y-101463556D01*
X133481542Y-101281928D01*
X133483546Y-101262866D01*
X133500814Y-101098565D01*
X133501504Y-101092000D01*
X133491149Y-100993479D01*
X133482232Y-100908635D01*
X133482232Y-100908633D01*
X133481542Y-100902072D01*
X133422527Y-100720444D01*
X133327040Y-100555056D01*
X133314741Y-100541396D01*
X133203675Y-100418045D01*
X133203674Y-100418044D01*
X133199253Y-100413134D01*
X133100157Y-100341136D01*
X133050094Y-100304763D01*
X133050093Y-100304762D01*
X133044752Y-100300882D01*
X133038724Y-100298198D01*
X133038722Y-100298197D01*
X132876319Y-100225891D01*
X132876318Y-100225891D01*
X132870288Y-100223206D01*
X132776888Y-100203353D01*
X132689944Y-100184872D01*
X132689939Y-100184872D01*
X132683487Y-100183500D01*
X132649458Y-100183500D01*
X132581337Y-100163498D01*
X132533048Y-100105716D01*
X132515344Y-100062973D01*
X132506832Y-100031203D01*
X132502536Y-99998571D01*
X132501162Y-99988128D01*
X132500091Y-99970368D01*
X132500126Y-99967012D01*
X132501118Y-99959478D01*
X132497261Y-99924538D01*
X132496500Y-99910713D01*
X132496500Y-98136594D01*
X132516502Y-98068473D01*
X132570158Y-98021980D01*
X132640432Y-98011876D01*
X132705012Y-98041370D01*
X132711594Y-98047498D01*
X133330204Y-98666109D01*
X133821396Y-99157301D01*
X133855422Y-99219613D01*
X133850357Y-99290429D01*
X133841420Y-99309396D01*
X133804699Y-99372999D01*
X133801395Y-99378722D01*
X133742380Y-99560350D01*
X133741690Y-99566911D01*
X133741690Y-99566913D01*
X133729509Y-99682807D01*
X133722418Y-99750278D01*
X133723108Y-99756843D01*
X133740009Y-99917644D01*
X133742380Y-99940206D01*
X133801395Y-100121834D01*
X133804698Y-100127556D01*
X133804699Y-100127557D01*
X133829488Y-100170493D01*
X133896882Y-100287222D01*
X133901300Y-100292129D01*
X133901301Y-100292130D01*
X134012643Y-100415788D01*
X134024669Y-100429144D01*
X134065941Y-100459130D01*
X134156456Y-100524893D01*
X134179170Y-100541396D01*
X134185198Y-100544080D01*
X134185200Y-100544081D01*
X134347603Y-100616387D01*
X134353634Y-100619072D01*
X134422731Y-100633759D01*
X134533978Y-100657406D01*
X134533983Y-100657406D01*
X134540435Y-100658778D01*
X134731409Y-100658778D01*
X134737861Y-100657406D01*
X134737866Y-100657406D01*
X134849113Y-100633759D01*
X134918210Y-100619072D01*
X134924241Y-100616387D01*
X135086644Y-100544081D01*
X135086646Y-100544080D01*
X135092674Y-100541396D01*
X135115389Y-100524893D01*
X135205903Y-100459130D01*
X135247175Y-100429144D01*
X135290866Y-100380620D01*
X135351309Y-100343382D01*
X135422293Y-100344733D01*
X135481278Y-100384247D01*
X135509536Y-100449377D01*
X135510500Y-100464932D01*
X135510500Y-102015287D01*
X135490498Y-102083408D01*
X135436842Y-102129901D01*
X135366568Y-102140005D01*
X135340272Y-102133270D01*
X135327605Y-102128521D01*
X135312351Y-102124895D01*
X135261486Y-102119369D01*
X135254672Y-102119000D01*
X134707115Y-102119000D01*
X134691876Y-102123475D01*
X134690671Y-102124865D01*
X134689000Y-102132548D01*
X134689000Y-103105000D01*
X134668998Y-103173121D01*
X134615342Y-103219614D01*
X134563000Y-103231000D01*
X133170116Y-103231000D01*
X133154877Y-103235475D01*
X133153672Y-103236865D01*
X133152001Y-103244548D01*
X133152001Y-103371669D01*
X133152371Y-103378490D01*
X133157895Y-103429352D01*
X133161521Y-103444604D01*
X133207427Y-103567058D01*
X133212610Y-103637866D01*
X133207427Y-103655518D01*
X133180795Y-103726557D01*
X133138153Y-103783322D01*
X133071591Y-103808021D01*
X133002242Y-103792813D01*
X132952124Y-103742527D01*
X132944831Y-103726556D01*
X132925768Y-103675705D01*
X132925767Y-103675703D01*
X132922615Y-103667295D01*
X132835261Y-103550739D01*
X132718705Y-103463385D01*
X132582316Y-103412255D01*
X132520134Y-103405500D01*
X130623866Y-103405500D01*
X130561684Y-103412255D01*
X130425295Y-103463385D01*
X130308739Y-103550739D01*
X130221385Y-103667295D01*
X130170255Y-103803684D01*
X130163500Y-103865866D01*
X130163500Y-104962134D01*
X130170255Y-105024316D01*
X130221385Y-105160705D01*
X130308739Y-105277261D01*
X130425295Y-105364615D01*
X130561684Y-105415745D01*
X130623866Y-105422500D01*
X131632406Y-105422500D01*
X131700527Y-105442502D01*
X131721501Y-105459405D01*
X131895974Y-105633878D01*
X131907639Y-105647320D01*
X131916897Y-105659650D01*
X131921518Y-105665805D01*
X131930869Y-105675354D01*
X131934115Y-105677899D01*
X131934126Y-105677909D01*
X131937237Y-105680348D01*
X131978501Y-105738122D01*
X131981979Y-105809033D01*
X131946567Y-105870568D01*
X131883509Y-105903189D01*
X131859489Y-105905500D01*
X130623866Y-105905500D01*
X130561684Y-105912255D01*
X130425295Y-105963385D01*
X130308739Y-106050739D01*
X130221385Y-106167295D01*
X130170255Y-106303684D01*
X130163500Y-106365866D01*
X130163500Y-106611406D01*
X130143498Y-106679527D01*
X130089842Y-106726020D01*
X130019568Y-106736124D01*
X129954988Y-106706630D01*
X129948405Y-106700501D01*
X129289696Y-106041791D01*
X128455122Y-105207217D01*
X128421096Y-105144905D01*
X128418907Y-105131292D01*
X128402232Y-104972635D01*
X128402232Y-104972633D01*
X128401542Y-104966072D01*
X128342527Y-104784444D01*
X128247040Y-104619056D01*
X128173863Y-104537785D01*
X128143147Y-104473779D01*
X128141500Y-104453476D01*
X128141500Y-102704885D01*
X133152000Y-102704885D01*
X133156475Y-102720124D01*
X133157865Y-102721329D01*
X133165548Y-102723000D01*
X134162885Y-102723000D01*
X134178124Y-102718525D01*
X134179329Y-102717135D01*
X134181000Y-102709452D01*
X134181000Y-102137116D01*
X134176525Y-102121877D01*
X134175135Y-102120672D01*
X134167452Y-102119001D01*
X133615331Y-102119001D01*
X133608510Y-102119371D01*
X133557648Y-102124895D01*
X133542396Y-102128521D01*
X133421946Y-102173676D01*
X133406351Y-102182214D01*
X133304276Y-102258715D01*
X133291715Y-102271276D01*
X133215214Y-102373351D01*
X133206676Y-102388946D01*
X133161522Y-102509394D01*
X133157895Y-102524649D01*
X133152369Y-102575514D01*
X133152000Y-102582328D01*
X133152000Y-102704885D01*
X128141500Y-102704885D01*
X128141500Y-101560218D01*
X128142757Y-101542463D01*
X128145432Y-101523667D01*
X128146013Y-101519587D01*
X128146153Y-101506223D01*
X128145316Y-101499306D01*
X128144064Y-101488953D01*
X128143422Y-101482059D01*
X128131273Y-101296666D01*
X128131272Y-101296662D01*
X128131003Y-101292550D01*
X128128891Y-101281928D01*
X128090036Y-101086578D01*
X128090035Y-101086574D01*
X128089231Y-101082532D01*
X128020403Y-100879763D01*
X127985672Y-100809333D01*
X127927521Y-100691411D01*
X127927518Y-100691406D01*
X127925697Y-100687713D01*
X127806734Y-100509668D01*
X127728853Y-100420859D01*
X127724029Y-100415012D01*
X127723684Y-100414567D01*
X127719649Y-100407745D01*
X127703912Y-100392008D01*
X127698276Y-100385991D01*
X127693656Y-100380723D01*
X127687627Y-100373298D01*
X127678180Y-100360716D01*
X127675704Y-100357418D01*
X127666354Y-100347869D01*
X127663110Y-100345325D01*
X127663104Y-100345320D01*
X127641842Y-100328648D01*
X127630494Y-100318590D01*
X122696217Y-95384312D01*
X122685349Y-95371920D01*
X122673466Y-95356433D01*
X122673464Y-95356431D01*
X122668841Y-95350406D01*
X122662882Y-95345632D01*
X122642353Y-95324669D01*
X125582001Y-95324669D01*
X125582371Y-95331490D01*
X125587895Y-95382352D01*
X125591521Y-95397604D01*
X125636676Y-95518054D01*
X125645214Y-95533649D01*
X125721715Y-95635724D01*
X125734276Y-95648285D01*
X125836351Y-95724786D01*
X125851946Y-95733324D01*
X125972394Y-95778478D01*
X125987649Y-95782105D01*
X126038514Y-95787631D01*
X126045328Y-95788000D01*
X127317885Y-95788000D01*
X127333124Y-95783525D01*
X127334329Y-95782135D01*
X127336000Y-95774452D01*
X127336000Y-95769884D01*
X127844000Y-95769884D01*
X127848475Y-95785123D01*
X127849865Y-95786328D01*
X127857548Y-95787999D01*
X129134669Y-95787999D01*
X129141490Y-95787629D01*
X129192352Y-95782105D01*
X129207604Y-95778479D01*
X129328054Y-95733324D01*
X129343649Y-95724786D01*
X129445724Y-95648285D01*
X129458285Y-95635724D01*
X129534786Y-95533649D01*
X129543324Y-95518054D01*
X129588478Y-95397606D01*
X129592105Y-95382351D01*
X129597631Y-95331486D01*
X129598000Y-95324672D01*
X129598000Y-94252115D01*
X129593525Y-94236876D01*
X129592135Y-94235671D01*
X129584452Y-94234000D01*
X127862115Y-94234000D01*
X127846876Y-94238475D01*
X127845671Y-94239865D01*
X127844000Y-94247548D01*
X127844000Y-95769884D01*
X127336000Y-95769884D01*
X127336000Y-94252115D01*
X127331525Y-94236876D01*
X127330135Y-94235671D01*
X127322452Y-94234000D01*
X125600116Y-94234000D01*
X125584877Y-94238475D01*
X125583672Y-94239865D01*
X125582001Y-94247548D01*
X125582001Y-95324669D01*
X122642353Y-95324669D01*
X122641696Y-95323998D01*
X122612696Y-95286203D01*
X122596251Y-95257719D01*
X122572334Y-95199976D01*
X122563822Y-95168205D01*
X122558162Y-95125204D01*
X122557091Y-95107444D01*
X122557127Y-95104005D01*
X122558118Y-95096478D01*
X122554261Y-95061538D01*
X122553500Y-95047713D01*
X122553500Y-93707885D01*
X125582000Y-93707885D01*
X125586475Y-93723124D01*
X125587865Y-93724329D01*
X125595548Y-93726000D01*
X127317885Y-93726000D01*
X127333124Y-93721525D01*
X127334329Y-93720135D01*
X127336000Y-93712452D01*
X127336000Y-93707885D01*
X127844000Y-93707885D01*
X127848475Y-93723124D01*
X127849865Y-93724329D01*
X127857548Y-93726000D01*
X129579884Y-93726000D01*
X129595123Y-93721525D01*
X129596328Y-93720135D01*
X129597999Y-93712452D01*
X129597999Y-92635331D01*
X129597629Y-92628510D01*
X129592105Y-92577648D01*
X129588479Y-92562396D01*
X129543324Y-92441946D01*
X129534786Y-92426351D01*
X129458285Y-92324276D01*
X129445724Y-92311715D01*
X129343649Y-92235214D01*
X129328054Y-92226676D01*
X129207606Y-92181522D01*
X129192351Y-92177895D01*
X129141486Y-92172369D01*
X129134672Y-92172000D01*
X127862115Y-92172000D01*
X127846876Y-92176475D01*
X127845671Y-92177865D01*
X127844000Y-92185548D01*
X127844000Y-93707885D01*
X127336000Y-93707885D01*
X127336000Y-92190116D01*
X127331525Y-92174877D01*
X127330135Y-92173672D01*
X127322452Y-92172001D01*
X126045331Y-92172001D01*
X126038510Y-92172371D01*
X125987648Y-92177895D01*
X125972396Y-92181521D01*
X125851946Y-92226676D01*
X125836351Y-92235214D01*
X125734276Y-92311715D01*
X125721715Y-92324276D01*
X125645214Y-92426351D01*
X125636676Y-92441946D01*
X125591522Y-92562394D01*
X125587895Y-92577649D01*
X125582369Y-92628514D01*
X125582000Y-92635328D01*
X125582000Y-93707885D01*
X122553500Y-93707885D01*
X122553500Y-89602524D01*
X122573502Y-89534403D01*
X122585858Y-89518221D01*
X122659040Y-89436944D01*
X122754527Y-89271556D01*
X122813542Y-89089928D01*
X122814275Y-89082959D01*
X122822348Y-89006144D01*
X122830907Y-88924706D01*
X122857920Y-88859050D01*
X122867122Y-88848782D01*
X124171822Y-87544083D01*
X125497762Y-86218143D01*
X125511206Y-86206477D01*
X125526377Y-86195087D01*
X125526387Y-86195078D01*
X125529684Y-86192603D01*
X125539232Y-86183252D01*
X125541765Y-86180022D01*
X125541771Y-86180015D01*
X125549999Y-86169521D01*
X125554420Y-86164192D01*
X125676883Y-86024552D01*
X125676883Y-86024551D01*
X125679606Y-86021447D01*
X125798572Y-85843404D01*
X125867448Y-85703739D01*
X125891460Y-85655048D01*
X125891461Y-85655045D01*
X125893281Y-85651355D01*
X125939957Y-85513853D01*
X125960785Y-85452498D01*
X125960786Y-85452494D01*
X125962112Y-85448588D01*
X125964823Y-85434962D01*
X126003083Y-85242614D01*
X126003083Y-85242611D01*
X126003887Y-85238571D01*
X126004396Y-85230813D01*
X126011602Y-85120870D01*
X126012326Y-85113318D01*
X126012416Y-85112605D01*
X126014387Y-85104929D01*
X126014387Y-85082498D01*
X126014657Y-85074255D01*
X126015095Y-85067574D01*
X126016082Y-85058065D01*
X126018319Y-85042349D01*
X126018320Y-85042339D01*
X126018900Y-85038262D01*
X126019040Y-85024898D01*
X126015300Y-84993991D01*
X126014387Y-84978856D01*
X126014387Y-84542853D01*
X126015643Y-84525103D01*
X126018321Y-84506283D01*
X126018321Y-84506281D01*
X126018900Y-84502213D01*
X126019040Y-84488849D01*
X126017832Y-84478865D01*
X126016951Y-84471592D01*
X126016308Y-84464694D01*
X126004151Y-84279290D01*
X126004150Y-84279284D01*
X126003881Y-84275179D01*
X125962100Y-84065166D01*
X125945479Y-84016206D01*
X125913851Y-83923044D01*
X125907853Y-83869369D01*
X125924401Y-83711920D01*
X125924401Y-83711919D01*
X125925091Y-83705355D01*
X125919433Y-83651519D01*
X125905819Y-83521990D01*
X125905819Y-83521988D01*
X125905129Y-83515427D01*
X125846114Y-83333799D01*
X125750627Y-83168411D01*
X125736077Y-83152251D01*
X125627262Y-83031400D01*
X125627261Y-83031399D01*
X125622840Y-83026489D01*
X125468339Y-82914237D01*
X125462311Y-82911553D01*
X125462309Y-82911552D01*
X125299906Y-82839246D01*
X125299905Y-82839246D01*
X125293875Y-82836561D01*
X125200474Y-82816708D01*
X125113531Y-82798227D01*
X125113526Y-82798227D01*
X125107074Y-82796855D01*
X124916100Y-82796855D01*
X124909648Y-82798227D01*
X124909643Y-82798227D01*
X124822700Y-82816708D01*
X124729299Y-82836561D01*
X124723269Y-82839246D01*
X124723268Y-82839246D01*
X124560865Y-82911552D01*
X124560863Y-82911553D01*
X124554835Y-82914237D01*
X124400334Y-83026489D01*
X124395913Y-83031399D01*
X124395912Y-83031400D01*
X124287098Y-83152251D01*
X124272547Y-83168411D01*
X124177060Y-83333799D01*
X124118045Y-83515427D01*
X124117355Y-83521988D01*
X124117355Y-83521990D01*
X124103741Y-83651519D01*
X124098083Y-83705355D01*
X124109090Y-83810076D01*
X124111661Y-83834539D01*
X124098889Y-83904378D01*
X124060413Y-83949646D01*
X124045134Y-83960747D01*
X123917347Y-84102669D01*
X123914046Y-84108387D01*
X123827467Y-84258346D01*
X123821860Y-84268057D01*
X123762845Y-84449685D01*
X123762155Y-84456246D01*
X123762155Y-84456248D01*
X123745480Y-84614906D01*
X123718467Y-84680563D01*
X123709265Y-84690831D01*
X118247118Y-90152977D01*
X118233677Y-90164641D01*
X118215195Y-90178518D01*
X118205646Y-90187869D01*
X118203105Y-90191110D01*
X118203102Y-90191113D01*
X118195024Y-90201416D01*
X118190627Y-90206718D01*
X118065266Y-90349668D01*
X117946303Y-90527713D01*
X117944482Y-90531406D01*
X117944479Y-90531411D01*
X117925372Y-90570158D01*
X117851597Y-90719763D01*
X117782769Y-90922532D01*
X117781965Y-90926574D01*
X117781964Y-90926578D01*
X117743379Y-91120575D01*
X117740997Y-91132550D01*
X117740728Y-91136660D01*
X117740727Y-91136665D01*
X117733284Y-91250246D01*
X117732561Y-91257796D01*
X117732471Y-91258508D01*
X117730500Y-91266184D01*
X117730500Y-91288610D01*
X117730232Y-91296827D01*
X117729790Y-91303570D01*
X117728806Y-91313050D01*
X117725987Y-91332859D01*
X117725847Y-91346223D01*
X117726344Y-91350328D01*
X117729587Y-91377125D01*
X117730500Y-91392264D01*
X117730500Y-93277476D01*
X117710498Y-93345597D01*
X117698142Y-93361779D01*
X117624960Y-93443056D01*
X117529473Y-93608444D01*
X117470458Y-93790072D01*
X117450496Y-93980000D01*
X115821823Y-93980000D01*
X115782771Y-93608444D01*
X115744147Y-93240957D01*
X115743707Y-93235713D01*
X115687518Y-92342605D01*
X115687297Y-92337332D01*
X115668555Y-91442639D01*
X115668555Y-91437361D01*
X115668987Y-91416774D01*
X115679421Y-90918629D01*
X115687297Y-90542668D01*
X115687518Y-90537395D01*
X115743707Y-89644287D01*
X115744148Y-89639028D01*
X115745985Y-89621556D01*
X115819534Y-88921777D01*
X115837693Y-88749010D01*
X115838355Y-88743775D01*
X115892097Y-88379833D01*
X115915650Y-88220331D01*
X115945388Y-88155864D01*
X116010242Y-88116375D01*
X116024793Y-88112801D01*
X116143539Y-88083634D01*
X116148191Y-88081659D01*
X116148195Y-88081658D01*
X116369741Y-87987617D01*
X116369742Y-87987617D01*
X116374396Y-87985641D01*
X116586615Y-87852000D01*
X116774738Y-87686147D01*
X116933924Y-87492351D01*
X117060078Y-87275596D01*
X117149955Y-87041461D01*
X117153389Y-87025027D01*
X117200206Y-86800921D01*
X117201241Y-86795967D01*
X117212618Y-86545432D01*
X117183792Y-86296301D01*
X117159890Y-86211831D01*
X117116884Y-86059852D01*
X117116883Y-86059850D01*
X117115506Y-86054983D01*
X117113372Y-86050408D01*
X117113370Y-86050401D01*
X117011653Y-85832269D01*
X117011651Y-85832265D01*
X117009516Y-85827687D01*
X116969822Y-85769279D01*
X116871395Y-85624448D01*
X116871392Y-85624444D01*
X116868549Y-85620261D01*
X116767925Y-85513853D01*
X116699713Y-85441721D01*
X116696233Y-85438041D01*
X116691266Y-85434243D01*
X116624705Y-85383354D01*
X116582737Y-85326090D01*
X116579875Y-85249379D01*
X116585083Y-85230728D01*
X116586573Y-85225795D01*
X116863123Y-84374662D01*
X116864858Y-84369680D01*
X116867769Y-84361854D01*
X116974275Y-84075467D01*
X117176783Y-83530942D01*
X117178725Y-83526035D01*
X117525520Y-82701041D01*
X117527667Y-82696220D01*
X117908683Y-81886521D01*
X117911029Y-81881794D01*
X118325636Y-81088723D01*
X118328179Y-81084098D01*
X118775622Y-80309105D01*
X118778356Y-80304591D01*
X119189066Y-79657414D01*
X119257861Y-79549011D01*
X119260771Y-79544630D01*
X119313942Y-79468128D01*
X119771511Y-78809772D01*
X119774593Y-78805529D01*
X120315655Y-78092706D01*
X120318933Y-78088571D01*
X120737874Y-77582158D01*
X120889384Y-77399014D01*
X120892775Y-77395086D01*
X121491616Y-76730005D01*
X121495199Y-76726189D01*
X121556366Y-76663728D01*
X122121348Y-76086786D01*
X122125119Y-76083094D01*
X122777461Y-75470505D01*
X122781383Y-75466974D01*
X122910778Y-75355283D01*
X123458802Y-74882241D01*
X123462866Y-74878879D01*
X123503460Y-74846705D01*
X124164192Y-74323014D01*
X124168394Y-74319825D01*
X124337424Y-74197018D01*
X124892377Y-73793821D01*
X124896711Y-73790809D01*
X124933299Y-73766500D01*
X125642089Y-73295581D01*
X125646522Y-73292767D01*
X126411983Y-72829188D01*
X126416553Y-72826549D01*
X127200762Y-72395427D01*
X127205439Y-72392982D01*
X128006999Y-71995083D01*
X128011774Y-71992836D01*
X128829299Y-71628851D01*
X128834164Y-71626806D01*
X129055863Y-71539029D01*
X129666237Y-71297365D01*
X129671161Y-71295534D01*
X129989762Y-71184586D01*
X130516264Y-71001239D01*
X130521283Y-70999608D01*
X131377988Y-70740954D01*
X131383071Y-70739535D01*
X132249820Y-70516991D01*
X132254958Y-70515785D01*
X132773611Y-70405542D01*
X133130321Y-70329721D01*
X133135494Y-70328735D01*
X134017877Y-70179491D01*
X134023081Y-70178723D01*
X134541852Y-70113186D01*
X134910901Y-70066565D01*
X134916150Y-70066013D01*
X135575808Y-70010620D01*
X135807921Y-69991129D01*
X135813179Y-69990798D01*
X136707267Y-69953324D01*
X136712544Y-69953213D01*
X137607456Y-69953213D01*
X137612733Y-69953324D01*
G37*
G04 #@! TD.AperFunction*
M02*
