M48
; DRILL file {KiCad 6.0.9-8da3e8f707~116~ubuntu22.04.1} date di 08 nov 2022 11:28:44
; FORMAT={-:-/ absolute / metric / decimal}
; #@! TF.CreationDate,2022-11-08T11:28:44+01:00
; #@! TF.GenerationSoftware,Kicad,Pcbnew,6.0.9-8da3e8f707~116~ubuntu22.04.1
; #@! TF.FileFunction,Plated,1,2,PTH
FMAT,2
METRIC
; #@! TA.AperFunction,Plated,PTH,ViaDrill
T1C0.400
; #@! TA.AperFunction,Plated,PTH,ComponentDrill
T2C1.000
%
G90
G05
T1
X118.364Y-93.98
X118.6Y-97.8
X120.904Y-96.52
X121.92Y-88.9
X124.656Y-84.64
X125.012Y-83.705
X125.984Y-107.696
X126.492Y-81.788
X126.7Y-103.2
X127.508Y-105.156
X131.572Y-108.204
X132.588Y-95.504
X132.588Y-97.028
X132.588Y-101.092
X134.636Y-99.75
X137.16Y-89.916
X138.176Y-94.996
X138.176Y-104.14
X139.683Y-99.759
X139.7Y-91.948
X140.716Y-100.484
X141.732Y-102.108
X142.24Y-94.996
X142.748Y-100.584
X144.272Y-77.724
X144.272Y-108.204
X147.824Y-80.776
X149.86Y-83.82
X150.368Y-82.296
X154.94Y-97.028
X156.402Y-89.25
T2
X134.62Y-77.997
X137.16Y-77.997
X139.7Y-77.997
T0
M30
