G04 #@! TF.GenerationSoftware,KiCad,Pcbnew,6.0.9-8da3e8f707~116~ubuntu22.04.1*
G04 #@! TF.CreationDate,2022-11-08T11:27:41+01:00*
G04 #@! TF.ProjectId,PCB-Horloge,5043422d-486f-4726-9c6f-67652e6b6963,1.0*
G04 #@! TF.SameCoordinates,Original*
G04 #@! TF.FileFunction,Legend,Top*
G04 #@! TF.FilePolarity,Positive*
%FSLAX46Y46*%
G04 Gerber Fmt 4.6, Leading zero omitted, Abs format (unit mm)*
G04 Created by KiCad (PCBNEW 6.0.9-8da3e8f707~116~ubuntu22.04.1) date 2022-11-08 11:27:41*
%MOMM*%
%LPD*%
G01*
G04 APERTURE LIST*
G04 Aperture macros list*
%AMRoundRect*
0 Rectangle with rounded corners*
0 $1 Rounding radius*
0 $2 $3 $4 $5 $6 $7 $8 $9 X,Y pos of 4 corners*
0 Add a 4 corners polygon primitive as box body*
4,1,4,$2,$3,$4,$5,$6,$7,$8,$9,$2,$3,0*
0 Add four circle primitives for the rounded corners*
1,1,$1+$1,$2,$3*
1,1,$1+$1,$4,$5*
1,1,$1+$1,$6,$7*
1,1,$1+$1,$8,$9*
0 Add four rect primitives between the rounded corners*
20,1,$1+$1,$2,$3,$4,$5,0*
20,1,$1+$1,$4,$5,$6,$7,0*
20,1,$1+$1,$6,$7,$8,$9,0*
20,1,$1+$1,$8,$9,$2,$3,0*%
G04 Aperture macros list end*
%ADD10C,0.100000*%
%ADD11C,0.120000*%
%ADD12R,1.700000X1.700000*%
%ADD13O,1.700000X1.700000*%
%ADD14RoundRect,0.250000X0.506458X0.227211X-0.056458X0.552211X-0.506458X-0.227211X0.056458X-0.552211X0*%
%ADD15C,4.000000*%
%ADD16RoundRect,0.250000X-0.450000X0.325000X-0.450000X-0.325000X0.450000X-0.325000X0.450000X0.325000X0*%
%ADD17RoundRect,0.250000X0.227211X-0.506458X0.552211X0.056458X-0.227211X0.506458X-0.552211X-0.056458X0*%
%ADD18RoundRect,0.250000X0.242612X-0.529784X0.580112X0.054784X-0.242612X0.529784X-0.580112X-0.054784X0*%
%ADD19RoundRect,0.250000X0.350000X0.450000X-0.350000X0.450000X-0.350000X-0.450000X0.350000X-0.450000X0*%
%ADD20RoundRect,0.250000X0.552211X-0.056458X0.227211X0.506458X-0.552211X0.056458X-0.227211X-0.506458X0*%
%ADD21RoundRect,0.250000X-0.350000X-0.450000X0.350000X-0.450000X0.350000X0.450000X-0.350000X0.450000X0*%
%ADD22C,2.100000*%
%ADD23RoundRect,0.250000X-0.506458X-0.227211X0.056458X-0.552211X0.506458X0.227211X-0.056458X0.552211X0*%
%ADD24RoundRect,0.250000X-0.056458X-0.552211X0.506458X-0.227211X0.056458X0.552211X-0.506458X0.227211X0*%
%ADD25RoundRect,0.250000X0.450000X-0.325000X0.450000X0.325000X-0.450000X0.325000X-0.450000X-0.325000X0*%
%ADD26RoundRect,0.150000X-0.875000X-0.150000X0.875000X-0.150000X0.875000X0.150000X-0.875000X0.150000X0*%
%ADD27RoundRect,0.250000X0.564711X-0.078109X0.214711X0.528109X-0.564711X0.078109X-0.214711X-0.528109X0*%
%ADD28RoundRect,0.250000X-0.337500X-0.475000X0.337500X-0.475000X0.337500X0.475000X-0.337500X0.475000X0*%
%ADD29RoundRect,0.250000X-0.325000X-0.450000X0.325000X-0.450000X0.325000X0.450000X-0.325000X0.450000X0*%
%ADD30RoundRect,0.250000X-0.227211X0.506458X-0.552211X-0.056458X0.227211X-0.506458X0.552211X0.056458X0*%
%ADD31RoundRect,0.250000X-0.580112X0.054784X-0.242612X-0.529784X0.580112X-0.054784X0.242612X0.529784X0*%
%ADD32RoundRect,0.250000X-0.214711X0.528109X-0.564711X-0.078109X0.214711X-0.528109X0.564711X0.078109X0*%
G04 APERTURE END LIST*
D10*
X133396428Y-75289285D02*
X133860714Y-75289285D01*
X133610714Y-75575000D01*
X133717857Y-75575000D01*
X133789285Y-75610714D01*
X133825000Y-75646428D01*
X133860714Y-75717857D01*
X133860714Y-75896428D01*
X133825000Y-75967857D01*
X133789285Y-76003571D01*
X133717857Y-76039285D01*
X133503571Y-76039285D01*
X133432142Y-76003571D01*
X133396428Y-75967857D01*
X134075000Y-75289285D02*
X134325000Y-76039285D01*
X134575000Y-75289285D01*
X134753571Y-75289285D02*
X135217857Y-75289285D01*
X134967857Y-75575000D01*
X135075000Y-75575000D01*
X135146428Y-75610714D01*
X135182142Y-75646428D01*
X135217857Y-75717857D01*
X135217857Y-75896428D01*
X135182142Y-75967857D01*
X135146428Y-76003571D01*
X135075000Y-76039285D01*
X134860714Y-76039285D01*
X134789285Y-76003571D01*
X134753571Y-75967857D01*
X136503571Y-75325000D02*
X136432142Y-75289285D01*
X136325000Y-75289285D01*
X136217857Y-75325000D01*
X136146428Y-75396428D01*
X136110714Y-75467857D01*
X136075000Y-75610714D01*
X136075000Y-75717857D01*
X136110714Y-75860714D01*
X136146428Y-75932142D01*
X136217857Y-76003571D01*
X136325000Y-76039285D01*
X136396428Y-76039285D01*
X136503571Y-76003571D01*
X136539285Y-75967857D01*
X136539285Y-75717857D01*
X136396428Y-75717857D01*
X136860714Y-76039285D02*
X136860714Y-75289285D01*
X137289285Y-76039285D01*
X137289285Y-75289285D01*
X137646428Y-76039285D02*
X137646428Y-75289285D01*
X137825000Y-75289285D01*
X137932142Y-75325000D01*
X138003571Y-75396428D01*
X138039285Y-75467857D01*
X138075000Y-75610714D01*
X138075000Y-75717857D01*
X138039285Y-75860714D01*
X138003571Y-75932142D01*
X137932142Y-76003571D01*
X137825000Y-76039285D01*
X137646428Y-76039285D01*
X138932142Y-76003571D02*
X139039285Y-76039285D01*
X139217857Y-76039285D01*
X139289285Y-76003571D01*
X139325000Y-75967857D01*
X139360714Y-75896428D01*
X139360714Y-75825000D01*
X139325000Y-75753571D01*
X139289285Y-75717857D01*
X139217857Y-75682142D01*
X139075000Y-75646428D01*
X139003571Y-75610714D01*
X138967857Y-75575000D01*
X138932142Y-75503571D01*
X138932142Y-75432142D01*
X138967857Y-75360714D01*
X139003571Y-75325000D01*
X139075000Y-75289285D01*
X139253571Y-75289285D01*
X139360714Y-75325000D01*
X139610714Y-75289285D02*
X139789285Y-76039285D01*
X139932142Y-75503571D01*
X140075000Y-76039285D01*
X140253571Y-75289285D01*
X140539285Y-76039285D02*
X140539285Y-75289285D01*
X140717857Y-75289285D01*
X140825000Y-75325000D01*
X140896428Y-75396428D01*
X140932142Y-75467857D01*
X140967857Y-75610714D01*
X140967857Y-75717857D01*
X140932142Y-75860714D01*
X140896428Y-75932142D01*
X140825000Y-76003571D01*
X140717857Y-76039285D01*
X140539285Y-76039285D01*
X132016190Y-78163533D02*
X132373333Y-78163533D01*
X132444761Y-78187343D01*
X132492380Y-78234962D01*
X132516190Y-78306390D01*
X132516190Y-78354009D01*
X132516190Y-77663533D02*
X132516190Y-77949247D01*
X132516190Y-77806390D02*
X132016190Y-77806390D01*
X132087619Y-77854009D01*
X132135238Y-77901628D01*
X132159047Y-77949247D01*
X146907142Y-93366285D02*
X146978571Y-93390095D01*
X147002380Y-93413904D01*
X147026190Y-93461523D01*
X147026190Y-93532952D01*
X147002380Y-93580571D01*
X146978571Y-93604380D01*
X146930952Y-93628190D01*
X146740476Y-93628190D01*
X146740476Y-93128190D01*
X146907142Y-93128190D01*
X146954761Y-93152000D01*
X146978571Y-93175809D01*
X147002380Y-93223428D01*
X147002380Y-93271047D01*
X146978571Y-93318666D01*
X146954761Y-93342476D01*
X146907142Y-93366285D01*
X146740476Y-93366285D01*
X147169047Y-93128190D02*
X147454761Y-93128190D01*
X147311904Y-93628190D02*
X147311904Y-93128190D01*
X147597619Y-93175809D02*
X147621428Y-93152000D01*
X147669047Y-93128190D01*
X147788095Y-93128190D01*
X147835714Y-93152000D01*
X147859523Y-93175809D01*
X147883333Y-93223428D01*
X147883333Y-93271047D01*
X147859523Y-93342476D01*
X147573809Y-93628190D01*
X147883333Y-93628190D01*
X126507142Y-93366285D02*
X126578571Y-93390095D01*
X126602380Y-93413904D01*
X126626190Y-93461523D01*
X126626190Y-93532952D01*
X126602380Y-93580571D01*
X126578571Y-93604380D01*
X126530952Y-93628190D01*
X126340476Y-93628190D01*
X126340476Y-93128190D01*
X126507142Y-93128190D01*
X126554761Y-93152000D01*
X126578571Y-93175809D01*
X126602380Y-93223428D01*
X126602380Y-93271047D01*
X126578571Y-93318666D01*
X126554761Y-93342476D01*
X126507142Y-93366285D01*
X126340476Y-93366285D01*
X126769047Y-93128190D02*
X127054761Y-93128190D01*
X126911904Y-93628190D02*
X126911904Y-93128190D01*
X127483333Y-93628190D02*
X127197619Y-93628190D01*
X127340476Y-93628190D02*
X127340476Y-93128190D01*
X127292857Y-93199619D01*
X127245238Y-93247238D01*
X127197619Y-93271047D01*
X131853857Y-95476190D02*
X131853857Y-94976190D01*
X131972904Y-94976190D01*
X132044333Y-95000000D01*
X132091952Y-95047619D01*
X132115761Y-95095238D01*
X132139571Y-95190476D01*
X132139571Y-95261904D01*
X132115761Y-95357142D01*
X132091952Y-95404761D01*
X132044333Y-95452380D01*
X131972904Y-95476190D01*
X131853857Y-95476190D01*
X132615761Y-95476190D02*
X132330047Y-95476190D01*
X132472904Y-95476190D02*
X132472904Y-94976190D01*
X132425285Y-95047619D01*
X132377666Y-95095238D01*
X132330047Y-95119047D01*
X133068142Y-94976190D02*
X132830047Y-94976190D01*
X132806238Y-95214285D01*
X132830047Y-95190476D01*
X132877666Y-95166666D01*
X132996714Y-95166666D01*
X133044333Y-95190476D01*
X133068142Y-95214285D01*
X133091952Y-95261904D01*
X133091952Y-95380952D01*
X133068142Y-95428571D01*
X133044333Y-95452380D01*
X132996714Y-95476190D01*
X132877666Y-95476190D01*
X132830047Y-95452380D01*
X132806238Y-95428571D01*
X126845190Y-85681333D02*
X126607095Y-85848000D01*
X126845190Y-85967047D02*
X126345190Y-85967047D01*
X126345190Y-85776571D01*
X126369000Y-85728952D01*
X126392809Y-85705142D01*
X126440428Y-85681333D01*
X126511857Y-85681333D01*
X126559476Y-85705142D01*
X126583285Y-85728952D01*
X126607095Y-85776571D01*
X126607095Y-85967047D01*
X126845190Y-85443238D02*
X126845190Y-85348000D01*
X126821380Y-85300380D01*
X126797571Y-85276571D01*
X126726142Y-85228952D01*
X126630904Y-85205142D01*
X126440428Y-85205142D01*
X126392809Y-85228952D01*
X126369000Y-85252761D01*
X126345190Y-85300380D01*
X126345190Y-85395619D01*
X126369000Y-85443238D01*
X126392809Y-85467047D01*
X126440428Y-85490857D01*
X126559476Y-85490857D01*
X126607095Y-85467047D01*
X126630904Y-85443238D01*
X126654714Y-85395619D01*
X126654714Y-85300380D01*
X126630904Y-85252761D01*
X126607095Y-85228952D01*
X126559476Y-85205142D01*
X145216666Y-82726190D02*
X145050000Y-82488095D01*
X144930952Y-82726190D02*
X144930952Y-82226190D01*
X145121428Y-82226190D01*
X145169047Y-82250000D01*
X145192857Y-82273809D01*
X145216666Y-82321428D01*
X145216666Y-82392857D01*
X145192857Y-82440476D01*
X145169047Y-82464285D01*
X145121428Y-82488095D01*
X144930952Y-82488095D01*
X145645238Y-82226190D02*
X145550000Y-82226190D01*
X145502380Y-82250000D01*
X145478571Y-82273809D01*
X145430952Y-82345238D01*
X145407142Y-82440476D01*
X145407142Y-82630952D01*
X145430952Y-82678571D01*
X145454761Y-82702380D01*
X145502380Y-82726190D01*
X145597619Y-82726190D01*
X145645238Y-82702380D01*
X145669047Y-82678571D01*
X145692857Y-82630952D01*
X145692857Y-82511904D01*
X145669047Y-82464285D01*
X145645238Y-82440476D01*
X145597619Y-82416666D01*
X145502380Y-82416666D01*
X145454761Y-82440476D01*
X145430952Y-82464285D01*
X145407142Y-82511904D01*
X145204666Y-87426190D02*
X145038000Y-87188095D01*
X144918952Y-87426190D02*
X144918952Y-86926190D01*
X145109428Y-86926190D01*
X145157047Y-86950000D01*
X145180857Y-86973809D01*
X145204666Y-87021428D01*
X145204666Y-87092857D01*
X145180857Y-87140476D01*
X145157047Y-87164285D01*
X145109428Y-87188095D01*
X144918952Y-87188095D01*
X145657047Y-86926190D02*
X145418952Y-86926190D01*
X145395142Y-87164285D01*
X145418952Y-87140476D01*
X145466571Y-87116666D01*
X145585619Y-87116666D01*
X145633238Y-87140476D01*
X145657047Y-87164285D01*
X145680857Y-87211904D01*
X145680857Y-87330952D01*
X145657047Y-87378571D01*
X145633238Y-87402380D01*
X145585619Y-87426190D01*
X145466571Y-87426190D01*
X145418952Y-87402380D01*
X145395142Y-87378571D01*
X141605047Y-80244190D02*
X141605047Y-80648952D01*
X141628857Y-80696571D01*
X141652666Y-80720380D01*
X141700285Y-80744190D01*
X141795523Y-80744190D01*
X141843142Y-80720380D01*
X141866952Y-80696571D01*
X141890761Y-80648952D01*
X141890761Y-80244190D01*
X142081238Y-80244190D02*
X142390761Y-80244190D01*
X142224095Y-80434666D01*
X142295523Y-80434666D01*
X142343142Y-80458476D01*
X142366952Y-80482285D01*
X142390761Y-80529904D01*
X142390761Y-80648952D01*
X142366952Y-80696571D01*
X142343142Y-80720380D01*
X142295523Y-80744190D01*
X142152666Y-80744190D01*
X142105047Y-80720380D01*
X142081238Y-80696571D01*
X134720190Y-102216142D02*
X134220190Y-102216142D01*
X134220190Y-102097095D01*
X134244000Y-102025666D01*
X134291619Y-101978047D01*
X134339238Y-101954238D01*
X134434476Y-101930428D01*
X134505904Y-101930428D01*
X134601142Y-101954238D01*
X134648761Y-101978047D01*
X134696380Y-102025666D01*
X134720190Y-102097095D01*
X134720190Y-102216142D01*
X134220190Y-101763761D02*
X134220190Y-101454238D01*
X134410666Y-101620904D01*
X134410666Y-101549476D01*
X134434476Y-101501857D01*
X134458285Y-101478047D01*
X134505904Y-101454238D01*
X134624952Y-101454238D01*
X134672571Y-101478047D01*
X134696380Y-101501857D01*
X134720190Y-101549476D01*
X134720190Y-101692333D01*
X134696380Y-101739952D01*
X134672571Y-101763761D01*
X134220190Y-101144714D02*
X134220190Y-101097095D01*
X134244000Y-101049476D01*
X134267809Y-101025666D01*
X134315428Y-101001857D01*
X134410666Y-100978047D01*
X134529714Y-100978047D01*
X134624952Y-101001857D01*
X134672571Y-101025666D01*
X134696380Y-101049476D01*
X134720190Y-101097095D01*
X134720190Y-101144714D01*
X134696380Y-101192333D01*
X134672571Y-101216142D01*
X134624952Y-101239952D01*
X134529714Y-101263761D01*
X134410666Y-101263761D01*
X134315428Y-101239952D01*
X134267809Y-101216142D01*
X134244000Y-101192333D01*
X134220190Y-101144714D01*
X144108611Y-92684073D02*
X143985748Y-92947458D01*
X144251468Y-92931509D02*
X143818455Y-93181509D01*
X143723217Y-93016552D01*
X143720027Y-92963408D01*
X143728742Y-92930883D01*
X143758077Y-92886454D01*
X143819936Y-92850740D01*
X143873080Y-92847550D01*
X143905604Y-92856265D01*
X143950033Y-92885599D01*
X144045271Y-93050556D01*
X143592265Y-92789735D02*
X143437503Y-92521680D01*
X143685793Y-92570779D01*
X143650079Y-92508921D01*
X143646889Y-92455776D01*
X143655604Y-92423252D01*
X143684939Y-92378823D01*
X143788037Y-92319299D01*
X143841181Y-92316109D01*
X143873705Y-92324824D01*
X143918135Y-92354159D01*
X143989563Y-92477877D01*
X143992753Y-92531021D01*
X143984038Y-92563545D01*
X140180190Y-102225142D02*
X139680190Y-102225142D01*
X139680190Y-102106095D01*
X139704000Y-102034666D01*
X139751619Y-101987047D01*
X139799238Y-101963238D01*
X139894476Y-101939428D01*
X139965904Y-101939428D01*
X140061142Y-101963238D01*
X140108761Y-101987047D01*
X140156380Y-102034666D01*
X140180190Y-102106095D01*
X140180190Y-102225142D01*
X139727809Y-101748952D02*
X139704000Y-101725142D01*
X139680190Y-101677523D01*
X139680190Y-101558476D01*
X139704000Y-101510857D01*
X139727809Y-101487047D01*
X139775428Y-101463238D01*
X139823047Y-101463238D01*
X139894476Y-101487047D01*
X140180190Y-101772761D01*
X140180190Y-101463238D01*
X139680190Y-101296571D02*
X139680190Y-100963238D01*
X140180190Y-101177523D01*
X141124857Y-95476190D02*
X141124857Y-94976190D01*
X141243904Y-94976190D01*
X141315333Y-95000000D01*
X141362952Y-95047619D01*
X141386761Y-95095238D01*
X141410571Y-95190476D01*
X141410571Y-95261904D01*
X141386761Y-95357142D01*
X141362952Y-95404761D01*
X141315333Y-95452380D01*
X141243904Y-95476190D01*
X141124857Y-95476190D01*
X141601047Y-95023809D02*
X141624857Y-95000000D01*
X141672476Y-94976190D01*
X141791523Y-94976190D01*
X141839142Y-95000000D01*
X141862952Y-95023809D01*
X141886761Y-95071428D01*
X141886761Y-95119047D01*
X141862952Y-95190476D01*
X141577238Y-95476190D01*
X141886761Y-95476190D01*
X142315333Y-95142857D02*
X142315333Y-95476190D01*
X142196285Y-94952380D02*
X142077238Y-95309523D01*
X142386761Y-95309523D01*
X134716666Y-80442571D02*
X134692857Y-80466380D01*
X134621428Y-80490190D01*
X134573809Y-80490190D01*
X134502380Y-80466380D01*
X134454761Y-80418761D01*
X134430952Y-80371142D01*
X134407142Y-80275904D01*
X134407142Y-80204476D01*
X134430952Y-80109238D01*
X134454761Y-80061619D01*
X134502380Y-80014000D01*
X134573809Y-79990190D01*
X134621428Y-79990190D01*
X134692857Y-80014000D01*
X134716666Y-80037809D01*
X135145238Y-79990190D02*
X135050000Y-79990190D01*
X135002380Y-80014000D01*
X134978571Y-80037809D01*
X134930952Y-80109238D01*
X134907142Y-80204476D01*
X134907142Y-80394952D01*
X134930952Y-80442571D01*
X134954761Y-80466380D01*
X135002380Y-80490190D01*
X135097619Y-80490190D01*
X135145238Y-80466380D01*
X135169047Y-80442571D01*
X135192857Y-80394952D01*
X135192857Y-80275904D01*
X135169047Y-80228285D01*
X135145238Y-80204476D01*
X135097619Y-80180666D01*
X135002380Y-80180666D01*
X134954761Y-80204476D01*
X134930952Y-80228285D01*
X134907142Y-80275904D01*
X134901857Y-95476190D02*
X134901857Y-94976190D01*
X135020904Y-94976190D01*
X135092333Y-95000000D01*
X135139952Y-95047619D01*
X135163761Y-95095238D01*
X135187571Y-95190476D01*
X135187571Y-95261904D01*
X135163761Y-95357142D01*
X135139952Y-95404761D01*
X135092333Y-95452380D01*
X135020904Y-95476190D01*
X134901857Y-95476190D01*
X135663761Y-95476190D02*
X135378047Y-95476190D01*
X135520904Y-95476190D02*
X135520904Y-94976190D01*
X135473285Y-95047619D01*
X135425666Y-95095238D01*
X135378047Y-95119047D01*
X135949476Y-95190476D02*
X135901857Y-95166666D01*
X135878047Y-95142857D01*
X135854238Y-95095238D01*
X135854238Y-95071428D01*
X135878047Y-95023809D01*
X135901857Y-95000000D01*
X135949476Y-94976190D01*
X136044714Y-94976190D01*
X136092333Y-95000000D01*
X136116142Y-95023809D01*
X136139952Y-95071428D01*
X136139952Y-95095238D01*
X136116142Y-95142857D01*
X136092333Y-95166666D01*
X136044714Y-95190476D01*
X135949476Y-95190476D01*
X135901857Y-95214285D01*
X135878047Y-95238095D01*
X135854238Y-95285714D01*
X135854238Y-95380952D01*
X135878047Y-95428571D01*
X135901857Y-95452380D01*
X135949476Y-95476190D01*
X136044714Y-95476190D01*
X136092333Y-95452380D01*
X136116142Y-95428571D01*
X136139952Y-95380952D01*
X136139952Y-95285714D01*
X136116142Y-95238095D01*
X136092333Y-95214285D01*
X136044714Y-95190476D01*
X126845190Y-83649333D02*
X126607095Y-83816000D01*
X126845190Y-83935047D02*
X126345190Y-83935047D01*
X126345190Y-83744571D01*
X126369000Y-83696952D01*
X126392809Y-83673142D01*
X126440428Y-83649333D01*
X126511857Y-83649333D01*
X126559476Y-83673142D01*
X126583285Y-83696952D01*
X126607095Y-83744571D01*
X126607095Y-83935047D01*
X126559476Y-83363619D02*
X126535666Y-83411238D01*
X126511857Y-83435047D01*
X126464238Y-83458857D01*
X126440428Y-83458857D01*
X126392809Y-83435047D01*
X126369000Y-83411238D01*
X126345190Y-83363619D01*
X126345190Y-83268380D01*
X126369000Y-83220761D01*
X126392809Y-83196952D01*
X126440428Y-83173142D01*
X126464238Y-83173142D01*
X126511857Y-83196952D01*
X126535666Y-83220761D01*
X126559476Y-83268380D01*
X126559476Y-83363619D01*
X126583285Y-83411238D01*
X126607095Y-83435047D01*
X126654714Y-83458857D01*
X126749952Y-83458857D01*
X126797571Y-83435047D01*
X126821380Y-83411238D01*
X126845190Y-83363619D01*
X126845190Y-83268380D01*
X126821380Y-83220761D01*
X126797571Y-83196952D01*
X126749952Y-83173142D01*
X126654714Y-83173142D01*
X126607095Y-83196952D01*
X126583285Y-83220761D01*
X126559476Y-83268380D01*
X128964666Y-80617190D02*
X128798000Y-80379095D01*
X128678952Y-80617190D02*
X128678952Y-80117190D01*
X128869428Y-80117190D01*
X128917047Y-80141000D01*
X128940857Y-80164809D01*
X128964666Y-80212428D01*
X128964666Y-80283857D01*
X128940857Y-80331476D01*
X128917047Y-80355285D01*
X128869428Y-80379095D01*
X128678952Y-80379095D01*
X129131333Y-80117190D02*
X129464666Y-80117190D01*
X129250380Y-80617190D01*
X126845190Y-88205428D02*
X126607095Y-88372095D01*
X126845190Y-88491142D02*
X126345190Y-88491142D01*
X126345190Y-88300666D01*
X126369000Y-88253047D01*
X126392809Y-88229238D01*
X126440428Y-88205428D01*
X126511857Y-88205428D01*
X126559476Y-88229238D01*
X126583285Y-88253047D01*
X126607095Y-88300666D01*
X126607095Y-88491142D01*
X126845190Y-87729238D02*
X126845190Y-88014952D01*
X126845190Y-87872095D02*
X126345190Y-87872095D01*
X126416619Y-87919714D01*
X126464238Y-87967333D01*
X126488047Y-88014952D01*
X126345190Y-87419714D02*
X126345190Y-87372095D01*
X126369000Y-87324476D01*
X126392809Y-87300666D01*
X126440428Y-87276857D01*
X126535666Y-87253047D01*
X126654714Y-87253047D01*
X126749952Y-87276857D01*
X126797571Y-87300666D01*
X126821380Y-87324476D01*
X126845190Y-87372095D01*
X126845190Y-87419714D01*
X126821380Y-87467333D01*
X126797571Y-87491142D01*
X126749952Y-87514952D01*
X126654714Y-87538761D01*
X126535666Y-87538761D01*
X126440428Y-87514952D01*
X126392809Y-87491142D01*
X126369000Y-87467333D01*
X126345190Y-87419714D01*
X138076857Y-95476190D02*
X138076857Y-94976190D01*
X138195904Y-94976190D01*
X138267333Y-95000000D01*
X138314952Y-95047619D01*
X138338761Y-95095238D01*
X138362571Y-95190476D01*
X138362571Y-95261904D01*
X138338761Y-95357142D01*
X138314952Y-95404761D01*
X138267333Y-95452380D01*
X138195904Y-95476190D01*
X138076857Y-95476190D01*
X138553047Y-95023809D02*
X138576857Y-95000000D01*
X138624476Y-94976190D01*
X138743523Y-94976190D01*
X138791142Y-95000000D01*
X138814952Y-95023809D01*
X138838761Y-95071428D01*
X138838761Y-95119047D01*
X138814952Y-95190476D01*
X138529238Y-95476190D01*
X138838761Y-95476190D01*
X139314952Y-95476190D02*
X139029238Y-95476190D01*
X139172095Y-95476190D02*
X139172095Y-94976190D01*
X139124476Y-95047619D01*
X139076857Y-95095238D01*
X139029238Y-95119047D01*
X130631162Y-92910264D02*
X130341632Y-92935553D01*
X130488304Y-93157699D02*
X130055292Y-92907699D01*
X130150530Y-92742742D01*
X130194959Y-92713408D01*
X130227483Y-92704693D01*
X130280627Y-92707883D01*
X130342486Y-92743597D01*
X130371821Y-92788026D01*
X130380536Y-92820550D01*
X130377346Y-92873695D01*
X130282108Y-93038652D01*
X130556772Y-92372443D02*
X130845447Y-92539110D01*
X130332291Y-92380303D02*
X130582062Y-92661973D01*
X130736824Y-92393917D01*
D11*
X133290000Y-79326867D02*
X133290000Y-77996867D01*
X135890000Y-76666867D02*
X141030000Y-76666867D01*
X135890000Y-79326867D02*
X141030000Y-79326867D01*
X141030000Y-79326867D02*
X141030000Y-76666867D01*
X135890000Y-79326867D02*
X135890000Y-76666867D01*
X134620000Y-79326867D02*
X133290000Y-79326867D01*
X129075532Y-108302558D02*
X127805532Y-110502263D01*
X146855532Y-75282558D02*
X145585532Y-77482263D01*
X149550000Y-96300000D02*
G75*
G03*
X149550000Y-96300000I-2250000J0D01*
G01*
X115583765Y-91090021D02*
X118123765Y-91090021D01*
X129150000Y-96300000D02*
G75*
G03*
X129150000Y-96300000I-2250000J0D01*
G01*
X132855765Y-97204021D02*
X135395765Y-97204021D01*
X122832942Y-85259208D02*
X120633237Y-83989208D01*
X120292942Y-83735208D02*
X118093237Y-82465208D01*
X151624653Y-98595250D02*
X151885905Y-98142748D01*
X150351595Y-97860250D02*
X150612847Y-97407748D01*
X129275064Y-86587000D02*
X128820936Y-86587000D01*
X129275064Y-85117000D02*
X128820936Y-85117000D01*
X120638421Y-99879297D02*
X118438716Y-101149297D01*
X145076936Y-84555000D02*
X145531064Y-84555000D01*
X145076936Y-83085000D02*
X145531064Y-83085000D01*
X156427920Y-81716825D02*
X154228215Y-82986825D01*
X128755116Y-107588442D02*
X130025116Y-105388737D01*
X154170921Y-82986973D02*
X151971216Y-84256973D01*
X129092360Y-76978562D02*
X127822360Y-74778857D01*
X156196235Y-91789979D02*
X153656235Y-91789979D01*
X145060936Y-86587000D02*
X145515064Y-86587000D01*
X145060936Y-85117000D02*
X145515064Y-85117000D01*
X148186100Y-73012440D02*
X146916100Y-75212145D01*
X137160000Y-94394000D02*
X141020000Y-94394000D01*
X137160000Y-94394000D02*
X133300000Y-94394000D01*
X133300000Y-81374000D02*
X133300000Y-81609000D01*
X137160000Y-81374000D02*
X133300000Y-81374000D01*
X141020000Y-81374000D02*
X141020000Y-81609000D01*
X137160000Y-81374000D02*
X141020000Y-81374000D01*
X141020000Y-94394000D02*
X141020000Y-94159000D01*
X133300000Y-81609000D02*
X131485000Y-81609000D01*
X133300000Y-94394000D02*
X133300000Y-94159000D01*
X137400235Y-101958979D02*
X134860235Y-101958979D01*
X146050061Y-91729143D02*
X145822997Y-91335857D01*
X144777003Y-92464143D02*
X144549939Y-92070857D01*
X139432235Y-101967979D02*
X136892235Y-101967979D01*
X138951765Y-97213021D02*
X141491765Y-97213021D01*
X136877248Y-80999000D02*
X137399752Y-80999000D01*
X136877248Y-79529000D02*
X137399752Y-79529000D01*
X118123765Y-91081021D02*
X120663765Y-91081021D01*
X127833027Y-74922921D02*
X126563027Y-72723216D01*
X137400235Y-97903979D02*
X134860235Y-97903979D01*
X129282591Y-84453305D02*
X128828463Y-84453305D01*
X129282591Y-82983305D02*
X128828463Y-82983305D01*
X136801021Y-72376235D02*
X136801021Y-69836235D01*
X129275064Y-82523000D02*
X128820936Y-82523000D01*
X129275064Y-81053000D02*
X128820936Y-81053000D01*
X136801021Y-112508235D02*
X136801021Y-109968235D01*
X129259064Y-88619000D02*
X128804936Y-88619000D01*
X129259064Y-87149000D02*
X128804936Y-87149000D01*
X136919765Y-97204021D02*
X139459765Y-97204021D01*
X151995058Y-98128792D02*
X154194763Y-99398792D01*
X136810021Y-109968235D02*
X136810021Y-107428235D01*
X155794981Y-101007208D02*
X153595276Y-99737208D01*
X136801021Y-74916235D02*
X136801021Y-72376235D01*
X123505903Y-97506249D02*
X123767155Y-97958751D01*
X122232845Y-98241249D02*
X122494097Y-98693751D01*
X122462921Y-98774973D02*
X120263216Y-100044973D01*
X158736235Y-91789979D02*
X156196235Y-91789979D01*
X146629027Y-107942921D02*
X145359027Y-105743216D01*
X147773351Y-109979421D02*
X146503351Y-107779716D01*
X129798061Y-92070857D02*
X129570997Y-92464143D01*
X128525003Y-91335857D02*
X128297939Y-91729143D01*
%LPC*%
D12*
X134620000Y-77996867D03*
D13*
X137160000Y-77996867D03*
X139700000Y-77996867D03*
D14*
X129032000Y-109728000D03*
X127256648Y-108703000D03*
X146812000Y-76708000D03*
X145036648Y-75683000D03*
D15*
X147300000Y-96300000D03*
D16*
X116840000Y-90415000D03*
X116840000Y-92465000D03*
D15*
X126900000Y-96300000D03*
D16*
X134112000Y-96529000D03*
X134112000Y-98579000D03*
D17*
X121407500Y-85215676D03*
X122432500Y-83440324D03*
X118867500Y-83691676D03*
X119892500Y-81916324D03*
D18*
X150600000Y-98900000D03*
X151637500Y-97102998D03*
D19*
X130048000Y-85852000D03*
X128048000Y-85852000D03*
D20*
X119888000Y-101092000D03*
X118863000Y-99316648D03*
D21*
X144304000Y-83820000D03*
X146304000Y-83820000D03*
D22*
X115650000Y-86600000D03*
D20*
X155677499Y-82929528D03*
X154652499Y-81154176D03*
D23*
X128798648Y-106163000D03*
X130574000Y-107188000D03*
D20*
X153420500Y-84199676D03*
X152395500Y-82424324D03*
D24*
X127879657Y-76228141D03*
X129655009Y-75203141D03*
D25*
X154940000Y-92465000D03*
X154940000Y-90415000D03*
D21*
X144288000Y-85852000D03*
X146288000Y-85852000D03*
D14*
X148142568Y-74437882D03*
X146367216Y-73412882D03*
D26*
X132510000Y-82169000D03*
X132510000Y-83439000D03*
X132510000Y-84709000D03*
X132510000Y-85979000D03*
X132510000Y-87249000D03*
X132510000Y-88519000D03*
X132510000Y-89789000D03*
X132510000Y-91059000D03*
X132510000Y-92329000D03*
X132510000Y-93599000D03*
X141810000Y-93599000D03*
X141810000Y-92329000D03*
X141810000Y-91059000D03*
X141810000Y-89789000D03*
X141810000Y-88519000D03*
X141810000Y-87249000D03*
X141810000Y-85979000D03*
X141810000Y-84709000D03*
X141810000Y-83439000D03*
X141810000Y-82169000D03*
D25*
X136144000Y-102634000D03*
X136144000Y-100584000D03*
D27*
X145800000Y-92766025D03*
X144800000Y-91033975D03*
D25*
X138176000Y-102643000D03*
X138176000Y-100593000D03*
D16*
X140208000Y-96538000D03*
X140208000Y-98588000D03*
D28*
X136101000Y-80264000D03*
X138176000Y-80264000D03*
D16*
X119380000Y-90406000D03*
X119380000Y-92456000D03*
D24*
X126620324Y-74172500D03*
X128395676Y-73147500D03*
D25*
X136144000Y-98579000D03*
X136144000Y-96529000D03*
D19*
X130055527Y-83718305D03*
X128055527Y-83718305D03*
D29*
X136126000Y-71120000D03*
X138176000Y-71120000D03*
D19*
X130048000Y-81788000D03*
X128048000Y-81788000D03*
D29*
X136126000Y-111252000D03*
X138176000Y-111252000D03*
D19*
X130032000Y-87884000D03*
X128032000Y-87884000D03*
D16*
X138176000Y-96529000D03*
X138176000Y-98579000D03*
D30*
X153420500Y-98172324D03*
X152395500Y-99947676D03*
D29*
X136135000Y-108712000D03*
X138185000Y-108712000D03*
D17*
X154369539Y-100963676D03*
X155394539Y-99188324D03*
D29*
X136126000Y-73660000D03*
X138176000Y-73660000D03*
D31*
X122481250Y-97201499D03*
X123518750Y-98998501D03*
D20*
X121712500Y-99987676D03*
X120687500Y-98212324D03*
D25*
X157480000Y-92465000D03*
X157480000Y-90415000D03*
D24*
X145416324Y-107192500D03*
X147191676Y-106167500D03*
D22*
X158650000Y-86600000D03*
D24*
X146560648Y-109229000D03*
X148336000Y-108204000D03*
D32*
X129548000Y-91033975D03*
X128548000Y-92766025D03*
M02*
