G04 #@! TF.GenerationSoftware,KiCad,Pcbnew,6.0.9-8da3e8f707~116~ubuntu22.04.1*
G04 #@! TF.CreationDate,2022-11-08T11:27:41+01:00*
G04 #@! TF.ProjectId,PCB-Horloge,5043422d-486f-4726-9c6f-67652e6b6963,1.0*
G04 #@! TF.SameCoordinates,Original*
G04 #@! TF.FileFunction,Soldermask,Top*
G04 #@! TF.FilePolarity,Negative*
%FSLAX46Y46*%
G04 Gerber Fmt 4.6, Leading zero omitted, Abs format (unit mm)*
G04 Created by KiCad (PCBNEW 6.0.9-8da3e8f707~116~ubuntu22.04.1) date 2022-11-08 11:27:41*
%MOMM*%
%LPD*%
G01*
G04 APERTURE LIST*
G04 Aperture macros list*
%AMRoundRect*
0 Rectangle with rounded corners*
0 $1 Rounding radius*
0 $2 $3 $4 $5 $6 $7 $8 $9 X,Y pos of 4 corners*
0 Add a 4 corners polygon primitive as box body*
4,1,4,$2,$3,$4,$5,$6,$7,$8,$9,$2,$3,0*
0 Add four circle primitives for the rounded corners*
1,1,$1+$1,$2,$3*
1,1,$1+$1,$4,$5*
1,1,$1+$1,$6,$7*
1,1,$1+$1,$8,$9*
0 Add four rect primitives between the rounded corners*
20,1,$1+$1,$2,$3,$4,$5,0*
20,1,$1+$1,$4,$5,$6,$7,0*
20,1,$1+$1,$6,$7,$8,$9,0*
20,1,$1+$1,$8,$9,$2,$3,0*%
G04 Aperture macros list end*
%ADD10R,1.700000X1.700000*%
%ADD11O,1.700000X1.700000*%
%ADD12RoundRect,0.250000X0.506458X0.227211X-0.056458X0.552211X-0.506458X-0.227211X0.056458X-0.552211X0*%
%ADD13C,4.000000*%
%ADD14RoundRect,0.250000X-0.450000X0.325000X-0.450000X-0.325000X0.450000X-0.325000X0.450000X0.325000X0*%
%ADD15RoundRect,0.250000X0.227211X-0.506458X0.552211X0.056458X-0.227211X0.506458X-0.552211X-0.056458X0*%
%ADD16RoundRect,0.250000X0.242612X-0.529784X0.580112X0.054784X-0.242612X0.529784X-0.580112X-0.054784X0*%
%ADD17RoundRect,0.250000X0.350000X0.450000X-0.350000X0.450000X-0.350000X-0.450000X0.350000X-0.450000X0*%
%ADD18RoundRect,0.250000X0.552211X-0.056458X0.227211X0.506458X-0.552211X0.056458X-0.227211X-0.506458X0*%
%ADD19RoundRect,0.250000X-0.350000X-0.450000X0.350000X-0.450000X0.350000X0.450000X-0.350000X0.450000X0*%
%ADD20C,2.100000*%
%ADD21RoundRect,0.250000X-0.506458X-0.227211X0.056458X-0.552211X0.506458X0.227211X-0.056458X0.552211X0*%
%ADD22RoundRect,0.250000X-0.056458X-0.552211X0.506458X-0.227211X0.056458X0.552211X-0.506458X0.227211X0*%
%ADD23RoundRect,0.250000X0.450000X-0.325000X0.450000X0.325000X-0.450000X0.325000X-0.450000X-0.325000X0*%
%ADD24RoundRect,0.150000X-0.875000X-0.150000X0.875000X-0.150000X0.875000X0.150000X-0.875000X0.150000X0*%
%ADD25RoundRect,0.250000X0.564711X-0.078109X0.214711X0.528109X-0.564711X0.078109X-0.214711X-0.528109X0*%
%ADD26RoundRect,0.250000X-0.337500X-0.475000X0.337500X-0.475000X0.337500X0.475000X-0.337500X0.475000X0*%
%ADD27RoundRect,0.250000X-0.325000X-0.450000X0.325000X-0.450000X0.325000X0.450000X-0.325000X0.450000X0*%
%ADD28RoundRect,0.250000X-0.227211X0.506458X-0.552211X-0.056458X0.227211X-0.506458X0.552211X0.056458X0*%
%ADD29RoundRect,0.250000X-0.580112X0.054784X-0.242612X-0.529784X0.580112X-0.054784X0.242612X0.529784X0*%
%ADD30RoundRect,0.250000X-0.214711X0.528109X-0.564711X-0.078109X0.214711X-0.528109X0.564711X0.078109X0*%
G04 APERTURE END LIST*
D10*
X134620000Y-77996867D03*
D11*
X137160000Y-77996867D03*
X139700000Y-77996867D03*
D12*
X129032000Y-109728000D03*
X127256648Y-108703000D03*
X146812000Y-76708000D03*
X145036648Y-75683000D03*
D13*
X147300000Y-96300000D03*
D14*
X116840000Y-90415000D03*
X116840000Y-92465000D03*
D13*
X126900000Y-96300000D03*
D14*
X134112000Y-96529000D03*
X134112000Y-98579000D03*
D15*
X121407500Y-85215676D03*
X122432500Y-83440324D03*
X118867500Y-83691676D03*
X119892500Y-81916324D03*
D16*
X150600000Y-98900000D03*
X151637500Y-97102998D03*
D17*
X130048000Y-85852000D03*
X128048000Y-85852000D03*
D18*
X119888000Y-101092000D03*
X118863000Y-99316648D03*
D19*
X144304000Y-83820000D03*
X146304000Y-83820000D03*
D20*
X115650000Y-86600000D03*
D18*
X155677499Y-82929528D03*
X154652499Y-81154176D03*
D21*
X128798648Y-106163000D03*
X130574000Y-107188000D03*
D18*
X153420500Y-84199676D03*
X152395500Y-82424324D03*
D22*
X127879657Y-76228141D03*
X129655009Y-75203141D03*
D23*
X154940000Y-92465000D03*
X154940000Y-90415000D03*
D19*
X144288000Y-85852000D03*
X146288000Y-85852000D03*
D12*
X148142568Y-74437882D03*
X146367216Y-73412882D03*
D24*
X132510000Y-82169000D03*
X132510000Y-83439000D03*
X132510000Y-84709000D03*
X132510000Y-85979000D03*
X132510000Y-87249000D03*
X132510000Y-88519000D03*
X132510000Y-89789000D03*
X132510000Y-91059000D03*
X132510000Y-92329000D03*
X132510000Y-93599000D03*
X141810000Y-93599000D03*
X141810000Y-92329000D03*
X141810000Y-91059000D03*
X141810000Y-89789000D03*
X141810000Y-88519000D03*
X141810000Y-87249000D03*
X141810000Y-85979000D03*
X141810000Y-84709000D03*
X141810000Y-83439000D03*
X141810000Y-82169000D03*
D23*
X136144000Y-102634000D03*
X136144000Y-100584000D03*
D25*
X145800000Y-92766025D03*
X144800000Y-91033975D03*
D23*
X138176000Y-102643000D03*
X138176000Y-100593000D03*
D14*
X140208000Y-96538000D03*
X140208000Y-98588000D03*
D26*
X136101000Y-80264000D03*
X138176000Y-80264000D03*
D14*
X119380000Y-90406000D03*
X119380000Y-92456000D03*
D22*
X126620324Y-74172500D03*
X128395676Y-73147500D03*
D23*
X136144000Y-98579000D03*
X136144000Y-96529000D03*
D17*
X130055527Y-83718305D03*
X128055527Y-83718305D03*
D27*
X136126000Y-71120000D03*
X138176000Y-71120000D03*
D17*
X130048000Y-81788000D03*
X128048000Y-81788000D03*
D27*
X136126000Y-111252000D03*
X138176000Y-111252000D03*
D17*
X130032000Y-87884000D03*
X128032000Y-87884000D03*
D14*
X138176000Y-96529000D03*
X138176000Y-98579000D03*
D28*
X153420500Y-98172324D03*
X152395500Y-99947676D03*
D27*
X136135000Y-108712000D03*
X138185000Y-108712000D03*
D15*
X154369539Y-100963676D03*
X155394539Y-99188324D03*
D27*
X136126000Y-73660000D03*
X138176000Y-73660000D03*
D29*
X122481250Y-97201499D03*
X123518750Y-98998501D03*
D18*
X121712500Y-99987676D03*
X120687500Y-98212324D03*
D23*
X157480000Y-92465000D03*
X157480000Y-90415000D03*
D22*
X145416324Y-107192500D03*
X147191676Y-106167500D03*
D20*
X158650000Y-86600000D03*
D22*
X146560648Y-109229000D03*
X148336000Y-108204000D03*
D30*
X129548000Y-91033975D03*
X128548000Y-92766025D03*
M02*
