  0
SECTION
  2
HEADER
  9
$ACADVER
  1
AC1014
  9
$HANDSEED
  5
FFFF
  9
$MEASUREMENT
 70
     1
  0
ENDSEC
  0
SECTION
  2
TABLES
  0
TABLE
  2
VPORT
  5
8
330
0
100
AcDbSymbolTable
 70
     4
  0
VPORT
  5
2E
330
8
100
AcDbSymbolTableRecord
100
AcDbViewportTableRecord
  2
*ACTIVE
 70
     0
 10
0.0
 20
0.0
 11
1.0
 21
1.0
 12
210.0
 22
148.5
 13
0.0
 23
0.0
 14
10.0
 24
10.0
 15
10.0
 25
10.0
 16
0.0
 26
0.0
 36
1.0
 17
0.0
 27
0.0
 37
0.0
 40
341.0
 41
1.24
 42
50.0
 43
0.0
 44
0.0
 50
0.0
 51
0.0
 71
     0
 72
   100
 73
     1
 74
     3
 75
     0
 76
     0
 77
     0
 78
     0
  0
ENDTAB
  0
TABLE
  2
LTYPE
  5
5
330
0
100
AcDbSymbolTable
 70
     1
  0
LTYPE
  5
14
330
5
100
AcDbSymbolTableRecord
100
AcDbLinetypeTableRecord
  2
BYBLOCK
 70
     0
  3

 72
    65
 73
     0
 40
0.0
  0
LTYPE
  5
15
330
5
100
AcDbSymbolTableRecord
100
AcDbLinetypeTableRecord
  2
BYLAYER
 70
     0
  3

 72
    65
 73
     0
 40
0.0
  0
LTYPE
  5
16
330
5
100
AcDbSymbolTableRecord
100
AcDbLinetypeTableRecord
  2
CONTINUOUS
 70
     0
  3
Solid line
 72
    65
 73
     0
 40
0.0
  0
ENDTAB
  0
TABLE
  2
LAYER
  5
2
100
AcDbSymbolTable
 70
1
  0
LAYER
  5
50
100
AcDbSymbolTableRecord
100
AcDbLayerTableRecord
  2
0
 70
0
  6
CONTINUOUS
  0
ENDTAB
  0
TABLE
  2
STYLE
  5
3
330
0
100
AcDbSymbolTable
 70
     1
  0
STYLE
  5
11
330
3
100
AcDbSymbolTableRecord
100
AcDbTextStyleTableRecord
  2
STANDARD
 70
     0
 40
0.0
 41
1.0
 50
0.0
 71
     0
 42
2.5
  3
txt
  4

  0
ENDTAB
  0
TABLE
  2
VIEW
  5
6
330
0
100
AcDbSymbolTable
 70
     0
  0
ENDTAB
  0
TABLE
  2
UCS
  5
7
330
0
100
AcDbSymbolTable
 70
     0
  0
ENDTAB
  0
TABLE
  2
APPID
  5
9
330
0
100
AcDbSymbolTable
 70
     2
  0
APPID
  5
12
330
9
100
AcDbSymbolTableRecord
100
AcDbRegAppTableRecord
  2
ACAD
 70
     0
  0
ENDTAB
  0
TABLE
  2
DIMSTYLE
  5
A
330
0
100
AcDbSymbolTable
 70
     1
  0
DIMSTYLE
105
27
330
A
100
AcDbSymbolTableRecord
100
AcDbDimStyleTableRecord
  2
ISO-25
 70
     0
  3

  4

  5

  6

  7

 40
1.0
 41
2.5
 42
0.625
 43
3.75
 44
1.25
 45
0.0
 46
0.0
 47
0.0
 48
0.0
140
2.5
141
2.5
142
0.0
143
0.03937007874016
144
1.0
145
0.0
146
1.0
147
0.625
 71
     0
 72
     0
 73
     0
 74
     0
 75
     0
 76
     0
 77
     1
 78
     8
170
     0
171
     3
172
     1
173
     0
174
     0
175
     0
176
     0
177
     0
178
     0
270
     2
271
     2
272
     2
273
     2
274
     3
340
11
275
     0
280
     0
281
     0
282
     0
283
     0
284
     8
285
     0
286
     0
287
     3
288
     0
  0
ENDTAB
  0
TABLE
  2
BLOCK_RECORD
  5
1
330
0
100
AcDbSymbolTable
 70
     1
  0
BLOCK_RECORD
  5
1F
330
1
100
AcDbSymbolTableRecord
100
AcDbBlockTableRecord
  2
*MODEL_SPACE
  0
BLOCK_RECORD
  5
1B
330
1
100
AcDbSymbolTableRecord
100
AcDbBlockTableRecord
  2
*PAPER_SPACE
  0
ENDTAB
  0
ENDSEC
  0
SECTION
  2
BLOCKS
  0
BLOCK
  5
20
330
1F
100
AcDbEntity
  8
0
100
AcDbBlockBegin
  2
*MODEL_SPACE
 70
     0
 10
0.0
 20
0.0
 30
0.0
  3
*MODEL_SPACE
  1

  0
ENDBLK
  5
21
330
1F
100
AcDbEntity
  8
0
100
AcDbBlockEnd
  0
BLOCK
  5
1C
330
1B
100
AcDbEntity
 67
     1
  8
0
100
AcDbBlockBegin
  2
*PAPER_SPACE
  1

  0
ENDBLK
  5
1D
330
1B
100
AcDbEntity
 67
     1
  8
0
100
AcDbBlockEnd
  0
ENDSEC
  0
SECTION
  2
ENTITIES
  0
SPLINE
  5
100
100
AcDbEntity
  8
0
 62
7
100
AcDbSpline
 70
8
 71
3
 72
8
 73
4
 74
0
 40
0
 40
0
 40
0
 40
0
 40
1
 40
1
 40
1
 40
1
 10
102870097.968163
 20
105425500.401796
 30
0.0
 10
96196464.573178
 20
105425500.401796
 30
0.0
 10
90179960.098043
 20
101405400.636565
 30
0.0
 10
87626071.164104
 20
95239767.335455
 30
0.0
  0
SPLINE
  5
101
100
AcDbEntity
  8
0
 62
7
100
AcDbSpline
 70
8
 71
3
 72
8
 73
4
 74
0
 40
0
 40
0
 40
0
 40
0
 40
1
 40
1
 40
1
 40
1
 10
87626071.164104
 20
95239767.335455
 30
0.0
 10
85072182.230165
 20
89074134.034344
 30
0.0
 10
86483853.538530
 20
81977183.115895
 30
0.0
 10
91202824.967277
 20
77258211.687149
 30
0.0
  0
SPLINE
  5
102
100
AcDbEntity
  8
0
 62
7
100
AcDbSpline
 70
8
 71
3
 72
8
 73
4
 74
0
 40
0
 40
0
 40
0
 40
0
 40
1
 40
1
 40
1
 40
1
 10
91202824.967277
 20
77258211.687149
 30
0.0
 10
95921796.396024
 20
72539240.258402
 30
0.0
 10
103018747.314473
 20
71127568.950036
 30
0.0
 10
109184380.615583
 20
73681457.883975
 30
0.0
  0
SPLINE
  5
103
100
AcDbEntity
  8
0
 62
7
100
AcDbSpline
 70
8
 71
3
 72
8
 73
4
 74
0
 40
0
 40
0
 40
0
 40
0
 40
1
 40
1
 40
1
 40
1
 10
109184380.615583
 20
73681457.883975
 30
0.0
 10
115350013.916694
 20
76235346.817914
 30
0.0
 10
119370113.681925
 20
82251851.293049
 30
0.0
 10
119370113.681925
 20
88925484.688034
 30
0.0
  0
SPLINE
  5
104
100
AcDbEntity
  8
0
 62
7
100
AcDbSpline
 70
8
 71
3
 72
8
 73
4
 74
0
 40
0
 40
0
 40
0
 40
0
 40
1
 40
1
 40
1
 40
1
 10
119370113.681925
 20
88925484.688034
 30
0.0
 10
119370113.681925
 20
93301560.937935
 30
0.0
 10
117631724.160343
 20
97498404.497625
 30
0.0
 10
114537370.969049
 20
100592757.688920
 30
0.0
  0
SPLINE
  5
105
100
AcDbEntity
  8
0
 62
7
100
AcDbSpline
 70
8
 71
3
 72
8
 73
4
 74
0
 40
0
 40
0
 40
0
 40
0
 40
1
 40
1
 40
1
 40
1
 10
114537370.969049
 20
100592757.688920
 30
0.0
 10
111443017.777754
 20
103687110.880214
 30
0.0
 10
107246174.218064
 20
105425500.401796
 30
0.0
 10
102870097.968163
 20
105425500.401796
 30
0.0
  0
LWPOLYLINE
  5
106
100
AcDbEntity
  8
0
 62
7
100
AcDbPolyline
 90
1
 70
1
 10
102870097.968163
 20
105425500.401796
 30
0.0
  0
LWPOLYLINE
  5
107
100
AcDbEntity
  8
0
 62
7
100
AcDbPolyline
 90
20
 70
1
 10
96978816.107611
 20
74701562.891906
 30
0.0
 10
96930579.061672
 20
74646558.589523
 30
0.0
 10
96864964.499184
 20
74614201.308708
 30
0.0
 10
96791962.429661
 20
74609416.304151
 30
0.0
 10
96722685.613685
 20
74632932.576547
 30
0.0
 10
96300498.211616
 20
74876682.808682
 30
0.0
 10
96245493.909233
 20
74924919.854620
 30
0.0
 10
96213136.628417
 20
74990534.417108
 30
0.0
 10
96208351.623860
 20
75063536.486631
 30
0.0
 10
96231867.896256
 20
75132813.302607
 30
0.0
 10
96569368.217674
 20
75717380.359319
 30
0.0
 10
96617605.263612
 20
75772384.661702
 30
0.0
 10
96683219.826100
 20
75804741.942517
 30
0.0
 10
96756221.895623
 20
75809526.947074
 30
0.0
 10
96825498.711599
 20
75786010.674678
 30
0.0
 10
97247686.113669
 20
75542260.442543
 30
0.0
 10
97302690.416052
 20
75494023.396605
 30
0.0
 10
97335047.696867
 20
75428408.834117
 30
0.0
 10
97339832.701424
 20
75355406.764594
 30
0.0
 10
97316316.429029
 20
75286129.948618
 30
0.0
  0
LWPOLYLINE
  5
108
100
AcDbEntity
  8
0
 62
7
100
AcDbPolyline
 90
20
 70
1
 10
95647300.839544
 20
75470313.624025
 30
0.0
 10
95599063.793606
 20
75415309.321642
 30
0.0
 10
95533449.231118
 20
75382952.040826
 30
0.0
 10
95460447.161595
 20
75378167.036269
 30
0.0
 10
95391170.345619
 20
75401683.308665
 30
0.0
 10
94968982.943550
 20
75645433.540800
 30
0.0
 10
94913978.641166
 20
75693670.586739
 30
0.0
 10
94881621.360351
 20
75759285.149226
 30
0.0
 10
94876836.355794
 20
75832287.218750
 30
0.0
 10
94900352.628190
 20
75901564.034726
 30
0.0
 10
95237852.949607
 20
76486131.091437
 30
0.0
 10
95286089.995546
 20
76541135.393820
 30
0.0
 10
95351704.558034
 20
76573492.674636
 30
0.0
 10
95424706.627557
 20
76578277.679193
 30
0.0
 10
95493983.443533
 20
76554761.406797
 30
0.0
 10
95916170.845602
 20
76311011.174662
 30
0.0
 10
95971175.147986
 20
76262774.128723
 30
0.0
 10
96003532.428801
 20
76197159.566235
 30
0.0
 10
96008317.433358
 20
76124157.496712
 30
0.0
 10
95984801.160962
 20
76054880.680736
 30
0.0
  0
LWPOLYLINE
  5
109
100
AcDbEntity
  8
0
 62
7
100
AcDbPolyline
 90
20
 70
1
 10
110313828.807187
 20
99466586.476835
 30
0.0
 10
110265591.761249
 20
99411582.174451
 30
0.0
 10
110199977.198761
 20
99379224.893636
 30
0.0
 10
110126975.129238
 20
99374439.889079
 30
0.0
 10
110057698.313262
 20
99397956.161475
 30
0.0
 10
109635510.911192
 20
99641706.393610
 30
0.0
 10
109580506.608809
 20
99689943.439548
 30
0.0
 10
109548149.327994
 20
99755558.002036
 30
0.0
 10
109543364.323437
 20
99828560.071560
 30
0.0
 10
109566880.595833
 20
99897836.887535
 30
0.0
 10
109904380.917250
 20
100482403.944247
 30
0.0
 10
109952617.963189
 20
100537408.246630
 30
0.0
 10
110018232.525677
 20
100569765.527445
 30
0.0
 10
110091234.595200
 20
100574550.532002
 30
0.0
 10
110160511.411176
 20
100551034.259607
 30
0.0
 10
110582698.813245
 20
100307284.027471
 30
0.0
 10
110637703.115629
 20
100259046.981533
 30
0.0
 10
110670060.396444
 20
100193432.419045
 30
0.0
 10
110674845.401001
 20
100120430.349522
 30
0.0
 10
110651329.128605
 20
100051153.533546
 30
0.0
  0
LWPOLYLINE
  5
10a
100
AcDbEntity
  8
0
 62
7
100
AcDbPolyline
 90
20
 70
1
 10
108982313.539121
 20
100235337.208953
 30
0.0
 10
108934076.493183
 20
100180332.906570
 30
0.0
 10
108868461.930695
 20
100147975.625754
 30
0.0
 10
108795459.861171
 20
100143190.621197
 30
0.0
 10
108726183.045196
 20
100166706.893593
 30
0.0
 10
108303995.643126
 20
100410457.125728
 30
0.0
 10
108248991.340743
 20
100458694.171667
 30
0.0
 10
108216634.059928
 20
100524308.734155
 30
0.0
 10
108211849.055371
 20
100597310.803678
 30
0.0
 10
108235365.327766
 20
100666587.619654
 30
0.0
 10
108572865.649184
 20
101251154.676365
 30
0.0
 10
108621102.695123
 20
101306158.978748
 30
0.0
 10
108686717.257610
 20
101338516.259564
 30
0.0
 10
108759719.327134
 20
101343301.264121
 30
0.0
 10
108828996.143110
 20
101319784.991725
 30
0.0
 10
109251183.545179
 20
101076034.759590
 30
0.0
 10
109306187.847562
 20
101027797.713651
 30
0.0
 10
109338545.128378
 20
100962183.151164
 30
0.0
 10
109343330.132935
 20
100889181.081640
 30
0.0
 10
109319813.860539
 20
100819904.265664
 30
0.0
  0
LWPOLYLINE
  5
10b
100
AcDbEntity
  8
0
 62
7
100
AcDbPolyline
 90
20
 70
1
 10
87967583.775779
 20
90125485.830853
 30
0.0
 10
88039337.094113
 20
90111213.317261
 30
0.0
 10
88100166.652044
 20
90070568.528553
 30
0.0
 10
88140811.440752
 20
90009738.970622
 30
0.0
 10
88155083.954344
 20
89937985.652288
 30
0.0
 10
88155083.954344
 20
89450485.188018
 30
0.0
 10
88140811.440752
 20
89378731.869683
 30
0.0
 10
88100166.652044
 20
89317902.311752
 30
0.0
 10
88039337.094113
 20
89277257.523044
 30
0.0
 10
87967583.775779
 20
89262985.009452
 30
0.0
 10
87292583.132943
 20
89262985.009452
 30
0.0
 10
87220829.814609
 20
89277257.523044
 30
0.0
 10
87160000.256678
 20
89317902.311752
 30
0.0
 10
87119355.467970
 20
89378731.869683
 30
0.0
 10
87105082.954378
 20
89450485.188018
 30
0.0
 10
87105082.954378
 20
89937985.652288
 30
0.0
 10
87119355.467970
 20
90009738.970622
 30
0.0
 10
87160000.256678
 20
90070568.528553
 30
0.0
 10
87220829.814609
 20
90111213.317261
 30
0.0
 10
87292583.132943
 20
90125485.830853
 30
0.0
  0
LWPOLYLINE
  5
10c
100
AcDbEntity
  8
0
 62
7
100
AcDbPolyline
 90
20
 70
1
 10
87967583.775779
 20
88587984.366616
 30
0.0
 10
88039337.094113
 20
88573711.853024
 30
0.0
 10
88100166.652044
 20
88533067.064316
 30
0.0
 10
88140811.440752
 20
88472237.506385
 30
0.0
 10
88155083.954344
 20
88400484.188051
 30
0.0
 10
88155083.954344
 20
87912983.723781
 30
0.0
 10
88140811.440752
 20
87841230.405446
 30
0.0
 10
88100166.652044
 20
87780400.847516
 30
0.0
 10
88039337.094113
 20
87739756.058808
 30
0.0
 10
87967583.775779
 20
87725483.545215
 30
0.0
 10
87292583.132943
 20
87725483.545215
 30
0.0
 10
87220829.814609
 20
87739756.058808
 30
0.0
 10
87160000.256678
 20
87780400.847516
 30
0.0
 10
87119355.467970
 20
87841230.405446
 30
0.0
 10
87105082.954378
 20
87912983.723781
 30
0.0
 10
87105082.954378
 20
88400484.188051
 30
0.0
 10
87119355.467970
 20
88472237.506385
 30
0.0
 10
87160000.256678
 20
88533067.064316
 30
0.0
 10
87220829.814609
 20
88573711.853024
 30
0.0
 10
87292583.132943
 20
88587984.366616
 30
0.0
  0
LWPOLYLINE
  5
10d
100
AcDbEntity
  8
0
 62
7
100
AcDbPolyline
 90
20
 70
1
 10
100921596.112511
 20
85539981.463856
 30
0.0
 10
100993349.430845
 20
85525708.950264
 30
0.0
 10
101054178.988776
 20
85485064.161556
 30
0.0
 10
101094823.777484
 20
85424234.603625
 30
0.0
 10
101109096.291076
 20
85352481.285291
 30
0.0
 10
101109096.291076
 20
84864980.821020
 30
0.0
 10
101094823.777484
 20
84793227.502686
 30
0.0
 10
101054178.988776
 20
84732397.944755
 30
0.0
 10
100993349.430845
 20
84691753.156047
 30
0.0
 10
100921596.112511
 20
84677480.642455
 30
0.0
 10
100246595.469675
 20
84677480.642455
 30
0.0
 10
100174842.151341
 20
84691753.156047
 30
0.0
 10
100114012.593410
 20
84732397.944755
 30
0.0
 10
100073367.804702
 20
84793227.502686
 30
0.0
 10
100059095.291109
 20
84864980.821020
 30
0.0
 10
100059095.291109
 20
85352481.285291
 30
0.0
 10
100073367.804702
 20
85424234.603625
 30
0.0
 10
100114012.593410
 20
85485064.161556
 30
0.0
 10
100174842.151341
 20
85525708.950264
 30
0.0
 10
100246595.469675
 20
85539981.463856
 30
0.0
  0
LWPOLYLINE
  5
10e
100
AcDbEntity
  8
0
 62
7
100
AcDbPolyline
 90
20
 70
1
 10
100921596.112511
 20
84002479.999619
 30
0.0
 10
100993349.430845
 20
83988207.486027
 30
0.0
 10
101054178.988776
 20
83947562.697319
 30
0.0
 10
101094823.777484
 20
83886733.139388
 30
0.0
 10
101109096.291076
 20
83814979.821054
 30
0.0
 10
101109096.291076
 20
83327479.356783
 30
0.0
 10
101094823.777484
 20
83255726.038449
 30
0.0
 10
101054178.988776
 20
83194896.480518
 30
0.0
 10
100993349.430845
 20
83154251.691810
 30
0.0
 10
100921596.112511
 20
83139979.178218
 30
0.0
 10
100246595.469675
 20
83139979.178218
 30
0.0
 10
100174842.151341
 20
83154251.691810
 30
0.0
 10
100114012.593410
 20
83194896.480518
 30
0.0
 10
100073367.804702
 20
83255726.038449
 30
0.0
 10
100059095.291109
 20
83327479.356783
 30
0.0
 10
100059095.291109
 20
83814979.821054
 30
0.0
 10
100073367.804702
 20
83886733.139388
 30
0.0
 10
100114012.593410
 20
83947562.697319
 30
0.0
 10
100174842.151341
 20
83988207.486027
 30
0.0
 10
100246595.469675
 20
84002479.999619
 30
0.0
  0
LWPOLYLINE
  5
10f
100
AcDbEntity
  8
0
 62
7
100
AcDbPolyline
 90
20
 70
1
 10
90547802.983046
 20
93389008.188863
 30
0.0
 10
90492798.680663
 20
93437245.234802
 30
0.0
 10
90460441.399848
 20
93502859.797290
 30
0.0
 10
90455656.395291
 20
93575861.866813
 30
0.0
 10
90479172.667686
 20
93645138.682789
 30
0.0
 10
90722922.899821
 20
94067326.084858
 30
0.0
 10
90771159.945760
 20
94122330.387241
 30
0.0
 10
90836774.508248
 20
94154687.668057
 30
0.0
 10
90909776.577771
 20
94159472.672614
 30
0.0
 10
90979053.393747
 20
94135956.400218
 30
0.0
 10
91563620.450458
 20
93798456.078800
 30
0.0
 10
91618624.752842
 20
93750219.032862
 30
0.0
 10
91650982.033657
 20
93684604.470374
 30
0.0
 10
91655767.038214
 20
93611602.400850
 30
0.0
 10
91632250.765818
 20
93542325.584875
 30
0.0
 10
91388500.533683
 20
93120138.182805
 30
0.0
 10
91340263.487745
 20
93065133.880422
 30
0.0
 10
91274648.925257
 20
93032776.599607
 30
0.0
 10
91201646.855733
 20
93027991.595050
 30
0.0
 10
91132370.039758
 20
93051507.867445
 30
0.0
  0
LWPOLYLINE
  5
110
100
AcDbEntity
  8
0
 62
7
100
AcDbPolyline
 90
20
 70
1
 10
91316553.715165
 20
94720523.456930
 30
0.0
 10
91261549.412781
 20
94768760.502868
 30
0.0
 10
91229192.131966
 20
94834375.065356
 30
0.0
 10
91224407.127409
 20
94907377.134879
 30
0.0
 10
91247923.399805
 20
94976653.950855
 30
0.0
 10
91491673.631940
 20
95398841.352924
 30
0.0
 10
91539910.677878
 20
95453845.655308
 30
0.0
 10
91605525.240366
 20
95486202.936123
 30
0.0
 10
91678527.309890
 20
95490987.940680
 30
0.0
 10
91747804.125865
 20
95467471.668284
 30
0.0
 10
92332371.182577
 20
95129971.346867
 30
0.0
 10
92387375.484960
 20
95081734.300928
 30
0.0
 10
92419732.765775
 20
95016119.738440
 30
0.0
 10
92424517.770332
 20
94943117.668917
 30
0.0
 10
92401001.497937
 20
94873840.852941
 30
0.0
 10
92157251.265802
 20
94451653.450872
 30
0.0
 10
92109014.219863
 20
94396649.148488
 30
0.0
 10
92043399.657375
 20
94364291.867673
 30
0.0
 10
91970397.587852
 20
94359506.863116
 30
0.0
 10
91901120.771876
 20
94383023.135512
 30
0.0
  0
LWPOLYLINE
  5
111
100
AcDbEntity
  8
0
 62
7
100
AcDbPolyline
 90
20
 70
1
 10
88642801.168821
 20
94532009.277398
 30
0.0
 10
88587796.866438
 20
94580246.323337
 30
0.0
 10
88555439.585622
 20
94645860.885825
 30
0.0
 10
88550654.581065
 20
94718862.955348
 30
0.0
 10
88574170.853461
 20
94788139.771324
 30
0.0
 10
88817921.085596
 20
95210327.173393
 30
0.0
 10
88866158.131535
 20
95265331.475777
 30
0.0
 10
88931772.694023
 20
95297688.756592
 30
0.0
 10
89004774.763546
 20
95302473.761149
 30
0.0
 10
89074051.579522
 20
95278957.488753
 30
0.0
 10
89658618.636233
 20
94941457.167335
 30
0.0
 10
89713622.938616
 20
94893220.121397
 30
0.0
 10
89745980.219432
 20
94827605.558909
 30
0.0
 10
89750765.223989
 20
94754603.489386
 30
0.0
 10
89727248.951593
 20
94685326.673410
 30
0.0
 10
89483498.719458
 20
94263139.271340
 30
0.0
 10
89435261.673519
 20
94208134.968957
 30
0.0
 10
89369647.111032
 20
94175777.688142
 30
0.0
 10
89296645.041508
 20
94170992.683585
 30
0.0
 10
89227368.225532
 20
94194508.955981
 30
0.0
  0
LWPOLYLINE
  5
112
100
AcDbEntity
  8
0
 62
7
100
AcDbPolyline
 90
20
 70
1
 10
89411551.900939
 20
95863524.545465
 30
0.0
 10
89356547.598556
 20
95911761.591403
 30
0.0
 10
89324190.317741
 20
95977376.153891
 30
0.0
 10
89319405.313184
 20
96050378.223414
 30
0.0
 10
89342921.585580
 20
96119655.039390
 30
0.0
 10
89586671.817715
 20
96541842.441460
 30
0.0
 10
89634908.863653
 20
96596846.743843
 30
0.0
 10
89700523.426141
 20
96629204.024658
 30
0.0
 10
89773525.495664
 20
96633989.029215
 30
0.0
 10
89842802.311640
 20
96610472.756820
 30
0.0
 10
90427369.368352
 20
96272972.435402
 30
0.0
 10
90482373.670735
 20
96224735.389463
 30
0.0
 10
90514730.951550
 20
96159120.826975
 30
0.0
 10
90519515.956107
 20
96086118.757452
 30
0.0
 10
90495999.683711
 20
96016841.941476
 30
0.0
 10
90252249.451576
 20
95594654.539407
 30
0.0
 10
90204012.405638
 20
95539650.237024
 30
0.0
 10
90138397.843150
 20
95507292.956208
 30
0.0
 10
90065395.773627
 20
95502507.951651
 30
0.0
 10
89996118.957651
 20
95526024.224047
 30
0.0
  0
LWPOLYLINE
  5
113
100
AcDbEntity
  8
0
 62
7
100
AcDbPolyline
 90
20
 70
1
 10
112421273.064208
 20
83127011.665868
 30
0.0
 10
112366268.761825
 20
83175248.711807
 30
0.0
 10
112333911.481010
 20
83240863.274295
 30
0.0
 10
112329127.226453
 20
83313865.343818
 30
0.0
 10
112352643.498849
 20
83383141.409793
 30
0.0
 10
112605768.739912
 20
83821567.827328
 30
0.0
 10
112654005.785851
 20
83876571.379710
 30
0.0
 10
112719619.598338
 20
83908928.660526
 30
0.0
 10
112792621.667862
 20
83913713.665083
 30
0.0
 10
112861898.483837
 20
83890197.392687
 30
0.0
 10
113478942.071478
 20
83533947.053413
 30
0.0
 10
113533946.373861
 20
83485710.007474
 30
0.0
 10
113566303.654676
 20
83420095.444986
 30
0.0
 10
113571087.909233
 20
83347093.375463
 30
0.0
 10
113547571.636837
 20
83277817.309488
 30
0.0
 10
113294446.395773
 20
82839390.891953
 30
0.0
 10
113246209.349835
 20
82784387.339571
 30
0.0
 10
113180595.537348
 20
82752030.058755
 30
0.0
 10
113107593.467824
 20
82747245.054198
 30
0.0
 10
113038316.651849
 20
82770761.326594
 30
0.0
  0
LWPOLYLINE
  5
114
100
AcDbEntity
  8
0
 62
7
100
AcDbPolyline
 90
20
 70
1
 10
113199398.805255
 20
84474764.449398
 30
0.0
 10
113144394.502872
 20
84523001.495337
 30
0.0
 10
113112037.222056
 20
84588616.057825
 30
0.0
 10
113107252.967500
 20
84661618.127348
 30
0.0
 10
113130769.239896
 20
84730894.193323
 30
0.0
 10
113383894.480959
 20
85169320.610858
 30
0.0
 10
113432131.526898
 20
85224324.163240
 30
0.0
 10
113497745.339385
 20
85256681.444056
 30
0.0
 10
113570747.408908
 20
85261466.448613
 30
0.0
 10
113640024.224884
 20
85237950.176217
 30
0.0
 10
114257067.812524
 20
84881699.836943
 30
0.0
 10
114312072.114908
 20
84833462.791004
 30
0.0
 10
114344429.395723
 20
84767848.228516
 30
0.0
 10
114349213.650279
 20
84694846.158993
 30
0.0
 10
114325697.377884
 20
84625570.093018
 30
0.0
 10
114072572.136820
 20
84187143.675483
 30
0.0
 10
114024335.090882
 20
84132140.123101
 30
0.0
 10
113958721.278395
 20
84099782.842285
 30
0.0
 10
113885719.208871
 20
84094997.837728
 30
0.0
 10
113816442.392895
 20
84118514.110124
 30
0.0
  0
LWPOLYLINE
  5
115
100
AcDbEntity
  8
0
 62
7
100
AcDbPolyline
 90
20
 70
1
 10
97986093.316889
 20
92778988.357912
 30
0.0
 10
97971820.803297
 20
92707235.039578
 30
0.0
 10
97931176.014589
 20
92646405.481647
 30
0.0
 10
97870346.456658
 20
92605760.692939
 30
0.0
 10
97798593.138324
 20
92591488.179346
 30
0.0
 10
97273592.638341
 20
92591488.179346
 30
0.0
 10
97201839.320006
 20
92605760.692939
 30
0.0
 10
97141009.762076
 20
92646405.481647
 30
0.0
 10
97100364.973368
 20
92707235.039578
 30
0.0
 10
97086092.459775
 20
92778988.357912
 30
0.0
 10
97086092.459775
 20
93453989.000748
 30
0.0
 10
97100364.973368
 20
93525742.319082
 30
0.0
 10
97141009.762076
 20
93586571.877013
 30
0.0
 10
97201839.320006
 20
93627216.665721
 30
0.0
 10
97273592.638341
 20
93641489.179313
 30
0.0
 10
97798593.138324
 20
93641489.179313
 30
0.0
 10
97870346.456658
 20
93627216.665721
 30
0.0
 10
97931176.014589
 20
93586571.877013
 30
0.0
 10
97971820.803297
 20
93525742.319082
 30
0.0
 10
97986093.316889
 20
93453989.000748
 30
0.0
  0
LWPOLYLINE
  5
116
100
AcDbEntity
  8
0
 62
7
100
AcDbPolyline
 90
20
 70
1
 10
96486091.888366
 20
92778988.357912
 30
0.0
 10
96471819.374773
 20
92707235.039578
 30
0.0
 10
96431174.586065
 20
92646405.481647
 30
0.0
 10
96370345.028134
 20
92605760.692939
 30
0.0
 10
96298591.709800
 20
92591488.179346
 30
0.0
 10
95773591.209817
 20
92591488.179346
 30
0.0
 10
95701837.891483
 20
92605760.692939
 30
0.0
 10
95641008.333552
 20
92646405.481647
 30
0.0
 10
95600363.544844
 20
92707235.039578
 30
0.0
 10
95586091.031251
 20
92778988.357912
 30
0.0
 10
95586091.031251
 20
93453989.000748
 30
0.0
 10
95600363.544844
 20
93525742.319082
 30
0.0
 10
95641008.333552
 20
93586571.877013
 30
0.0
 10
95701837.891483
 20
93627216.665721
 30
0.0
 10
95773591.209817
 20
93641489.179313
 30
0.0
 10
96298591.709800
 20
93641489.179313
 30
0.0
 10
96370345.028134
 20
93627216.665721
 30
0.0
 10
96431174.586065
 20
93586571.877013
 30
0.0
 10
96471819.374773
 20
93525742.319082
 30
0.0
 10
96486091.888366
 20
93453989.000748
 30
0.0
  0
LWPOLYLINE
  5
117
100
AcDbEntity
  8
0
 62
7
100
AcDbPolyline
 90
20
 70
1
 10
89839427.308426
 20
81144253.527592
 30
0.0
 10
89770150.492450
 20
81120737.255196
 30
0.0
 10
89697148.422927
 20
81125522.259753
 30
0.0
 10
89631533.860439
 20
81157879.540569
 30
0.0
 10
89583296.814500
 20
81212883.842952
 30
0.0
 10
89339546.582365
 20
81635071.245021
 30
0.0
 10
89316030.309970
 20
81704348.060997
 30
0.0
 10
89320815.314527
 20
81777350.130520
 30
0.0
 10
89353172.595342
 20
81842964.693008
 30
0.0
 10
89408176.897725
 20
81891201.738947
 30
0.0
 10
89992743.954437
 20
82228702.060365
 30
0.0
 10
90062020.770412
 20
82252218.332760
 30
0.0
 10
90135022.839936
 20
82247433.328203
 30
0.0
 10
90200637.402424
 20
82215076.047388
 30
0.0
 10
90248874.448362
 20
82160071.745005
 30
0.0
 10
90492624.680497
 20
81737884.342935
 30
0.0
 10
90516140.952893
 20
81668607.526960
 30
0.0
 10
90511355.948336
 20
81595605.457436
 30
0.0
 10
90478998.667521
 20
81529990.894948
 30
0.0
 10
90423994.365137
 20
81481753.849010
 30
0.0
  0
LWPOLYLINE
  5
118
100
AcDbEntity
  8
0
 62
7
100
AcDbPolyline
 90
20
 70
1
 10
89070676.576307
 20
82475768.795658
 30
0.0
 10
89001399.760332
 20
82452252.523263
 30
0.0
 10
88928397.690808
 20
82457037.527820
 30
0.0
 10
88862783.128320
 20
82489394.808635
 30
0.0
 10
88814546.082382
 20
82544399.111018
 30
0.0
 10
88570795.850247
 20
82966586.513088
 30
0.0
 10
88547279.577851
 20
83035863.329063
 30
0.0
 10
88552064.582408
 20
83108865.398587
 30
0.0
 10
88584421.863224
 20
83174479.961075
 30
0.0
 10
88639426.165607
 20
83222717.007013
 30
0.0
 10
89223993.222318
 20
83560217.328431
 30
0.0
 10
89293270.038294
 20
83583733.600827
 30
0.0
 10
89366272.107817
 20
83578948.596270
 30
0.0
 10
89431886.670305
 20
83546591.315454
 30
0.0
 10
89480123.716244
 20
83491587.013071
 30
0.0
 10
89723873.948379
 20
83069399.611002
 30
0.0
 10
89747390.220775
 20
83000122.795026
 30
0.0
 10
89742605.216218
 20
82927120.725502
 30
0.0
 10
89710247.935402
 20
82861506.163015
 30
0.0
 10
89655243.633019
 20
82813269.117076
 30
0.0
  0
LWPOLYLINE
  5
119
100
AcDbEntity
  8
0
 62
7
100
AcDbPolyline
 90
20
 70
1
 10
107778102.642293
 20
94977990.452128
 30
0.0
 10
107792375.155885
 20
95049743.770462
 30
0.0
 10
107833019.944593
 20
95110573.328393
 30
0.0
 10
107893849.502524
 20
95151218.117101
 30
0.0
 10
107965602.820858
 20
95165490.630693
 30
0.0
 10
108490603.320842
 20
95165490.630693
 30
0.0
 10
108562356.639176
 20
95151218.117101
 30
0.0
 10
108623186.197107
 20
95110573.328393
 30
0.0
 10
108663830.985815
 20
95049743.770462
 30
0.0
 10
108678103.499407
 20
94977990.452128
 30
0.0
 10
108678103.499407
 20
94302989.809292
 30
0.0
 10
108663830.985815
 20
94231236.490958
 30
0.0
 10
108623186.197107
 20
94170406.933027
 30
0.0
 10
108562356.639176
 20
94129762.144319
 30
0.0
 10
108490603.320842
 20
94115489.630727
 30
0.0
 10
107965602.820858
 20
94115489.630727
 30
0.0
 10
107893849.502524
 20
94129762.144319
 30
0.0
 10
107833019.944593
 20
94170406.933027
 30
0.0
 10
107792375.155885
 20
94231236.490958
 30
0.0
 10
107778102.642293
 20
94302989.809292
 30
0.0
  0
SPLINE
  5
11a
100
AcDbEntity
  8
0
 62
7
100
AcDbSpline
 70
8
 71
3
 72
8
 73
4
 74
0
 40
0
 40
0
 40
0
 40
0
 40
1
 40
1
 40
1
 40
1
 10
86737582.604389
 20
93342988.895037
 30
0.0
 10
86419068.283265
 20
93342988.895037
 30
0.0
 10
86131916.933315
 20
93151120.497151
 30
0.0
 10
86010026.779650
 20
92856851.635052
 30
0.0
  0
SPLINE
  5
11b
100
AcDbEntity
  8
0
 62
7
100
AcDbSpline
 70
8
 71
3
 72
8
 73
4
 74
0
 40
0
 40
0
 40
0
 40
0
 40
1
 40
1
 40
1
 40
1
 10
86010026.779650
 20
92856851.635052
 30
0.0
 10
85888136.625985
 20
92562582.772954
 30
0.0
 10
85955511.847521
 20
92223864.660937
 30
0.0
 10
86180735.483893
 20
91998641.024565
 30
0.0
  0
SPLINE
  5
11c
100
AcDbEntity
  8
0
 62
7
100
AcDbSpline
 70
8
 71
3
 72
8
 73
4
 74
0
 40
0
 40
0
 40
0
 40
0
 40
1
 40
1
 40
1
 40
1
 10
86180735.483893
 20
91998641.024565
 30
0.0
 10
86405959.120265
 20
91773417.388193
 30
0.0
 10
86744677.232281
 20
91706042.166657
 30
0.0
 10
87038946.094380
 20
91827932.320323
 30
0.0
  0
SPLINE
  5
11d
100
AcDbEntity
  8
0
 62
7
100
AcDbSpline
 70
8
 71
3
 72
8
 73
4
 74
0
 40
0
 40
0
 40
0
 40
0
 40
1
 40
1
 40
1
 40
1
 10
87038946.094380
 20
91827932.320323
 30
0.0
 10
87333214.956478
 20
91949822.473988
 30
0.0
 10
87525083.354364
 20
92236973.823938
 30
0.0
 10
87525083.354364
 20
92555488.145062
 30
0.0
  0
SPLINE
  5
11e
100
AcDbEntity
  8
0
 62
7
100
AcDbSpline
 70
8
 71
3
 72
8
 73
4
 74
0
 40
0
 40
0
 40
0
 40
0
 40
1
 40
1
 40
1
 40
1
 10
87525083.354364
 20
92555488.145062
 30
0.0
 10
87525083.354364
 20
92764346.329716
 30
0.0
 10
87442114.763562
 20
92964650.226883
 30
0.0
 10
87294429.724886
 20
93112335.265559
 30
0.0
  0
SPLINE
  5
11f
100
AcDbEntity
  8
0
 62
7
100
AcDbSpline
 70
8
 71
3
 72
8
 73
4
 74
0
 40
0
 40
0
 40
0
 40
0
 40
1
 40
1
 40
1
 40
1
 10
87294429.724886
 20
93112335.265559
 30
0.0
 10
87146744.686211
 20
93260020.304234
 30
0.0
 10
86946440.789044
 20
93342988.895037
 30
0.0
 10
86737582.604389
 20
93342988.895037
 30
0.0
  0
LWPOLYLINE
  5
120
100
AcDbEntity
  8
0
 62
7
100
AcDbPolyline
 90
20
 70
1
 10
109278104.070817
 20
94977990.452128
 30
0.0
 10
109292376.584409
 20
95049743.770462
 30
0.0
 10
109333021.373117
 20
95110573.328393
 30
0.0
 10
109393850.931048
 20
95151218.117101
 30
0.0
 10
109465604.249382
 20
95165490.630693
 30
0.0
 10
109990604.749366
 20
95165490.630693
 30
0.0
 10
110062358.067700
 20
95151218.117101
 30
0.0
 10
110123187.625631
 20
95110573.328393
 30
0.0
 10
110163832.414339
 20
95049743.770462
 30
0.0
 10
110178104.927931
 20
94977990.452128
 30
0.0
 10
110178104.927931
 20
94302989.809292
 30
0.0
 10
110163832.414339
 20
94231236.490958
 30
0.0
 10
110123187.625631
 20
94170406.933027
 30
0.0
 10
110062358.067700
 20
94129762.144319
 30
0.0
 10
109990604.749366
 20
94115489.630727
 30
0.0
 10
109465604.249382
 20
94115489.630727
 30
0.0
 10
109393850.931048
 20
94129762.144319
 30
0.0
 10
109333021.373117
 20
94170406.933027
 30
0.0
 10
109292376.584409
 20
94231236.490958
 30
0.0
 10
109278104.070817
 20
94302989.809292
 30
0.0
  0
LWPOLYLINE
  5
121
100
AcDbEntity
  8
0
 62
7
100
AcDbPolyline
 90
1
 70
1
 10
86737582.604389
 20
93342988.895037
 30
0.0
  0
LWPOLYLINE
  5
122
100
AcDbEntity
  8
0
 62
7
100
AcDbPolyline
 90
20
 70
1
 10
116681577.121502
 20
94766120.500354
 30
0.0
 10
116612300.305526
 20
94742604.227958
 30
0.0
 10
116539298.236003
 20
94747389.232515
 30
0.0
 10
116473683.673515
 20
94779746.513331
 30
0.0
 10
116425446.627576
 20
94834750.815714
 30
0.0
 10
116181696.395441
 20
95256938.217783
 30
0.0
 10
116158180.123045
 20
95326215.033759
 30
0.0
 10
116162965.127602
 20
95399217.103282
 30
0.0
 10
116195322.408418
 20
95464831.665770
 30
0.0
 10
116250326.710801
 20
95513068.711709
 30
0.0
 10
116834893.767513
 20
95850569.033127
 30
0.0
 10
116904170.583488
 20
95874085.305522
 30
0.0
 10
116977172.653012
 20
95869300.300965
 30
0.0
 10
117042787.215499
 20
95836943.020150
 30
0.0
 10
117091024.261438
 20
95781938.717767
 30
0.0
 10
117334774.493573
 20
95359751.315697
 30
0.0
 10
117358290.765969
 20
95290474.499721
 30
0.0
 10
117353505.761412
 20
95217472.430198
 30
0.0
 10
117321148.480596
 20
95151857.867710
 30
0.0
 10
117266144.178213
 20
95103620.821772
 30
0.0
  0
LWPOLYLINE
  5
123
100
AcDbEntity
  8
0
 62
7
100
AcDbPolyline
 90
20
 70
1
 10
115912826.389383
 20
96097635.768420
 30
0.0
 10
115843549.573408
 20
96074119.496024
 30
0.0
 10
115770547.503884
 20
96078904.500581
 30
0.0
 10
115704932.941396
 20
96111261.781397
 30
0.0
 10
115656695.895458
 20
96166266.083780
 30
0.0
 10
115412945.663323
 20
96588453.485850
 30
0.0
 10
115389429.390927
 20
96657730.301825
 30
0.0
 10
115394214.395484
 20
96730732.371349
 30
0.0
 10
115426571.676299
 20
96796346.933837
 30
0.0
 10
115481575.978683
 20
96844583.979775
 30
0.0
 10
116066143.035394
 20
97182084.301193
 30
0.0
 10
116135419.851370
 20
97205600.573589
 30
0.0
 10
116208421.920893
 20
97200815.569032
 30
0.0
 10
116274036.483381
 20
97168458.288216
 30
0.0
 10
116322273.529320
 20
97113453.985833
 30
0.0
 10
116566023.761455
 20
96691266.583763
 30
0.0
 10
116589540.033850
 20
96621989.767788
 30
0.0
 10
116584755.029293
 20
96548987.698264
 30
0.0
 10
116552397.748478
 20
96483373.135776
 30
0.0
 10
116497393.446095
 20
96435136.089838
 30
0.0
  0
LWPOLYLINE
  5
124
100
AcDbEntity
  8
0
 62
7
100
AcDbPolyline
 90
20
 70
1
 10
96394354.050999
 20
78391132.905662
 30
0.0
 10
96442591.096938
 20
78446137.208045
 30
0.0
 10
96508205.659426
 20
78478494.488861
 30
0.0
 10
96581207.728949
 20
78483279.493418
 30
0.0
 10
96650484.544925
 20
78459763.221022
 30
0.0
 10
97072671.946994
 20
78216012.988887
 30
0.0
 10
97127676.249377
 20
78167775.942949
 30
0.0
 10
97160033.530193
 20
78102161.380461
 30
0.0
 10
97164818.534750
 20
78029159.310937
 30
0.0
 10
97141302.262354
 20
77959882.494962
 30
0.0
 10
96803801.940936
 20
77375315.438250
 30
0.0
 10
96755564.894998
 20
77320311.135867
 30
0.0
 10
96689950.332510
 20
77287953.855052
 30
0.0
 10
96616948.262986
 20
77283168.850495
 30
0.0
 10
96547671.447011
 20
77306685.122890
 30
0.0
 10
96125484.044941
 20
77550435.355025
 30
0.0
 10
96070479.742558
 20
77598672.400964
 30
0.0
 10
96038122.461743
 20
77664286.963452
 30
0.0
 10
96033337.457186
 20
77737289.032975
 30
0.0
 10
96056853.729581
 20
77806565.848951
 30
0.0
  0
LWPOLYLINE
  5
125
100
AcDbEntity
  8
0
 62
7
100
AcDbPolyline
 90
20
 70
1
 10
97725869.319066
 20
77622382.173544
 30
0.0
 10
97774106.365004
 20
77677386.475927
 30
0.0
 10
97839720.927492
 20
77709743.756742
 30
0.0
 10
97912722.997015
 20
77714528.761299
 30
0.0
 10
97981999.812991
 20
77691012.488904
 30
0.0
 10
98404187.215060
 20
77447262.256769
 30
0.0
 10
98459191.517444
 20
77399025.210830
 30
0.0
 10
98491548.798259
 20
77333410.648342
 30
0.0
 10
98496333.802816
 20
77260408.578819
 30
0.0
 10
98472817.530420
 20
77191131.762843
 30
0.0
 10
98135317.209003
 20
76606564.706132
 30
0.0
 10
98087080.163064
 20
76551560.403748
 30
0.0
 10
98021465.600576
 20
76519203.122933
 30
0.0
 10
97948463.531053
 20
76514418.118376
 30
0.0
 10
97879186.715077
 20
76537934.390772
 30
0.0
 10
97456999.313008
 20
76781684.622907
 30
0.0
 10
97401995.010624
 20
76829921.668845
 30
0.0
 10
97369637.729809
 20
76895536.231333
 30
0.0
 10
97364852.725252
 20
76968538.300857
 30
0.0
 10
97388368.997648
 20
77037815.116832
 30
0.0
  0
LWPOLYLINE
  5
126
100
AcDbEntity
  8
0
 62
7
100
AcDbPolyline
 90
20
 70
1
 10
114988826.259413
 20
93813508.593135
 30
0.0
 10
114919549.443438
 20
93789992.320740
 30
0.0
 10
114846547.373914
 20
93794777.325297
 30
0.0
 10
114780932.811426
 20
93827134.606112
 30
0.0
 10
114732695.765488
 20
93882138.908495
 30
0.0
 10
114488945.533353
 20
94304326.310565
 30
0.0
 10
114465429.260957
 20
94373603.126541
 30
0.0
 10
114470214.265514
 20
94446605.196064
 30
0.0
 10
114502571.546329
 20
94512219.758552
 30
0.0
 10
114557575.848713
 20
94560456.804490
 30
0.0
 10
115142142.905424
 20
94897957.125908
 30
0.0
 10
115211419.721400
 20
94921473.398304
 30
0.0
 10
115284421.790923
 20
94916688.393747
 30
0.0
 10
115350036.353411
 20
94884331.112931
 30
0.0
 10
115398273.399350
 20
94829326.810548
 30
0.0
 10
115642023.631485
 20
94407139.408479
 30
0.0
 10
115665539.903880
 20
94337862.592503
 30
0.0
 10
115660754.899323
 20
94264860.522980
 30
0.0
 10
115628397.618508
 20
94199245.960492
 30
0.0
 10
115573393.316125
 20
94151008.914553
 30
0.0
  0
LWPOLYLINE
  5
127
100
AcDbEntity
  8
0
 62
7
100
AcDbPolyline
 90
20
 70
1
 10
114220075.527295
 20
95145023.861202
 30
0.0
 10
114150798.711319
 20
95121507.588806
 30
0.0
 10
114077796.641796
 20
95126292.593363
 30
0.0
 10
114012182.079308
 20
95158649.874178
 30
0.0
 10
113963945.033369
 20
95213654.176562
 30
0.0
 10
113720194.801234
 20
95635841.578631
 30
0.0
 10
113696678.528839
 20
95705118.394607
 30
0.0
 10
113701463.533396
 20
95778120.464130
 30
0.0
 10
113733820.814211
 20
95843735.026618
 30
0.0
 10
113788825.116594
 20
95891972.072557
 30
0.0
 10
114373392.173306
 20
96229472.393974
 30
0.0
 10
114442668.989281
 20
96252988.666370
 30
0.0
 10
114515671.058805
 20
96248203.661813
 30
0.0
 10
114581285.621293
 20
96215846.380998
 30
0.0
 10
114629522.667231
 20
96160842.078615
 30
0.0
 10
114873272.899366
 20
95738654.676545
 30
0.0
 10
114896789.171762
 20
95669377.860569
 30
0.0
 10
114892004.167205
 20
95596375.791046
 30
0.0
 10
114859646.886390
 20
95530761.228558
 30
0.0
 10
114804642.584006
 20
95482524.182620
 30
0.0
  0
LWPOLYLINE
  5
128
100
AcDbEntity
  8
0
 62
7
100
AcDbPolyline
 90
20
 70
1
 10
95367609.823181
 20
100411048.126291
 30
0.0
 10
95344093.550785
 20
100480324.942267
 30
0.0
 10
95348878.555342
 20
100553327.011790
 30
0.0
 10
95381235.836158
 20
100618941.574278
 30
0.0
 10
95436240.138541
 20
100667178.620216
 30
0.0
 10
95858427.540611
 20
100910928.852352
 30
0.0
 10
95927704.356586
 20
100934445.124747
 30
0.0
 10
96000706.426110
 20
100929660.120190
 30
0.0
 10
96066320.988598
 20
100897302.839375
 30
0.0
 10
96114558.034536
 20
100842298.536992
 30
0.0
 10
96452058.355954
 20
100257731.480280
 30
0.0
 10
96475574.628350
 20
100188454.664305
 30
0.0
 10
96470789.623793
 20
100115452.594781
 30
0.0
 10
96438432.342977
 20
100049838.032293
 30
0.0
 10
96383428.040594
 20
100001600.986355
 30
0.0
 10
95961240.638524
 20
99757850.754220
 30
0.0
 10
95891963.822549
 20
99734334.481824
 30
0.0
 10
95818961.753025
 20
99739119.486381
 30
0.0
 10
95753347.190537
 20
99771476.767196
 30
0.0
 10
95705110.144599
 20
99826481.069580
 30
0.0
  0
LWPOLYLINE
  5
129
100
AcDbEntity
  8
0
 62
7
100
AcDbPolyline
 90
20
 70
1
 10
96699125.091247
 20
101179798.858409
 30
0.0
 10
96675608.818852
 20
101249075.674385
 30
0.0
 10
96680393.823409
 20
101322077.743909
 30
0.0
 10
96712751.104224
 20
101387692.306396
 30
0.0
 10
96767755.406607
 20
101435929.352335
 30
0.0
 10
97189942.808677
 20
101679679.584470
 30
0.0
 10
97259219.624653
 20
101703195.856866
 30
0.0
 10
97332221.694176
 20
101698410.852309
 30
0.0
 10
97397836.256664
 20
101666053.571493
 30
0.0
 10
97446073.302602
 20
101611049.269110
 30
0.0
 10
97783573.624020
 20
101026482.212399
 30
0.0
 10
97807089.896416
 20
100957205.396423
 30
0.0
 10
97802304.891859
 20
100884203.326900
 30
0.0
 10
97769947.611043
 20
100818588.764412
 30
0.0
 10
97714943.308660
 20
100770351.718473
 30
0.0
 10
97292755.906591
 20
100526601.486338
 30
0.0
 10
97223479.090615
 20
100503085.213942
 30
0.0
 10
97150477.021092
 20
100507870.218499
 30
0.0
 10
97084862.458604
 20
100540227.499315
 30
0.0
 10
97036625.412665
 20
100595231.801698
 30
0.0
  0
LWPOLYLINE
  5
12a
100
AcDbEntity
  8
0
 62
7
100
AcDbPolyline
 90
20
 70
1
 10
115867610.346322
 20
87725483.545215
 30
0.0
 10
115795857.027988
 20
87739756.058808
 30
0.0
 10
115735027.470057
 20
87780400.847516
 30
0.0
 10
115694382.681349
 20
87841230.405446
 30
0.0
 10
115680110.167756
 20
87912983.723781
 30
0.0
 10
115680110.167756
 20
88400484.188051
 30
0.0
 10
115694382.681349
 20
88472237.506385
 30
0.0
 10
115735027.470057
 20
88533067.064316
 30
0.0
 10
115795857.027988
 20
88573711.853024
 30
0.0
 10
115867610.346322
 20
88587984.366616
 30
0.0
 10
116542610.989158
 20
88587984.366616
 30
0.0
 10
116614364.307492
 20
88573711.853024
 30
0.0
 10
116675193.865423
 20
88533067.064316
 30
0.0
 10
116715838.654131
 20
88472237.506385
 30
0.0
 10
116730111.167723
 20
88400484.188051
 30
0.0
 10
116730111.167723
 20
87912983.723781
 30
0.0
 10
116715838.654131
 20
87841230.405446
 30
0.0
 10
116675193.865423
 20
87780400.847516
 30
0.0
 10
116614364.307492
 20
87739756.058808
 30
0.0
 10
116542610.989158
 20
87725483.545215
 30
0.0
  0
LWPOLYLINE
  5
12b
100
AcDbEntity
  8
0
 62
7
100
AcDbPolyline
 90
20
 70
1
 10
115867610.346322
 20
89262985.009452
 30
0.0
 10
115795857.027988
 20
89277257.523044
 30
0.0
 10
115735027.470057
 20
89317902.311752
 30
0.0
 10
115694382.681349
 20
89378731.869683
 30
0.0
 10
115680110.167756
 20
89450485.188018
 30
0.0
 10
115680110.167756
 20
89937985.652288
 30
0.0
 10
115694382.681349
 20
90009738.970622
 30
0.0
 10
115735027.470057
 20
90070568.528553
 30
0.0
 10
115795857.027988
 20
90111213.317261
 30
0.0
 10
115867610.346322
 20
90125485.830853
 30
0.0
 10
116542610.989158
 20
90125485.830853
 30
0.0
 10
116614364.307492
 20
90111213.317261
 30
0.0
 10
116675193.865423
 20
90070568.528553
 30
0.0
 10
116715838.654131
 20
90009738.970622
 30
0.0
 10
116730111.167723
 20
89937985.652288
 30
0.0
 10
116730111.167723
 20
89450485.188018
 30
0.0
 10
116715838.654131
 20
89378731.869683
 30
0.0
 10
116675193.865423
 20
89317902.311752
 30
0.0
 10
116614364.307492
 20
89277257.523044
 30
0.0
 10
116542610.989158
 20
89262985.009452
 30
0.0
  0
LWPOLYLINE
  5
12c
100
AcDbEntity
  8
0
 62
7
100
AcDbPolyline
 90
20
 70
1
 10
107766102.630865
 20
93453989.000748
 30
0.0
 10
107780375.144457
 20
93525742.319082
 30
0.0
 10
107821019.933165
 20
93586571.877013
 30
0.0
 10
107881849.491096
 20
93627216.665721
 30
0.0
 10
107953602.809430
 20
93641489.179313
 30
0.0
 10
108478603.309414
 20
93641489.179313
 30
0.0
 10
108550356.627748
 20
93627216.665721
 30
0.0
 10
108611186.185679
 20
93586571.877013
 30
0.0
 10
108651830.974387
 20
93525742.319082
 30
0.0
 10
108666103.487979
 20
93453989.000748
 30
0.0
 10
108666103.487979
 20
92778988.357912
 30
0.0
 10
108651830.974387
 20
92707235.039578
 30
0.0
 10
108611186.185679
 20
92646405.481647
 30
0.0
 10
108550356.627748
 20
92605760.692939
 30
0.0
 10
108478603.309414
 20
92591488.179346
 30
0.0
 10
107953602.809430
 20
92591488.179346
 30
0.0
 10
107881849.491096
 20
92605760.692939
 30
0.0
 10
107821019.933165
 20
92646405.481647
 30
0.0
 10
107780375.144457
 20
92707235.039578
 30
0.0
 10
107766102.630865
 20
92778988.357912
 30
0.0
  0
LWPOLYLINE
  5
12d
100
AcDbEntity
  8
0
 62
7
100
AcDbPolyline
 90
20
 70
1
 10
109266104.059389
 20
93453989.000748
 30
0.0
 10
109280376.572981
 20
93525742.319082
 30
0.0
 10
109321021.361689
 20
93586571.877013
 30
0.0
 10
109381850.919620
 20
93627216.665721
 30
0.0
 10
109453604.237954
 20
93641489.179313
 30
0.0
 10
109978604.737937
 20
93641489.179313
 30
0.0
 10
110050358.056271
 20
93627216.665721
 30
0.0
 10
110111187.614202
 20
93586571.877013
 30
0.0
 10
110151832.402910
 20
93525742.319082
 30
0.0
 10
110166104.916503
 20
93453989.000748
 30
0.0
 10
110166104.916503
 20
92778988.357912
 30
0.0
 10
110151832.402910
 20
92707235.039578
 30
0.0
 10
110111187.614202
 20
92646405.481647
 30
0.0
 10
110050358.056271
 20
92605760.692939
 30
0.0
 10
109978604.737937
 20
92591488.179346
 30
0.0
 10
109453604.237954
 20
92591488.179346
 30
0.0
 10
109381850.919620
 20
92605760.692939
 30
0.0
 10
109321021.361689
 20
92646405.481647
 30
0.0
 10
109280376.572981
 20
92707235.039578
 30
0.0
 10
109266104.059389
 20
92778988.357912
 30
0.0
  0
LWPOLYLINE
  5
12e
100
AcDbEntity
  8
0
 62
7
100
AcDbPolyline
 90
20
 70
1
 10
111311755.757561
 20
101169176.598293
 30
0.0
 10
111263518.711623
 20
101114172.295910
 30
0.0
 10
111197904.149135
 20
101081815.015095
 30
0.0
 10
111124902.079612
 20
101077030.010538
 30
0.0
 10
111055625.263636
 20
101100546.282933
 30
0.0
 10
110633437.861567
 20
101344296.515069
 30
0.0
 10
110578433.559183
 20
101392533.561007
 30
0.0
 10
110546076.278368
 20
101458148.123495
 30
0.0
 10
110541291.273811
 20
101531150.193018
 30
0.0
 10
110564807.546207
 20
101600427.008994
 30
0.0
 10
110902307.867624
 20
102184994.065705
 30
0.0
 10
110950544.913563
 20
102239998.368089
 30
0.0
 10
111016159.476051
 20
102272355.648904
 30
0.0
 10
111089161.545574
 20
102277140.653461
 30
0.0
 10
111158438.361550
 20
102253624.381065
 30
0.0
 10
111580625.763619
 20
102009874.148930
 30
0.0
 10
111635630.066003
 20
101961637.102992
 30
0.0
 10
111667987.346818
 20
101896022.540504
 30
0.0
 10
111672772.351375
 20
101823020.470980
 30
0.0
 10
111649256.078979
 20
101753743.655005
 30
0.0
  0
LWPOLYLINE
  5
12f
100
AcDbEntity
  8
0
 62
7
100
AcDbPolyline
 90
20
 70
1
 10
109980240.489495
 20
101937927.330412
 30
0.0
 10
109932003.443557
 20
101882923.028029
 30
0.0
 10
109866388.881069
 20
101850565.747213
 30
0.0
 10
109793386.811545
 20
101845780.742656
 30
0.0
 10
109724109.995570
 20
101869297.015052
 30
0.0
 10
109301922.593500
 20
102113047.247187
 30
0.0
 10
109246918.291117
 20
102161284.293125
 30
0.0
 10
109214561.010302
 20
102226898.855613
 30
0.0
 10
109209776.005745
 20
102299900.925137
 30
0.0
 10
109233292.278140
 20
102369177.741112
 30
0.0
 10
109570792.599558
 20
102953744.797824
 30
0.0
 10
109619029.645497
 20
103008749.100207
 30
0.0
 10
109684644.207985
 20
103041106.381023
 30
0.0
 10
109757646.277508
 20
103045891.385580
 30
0.0
 10
109826923.093484
 20
103022375.113184
 30
0.0
 10
110249110.495553
 20
102778624.881049
 30
0.0
 10
110304114.797936
 20
102730387.835110
 30
0.0
 10
110336472.078752
 20
102664773.272622
 30
0.0
 10
110341257.083309
 20
102591771.203099
 30
0.0
 10
110317740.810913
 20
102522494.387123
 30
0.0
  0
LWPOLYLINE
  5
130
100
AcDbEntity
  8
0
 62
7
100
AcDbPolyline
 90
20
 70
1
 10
98613843.914727
 20
95991241.417096
 30
0.0
 10
98622407.422882
 20
96034293.708096
 30
0.0
 10
98646794.446107
 20
96070790.992855
 30
0.0
 10
98683291.730865
 20
96095178.016079
 30
0.0
 10
98726344.021866
 20
96103741.524235
 30
0.0
 10
100038845.271824
 20
96103741.524235
 30
0.0
 10
100081897.562825
 20
96095178.016079
 30
0.0
 10
100118394.847583
 20
96070790.992855
 30
0.0
 10
100142781.870808
 20
96034293.708096
 30
0.0
 10
100151345.378964
 20
95991241.417096
 30
0.0
 10
100151345.378964
 20
95766241.202817
 30
0.0
 10
100142781.870808
 20
95723188.911816
 30
0.0
 10
100118394.847583
 20
95686691.627058
 30
0.0
 10
100081897.562825
 20
95662304.603833
 30
0.0
 10
100038845.271824
 20
95653741.095678
 30
0.0
 10
98726344.021866
 20
95653741.095678
 30
0.0
 10
98683291.730865
 20
95662304.603833
 30
0.0
 10
98646794.446107
 20
95686691.627058
 30
0.0
 10
98622407.422882
 20
95723188.911816
 30
0.0
 10
98613843.914727
 20
95766241.202817
 30
0.0
  0
LWPOLYLINE
  5
131
100
AcDbEntity
  8
0
 62
7
100
AcDbPolyline
 90
20
 70
1
 10
98613843.914727
 20
95038740.509983
 30
0.0
 10
98622407.422882
 20
95081792.800984
 30
0.0
 10
98646794.446107
 20
95118290.085742
 30
0.0
 10
98683291.730865
 20
95142677.108967
 30
0.0
 10
98726344.021866
 20
95151240.617122
 30
0.0
 10
100038845.271824
 20
95151240.617122
 30
0.0
 10
100081897.562825
 20
95142677.108967
 30
0.0
 10
100118394.847583
 20
95118290.085742
 30
0.0
 10
100142781.870808
 20
95081792.800984
 30
0.0
 10
100151345.378964
 20
95038740.509983
 30
0.0
 10
100151345.378964
 20
94813740.295704
 30
0.0
 10
100142781.870808
 20
94770688.004704
 30
0.0
 10
100118394.847583
 20
94734190.719946
 30
0.0
 10
100081897.562825
 20
94709803.696721
 30
0.0
 10
100038845.271824
 20
94701240.188565
 30
0.0
 10
98726344.021866
 20
94701240.188565
 30
0.0
 10
98683291.730865
 20
94709803.696721
 30
0.0
 10
98646794.446107
 20
94734190.719946
 30
0.0
 10
98622407.422882
 20
94770688.004704
 30
0.0
 10
98613843.914727
 20
94813740.295704
 30
0.0
  0
LWPOLYLINE
  5
132
100
AcDbEntity
  8
0
 62
7
100
AcDbPolyline
 90
20
 70
1
 10
98613843.914727
 20
94086239.602870
 30
0.0
 10
98622407.422882
 20
94129291.893871
 30
0.0
 10
98646794.446107
 20
94165789.178629
 30
0.0
 10
98683291.730865
 20
94190176.201854
 30
0.0
 10
98726344.021866
 20
94198739.710010
 30
0.0
 10
100038845.271824
 20
94198739.710010
 30
0.0
 10
100081897.562825
 20
94190176.201854
 30
0.0
 10
100118394.847583
 20
94165789.178629
 30
0.0
 10
100142781.870808
 20
94129291.893871
 30
0.0
 10
100151345.378964
 20
94086239.602870
 30
0.0
 10
100151345.378964
 20
93861239.388592
 30
0.0
 10
100142781.870808
 20
93818187.097591
 30
0.0
 10
100118394.847583
 20
93781689.812833
 30
0.0
 10
100081897.562825
 20
93757302.789608
 30
0.0
 10
100038845.271824
 20
93748739.281453
 30
0.0
 10
98726344.021866
 20
93748739.281453
 30
0.0
 10
98683291.730865
 20
93757302.789608
 30
0.0
 10
98646794.446107
 20
93781689.812833
 30
0.0
 10
98622407.422882
 20
93818187.097591
 30
0.0
 10
98613843.914727
 20
93861239.388592
 30
0.0
  0
LWPOLYLINE
  5
133
100
AcDbEntity
  8
0
 62
7
100
AcDbPolyline
 90
20
 70
1
 10
98613843.914727
 20
93133738.695758
 30
0.0
 10
98622407.422882
 20
93176790.986759
 30
0.0
 10
98646794.446107
 20
93213288.271517
 30
0.0
 10
98683291.730865
 20
93237675.294742
 30
0.0
 10
98726344.021866
 20
93246238.802897
 30
0.0
 10
100038845.271824
 20
93246238.802897
 30
0.0
 10
100081897.562825
 20
93237675.294742
 30
0.0
 10
100118394.847583
 20
93213288.271517
 30
0.0
 10
100142781.870808
 20
93176790.986759
 30
0.0
 10
100151345.378964
 20
93133738.695758
 30
0.0
 10
100151345.378964
 20
92908738.481479
 30
0.0
 10
100142781.870808
 20
92865686.190478
 30
0.0
 10
100118394.847583
 20
92829188.905720
 30
0.0
 10
100081897.562825
 20
92804801.882495
 30
0.0
 10
100038845.271824
 20
92796238.374340
 30
0.0
 10
98726344.021866
 20
92796238.374340
 30
0.0
 10
98683291.730865
 20
92804801.882495
 30
0.0
 10
98646794.446107
 20
92829188.905720
 30
0.0
 10
98622407.422882
 20
92865686.190478
 30
0.0
 10
98613843.914727
 20
92908738.481479
 30
0.0
  0
LWPOLYLINE
  5
134
100
AcDbEntity
  8
0
 62
7
100
AcDbPolyline
 90
20
 70
1
 10
98613843.914727
 20
92181237.788645
 30
0.0
 10
98622407.422882
 20
92224290.079646
 30
0.0
 10
98646794.446107
 20
92260787.364404
 30
0.0
 10
98683291.730865
 20
92285174.387629
 30
0.0
 10
98726344.021866
 20
92293737.895784
 30
0.0
 10
100038845.271824
 20
92293737.895784
 30
0.0
 10
100081897.562825
 20
92285174.387629
 30
0.0
 10
100118394.847583
 20
92260787.364404
 30
0.0
 10
100142781.870808
 20
92224290.079646
 30
0.0
 10
100151345.378964
 20
92181237.788645
 30
0.0
 10
100151345.378964
 20
91956237.574367
 30
0.0
 10
100142781.870808
 20
91913185.283366
 30
0.0
 10
100118394.847583
 20
91876687.998608
 30
0.0
 10
100081897.562825
 20
91852300.975383
 30
0.0
 10
100038845.271824
 20
91843737.467227
 30
0.0
 10
98726344.021866
 20
91843737.467227
 30
0.0
 10
98683291.730865
 20
91852300.975383
 30
0.0
 10
98646794.446107
 20
91876687.998608
 30
0.0
 10
98622407.422882
 20
91913185.283366
 30
0.0
 10
98613843.914727
 20
91956237.574367
 30
0.0
  0
LWPOLYLINE
  5
135
100
AcDbEntity
  8
0
 62
7
100
AcDbPolyline
 90
20
 70
1
 10
98613843.914727
 20
91228736.881533
 30
0.0
 10
98622407.422882
 20
91271789.172533
 30
0.0
 10
98646794.446107
 20
91308286.457291
 30
0.0
 10
98683291.730865
 20
91332673.480516
 30
0.0
 10
98726344.021866
 20
91341236.988672
 30
0.0
 10
100038845.271824
 20
91341236.988672
 30
0.0
 10
100081897.562825
 20
91332673.480516
 30
0.0
 10
100118394.847583
 20
91308286.457291
 30
0.0
 10
100142781.870808
 20
91271789.172533
 30
0.0
 10
100151345.378964
 20
91228736.881533
 30
0.0
 10
100151345.378964
 20
91003736.667254
 30
0.0
 10
100142781.870808
 20
90960684.376253
 30
0.0
 10
100118394.847583
 20
90924187.091495
 30
0.0
 10
100081897.562825
 20
90899800.068270
 30
0.0
 10
100038845.271824
 20
90891236.560115
 30
0.0
 10
98726344.021866
 20
90891236.560115
 30
0.0
 10
98683291.730865
 20
90899800.068270
 30
0.0
 10
98646794.446107
 20
90924187.091495
 30
0.0
 10
98622407.422882
 20
90960684.376253
 30
0.0
 10
98613843.914727
 20
91003736.667254
 30
0.0
  0
LWPOLYLINE
  5
136
100
AcDbEntity
  8
0
 62
7
100
AcDbPolyline
 90
20
 70
1
 10
98613843.914727
 20
90276235.974420
 30
0.0
 10
98622407.422882
 20
90319288.265421
 30
0.0
 10
98646794.446107
 20
90355785.550179
 30
0.0
 10
98683291.730865
 20
90380172.573404
 30
0.0
 10
98726344.021866
 20
90388736.081559
 30
0.0
 10
100038845.271824
 20
90388736.081559
 30
0.0
 10
100081897.562825
 20
90380172.573404
 30
0.0
 10
100118394.847583
 20
90355785.550179
 30
0.0
 10
100142781.870808
 20
90319288.265421
 30
0.0
 10
100151345.378964
 20
90276235.974420
 30
0.0
 10
100151345.378964
 20
90051235.760141
 30
0.0
 10
100142781.870808
 20
90008183.469141
 30
0.0
 10
100118394.847583
 20
89971686.184382
 30
0.0
 10
100081897.562825
 20
89947299.161158
 30
0.0
 10
100038845.271824
 20
89938735.653002
 30
0.0
 10
98726344.021866
 20
89938735.653002
 30
0.0
 10
98683291.730865
 20
89947299.161158
 30
0.0
 10
98646794.446107
 20
89971686.184382
 30
0.0
 10
98622407.422882
 20
90008183.469141
 30
0.0
 10
98613843.914727
 20
90051235.760141
 30
0.0
  0
LWPOLYLINE
  5
137
100
AcDbEntity
  8
0
 62
7
100
AcDbPolyline
 90
20
 70
1
 10
98613843.914727
 20
89323735.067307
 30
0.0
 10
98622407.422882
 20
89366787.358308
 30
0.0
 10
98646794.446107
 20
89403284.643066
 30
0.0
 10
98683291.730865
 20
89427671.666291
 30
0.0
 10
98726344.021866
 20
89436235.174447
 30
0.0
 10
100038845.271824
 20
89436235.174447
 30
0.0
 10
100081897.562825
 20
89427671.666291
 30
0.0
 10
100118394.847583
 20
89403284.643066
 30
0.0
 10
100142781.870808
 20
89366787.358308
 30
0.0
 10
100151345.378964
 20
89323735.067307
 30
0.0
 10
100151345.378964
 20
89098734.853029
 30
0.0
 10
100142781.870808
 20
89055682.562028
 30
0.0
 10
100118394.847583
 20
89019185.277270
 30
0.0
 10
100081897.562825
 20
88994798.254045
 30
0.0
 10
100038845.271824
 20
88986234.745889
 30
0.0
 10
98726344.021866
 20
88986234.745889
 30
0.0
 10
98683291.730865
 20
88994798.254045
 30
0.0
 10
98646794.446107
 20
89019185.277270
 30
0.0
 10
98622407.422882
 20
89055682.562028
 30
0.0
 10
98613843.914727
 20
89098734.853029
 30
0.0
  0
LWPOLYLINE
  5
138
100
AcDbEntity
  8
0
 62
7
100
AcDbPolyline
 90
20
 70
1
 10
98613843.914727
 20
88371234.160195
 30
0.0
 10
98622407.422882
 20
88414286.451195
 30
0.0
 10
98646794.446107
 20
88450783.735954
 30
0.0
 10
98683291.730865
 20
88475170.759179
 30
0.0
 10
98726344.021866
 20
88483734.267334
 30
0.0
 10
100038845.271824
 20
88483734.267334
 30
0.0
 10
100081897.562825
 20
88475170.759179
 30
0.0
 10
100118394.847583
 20
88450783.735954
 30
0.0
 10
100142781.870808
 20
88414286.451195
 30
0.0
 10
100151345.378964
 20
88371234.160195
 30
0.0
 10
100151345.378964
 20
88146233.945916
 30
0.0
 10
100142781.870808
 20
88103181.654915
 30
0.0
 10
100118394.847583
 20
88066684.370157
 30
0.0
 10
100081897.562825
 20
88042297.346932
 30
0.0
 10
100038845.271824
 20
88033733.838777
 30
0.0
 10
98726344.021866
 20
88033733.838777
 30
0.0
 10
98683291.730865
 20
88042297.346932
 30
0.0
 10
98646794.446107
 20
88066684.370157
 30
0.0
 10
98622407.422882
 20
88103181.654915
 30
0.0
 10
98613843.914727
 20
88146233.945916
 30
0.0
  0
LWPOLYLINE
  5
139
100
AcDbEntity
  8
0
 62
7
100
AcDbPolyline
 90
20
 70
1
 10
98613843.914727
 20
87418733.253082
 30
0.0
 10
98622407.422882
 20
87461785.544083
 30
0.0
 10
98646794.446107
 20
87498282.828841
 30
0.0
 10
98683291.730865
 20
87522669.852066
 30
0.0
 10
98726344.021866
 20
87531233.360221
 30
0.0
 10
100038845.271824
 20
87531233.360221
 30
0.0
 10
100081897.562825
 20
87522669.852066
 30
0.0
 10
100118394.847583
 20
87498282.828841
 30
0.0
 10
100142781.870808
 20
87461785.544083
 30
0.0
 10
100151345.378964
 20
87418733.253082
 30
0.0
 10
100151345.378964
 20
87193733.038803
 30
0.0
 10
100142781.870808
 20
87150680.747803
 30
0.0
 10
100118394.847583
 20
87114183.463045
 30
0.0
 10
100081897.562825
 20
87089796.439820
 30
0.0
 10
100038845.271824
 20
87081232.931664
 30
0.0
 10
98726344.021866
 20
87081232.931664
 30
0.0
 10
98683291.730865
 20
87089796.439820
 30
0.0
 10
98646794.446107
 20
87114183.463045
 30
0.0
 10
98622407.422882
 20
87150680.747803
 30
0.0
 10
98613843.914727
 20
87193733.038803
 30
0.0
  0
LWPOLYLINE
  5
13a
100
AcDbEntity
  8
0
 62
7
100
AcDbPolyline
 90
20
 70
1
 10
105588850.557362
 20
87418733.253082
 30
0.0
 10
105597414.065518
 20
87461785.544083
 30
0.0
 10
105621801.088743
 20
87498282.828841
 30
0.0
 10
105658298.373501
 20
87522669.852066
 30
0.0
 10
105701350.664502
 20
87531233.360221
 30
0.0
 10
107013851.914460
 20
87531233.360221
 30
0.0
 10
107056904.205461
 20
87522669.852066
 30
0.0
 10
107093401.490219
 20
87498282.828841
 30
0.0
 10
107117788.513444
 20
87461785.544083
 30
0.0
 10
107126352.021599
 20
87418733.253082
 30
0.0
 10
107126352.021599
 20
87193733.038803
 30
0.0
 10
107117788.513444
 20
87150680.747803
 30
0.0
 10
107093401.490219
 20
87114183.463045
 30
0.0
 10
107056904.205461
 20
87089796.439820
 30
0.0
 10
107013851.914460
 20
87081232.931664
 30
0.0
 10
105701350.664502
 20
87081232.931664
 30
0.0
 10
105658298.373501
 20
87089796.439820
 30
0.0
 10
105621801.088743
 20
87114183.463045
 30
0.0
 10
105597414.065518
 20
87150680.747803
 30
0.0
 10
105588850.557362
 20
87193733.038803
 30
0.0
  0
LWPOLYLINE
  5
13b
100
AcDbEntity
  8
0
 62
7
100
AcDbPolyline
 90
20
 70
1
 10
105588850.557362
 20
88371234.160195
 30
0.0
 10
105597414.065518
 20
88414286.451195
 30
0.0
 10
105621801.088743
 20
88450783.735954
 30
0.0
 10
105658298.373501
 20
88475170.759179
 30
0.0
 10
105701350.664502
 20
88483734.267334
 30
0.0
 10
107013851.914460
 20
88483734.267334
 30
0.0
 10
107056904.205461
 20
88475170.759179
 30
0.0
 10
107093401.490219
 20
88450783.735954
 30
0.0
 10
107117788.513444
 20
88414286.451195
 30
0.0
 10
107126352.021599
 20
88371234.160195
 30
0.0
 10
107126352.021599
 20
88146233.945916
 30
0.0
 10
107117788.513444
 20
88103181.654915
 30
0.0
 10
107093401.490219
 20
88066684.370157
 30
0.0
 10
107056904.205461
 20
88042297.346932
 30
0.0
 10
107013851.914460
 20
88033733.838777
 30
0.0
 10
105701350.664502
 20
88033733.838777
 30
0.0
 10
105658298.373501
 20
88042297.346932
 30
0.0
 10
105621801.088743
 20
88066684.370157
 30
0.0
 10
105597414.065518
 20
88103181.654915
 30
0.0
 10
105588850.557362
 20
88146233.945916
 30
0.0
  0
LWPOLYLINE
  5
13c
100
AcDbEntity
  8
0
 62
7
100
AcDbPolyline
 90
20
 70
1
 10
105588850.557362
 20
89323735.067307
 30
0.0
 10
105597414.065518
 20
89366787.358308
 30
0.0
 10
105621801.088743
 20
89403284.643066
 30
0.0
 10
105658298.373501
 20
89427671.666291
 30
0.0
 10
105701350.664502
 20
89436235.174447
 30
0.0
 10
107013851.914460
 20
89436235.174447
 30
0.0
 10
107056904.205461
 20
89427671.666291
 30
0.0
 10
107093401.490219
 20
89403284.643066
 30
0.0
 10
107117788.513444
 20
89366787.358308
 30
0.0
 10
107126352.021599
 20
89323735.067307
 30
0.0
 10
107126352.021599
 20
89098734.853029
 30
0.0
 10
107117788.513444
 20
89055682.562028
 30
0.0
 10
107093401.490219
 20
89019185.277270
 30
0.0
 10
107056904.205461
 20
88994798.254045
 30
0.0
 10
107013851.914460
 20
88986234.745889
 30
0.0
 10
105701350.664502
 20
88986234.745889
 30
0.0
 10
105658298.373501
 20
88994798.254045
 30
0.0
 10
105621801.088743
 20
89019185.277270
 30
0.0
 10
105597414.065518
 20
89055682.562028
 30
0.0
 10
105588850.557362
 20
89098734.853029
 30
0.0
  0
LWPOLYLINE
  5
13d
100
AcDbEntity
  8
0
 62
7
100
AcDbPolyline
 90
20
 70
1
 10
105588850.557362
 20
90276235.974420
 30
0.0
 10
105597414.065518
 20
90319288.265421
 30
0.0
 10
105621801.088743
 20
90355785.550179
 30
0.0
 10
105658298.373501
 20
90380172.573404
 30
0.0
 10
105701350.664502
 20
90388736.081559
 30
0.0
 10
107013851.914460
 20
90388736.081559
 30
0.0
 10
107056904.205461
 20
90380172.573404
 30
0.0
 10
107093401.490219
 20
90355785.550179
 30
0.0
 10
107117788.513444
 20
90319288.265421
 30
0.0
 10
107126352.021599
 20
90276235.974420
 30
0.0
 10
107126352.021599
 20
90051235.760141
 30
0.0
 10
107117788.513444
 20
90008183.469141
 30
0.0
 10
107093401.490219
 20
89971686.184382
 30
0.0
 10
107056904.205461
 20
89947299.161158
 30
0.0
 10
107013851.914460
 20
89938735.653002
 30
0.0
 10
105701350.664502
 20
89938735.653002
 30
0.0
 10
105658298.373501
 20
89947299.161158
 30
0.0
 10
105621801.088743
 20
89971686.184382
 30
0.0
 10
105597414.065518
 20
90008183.469141
 30
0.0
 10
105588850.557362
 20
90051235.760141
 30
0.0
  0
LWPOLYLINE
  5
13e
100
AcDbEntity
  8
0
 62
7
100
AcDbPolyline
 90
20
 70
1
 10
105588850.557362
 20
91228736.881533
 30
0.0
 10
105597414.065518
 20
91271789.172533
 30
0.0
 10
105621801.088743
 20
91308286.457291
 30
0.0
 10
105658298.373501
 20
91332673.480516
 30
0.0
 10
105701350.664502
 20
91341236.988672
 30
0.0
 10
107013851.914460
 20
91341236.988672
 30
0.0
 10
107056904.205461
 20
91332673.480516
 30
0.0
 10
107093401.490219
 20
91308286.457291
 30
0.0
 10
107117788.513444
 20
91271789.172533
 30
0.0
 10
107126352.021599
 20
91228736.881533
 30
0.0
 10
107126352.021599
 20
91003736.667254
 30
0.0
 10
107117788.513444
 20
90960684.376253
 30
0.0
 10
107093401.490219
 20
90924187.091495
 30
0.0
 10
107056904.205461
 20
90899800.068270
 30
0.0
 10
107013851.914460
 20
90891236.560115
 30
0.0
 10
105701350.664502
 20
90891236.560115
 30
0.0
 10
105658298.373501
 20
90899800.068270
 30
0.0
 10
105621801.088743
 20
90924187.091495
 30
0.0
 10
105597414.065518
 20
90960684.376253
 30
0.0
 10
105588850.557362
 20
91003736.667254
 30
0.0
  0
LWPOLYLINE
  5
13f
100
AcDbEntity
  8
0
 62
7
100
AcDbPolyline
 90
20
 70
1
 10
105588850.557362
 20
92181237.788645
 30
0.0
 10
105597414.065518
 20
92224290.079646
 30
0.0
 10
105621801.088743
 20
92260787.364404
 30
0.0
 10
105658298.373501
 20
92285174.387629
 30
0.0
 10
105701350.664502
 20
92293737.895784
 30
0.0
 10
107013851.914460
 20
92293737.895784
 30
0.0
 10
107056904.205461
 20
92285174.387629
 30
0.0
 10
107093401.490219
 20
92260787.364404
 30
0.0
 10
107117788.513444
 20
92224290.079646
 30
0.0
 10
107126352.021599
 20
92181237.788645
 30
0.0
 10
107126352.021599
 20
91956237.574367
 30
0.0
 10
107117788.513444
 20
91913185.283366
 30
0.0
 10
107093401.490219
 20
91876687.998608
 30
0.0
 10
107056904.205461
 20
91852300.975383
 30
0.0
 10
107013851.914460
 20
91843737.467227
 30
0.0
 10
105701350.664502
 20
91843737.467227
 30
0.0
 10
105658298.373501
 20
91852300.975383
 30
0.0
 10
105621801.088743
 20
91876687.998608
 30
0.0
 10
105597414.065518
 20
91913185.283366
 30
0.0
 10
105588850.557362
 20
91956237.574367
 30
0.0
  0
LWPOLYLINE
  5
140
100
AcDbEntity
  8
0
 62
7
100
AcDbPolyline
 90
20
 70
1
 10
105588850.557362
 20
93133738.695758
 30
0.0
 10
105597414.065518
 20
93176790.986759
 30
0.0
 10
105621801.088743
 20
93213288.271517
 30
0.0
 10
105658298.373501
 20
93237675.294742
 30
0.0
 10
105701350.664502
 20
93246238.802897
 30
0.0
 10
107013851.914460
 20
93246238.802897
 30
0.0
 10
107056904.205461
 20
93237675.294742
 30
0.0
 10
107093401.490219
 20
93213288.271517
 30
0.0
 10
107117788.513444
 20
93176790.986759
 30
0.0
 10
107126352.021599
 20
93133738.695758
 30
0.0
 10
107126352.021599
 20
92908738.481479
 30
0.0
 10
107117788.513444
 20
92865686.190478
 30
0.0
 10
107093401.490219
 20
92829188.905720
 30
0.0
 10
107056904.205461
 20
92804801.882495
 30
0.0
 10
107013851.914460
 20
92796238.374340
 30
0.0
 10
105701350.664502
 20
92796238.374340
 30
0.0
 10
105658298.373501
 20
92804801.882495
 30
0.0
 10
105621801.088743
 20
92829188.905720
 30
0.0
 10
105597414.065518
 20
92865686.190478
 30
0.0
 10
105588850.557362
 20
92908738.481479
 30
0.0
  0
LWPOLYLINE
  5
141
100
AcDbEntity
  8
0
 62
7
100
AcDbPolyline
 90
20
 70
1
 10
105588850.557362
 20
94086239.602870
 30
0.0
 10
105597414.065518
 20
94129291.893871
 30
0.0
 10
105621801.088743
 20
94165789.178629
 30
0.0
 10
105658298.373501
 20
94190176.201854
 30
0.0
 10
105701350.664502
 20
94198739.710010
 30
0.0
 10
107013851.914460
 20
94198739.710010
 30
0.0
 10
107056904.205461
 20
94190176.201854
 30
0.0
 10
107093401.490219
 20
94165789.178629
 30
0.0
 10
107117788.513444
 20
94129291.893871
 30
0.0
 10
107126352.021599
 20
94086239.602870
 30
0.0
 10
107126352.021599
 20
93861239.388592
 30
0.0
 10
107117788.513444
 20
93818187.097591
 30
0.0
 10
107093401.490219
 20
93781689.812833
 30
0.0
 10
107056904.205461
 20
93757302.789608
 30
0.0
 10
107013851.914460
 20
93748739.281453
 30
0.0
 10
105701350.664502
 20
93748739.281453
 30
0.0
 10
105658298.373501
 20
93757302.789608
 30
0.0
 10
105621801.088743
 20
93781689.812833
 30
0.0
 10
105597414.065518
 20
93818187.097591
 30
0.0
 10
105588850.557362
 20
93861239.388592
 30
0.0
  0
LWPOLYLINE
  5
142
100
AcDbEntity
  8
0
 62
7
100
AcDbPolyline
 90
20
 70
1
 10
105588850.557362
 20
95038740.509983
 30
0.0
 10
105597414.065518
 20
95081792.800984
 30
0.0
 10
105621801.088743
 20
95118290.085742
 30
0.0
 10
105658298.373501
 20
95142677.108967
 30
0.0
 10
105701350.664502
 20
95151240.617122
 30
0.0
 10
107013851.914460
 20
95151240.617122
 30
0.0
 10
107056904.205461
 20
95142677.108967
 30
0.0
 10
107093401.490219
 20
95118290.085742
 30
0.0
 10
107117788.513444
 20
95081792.800984
 30
0.0
 10
107126352.021599
 20
95038740.509983
 30
0.0
 10
107126352.021599
 20
94813740.295704
 30
0.0
 10
107117788.513444
 20
94770688.004704
 30
0.0
 10
107093401.490219
 20
94734190.719946
 30
0.0
 10
107056904.205461
 20
94709803.696721
 30
0.0
 10
107013851.914460
 20
94701240.188565
 30
0.0
 10
105701350.664502
 20
94701240.188565
 30
0.0
 10
105658298.373501
 20
94709803.696721
 30
0.0
 10
105621801.088743
 20
94734190.719946
 30
0.0
 10
105597414.065518
 20
94770688.004704
 30
0.0
 10
105588850.557362
 20
94813740.295704
 30
0.0
  0
LWPOLYLINE
  5
143
100
AcDbEntity
  8
0
 62
7
100
AcDbPolyline
 90
20
 70
1
 10
105588850.557362
 20
95991241.417096
 30
0.0
 10
105597414.065518
 20
96034293.708096
 30
0.0
 10
105621801.088743
 20
96070790.992855
 30
0.0
 10
105658298.373501
 20
96095178.016079
 30
0.0
 10
105701350.664502
 20
96103741.524235
 30
0.0
 10
107013851.914460
 20
96103741.524235
 30
0.0
 10
107056904.205461
 20
96095178.016079
 30
0.0
 10
107093401.490219
 20
96070790.992855
 30
0.0
 10
107117788.513444
 20
96034293.708096
 30
0.0
 10
107126352.021599
 20
95991241.417096
 30
0.0
 10
107126352.021599
 20
95766241.202817
 30
0.0
 10
107117788.513444
 20
95723188.911816
 30
0.0
 10
107093401.490219
 20
95686691.627058
 30
0.0
 10
107056904.205461
 20
95662304.603833
 30
0.0
 10
107013851.914460
 20
95653741.095678
 30
0.0
 10
105701350.664502
 20
95653741.095678
 30
0.0
 10
105658298.373501
 20
95662304.603833
 30
0.0
 10
105621801.088743
 20
95686691.627058
 30
0.0
 10
105597414.065518
 20
95723188.911816
 30
0.0
 10
105588850.557362
 20
95766241.202817
 30
0.0
  0
LWPOLYLINE
  5
144
100
AcDbEntity
  8
0
 62
7
100
AcDbPolyline
 90
20
 70
1
 10
101770596.921055
 20
80098726.281886
 30
0.0
 10
101698843.602721
 20
80112998.795478
 30
0.0
 10
101638014.044790
 20
80153643.584186
 30
0.0
 10
101597369.256082
 20
80214473.142117
 30
0.0
 10
101583096.742490
 20
80286226.460451
 30
0.0
 10
101583096.742490
 20
80773726.924722
 30
0.0
 10
101597369.256082
 20
80845480.243056
 30
0.0
 10
101638014.044790
 20
80906309.800987
 30
0.0
 10
101698843.602721
 20
80946954.589695
 30
0.0
 10
101770596.921055
 20
80961227.103287
 30
0.0
 10
102445597.563891
 20
80961227.103287
 30
0.0
 10
102517350.882225
 20
80946954.589695
 30
0.0
 10
102578180.440156
 20
80906309.800987
 30
0.0
 10
102618825.228864
 20
80845480.243056
 30
0.0
 10
102633097.742456
 20
80773726.924722
 30
0.0
 10
102633097.742456
 20
80286226.460451
 30
0.0
 10
102618825.228864
 20
80214473.142117
 30
0.0
 10
102578180.440156
 20
80153643.584186
 30
0.0
 10
102517350.882225
 20
80112998.795478
 30
0.0
 10
102445597.563891
 20
80098726.281886
 30
0.0
  0
LWPOLYLINE
  5
145
100
AcDbEntity
  8
0
 62
7
100
AcDbPolyline
 90
20
 70
1
 10
101770596.921055
 20
81636227.746123
 30
0.0
 10
101698843.602721
 20
81650500.259715
 30
0.0
 10
101638014.044790
 20
81691145.048423
 30
0.0
 10
101597369.256082
 20
81751974.606354
 30
0.0
 10
101583096.742490
 20
81823727.924688
 30
0.0
 10
101583096.742490
 20
82311228.388958
 30
0.0
 10
101597369.256082
 20
82382981.707293
 30
0.0
 10
101638014.044790
 20
82443811.265224
 30
0.0
 10
101698843.602721
 20
82484456.053932
 30
0.0
 10
101770596.921055
 20
82498728.567524
 30
0.0
 10
102445597.563891
 20
82498728.567524
 30
0.0
 10
102517350.882225
 20
82484456.053932
 30
0.0
 10
102578180.440156
 20
82443811.265224
 30
0.0
 10
102618825.228864
 20
82382981.707293
 30
0.0
 10
102633097.742456
 20
82311228.388958
 30
0.0
 10
102633097.742456
 20
81823727.924688
 30
0.0
 10
102618825.228864
 20
81751974.606354
 30
0.0
 10
102578180.440156
 20
81691145.048423
 30
0.0
 10
102517350.882225
 20
81650500.259715
 30
0.0
 10
102445597.563891
 20
81636227.746123
 30
0.0
  0
LWPOLYLINE
  5
146
100
AcDbEntity
  8
0
 62
7
100
AcDbPolyline
 90
20
 70
1
 10
109282820.825309
 20
87372503.209055
 30
0.0
 10
109213544.009333
 20
87348986.936659
 30
0.0
 10
109140541.939810
 20
87353771.191216
 30
0.0
 10
109074927.377322
 20
87386129.222032
 30
0.0
 10
109026690.331383
 20
87441132.774414
 30
0.0
 10
108764190.081392
 20
87895796.707413
 30
0.0
 10
108740673.808996
 20
87965072.773388
 30
0.0
 10
108745458.813553
 20
88038075.592912
 30
0.0
 10
108777816.094368
 20
88103689.405399
 30
0.0
 10
108832820.396752
 20
88151926.451337
 30
0.0
 10
109417387.453463
 20
88489426.772755
 30
0.0
 10
109486664.269439
 20
88512943.045151
 30
0.0
 10
109559666.338962
 20
88508158.790595
 30
0.0
 10
109625280.901450
 20
88475800.759778
 30
0.0
 10
109673517.947388
 20
88420797.207396
 30
0.0
 10
109936018.197380
 20
87966133.274398
 30
0.0
 10
109959534.469776
 20
87896857.208423
 30
0.0
 10
109954749.465219
 20
87823854.388898
 30
0.0
 10
109922392.184403
 20
87758240.576411
 30
0.0
 10
109867387.882020
 20
87710003.530473
 30
0.0
  0
LWPOLYLINE
  5
147
100
AcDbEntity
  8
0
 62
7
100
AcDbPolyline
 90
20
 70
1
 10
108532820.111047
 20
88671541.946192
 30
0.0
 10
108463543.295071
 20
88648025.673797
 30
0.0
 10
108390541.225548
 20
88652809.928353
 30
0.0
 10
108324926.663060
 20
88685167.959169
 30
0.0
 10
108276689.617121
 20
88740171.511552
 30
0.0
 10
108014189.367130
 20
89194835.444550
 30
0.0
 10
107990673.094734
 20
89264111.510525
 30
0.0
 10
107995458.099291
 20
89337114.330049
 30
0.0
 10
108027815.380106
 20
89402728.142536
 30
0.0
 10
108082819.682490
 20
89450965.188475
 30
0.0
 10
108667386.739201
 20
89788465.509893
 30
0.0
 10
108736663.555177
 20
89811981.782288
 30
0.0
 10
108809665.624700
 20
89807197.527732
 30
0.0
 10
108875280.187188
 20
89774839.496916
 30
0.0
 10
108923517.233127
 20
89719835.944533
 30
0.0
 10
109186017.483118
 20
89265172.011535
 30
0.0
 10
109209533.755514
 20
89195895.945560
 30
0.0
 10
109204748.750957
 20
89122893.126036
 30
0.0
 10
109172391.470141
 20
89057279.313549
 30
0.0
 10
109117387.167758
 20
89009042.267610
 30
0.0
  0
LWPOLYLINE
  5
148
100
AcDbEntity
  8
0
 62
7
100
AcDbPolyline
 90
20
 70
1
 10
103294598.372435
 20
80091976.275458
 30
0.0
 10
103222845.054101
 20
80106248.789050
 30
0.0
 10
103162015.496170
 20
80146893.577758
 30
0.0
 10
103121370.707462
 20
80207723.135689
 30
0.0
 10
103107098.193870
 20
80279476.454023
 30
0.0
 10
103107098.193870
 20
80766976.918293
 30
0.0
 10
103121370.707462
 20
80838730.236627
 30
0.0
 10
103162015.496170
 20
80899559.794558
 30
0.0
 10
103222845.054101
 20
80940204.583266
 30
0.0
 10
103294598.372435
 20
80954477.096859
 30
0.0
 10
103969599.015271
 20
80954477.096859
 30
0.0
 10
104041352.333605
 20
80940204.583266
 30
0.0
 10
104102181.891536
 20
80899559.794558
 30
0.0
 10
104142826.680244
 20
80838730.236627
 30
0.0
 10
104157099.193836
 20
80766976.918293
 30
0.0
 10
104157099.193836
 20
80279476.454023
 30
0.0
 10
104142826.680244
 20
80207723.135689
 30
0.0
 10
104102181.891536
 20
80146893.577758
 30
0.0
 10
104041352.333605
 20
80106248.789050
 30
0.0
 10
103969599.015271
 20
80091976.275458
 30
0.0
  0
LWPOLYLINE
  5
149
100
AcDbEntity
  8
0
 62
7
100
AcDbPolyline
 90
20
 70
1
 10
103294598.372435
 20
81629477.739694
 30
0.0
 10
103222845.054101
 20
81643750.253287
 30
0.0
 10
103162015.496170
 20
81684395.041995
 30
0.0
 10
103121370.707462
 20
81745224.599926
 30
0.0
 10
103107098.193870
 20
81816977.918260
 30
0.0
 10
103107098.193870
 20
82304478.382530
 30
0.0
 10
103121370.707462
 20
82376231.700864
 30
0.0
 10
103162015.496170
 20
82437061.258795
 30
0.0
 10
103222845.054101
 20
82477706.047503
 30
0.0
 10
103294598.372435
 20
82491978.561096
 30
0.0
 10
103969599.015271
 20
82491978.561096
 30
0.0
 10
104041352.333605
 20
82477706.047503
 30
0.0
 10
104102181.891536
 20
82437061.258795
 30
0.0
 10
104142826.680244
 20
82376231.700864
 30
0.0
 10
104157099.193836
 20
82304478.382530
 30
0.0
 10
104157099.193836
 20
81816977.918260
 30
0.0
 10
104142826.680244
 20
81745224.599926
 30
0.0
 10
104102181.891536
 20
81684395.041995
 30
0.0
 10
104041352.333605
 20
81643750.253287
 30
0.0
 10
103969599.015271
 20
81629477.739694
 30
0.0
  0
LWPOLYLINE
  5
14a
100
AcDbEntity
  8
0
 62
7
100
AcDbPolyline
 90
20
 70
1
 10
105493600.466651
 20
85533231.457428
 30
0.0
 10
105565353.784985
 20
85518958.943835
 30
0.0
 10
105626183.342916
 20
85478314.155127
 30
0.0
 10
105666828.131624
 20
85417484.597196
 30
0.0
 10
105681100.645217
 20
85345731.278862
 30
0.0
 10
105681100.645217
 20
84858230.814592
 30
0.0
 10
105666828.131624
 20
84786477.496258
 30
0.0
 10
105626183.342916
 20
84725647.938327
 30
0.0
 10
105565353.784985
 20
84685003.149619
 30
0.0
 10
105493600.466651
 20
84670730.636026
 30
0.0
 10
104818599.823815
 20
84670730.636026
 30
0.0
 10
104746846.505481
 20
84685003.149619
 30
0.0
 10
104686016.947550
 20
84725647.938327
 30
0.0
 10
104645372.158842
 20
84786477.496258
 30
0.0
 10
104631099.645250
 20
84858230.814592
 30
0.0
 10
104631099.645250
 20
85345731.278862
 30
0.0
 10
104645372.158842
 20
85417484.597196
 30
0.0
 10
104686016.947550
 20
85478314.155127
 30
0.0
 10
104746846.505481
 20
85518958.943835
 30
0.0
 10
104818599.823815
 20
85533231.457428
 30
0.0
  0
LWPOLYLINE
  5
14b
100
AcDbEntity
  8
0
 62
7
100
AcDbPolyline
 90
20
 70
1
 10
105493600.466651
 20
83995729.993191
 30
0.0
 10
105565353.784985
 20
83981457.479598
 30
0.0
 10
105626183.342916
 20
83940812.690890
 30
0.0
 10
105666828.131624
 20
83879983.132959
 30
0.0
 10
105681100.645217
 20
83808229.814625
 30
0.0
 10
105681100.645217
 20
83320729.350355
 30
0.0
 10
105666828.131624
 20
83248976.032021
 30
0.0
 10
105626183.342916
 20
83188146.474090
 30
0.0
 10
105565353.784985
 20
83147501.685382
 30
0.0
 10
105493600.466651
 20
83133229.171790
 30
0.0
 10
104818599.823815
 20
83133229.171790
 30
0.0
 10
104746846.505481
 20
83147501.685382
 30
0.0
 10
104686016.947550
 20
83188146.474090
 30
0.0
 10
104645372.158842
 20
83248976.032021
 30
0.0
 10
104631099.645250
 20
83320729.350355
 30
0.0
 10
104631099.645250
 20
83808229.814625
 30
0.0
 10
104645372.158842
 20
83879983.132959
 30
0.0
 10
104686016.947550
 20
83940812.690890
 30
0.0
 10
104746846.505481
 20
83981457.479598
 30
0.0
 10
104818599.823815
 20
83995729.993191
 30
0.0
  0
LWPOLYLINE
  5
14c
100
AcDbEntity
  8
0
 62
7
100
AcDbPolyline
 90
20
 70
1
 10
101635221.792131
 20
97663743.009900
 30
0.0
 10
101649494.305723
 20
97735496.328234
 30
0.0
 10
101690139.094431
 20
97796325.886165
 30
0.0
 10
101750968.652362
 20
97836970.674873
 30
0.0
 10
101822721.970696
 20
97851243.188465
 30
0.0
 10
102328972.452823
 20
97851243.188465
 30
0.0
 10
102400725.771157
 20
97836970.674873
 30
0.0
 10
102461555.329088
 20
97796325.886165
 30
0.0
 10
102502200.117796
 20
97735496.328234
 30
0.0
 10
102516472.631388
 20
97663743.009900
 30
0.0
 10
102516472.631388
 20
96951242.331351
 30
0.0
 10
102502200.117796
 20
96879489.013017
 30
0.0
 10
102461555.329088
 20
96818659.455086
 30
0.0
 10
102400725.771157
 20
96778014.666378
 30
0.0
 10
102328972.452823
 20
96763742.152785
 30
0.0
 10
101822721.970696
 20
96763742.152785
 30
0.0
 10
101750968.652362
 20
96778014.666378
 30
0.0
 10
101690139.094431
 20
96818659.455086
 30
0.0
 10
101649494.305723
 20
96879489.013017
 30
0.0
 10
101635221.792131
 20
96951242.331351
 30
0.0
  0
LWPOLYLINE
  5
14d
100
AcDbEntity
  8
0
 62
7
100
AcDbPolyline
 90
20
 70
1
 10
103191473.274224
 20
97663743.009900
 30
0.0
 10
103205745.787817
 20
97735496.328234
 30
0.0
 10
103246390.576525
 20
97796325.886165
 30
0.0
 10
103307220.134456
 20
97836970.674873
 30
0.0
 10
103378973.452790
 20
97851243.188465
 30
0.0
 10
103885223.934916
 20
97851243.188465
 30
0.0
 10
103956977.253251
 20
97836970.674873
 30
0.0
 10
104017806.811182
 20
97796325.886165
 30
0.0
 10
104058451.599890
 20
97735496.328234
 30
0.0
 10
104072724.113482
 20
97663743.009900
 30
0.0
 10
104072724.113482
 20
96951242.331351
 30
0.0
 10
104058451.599890
 20
96879489.013017
 30
0.0
 10
104017806.811182
 20
96818659.455086
 30
0.0
 10
103956977.253251
 20
96778014.666378
 30
0.0
 10
103885223.934916
 20
96763742.152785
 30
0.0
 10
103378973.452790
 20
96763742.152785
 30
0.0
 10
103307220.134456
 20
96778014.666378
 30
0.0
 10
103246390.576525
 20
96818659.455086
 30
0.0
 10
103205745.787817
 20
96879489.013017
 30
0.0
 10
103191473.274224
 20
96951242.331351
 30
0.0
  0
LWPOLYLINE
  5
14e
100
AcDbEntity
  8
0
 62
7
100
AcDbPolyline
 90
20
 70
1
 10
89872585.590004
 20
90132235.837282
 30
0.0
 10
89944338.908338
 20
90117963.323689
 30
0.0
 10
90005168.466269
 20
90077318.534981
 30
0.0
 10
90045813.254977
 20
90016488.977050
 30
0.0
 10
90060085.768570
 20
89944735.658716
 30
0.0
 10
90060085.768570
 20
89457235.194446
 30
0.0
 10
90045813.254977
 20
89385481.876112
 30
0.0
 10
90005168.466269
 20
89324652.318181
 30
0.0
 10
89944338.908338
 20
89284007.529473
 30
0.0
 10
89872585.590004
 20
89269735.015880
 30
0.0
 10
89197584.947168
 20
89269735.015880
 30
0.0
 10
89125831.628834
 20
89284007.529473
 30
0.0
 10
89065002.070903
 20
89324652.318181
 30
0.0
 10
89024357.282195
 20
89385481.876112
 30
0.0
 10
89010084.768603
 20
89457235.194446
 30
0.0
 10
89010084.768603
 20
89944735.658716
 30
0.0
 10
89024357.282195
 20
90016488.977050
 30
0.0
 10
89065002.070903
 20
90077318.534981
 30
0.0
 10
89125831.628834
 20
90117963.323689
 30
0.0
 10
89197584.947168
 20
90132235.837282
 30
0.0
  0
LWPOLYLINE
  5
14f
100
AcDbEntity
  8
0
 62
7
100
AcDbPolyline
 90
20
 70
1
 10
89872585.590004
 20
88594734.373045
 30
0.0
 10
89944338.908338
 20
88580461.859452
 30
0.0
 10
90005168.466269
 20
88539817.070744
 30
0.0
 10
90045813.254977
 20
88478987.512813
 30
0.0
 10
90060085.768570
 20
88407234.194479
 30
0.0
 10
90060085.768570
 20
87919733.730209
 30
0.0
 10
90045813.254977
 20
87847980.411875
 30
0.0
 10
90005168.466269
 20
87787150.853944
 30
0.0
 10
89944338.908338
 20
87746506.065236
 30
0.0
 10
89872585.590004
 20
87732233.551644
 30
0.0
 10
89197584.947168
 20
87732233.551644
 30
0.0
 10
89125831.628834
 20
87746506.065236
 30
0.0
 10
89065002.070903
 20
87787150.853944
 30
0.0
 10
89024357.282195
 20
87847980.411875
 30
0.0
 10
89010084.768603
 20
87919733.730209
 30
0.0
 10
89010084.768603
 20
88407234.194479
 30
0.0
 10
89024357.282195
 20
88478987.512813
 30
0.0
 10
89065002.070903
 20
88539817.070744
 30
0.0
 10
89125831.628834
 20
88580461.859452
 30
0.0
 10
89197584.947168
 20
88594734.373045
 30
0.0
  0
LWPOLYLINE
  5
150
100
AcDbEntity
  8
0
 62
7
100
AcDbPolyline
 90
20
 70
1
 10
94423109.173688
 20
101952780.344557
 30
0.0
 10
94399592.901292
 20
102022057.160533
 30
0.0
 10
94404377.905849
 20
102095059.230056
 30
0.0
 10
94436735.186664
 20
102160673.792544
 30
0.0
 10
94491739.489048
 20
102208910.838483
 30
0.0
 10
94913926.891117
 20
102452661.070618
 30
0.0
 10
94983203.707093
 20
102476177.343013
 30
0.0
 10
95056205.776616
 20
102471392.338456
 30
0.0
 10
95121820.339104
 20
102439035.057641
 30
0.0
 10
95170057.385042
 20
102384030.755258
 30
0.0
 10
95507557.706460
 20
101799463.698546
 30
0.0
 10
95531073.978856
 20
101730186.882571
 30
0.0
 10
95526288.974299
 20
101657184.813047
 30
0.0
 10
95493931.693484
 20
101591570.250559
 30
0.0
 10
95438927.391100
 20
101543333.204621
 30
0.0
 10
95016739.989031
 20
101299582.972486
 30
0.0
 10
94947463.173055
 20
101276066.700090
 30
0.0
 10
94874461.103532
 20
101280851.704647
 30
0.0
 10
94808846.541044
 20
101313208.985462
 30
0.0
 10
94760609.495105
 20
101368213.287846
 30
0.0
  0
LWPOLYLINE
  5
151
100
AcDbEntity
  8
0
 62
7
100
AcDbPolyline
 90
20
 70
1
 10
95754624.441754
 20
102721531.076676
 30
0.0
 10
95731108.169358
 20
102790807.892651
 30
0.0
 10
95735893.173915
 20
102863809.962175
 30
0.0
 10
95768250.454731
 20
102929424.524663
 30
0.0
 10
95823254.757114
 20
102977661.570601
 30
0.0
 10
96245442.159183
 20
103221411.802736
 30
0.0
 10
96314718.975159
 20
103244928.075132
 30
0.0
 10
96387721.044682
 20
103240143.070575
 30
0.0
 10
96453335.607170
 20
103207785.789759
 30
0.0
 10
96501572.653109
 20
103152781.487376
 30
0.0
 10
96839072.974527
 20
102568214.430665
 30
0.0
 10
96862589.246922
 20
102498937.614689
 30
0.0
 10
96857804.242365
 20
102425935.545166
 30
0.0
 10
96825446.961550
 20
102360320.982678
 30
0.0
 10
96770442.659167
 20
102312083.936739
 30
0.0
 10
96348255.257097
 20
102068333.704604
 30
0.0
 10
96278978.441121
 20
102044817.432208
 30
0.0
 10
96205976.371598
 20
102049602.436765
 30
0.0
 10
96140361.809110
 20
102081959.717581
 30
0.0
 10
96092124.763172
 20
102136964.019964
 30
0.0
  0
LWPOLYLINE
  5
152
100
AcDbEntity
  8
0
 62
7
100
AcDbPolyline
 90
20
 70
1
 10
101770596.921055
 20
83139979.178218
 30
0.0
 10
101698843.602721
 20
83154251.691810
 30
0.0
 10
101638014.044790
 20
83194896.480518
 30
0.0
 10
101597369.256082
 20
83255726.038449
 30
0.0
 10
101583096.742490
 20
83327479.356783
 30
0.0
 10
101583096.742490
 20
83814979.821054
 30
0.0
 10
101597369.256082
 20
83886733.139388
 30
0.0
 10
101638014.044790
 20
83947562.697319
 30
0.0
 10
101698843.602721
 20
83988207.486027
 30
0.0
 10
101770596.921055
 20
84002479.999619
 30
0.0
 10
102445597.563891
 20
84002479.999619
 30
0.0
 10
102517350.882225
 20
83988207.486027
 30
0.0
 10
102578180.440156
 20
83947562.697319
 30
0.0
 10
102618825.228864
 20
83886733.139388
 30
0.0
 10
102633097.742456
 20
83814979.821054
 30
0.0
 10
102633097.742456
 20
83327479.356783
 30
0.0
 10
102618825.228864
 20
83255726.038449
 30
0.0
 10
102578180.440156
 20
83194896.480518
 30
0.0
 10
102517350.882225
 20
83154251.691810
 30
0.0
 10
102445597.563891
 20
83139979.178218
 30
0.0
  0
LWPOLYLINE
  5
153
100
AcDbEntity
  8
0
 62
7
100
AcDbPolyline
 90
20
 70
1
 10
101770596.921055
 20
84677480.642455
 30
0.0
 10
101698843.602721
 20
84691753.156047
 30
0.0
 10
101638014.044790
 20
84732397.944755
 30
0.0
 10
101597369.256082
 20
84793227.502686
 30
0.0
 10
101583096.742490
 20
84864980.821020
 30
0.0
 10
101583096.742490
 20
85352481.285291
 30
0.0
 10
101597369.256082
 20
85424234.603625
 30
0.0
 10
101638014.044790
 20
85485064.161556
 30
0.0
 10
101698843.602721
 20
85525708.950264
 30
0.0
 10
101770596.921055
 20
85539981.463856
 30
0.0
 10
102445597.563891
 20
85539981.463856
 30
0.0
 10
102517350.882225
 20
85525708.950264
 30
0.0
 10
102578180.440156
 20
85485064.161556
 30
0.0
 10
102618825.228864
 20
85424234.603625
 30
0.0
 10
102633097.742456
 20
85352481.285291
 30
0.0
 10
102633097.742456
 20
84864980.821020
 30
0.0
 10
102618825.228864
 20
84793227.502686
 30
0.0
 10
102578180.440156
 20
84732397.944755
 30
0.0
 10
102517350.882225
 20
84691753.156047
 30
0.0
 10
102445597.563891
 20
84677480.642455
 30
0.0
  0
LWPOLYLINE
  5
154
100
AcDbEntity
  8
0
 62
7
100
AcDbPolyline
 90
20
 70
1
 10
97991738.572266
 20
94379261.131929
 30
0.0
 10
97977466.058673
 20
94307507.813595
 30
0.0
 10
97936821.269965
 20
94246678.255664
 30
0.0
 10
97875991.712034
 20
94206033.466956
 30
0.0
 10
97804238.393700
 20
94191760.953363
 30
0.0
 10
97279237.893717
 20
94191760.953363
 30
0.0
 10
97207484.575383
 20
94206033.466956
 30
0.0
 10
97146655.017452
 20
94246678.255664
 30
0.0
 10
97106010.228744
 20
94307507.813595
 30
0.0
 10
97091737.715151
 20
94379261.131929
 30
0.0
 10
97091737.715151
 20
95054261.774765
 30
0.0
 10
97106010.228744
 20
95126015.093099
 30
0.0
 10
97146655.017452
 20
95186844.651030
 30
0.0
 10
97207484.575383
 20
95227489.439738
 30
0.0
 10
97279237.893717
 20
95241761.953330
 30
0.0
 10
97804238.393700
 20
95241761.953330
 30
0.0
 10
97875991.712034
 20
95227489.439738
 30
0.0
 10
97936821.269965
 20
95186844.651030
 30
0.0
 10
97977466.058673
 20
95126015.093099
 30
0.0
 10
97991738.572266
 20
95054261.774765
 30
0.0
  0
LWPOLYLINE
  5
155
100
AcDbEntity
  8
0
 62
7
100
AcDbPolyline
 90
20
 70
1
 10
96491737.143742
 20
94379261.131929
 30
0.0
 10
96477464.630149
 20
94307507.813595
 30
0.0
 10
96436819.841441
 20
94246678.255664
 30
0.0
 10
96375990.283511
 20
94206033.466956
 30
0.0
 10
96304236.965176
 20
94191760.953363
 30
0.0
 10
95779236.465193
 20
94191760.953363
 30
0.0
 10
95707483.146859
 20
94206033.466956
 30
0.0
 10
95646653.588928
 20
94246678.255664
 30
0.0
 10
95606008.800220
 20
94307507.813595
 30
0.0
 10
95591736.286628
 20
94379261.131929
 30
0.0
 10
95591736.286628
 20
95054261.774765
 30
0.0
 10
95606008.800220
 20
95126015.093099
 30
0.0
 10
95646653.588928
 20
95186844.651030
 30
0.0
 10
95707483.146859
 20
95227489.439738
 30
0.0
 10
95779236.465193
 20
95241761.953330
 30
0.0
 10
96304236.965176
 20
95241761.953330
 30
0.0
 10
96375990.283511
 20
95227489.439738
 30
0.0
 10
96436819.841441
 20
95186844.651030
 30
0.0
 10
96477464.630149
 20
95126015.093099
 30
0.0
 10
96491737.143742
 20
95054261.774765
 30
0.0
  0
LWPOLYLINE
  5
156
100
AcDbEntity
  8
0
 62
7
100
AcDbPolyline
 90
20
 70
1
 10
101663346.818916
 20
104502999.523254
 30
0.0
 10
101677619.332508
 20
104574752.841588
 30
0.0
 10
101718264.121216
 20
104635582.399519
 30
0.0
 10
101779093.679147
 20
104676227.188227
 30
0.0
 10
101850846.997481
 20
104690499.701819
 30
0.0
 10
102338347.461751
 20
104690499.701819
 30
0.0
 10
102410100.780085
 20
104676227.188227
 30
0.0
 10
102470930.338016
 20
104635582.399519
 30
0.0
 10
102511575.126724
 20
104574752.841588
 30
0.0
 10
102525847.640317
 20
104502999.523254
 30
0.0
 10
102525847.640317
 20
103827998.880418
 30
0.0
 10
102511575.126724
 20
103756245.562084
 30
0.0
 10
102470930.338016
 20
103695416.004153
 30
0.0
 10
102410100.780085
 20
103654771.215445
 30
0.0
 10
102338347.461751
 20
103640498.701853
 30
0.0
 10
101850846.997481
 20
103640498.701853
 30
0.0
 10
101779093.679147
 20
103654771.215445
 30
0.0
 10
101718264.121216
 20
103695416.004153
 30
0.0
 10
101677619.332508
 20
103756245.562084
 30
0.0
 10
101663346.818916
 20
103827998.880418
 30
0.0
  0
LWPOLYLINE
  5
157
100
AcDbEntity
  8
0
 62
7
100
AcDbPolyline
 90
20
 70
1
 10
103200848.283152
 20
104502999.523254
 30
0.0
 10
103215120.796745
 20
104574752.841588
 30
0.0
 10
103255765.585453
 20
104635582.399519
 30
0.0
 10
103316595.143384
 20
104676227.188227
 30
0.0
 10
103388348.461718
 20
104690499.701819
 30
0.0
 10
103875848.925988
 20
104690499.701819
 30
0.0
 10
103947602.244322
 20
104676227.188227
 30
0.0
 10
104008431.802253
 20
104635582.399519
 30
0.0
 10
104049076.590961
 20
104574752.841588
 30
0.0
 10
104063349.104554
 20
104502999.523254
 30
0.0
 10
104063349.104554
 20
103827998.880418
 30
0.0
 10
104049076.590961
 20
103756245.562084
 30
0.0
 10
104008431.802253
 20
103695416.004153
 30
0.0
 10
103947602.244322
 20
103654771.215445
 30
0.0
 10
103875848.925988
 20
103640498.701853
 30
0.0
 10
103388348.461718
 20
103640498.701853
 30
0.0
 10
103316595.143384
 20
103654771.215445
 30
0.0
 10
103255765.585453
 20
103695416.004153
 30
0.0
 10
103215120.796745
 20
103756245.562084
 30
0.0
 10
103200848.283152
 20
103827998.880418
 30
0.0
  0
LWPOLYLINE
  5
158
100
AcDbEntity
  8
0
 62
7
100
AcDbPolyline
 90
20
 70
1
 10
97986093.316889
 20
95826991.260672
 30
0.0
 10
97971820.803297
 20
95755237.942338
 30
0.0
 10
97931176.014589
 20
95694408.384407
 30
0.0
 10
97870346.456658
 20
95653763.595699
 30
0.0
 10
97798593.138324
 20
95639491.082107
 30
0.0
 10
97273592.638341
 20
95639491.082107
 30
0.0
 10
97201839.320006
 20
95653763.595699
 30
0.0
 10
97141009.762076
 20
95694408.384407
 30
0.0
 10
97100364.973368
 20
95755237.942338
 30
0.0
 10
97086092.459775
 20
95826991.260672
 30
0.0
 10
97086092.459775
 20
96501991.903508
 30
0.0
 10
97100364.973368
 20
96573745.221842
 30
0.0
 10
97141009.762076
 20
96634574.779773
 30
0.0
 10
97201839.320006
 20
96675219.568481
 30
0.0
 10
97273592.638341
 20
96689492.082073
 30
0.0
 10
97798593.138324
 20
96689492.082073
 30
0.0
 10
97870346.456658
 20
96675219.568481
 30
0.0
 10
97931176.014589
 20
96634574.779773
 30
0.0
 10
97971820.803297
 20
96573745.221842
 30
0.0
 10
97986093.316889
 20
96501991.903508
 30
0.0
  0
LWPOLYLINE
  5
159
100
AcDbEntity
  8
0
 62
7
100
AcDbPolyline
 90
20
 70
1
 10
96486091.888366
 20
95826991.260672
 30
0.0
 10
96471819.374773
 20
95755237.942338
 30
0.0
 10
96431174.586065
 20
95694408.384407
 30
0.0
 10
96370345.028134
 20
95653763.595699
 30
0.0
 10
96298591.709800
 20
95639491.082107
 30
0.0
 10
95773591.209817
 20
95639491.082107
 30
0.0
 10
95701837.891483
 20
95653763.595699
 30
0.0
 10
95641008.333552
 20
95694408.384407
 30
0.0
 10
95600363.544844
 20
95755237.942338
 30
0.0
 10
95586091.031251
 20
95826991.260672
 30
0.0
 10
95586091.031251
 20
96501991.903508
 30
0.0
 10
95600363.544844
 20
96573745.221842
 30
0.0
 10
95641008.333552
 20
96634574.779773
 30
0.0
 10
95701837.891483
 20
96675219.568481
 30
0.0
 10
95773591.209817
 20
96689492.082073
 30
0.0
 10
96298591.709800
 20
96689492.082073
 30
0.0
 10
96370345.028134
 20
96675219.568481
 30
0.0
 10
96431174.586065
 20
96634574.779773
 30
0.0
 10
96471819.374773
 20
96573745.221842
 30
0.0
 10
96486091.888366
 20
96501991.903508
 30
0.0
  0
LWPOLYLINE
  5
15a
100
AcDbEntity
  8
0
 62
7
100
AcDbPolyline
 90
20
 70
1
 10
101663346.818916
 20
74403970.858495
 30
0.0
 10
101677619.332508
 20
74475724.176829
 30
0.0
 10
101718264.121216
 20
74536553.734760
 30
0.0
 10
101779093.679147
 20
74577198.523468
 30
0.0
 10
101850846.997481
 20
74591471.037061
 30
0.0
 10
102338347.461751
 20
74591471.037061
 30
0.0
 10
102410100.780085
 20
74577198.523468
 30
0.0
 10
102470930.338016
 20
74536553.734760
 30
0.0
 10
102511575.126724
 20
74475724.176829
 30
0.0
 10
102525847.640317
 20
74403970.858495
 30
0.0
 10
102525847.640317
 20
73728970.215659
 30
0.0
 10
102511575.126724
 20
73657216.897325
 30
0.0
 10
102470930.338016
 20
73596387.339394
 30
0.0
 10
102410100.780085
 20
73555742.550686
 30
0.0
 10
102338347.461751
 20
73541470.037094
 30
0.0
 10
101850846.997481
 20
73541470.037094
 30
0.0
 10
101779093.679147
 20
73555742.550686
 30
0.0
 10
101718264.121216
 20
73596387.339394
 30
0.0
 10
101677619.332508
 20
73657216.897325
 30
0.0
 10
101663346.818916
 20
73728970.215659
 30
0.0
  0
LWPOLYLINE
  5
15b
100
AcDbEntity
  8
0
 62
7
100
AcDbPolyline
 90
20
 70
1
 10
103200848.283152
 20
74403970.858495
 30
0.0
 10
103215120.796745
 20
74475724.176829
 30
0.0
 10
103255765.585453
 20
74536553.734760
 30
0.0
 10
103316595.143384
 20
74577198.523468
 30
0.0
 10
103388348.461718
 20
74591471.037061
 30
0.0
 10
103875848.925988
 20
74591471.037061
 30
0.0
 10
103947602.244322
 20
74577198.523468
 30
0.0
 10
104008431.802253
 20
74536553.734760
 30
0.0
 10
104049076.590961
 20
74475724.176829
 30
0.0
 10
104063349.104554
 20
74403970.858495
 30
0.0
 10
104063349.104554
 20
73728970.215659
 30
0.0
 10
104049076.590961
 20
73657216.897325
 30
0.0
 10
104008431.802253
 20
73596387.339394
 30
0.0
 10
103947602.244322
 20
73555742.550686
 30
0.0
 10
103875848.925988
 20
73541470.037094
 30
0.0
 10
103388348.461718
 20
73541470.037094
 30
0.0
 10
103316595.143384
 20
73555742.550686
 30
0.0
 10
103255765.585453
 20
73596387.339394
 30
0.0
 10
103215120.796745
 20
73657216.897325
 30
0.0
 10
103200848.283152
 20
73728970.215659
 30
0.0
  0
LWPOLYLINE
  5
15c
100
AcDbEntity
  8
0
 62
7
100
AcDbPolyline
 90
20
 70
1
 10
97974093.305461
 20
91254986.906532
 30
0.0
 10
97959820.791869
 20
91183233.588198
 30
0.0
 10
97919176.003161
 20
91122404.030267
 30
0.0
 10
97858346.445230
 20
91081759.241559
 30
0.0
 10
97786593.126896
 20
91067486.727966
 30
0.0
 10
97261592.626912
 20
91067486.727966
 30
0.0
 10
97189839.308578
 20
91081759.241559
 30
0.0
 10
97129009.750647
 20
91122404.030267
 30
0.0
 10
97088364.961939
 20
91183233.588198
 30
0.0
 10
97074092.448347
 20
91254986.906532
 30
0.0
 10
97074092.448347
 20
91929987.549367
 30
0.0
 10
97088364.961939
 20
92001740.867702
 30
0.0
 10
97129009.750647
 20
92062570.425632
 30
0.0
 10
97189839.308578
 20
92103215.214340
 30
0.0
 10
97261592.626912
 20
92117487.727933
 30
0.0
 10
97786593.126896
 20
92117487.727933
 30
0.0
 10
97858346.445230
 20
92103215.214340
 30
0.0
 10
97919176.003161
 20
92062570.425632
 30
0.0
 10
97959820.791869
 20
92001740.867702
 30
0.0
 10
97974093.305461
 20
91929987.549367
 30
0.0
  0
LWPOLYLINE
  5
15d
100
AcDbEntity
  8
0
 62
7
100
AcDbPolyline
 90
20
 70
1
 10
96474091.876937
 20
91254986.906532
 30
0.0
 10
96459819.363345
 20
91183233.588198
 30
0.0
 10
96419174.574637
 20
91122404.030267
 30
0.0
 10
96358345.016706
 20
91081759.241559
 30
0.0
 10
96286591.698372
 20
91067486.727966
 30
0.0
 10
95761591.198389
 20
91067486.727966
 30
0.0
 10
95689837.880054
 20
91081759.241559
 30
0.0
 10
95629008.322124
 20
91122404.030267
 30
0.0
 10
95588363.533416
 20
91183233.588198
 30
0.0
 10
95574091.019823
 20
91254986.906532
 30
0.0
 10
95574091.019823
 20
91929987.549367
 30
0.0
 10
95588363.533416
 20
92001740.867702
 30
0.0
 10
95629008.322124
 20
92062570.425632
 30
0.0
 10
95689837.880054
 20
92103215.214340
 30
0.0
 10
95761591.198389
 20
92117487.727933
 30
0.0
 10
96286591.698372
 20
92117487.727933
 30
0.0
 10
96358345.016706
 20
92103215.214340
 30
0.0
 10
96419174.574637
 20
92062570.425632
 30
0.0
 10
96459819.363345
 20
92001740.867702
 30
0.0
 10
96474091.876937
 20
91929987.549367
 30
0.0
  0
LWPOLYLINE
  5
15e
100
AcDbEntity
  8
0
 62
7
100
AcDbPolyline
 90
20
 70
1
 10
103969599.015271
 20
85539981.463856
 30
0.0
 10
104041352.333605
 20
85525708.950264
 30
0.0
 10
104102181.891536
 20
85485064.161556
 30
0.0
 10
104142826.680244
 20
85424234.603625
 30
0.0
 10
104157099.193836
 20
85352481.285291
 30
0.0
 10
104157099.193836
 20
84864980.821020
 30
0.0
 10
104142826.680244
 20
84793227.502686
 30
0.0
 10
104102181.891536
 20
84732397.944755
 30
0.0
 10
104041352.333605
 20
84691753.156047
 30
0.0
 10
103969599.015271
 20
84677480.642455
 30
0.0
 10
103294598.372435
 20
84677480.642455
 30
0.0
 10
103222845.054101
 20
84691753.156047
 30
0.0
 10
103162015.496170
 20
84732397.944755
 30
0.0
 10
103121370.707462
 20
84793227.502686
 30
0.0
 10
103107098.193870
 20
84864980.821020
 30
0.0
 10
103107098.193870
 20
85352481.285291
 30
0.0
 10
103121370.707462
 20
85424234.603625
 30
0.0
 10
103162015.496170
 20
85485064.161556
 30
0.0
 10
103222845.054101
 20
85525708.950264
 30
0.0
 10
103294598.372435
 20
85539981.463856
 30
0.0
  0
LWPOLYLINE
  5
15f
100
AcDbEntity
  8
0
 62
7
100
AcDbPolyline
 90
20
 70
1
 10
103969599.015271
 20
84002479.999619
 30
0.0
 10
104041352.333605
 20
83988207.486027
 30
0.0
 10
104102181.891536
 20
83947562.697319
 30
0.0
 10
104142826.680244
 20
83886733.139388
 30
0.0
 10
104157099.193836
 20
83814979.821054
 30
0.0
 10
104157099.193836
 20
83327479.356783
 30
0.0
 10
104142826.680244
 20
83255726.038449
 30
0.0
 10
104102181.891536
 20
83194896.480518
 30
0.0
 10
104041352.333605
 20
83154251.691810
 30
0.0
 10
103969599.015271
 20
83139979.178218
 30
0.0
 10
103294598.372435
 20
83139979.178218
 30
0.0
 10
103222845.054101
 20
83154251.691810
 30
0.0
 10
103162015.496170
 20
83194896.480518
 30
0.0
 10
103121370.707462
 20
83255726.038449
 30
0.0
 10
103107098.193870
 20
83327479.356783
 30
0.0
 10
103107098.193870
 20
83814979.821054
 30
0.0
 10
103121370.707462
 20
83886733.139388
 30
0.0
 10
103162015.496170
 20
83947562.697319
 30
0.0
 10
103222845.054101
 20
83988207.486027
 30
0.0
 10
103294598.372435
 20
84002479.999619
 30
0.0
  0
LWPOLYLINE
  5
160
100
AcDbEntity
  8
0
 62
7
100
AcDbPolyline
 90
20
 70
1
 10
115573393.316125
 20
84080960.824360
 30
0.0
 10
115628397.618508
 20
84032723.778422
 30
0.0
 10
115660754.899323
 20
83967109.215934
 30
0.0
 10
115665539.903880
 20
83894107.146410
 30
0.0
 10
115642023.631485
 20
83824830.330435
 30
0.0
 10
115398273.399350
 20
83402642.928365
 30
0.0
 10
115350036.353411
 20
83347638.625982
 30
0.0
 10
115284421.790923
 20
83315281.345167
 30
0.0
 10
115211419.721400
 20
83310496.340610
 30
0.0
 10
115142142.905424
 20
83334012.613005
 30
0.0
 10
114557575.848713
 20
83671512.934423
 30
0.0
 10
114502571.546329
 20
83719749.980362
 30
0.0
 10
114470214.265514
 20
83785364.542850
 30
0.0
 10
114465429.260957
 20
83858366.612373
 30
0.0
 10
114488945.533353
 20
83927643.428349
 30
0.0
 10
114732695.765488
 20
84349830.830418
 30
0.0
 10
114780932.811426
 20
84404835.132801
 30
0.0
 10
114846547.373914
 20
84437192.413617
 30
0.0
 10
114919549.443438
 20
84441977.418174
 30
0.0
 10
114988826.259413
 20
84418461.145778
 30
0.0
  0
LWPOLYLINE
  5
161
100
AcDbEntity
  8
0
 62
7
100
AcDbPolyline
 90
20
 70
1
 10
114804642.584006
 20
82749445.556294
 30
0.0
 10
114859646.886390
 20
82701208.510355
 30
0.0
 10
114892004.167205
 20
82635593.947867
 30
0.0
 10
114896789.171762
 20
82562591.878344
 30
0.0
 10
114873272.899366
 20
82493315.062368
 30
0.0
 10
114629522.667231
 20
82071127.660299
 30
0.0
 10
114581285.621293
 20
82016123.357916
 30
0.0
 10
114515671.058805
 20
81983766.077100
 30
0.0
 10
114442668.989281
 20
81978981.072543
 30
0.0
 10
114373392.173306
 20
82002497.344939
 30
0.0
 10
113788825.116594
 20
82339997.666357
 30
0.0
 10
113733820.814211
 20
82388234.712295
 30
0.0
 10
113701463.533396
 20
82453849.274783
 30
0.0
 10
113696678.528839
 20
82526851.344307
 30
0.0
 10
113720194.801234
 20
82596128.160282
 30
0.0
 10
113963945.033369
 20
83018315.562352
 30
0.0
 10
114012182.079308
 20
83073319.864735
 30
0.0
 10
114077796.641796
 20
83105677.145550
 30
0.0
 10
114150798.711319
 20
83110462.150107
 30
0.0
 10
114220075.527295
 20
83086945.877712
 30
0.0
  0
LWPOLYLINE
  5
162
100
AcDbEntity
  8
0
 62
7
100
AcDbPolyline
 90
20
 70
1
 10
101670096.825344
 20
76308972.672720
 30
0.0
 10
101684369.338936
 20
76380725.991055
 30
0.0
 10
101725014.127644
 20
76441555.548986
 30
0.0
 10
101785843.685575
 20
76482200.337694
 30
0.0
 10
101857597.003909
 20
76496472.851286
 30
0.0
 10
102345097.468180
 20
76496472.851286
 30
0.0
 10
102416850.786514
 20
76482200.337694
 30
0.0
 10
102477680.344445
 20
76441555.548986
 30
0.0
 10
102518325.133153
 20
76380725.991055
 30
0.0
 10
102532597.646745
 20
76308972.672720
 30
0.0
 10
102532597.646745
 20
75633972.029885
 30
0.0
 10
102518325.133153
 20
75562218.711551
 30
0.0
 10
102477680.344445
 20
75501389.153620
 30
0.0
 10
102416850.786514
 20
75460744.364912
 30
0.0
 10
102345097.468180
 20
75446471.851319
 30
0.0
 10
101857597.003909
 20
75446471.851319
 30
0.0
 10
101785843.685575
 20
75460744.364912
 30
0.0
 10
101725014.127644
 20
75501389.153620
 30
0.0
 10
101684369.338936
 20
75562218.711551
 30
0.0
 10
101670096.825344
 20
75633972.029885
 30
0.0
  0
LWPOLYLINE
  5
163
100
AcDbEntity
  8
0
 62
7
100
AcDbPolyline
 90
20
 70
1
 10
103207598.289581
 20
76308972.672720
 30
0.0
 10
103221870.803173
 20
76380725.991055
 30
0.0
 10
103262515.591881
 20
76441555.548986
 30
0.0
 10
103323345.149812
 20
76482200.337694
 30
0.0
 10
103395098.468146
 20
76496472.851286
 30
0.0
 10
103882598.932417
 20
76496472.851286
 30
0.0
 10
103954352.250751
 20
76482200.337694
 30
0.0
 10
104015181.808682
 20
76441555.548986
 30
0.0
 10
104055826.597390
 20
76380725.991055
 30
0.0
 10
104070099.110982
 20
76308972.672720
 30
0.0
 10
104070099.110982
 20
75633972.029885
 30
0.0
 10
104055826.597390
 20
75562218.711551
 30
0.0
 10
104015181.808682
 20
75501389.153620
 30
0.0
 10
103954352.250751
 20
75460744.364912
 30
0.0
 10
103882598.932417
 20
75446471.851319
 30
0.0
 10
103395098.468146
 20
75446471.851319
 30
0.0
 10
103323345.149812
 20
75460744.364912
 30
0.0
 10
103262515.591881
 20
75501389.153620
 30
0.0
 10
103221870.803173
 20
75562218.711551
 30
0.0
 10
103207598.289581
 20
75633972.029885
 30
0.0
  0
LWPOLYLINE
  5
164
100
AcDbEntity
  8
0
 62
7
100
AcDbPolyline
 90
20
 70
1
 10
115269355.776575
 20
81577996.940667
 30
0.0
 10
115214351.474192
 20
81626233.986605
 30
0.0
 10
115181994.193376
 20
81691848.549093
 30
0.0
 10
115177209.188819
 20
81764850.618617
 30
0.0
 10
115200725.461215
 20
81834127.434592
 30
0.0
 10
115444475.693350
 20
82256314.836662
 30
0.0
 10
115492712.739289
 20
82311319.139045
 30
0.0
 10
115558327.301777
 20
82343676.419860
 30
0.0
 10
115631329.371300
 20
82348461.424417
 30
0.0
 10
115700606.187276
 20
82324945.152022
 30
0.0
 10
116285173.243987
 20
81987444.830604
 30
0.0
 10
116340177.546370
 20
81939207.784665
 30
0.0
 10
116372534.827186
 20
81873593.222177
 30
0.0
 10
116377319.831743
 20
81800591.152654
 30
0.0
 10
116353803.559347
 20
81731314.336678
 30
0.0
 10
116110053.327212
 20
81309126.934609
 30
0.0
 10
116061816.281273
 20
81254122.632226
 30
0.0
 10
115996201.718786
 20
81221765.351410
 30
0.0
 10
115923199.649262
 20
81216980.346853
 30
0.0
 10
115853922.833287
 20
81240496.619249
 30
0.0
  0
LWPOLYLINE
  5
165
100
AcDbEntity
  8
0
 62
7
100
AcDbPolyline
 90
20
 70
1
 10
116038106.508694
 20
82909512.208733
 30
0.0
 10
115983102.206310
 20
82957749.254672
 30
0.0
 10
115950744.925495
 20
83023363.817159
 30
0.0
 10
115945959.920938
 20
83096365.886683
 30
0.0
 10
115969476.193334
 20
83165642.702658
 30
0.0
 10
116213226.425469
 20
83587830.104728
 30
0.0
 10
116261463.471407
 20
83642834.407111
 30
0.0
 10
116327078.033895
 20
83675191.687927
 30
0.0
 10
116400080.103418
 20
83679976.692484
 30
0.0
 10
116469356.919394
 20
83656460.420088
 30
0.0
 10
117053923.976106
 20
83318960.098670
 30
0.0
 10
117108928.278489
 20
83270723.052732
 30
0.0
 10
117141285.559304
 20
83205108.490244
 30
0.0
 10
117146070.563861
 20
83132106.420720
 30
0.0
 10
117122554.291466
 20
83062829.604745
 30
0.0
 10
116878804.059330
 20
82640642.202675
 30
0.0
 10
116830567.013392
 20
82585637.900292
 30
0.0
 10
116764952.450904
 20
82553280.619477
 30
0.0
 10
116691950.381381
 20
82548495.614920
 30
0.0
 10
116622673.565405
 20
82572011.887315
 30
0.0
  0
LWPOLYLINE
  5
166
100
AcDbEntity
  8
0
 62
7
100
AcDbPolyline
 90
20
 70
1
 10
101663346.818916
 20
102597997.709029
 30
0.0
 10
101677619.332508
 20
102669751.027363
 30
0.0
 10
101718264.121216
 20
102730580.585294
 30
0.0
 10
101779093.679147
 20
102771225.374002
 30
0.0
 10
101850846.997481
 20
102785497.887594
 30
0.0
 10
102338347.461751
 20
102785497.887594
 30
0.0
 10
102410100.780085
 20
102771225.374002
 30
0.0
 10
102470930.338016
 20
102730580.585294
 30
0.0
 10
102511575.126724
 20
102669751.027363
 30
0.0
 10
102525847.640317
 20
102597997.709029
 30
0.0
 10
102525847.640317
 20
101922997.066193
 30
0.0
 10
102511575.126724
 20
101851243.747859
 30
0.0
 10
102470930.338016
 20
101790414.189928
 30
0.0
 10
102410100.780085
 20
101749769.401220
 30
0.0
 10
102338347.461751
 20
101735496.887628
 30
0.0
 10
101850846.997481
 20
101735496.887628
 30
0.0
 10
101779093.679147
 20
101749769.401220
 30
0.0
 10
101718264.121216
 20
101790414.189928
 30
0.0
 10
101677619.332508
 20
101851243.747859
 30
0.0
 10
101663346.818916
 20
101922997.066193
 30
0.0
  0
LWPOLYLINE
  5
167
100
AcDbEntity
  8
0
 62
7
100
AcDbPolyline
 90
20
 70
1
 10
103200848.283152
 20
102597997.709029
 30
0.0
 10
103215120.796745
 20
102669751.027363
 30
0.0
 10
103255765.585453
 20
102730580.585294
 30
0.0
 10
103316595.143384
 20
102771225.374002
 30
0.0
 10
103388348.461718
 20
102785497.887594
 30
0.0
 10
103875848.925988
 20
102785497.887594
 30
0.0
 10
103947602.244322
 20
102771225.374002
 30
0.0
 10
104008431.802253
 20
102730580.585294
 30
0.0
 10
104049076.590961
 20
102669751.027363
 30
0.0
 10
104063349.104554
 20
102597997.709029
 30
0.0
 10
104063349.104554
 20
101922997.066193
 30
0.0
 10
104049076.590961
 20
101851243.747859
 30
0.0
 10
104008431.802253
 20
101790414.189928
 30
0.0
 10
103947602.244322
 20
101749769.401220
 30
0.0
 10
103875848.925988
 20
101735496.887628
 30
0.0
 10
103388348.461718
 20
101735496.887628
 30
0.0
 10
103316595.143384
 20
101749769.401220
 30
0.0
 10
103255765.585453
 20
101790414.189928
 30
0.0
 10
103215120.796745
 20
101851243.747859
 30
0.0
 10
103200848.283152
 20
101922997.066193
 30
0.0
  0
LWPOLYLINE
  5
168
100
AcDbEntity
  8
0
 62
7
100
AcDbPolyline
 90
20
 70
1
 10
91949234.067697
 20
85164074.355861
 30
0.0
 10
92018510.883672
 20
85187590.628257
 30
0.0
 10
92091512.953196
 20
85182805.623700
 30
0.0
 10
92157126.765683
 20
85150448.342885
 30
0.0
 10
92205363.811622
 20
85095444.790502
 30
0.0
 10
92458489.052685
 20
84657018.372968
 30
0.0
 10
92482005.325081
 20
84587742.306993
 30
0.0
 10
92477221.070524
 20
84514740.237469
 30
0.0
 10
92444863.789709
 20
84449125.674981
 30
0.0
 10
92389859.487326
 20
84400888.629043
 30
0.0
 10
91772815.899685
 20
84044638.289768
 30
0.0
 10
91703539.083710
 20
84021122.017373
 30
0.0
 10
91630537.014186
 20
84025907.021930
 30
0.0
 10
91564923.201699
 20
84058264.302745
 30
0.0
 10
91516686.155761
 20
84113267.855128
 30
0.0
 10
91263560.914697
 20
84551694.272662
 30
0.0
 10
91240044.642301
 20
84620970.338637
 30
0.0
 10
91244828.896858
 20
84693972.408161
 30
0.0
 10
91277186.177673
 20
84759586.970649
 30
0.0
 10
91332190.480056
 20
84807824.016587
 30
0.0
  0
LWPOLYLINE
  5
169
100
AcDbEntity
  8
0
 62
7
100
AcDbPolyline
 90
20
 70
1
 10
92727359.808744
 20
83816321.572331
 30
0.0
 10
92796636.624719
 20
83839837.844727
 30
0.0
 10
92869638.694243
 20
83835052.840170
 30
0.0
 10
92935252.506730
 20
83802695.559355
 30
0.0
 10
92983489.552668
 20
83747692.006972
 30
0.0
 10
93236614.793732
 20
83309265.589438
 30
0.0
 10
93260131.066127
 20
83239989.523463
 30
0.0
 10
93255346.811571
 20
83166987.453939
 30
0.0
 10
93222989.530756
 20
83101372.891451
 30
0.0
 10
93167985.228372
 20
83053135.845513
 30
0.0
 10
92550941.640732
 20
82696885.506238
 30
0.0
 10
92481664.824756
 20
82673369.233843
 30
0.0
 10
92408662.755233
 20
82678154.238400
 30
0.0
 10
92343048.942746
 20
82710511.519215
 30
0.0
 10
92294811.896807
 20
82765515.071598
 30
0.0
 10
92041686.655744
 20
83203941.489132
 30
0.0
 10
92018170.383348
 20
83273217.555107
 30
0.0
 10
92022954.637904
 20
83346219.624631
 30
0.0
 10
92055311.918720
 20
83411834.187119
 30
0.0
 10
92110316.221103
 20
83460071.233057
 30
0.0
  0
LWPOLYLINE
  5
16a
100
AcDbEntity
  8
0
 62
7
100
AcDbPolyline
 90
20
 70
1
 10
91207803.611597
 20
81972497.316369
 30
0.0
 10
91138526.795621
 20
81948981.043973
 30
0.0
 10
91065524.726098
 20
81953766.048530
 30
0.0
 10
90999910.163610
 20
81986123.329345
 30
0.0
 10
90951673.117671
 20
82041127.631728
 30
0.0
 10
90707922.885536
 20
82463315.033798
 30
0.0
 10
90684406.613141
 20
82532591.849774
 30
0.0
 10
90689191.617698
 20
82605593.919297
 30
0.0
 10
90721548.898513
 20
82671208.481785
 30
0.0
 10
90776553.200896
 20
82719445.527723
 30
0.0
 10
91361120.257608
 20
83056945.849141
 30
0.0
 10
91430397.073583
 20
83080462.121537
 30
0.0
 10
91503399.143107
 20
83075677.116980
 30
0.0
 10
91569013.705595
 20
83043319.836165
 30
0.0
 10
91617250.751533
 20
82988315.533781
 30
0.0
 10
91861000.983668
 20
82566128.131712
 30
0.0
 10
91884517.256064
 20
82496851.315736
 30
0.0
 10
91879732.251507
 20
82423849.246213
 30
0.0
 10
91847374.970691
 20
82358234.683725
 30
0.0
 10
91792370.668308
 20
82309997.637786
 30
0.0
  0
LWPOLYLINE
  5
16b
100
AcDbEntity
  8
0
 62
7
100
AcDbPolyline
 90
20
 70
1
 10
90439052.879478
 20
83304012.584435
 30
0.0
 10
90369776.063503
 20
83280496.312039
 30
0.0
 10
90296773.993979
 20
83285281.316596
 30
0.0
 10
90231159.431491
 20
83317638.597412
 30
0.0
 10
90182922.385553
 20
83372642.899795
 30
0.0
 10
89939172.153418
 20
83794830.301864
 30
0.0
 10
89915655.881022
 20
83864107.117840
 30
0.0
 10
89920440.885579
 20
83937109.187363
 30
0.0
 10
89952798.166394
 20
84002723.749851
 30
0.0
 10
90007802.468778
 20
84050960.795790
 30
0.0
 10
90592369.525489
 20
84388461.117208
 30
0.0
 10
90661646.341465
 20
84411977.389603
 30
0.0
 10
90734648.410988
 20
84407192.385046
 30
0.0
 10
90800262.973476
 20
84374835.104231
 30
0.0
 10
90848500.019415
 20
84319830.801848
 30
0.0
 10
91092250.251550
 20
83897643.399778
 30
0.0
 10
91115766.523945
 20
83828366.583802
 30
0.0
 10
91110981.519388
 20
83755364.514279
 30
0.0
 10
91078624.238573
 20
83689749.951791
 30
0.0
 10
91023619.936190
 20
83641512.905853
 30
0.0
  0
LWPOLYLINE
  5
16c
100
AcDbEntity
  8
0
 62
7
100
AcDbPolyline
 90
20
 70
1
 10
117772612.160547
 20
87725483.545215
 30
0.0
 10
117700858.842213
 20
87739756.058808
 30
0.0
 10
117640029.284282
 20
87780400.847516
 30
0.0
 10
117599384.495574
 20
87841230.405446
 30
0.0
 10
117585111.981982
 20
87912983.723781
 30
0.0
 10
117585111.981982
 20
88400484.188051
 30
0.0
 10
117599384.495574
 20
88472237.506385
 30
0.0
 10
117640029.284282
 20
88533067.064316
 30
0.0
 10
117700858.842213
 20
88573711.853024
 30
0.0
 10
117772612.160547
 20
88587984.366616
 30
0.0
 10
118447612.803383
 20
88587984.366616
 30
0.0
 10
118519366.121717
 20
88573711.853024
 30
0.0
 10
118580195.679648
 20
88533067.064316
 30
0.0
 10
118620840.468356
 20
88472237.506385
 30
0.0
 10
118635112.981948
 20
88400484.188051
 30
0.0
 10
118635112.981948
 20
87912983.723781
 30
0.0
 10
118620840.468356
 20
87841230.405446
 30
0.0
 10
118580195.679648
 20
87780400.847516
 30
0.0
 10
118519366.121717
 20
87739756.058808
 30
0.0
 10
118447612.803383
 20
87725483.545215
 30
0.0
  0
LWPOLYLINE
  5
16d
100
AcDbEntity
  8
0
 62
7
100
AcDbPolyline
 90
20
 70
1
 10
117772612.160547
 20
89262985.009452
 30
0.0
 10
117700858.842213
 20
89277257.523044
 30
0.0
 10
117640029.284282
 20
89317902.311752
 30
0.0
 10
117599384.495574
 20
89378731.869683
 30
0.0
 10
117585111.981982
 20
89450485.188018
 30
0.0
 10
117585111.981982
 20
89937985.652288
 30
0.0
 10
117599384.495574
 20
90009738.970622
 30
0.0
 10
117640029.284282
 20
90070568.528553
 30
0.0
 10
117700858.842213
 20
90111213.317261
 30
0.0
 10
117772612.160547
 20
90125485.830853
 30
0.0
 10
118447612.803383
 20
90125485.830853
 30
0.0
 10
118519366.121717
 20
90111213.317261
 30
0.0
 10
118580195.679648
 20
90070568.528553
 30
0.0
 10
118620840.468356
 20
90009738.970622
 30
0.0
 10
118635112.981948
 20
89937985.652288
 30
0.0
 10
118635112.981948
 20
89450485.188018
 30
0.0
 10
118620840.468356
 20
89378731.869683
 30
0.0
 10
118580195.679648
 20
89317902.311752
 30
0.0
 10
118519366.121717
 20
89277257.523044
 30
0.0
 10
118447612.803383
 20
89262985.009452
 30
0.0
  0
LWPOLYLINE
  5
16e
100
AcDbEntity
  8
0
 62
7
100
AcDbPolyline
 90
20
 70
1
 10
108520122.598954
 20
77187756.759629
 30
0.0
 10
108496606.326559
 20
77257033.575605
 30
0.0
 10
108501391.331116
 20
77330035.645128
 30
0.0
 10
108533748.611931
 20
77395650.207616
 30
0.0
 10
108588752.914314
 20
77443887.253554
 30
0.0
 10
109010940.316384
 20
77687637.485690
 30
0.0
 10
109080217.132359
 20
77711153.758085
 30
0.0
 10
109153219.201883
 20
77706368.753528
 30
0.0
 10
109218833.764371
 20
77674011.472713
 30
0.0
 10
109267070.810309
 20
77619007.170330
 30
0.0
 10
109604571.131727
 20
77034440.113618
 30
0.0
 10
109628087.404123
 20
76965163.297642
 30
0.0
 10
109623302.399566
 20
76892161.228119
 30
0.0
 10
109590945.118750
 20
76826546.665631
 30
0.0
 10
109535940.816367
 20
76778309.619693
 30
0.0
 10
109113753.414298
 20
76534559.387558
 30
0.0
 10
109044476.598322
 20
76511043.115162
 30
0.0
 10
108971474.528799
 20
76515828.119719
 30
0.0
 10
108905859.966311
 20
76548185.400534
 30
0.0
 10
108857622.920372
 20
76603189.702918
 30
0.0
  0
SPLINE
  5
16f
100
AcDbEntity
  8
0
 62
7
100
AcDbSpline
 70
8
 71
3
 72
8
 73
4
 74
0
 40
0
 40
0
 40
0
 40
0
 40
1
 40
1
 40
1
 40
1
 10
118987613.317651
 20
93342988.895037
 30
0.0
 10
118669098.996527
 20
93342988.895037
 30
0.0
 10
118381947.646577
 20
93151120.497151
 30
0.0
 10
118260057.492912
 20
92856851.635052
 30
0.0
  0
SPLINE
  5
170
100
AcDbEntity
  8
0
 62
7
100
AcDbSpline
 70
8
 71
3
 72
8
 73
4
 74
0
 40
0
 40
0
 40
0
 40
0
 40
1
 40
1
 40
1
 40
1
 10
118260057.492912
 20
92856851.635052
 30
0.0
 10
118138167.339247
 20
92562582.772954
 30
0.0
 10
118205542.560783
 20
92223864.660937
 30
0.0
 10
118430766.197155
 20
91998641.024565
 30
0.0
  0
SPLINE
  5
171
100
AcDbEntity
  8
0
 62
7
100
AcDbSpline
 70
8
 71
3
 72
8
 73
4
 74
0
 40
0
 40
0
 40
0
 40
0
 40
1
 40
1
 40
1
 40
1
 10
118430766.197155
 20
91998641.024565
 30
0.0
 10
118655989.833527
 20
91773417.388193
 30
0.0
 10
118994707.945543
 20
91706042.166657
 30
0.0
 10
119288976.807642
 20
91827932.320323
 30
0.0
  0
SPLINE
  5
172
100
AcDbEntity
  8
0
 62
7
100
AcDbSpline
 70
8
 71
3
 72
8
 73
4
 74
0
 40
0
 40
0
 40
0
 40
0
 40
1
 40
1
 40
1
 40
1
 10
119288976.807642
 20
91827932.320323
 30
0.0
 10
119583245.669740
 20
91949822.473988
 30
0.0
 10
119775114.067626
 20
92236973.823938
 30
0.0
 10
119775114.067626
 20
92555488.145062
 30
0.0
  0
SPLINE
  5
173
100
AcDbEntity
  8
0
 62
7
100
AcDbSpline
 70
8
 71
3
 72
8
 73
4
 74
0
 40
0
 40
0
 40
0
 40
0
 40
1
 40
1
 40
1
 40
1
 10
119775114.067626
 20
92555488.145062
 30
0.0
 10
119775114.067626
 20
92764346.329716
 30
0.0
 10
119692145.476824
 20
92964650.226883
 30
0.0
 10
119544460.438148
 20
93112335.265559
 30
0.0
  0
SPLINE
  5
174
100
AcDbEntity
  8
0
 62
7
100
AcDbSpline
 70
8
 71
3
 72
8
 73
4
 74
0
 40
0
 40
0
 40
0
 40
0
 40
1
 40
1
 40
1
 40
1
 10
119544460.438148
 20
93112335.265559
 30
0.0
 10
119396775.399473
 20
93260020.304234
 30
0.0
 10
119196471.502306
 20
93342988.895037
 30
0.0
 10
118987613.317651
 20
93342988.895037
 30
0.0
  0
LWPOLYLINE
  5
175
100
AcDbEntity
  8
0
 62
7
100
AcDbPolyline
 90
20
 70
1
 10
109851637.867021
 20
77956507.491747
 30
0.0
 10
109828121.594625
 20
78025784.307723
 30
0.0
 10
109832906.599182
 20
78098786.377246
 30
0.0
 10
109865263.879997
 20
78164400.939734
 30
0.0
 10
109920268.182381
 20
78212637.985673
 30
0.0
 10
110342455.584450
 20
78456388.217808
 30
0.0
 10
110411732.400426
 20
78479904.490204
 30
0.0
 10
110484734.469949
 20
78475119.485647
 30
0.0
 10
110550349.032437
 20
78442762.204831
 30
0.0
 10
110598586.078375
 20
78387757.902448
 30
0.0
 10
110936086.399793
 20
77803190.845737
 30
0.0
 10
110959602.672189
 20
77733914.029761
 30
0.0
 10
110954817.667632
 20
77660911.960238
 30
0.0
 10
110922460.386817
 20
77595297.397750
 30
0.0
 10
110867456.084433
 20
77547060.351811
 30
0.0
 10
110445268.682364
 20
77303310.119676
 30
0.0
 10
110375991.866388
 20
77279793.847280
 30
0.0
 10
110302989.796865
 20
77284578.851837
 30
0.0
 10
110237375.234377
 20
77316936.132653
 30
0.0
 10
110189138.188438
 20
77371940.435036
 30
0.0
  0
LWPOLYLINE
  5
176
100
AcDbEntity
  8
0
 62
7
100
AcDbPolyline
 90
1
 70
1
 10
118987613.317651
 20
93342988.895037
 30
0.0
  0
LWPOLYLINE
  5
177
100
AcDbEntity
  8
0
 62
7
100
AcDbPolyline
 90
20
 70
1
 10
109378366.416301
 20
75660380.305035
 30
0.0
 10
109354850.143906
 20
75729657.121010
 30
0.0
 10
109359635.148463
 20
75802659.190534
 30
0.0
 10
109391992.429278
 20
75868273.753022
 30
0.0
 10
109446996.731661
 20
75916510.798960
 30
0.0
 10
109869184.133731
 20
76160261.031095
 30
0.0
 10
109938460.949706
 20
76183777.303491
 30
0.0
 10
110011463.019230
 20
76178992.298934
 30
0.0
 10
110077077.581718
 20
76146635.018118
 30
0.0
 10
110125314.627656
 20
76091630.715735
 30
0.0
 10
110462814.949074
 20
75507063.659024
 30
0.0
 10
110486331.221470
 20
75437786.843048
 30
0.0
 10
110481546.216913
 20
75364784.773525
 30
0.0
 10
110449188.936097
 20
75299170.211037
 30
0.0
 10
110394184.633714
 20
75250933.165098
 30
0.0
 10
109971997.231645
 20
75007182.932963
 30
0.0
 10
109902720.415669
 20
74983666.660568
 30
0.0
 10
109829718.346146
 20
74988451.665125
 30
0.0
 10
109764103.783658
 20
75020808.945940
 30
0.0
 10
109715866.737719
 20
75075813.248323
 30
0.0
  0
LWPOLYLINE
  5
178
100
AcDbEntity
  8
0
 62
7
100
AcDbPolyline
 90
20
 70
1
 10
110709881.684368
 20
76429131.037153
 30
0.0
 10
110686365.411972
 20
76498407.853129
 30
0.0
 10
110691150.416529
 20
76571409.922652
 30
0.0
 10
110723507.697344
 20
76637024.485140
 30
0.0
 10
110778511.999728
 20
76685261.531079
 30
0.0
 10
111200699.401797
 20
76929011.763214
 30
0.0
 10
111269976.217773
 20
76952528.035609
 30
0.0
 10
111342978.287296
 20
76947743.031052
 30
0.0
 10
111408592.849784
 20
76915385.750237
 30
0.0
 10
111456829.895723
 20
76860381.447854
 30
0.0
 10
111794330.217140
 20
76275814.391142
 30
0.0
 10
111817846.489536
 20
76206537.575167
 30
0.0
 10
111813061.484979
 20
76133535.505643
 30
0.0
 10
111780704.204164
 20
76067920.943155
 30
0.0
 10
111725699.901780
 20
76019683.897217
 30
0.0
 10
111303512.499711
 20
75775933.665082
 30
0.0
 10
111234235.683735
 20
75752417.392686
 30
0.0
 10
111161233.614212
 20
75757202.397243
 30
0.0
 10
111095619.051724
 20
75789559.678058
 30
0.0
 10
111047382.005786
 20
75844563.980442
 30
0.0
  0
LWPOLYLINE
  5
179
100
AcDbEntity
  8
0
 62
7
100
AcDbPolyline
 90
20
 70
1
 10
97678376.273836
 20
89450965.188475
 30
0.0
 10
97733380.576219
 20
89402728.142536
 30
0.0
 10
97765737.857034
 20
89337114.330049
 30
0.0
 10
97770522.861591
 20
89264111.510525
 30
0.0
 10
97747006.589196
 20
89194835.444550
 30
0.0
 10
97484506.339204
 20
88740171.511552
 30
0.0
 10
97436269.293265
 20
88685167.959169
 30
0.0
 10
97370654.730778
 20
88652809.928353
 30
0.0
 10
97297652.661254
 20
88648025.673797
 30
0.0
 10
97228375.845279
 20
88671541.946192
 30
0.0
 10
96643808.788567
 20
89009042.267610
 30
0.0
 10
96588804.486184
 20
89057279.313549
 30
0.0
 10
96556447.205368
 20
89122893.126036
 30
0.0
 10
96551662.200811
 20
89195895.945560
 30
0.0
 10
96575178.473207
 20
89265172.011535
 30
0.0
 10
96837678.723199
 20
89719835.944533
 30
0.0
 10
96885915.769137
 20
89774839.496916
 30
0.0
 10
96951530.331625
 20
89807197.527732
 30
0.0
 10
97024532.401149
 20
89811981.782288
 30
0.0
 10
97093809.217124
 20
89788465.509893
 30
0.0
  0
LWPOLYLINE
  5
17a
100
AcDbEntity
  8
0
 62
7
100
AcDbPolyline
 90
20
 70
1
 10
96928375.559574
 20
88151926.451337
 30
0.0
 10
96983379.861957
 20
88103689.405399
 30
0.0
 10
97015737.142772
 20
88038075.592912
 30
0.0
 10
97020522.147329
 20
87965072.773388
 30
0.0
 10
96997005.874934
 20
87895796.707413
 30
0.0
 10
96734505.624942
 20
87441132.774414
 30
0.0
 10
96686268.579004
 20
87386129.222032
 30
0.0
 10
96620654.016516
 20
87353771.191216
 30
0.0
 10
96547651.946992
 20
87348986.936659
 30
0.0
 10
96478375.131017
 20
87372503.209055
 30
0.0
 10
95893808.074305
 20
87710003.530473
 30
0.0
 10
95838803.771922
 20
87758240.576411
 30
0.0
 10
95806446.491106
 20
87823854.388898
 30
0.0
 10
95801661.486550
 20
87896857.208423
 30
0.0
 10
95825177.758945
 20
87966133.274398
 30
0.0
 10
96087678.008937
 20
88420797.207396
 30
0.0
 10
96135915.054875
 20
88475800.759778
 30
0.0
 10
96201529.617363
 20
88508158.790595
 30
0.0
 10
96274531.686887
 20
88512943.045151
 30
0.0
 10
96343808.502862
 20
88489426.772755
 30
0.0
  0
ENDSEC
  0
SECTION
  2
OBJECTS
  0
DICTIONARY
  5
C
330
0
100
AcDbDictionary
  3
ACAD_GROUP
350
D
  3
ACAD_MLINESTYLE
350
17
  0
DICTIONARY
  5
D
330
C
100
AcDbDictionary
  0
DICTIONARY
  5
1A
330
C
100
AcDbDictionary
  0
DICTIONARY
  5
17
330
C
100
AcDbDictionary
  3
STANDARD
350
18
  0
DICTIONARY
  5
19
330
C
100
AcDbDictionary
  0
ENDSEC
  0
EOF
