G04 #@! TF.GenerationSoftware,KiCad,Pcbnew,6.0.9-8da3e8f707~116~ubuntu22.04.1*
G04 #@! TF.CreationDate,2022-11-08T11:27:41+01:00*
G04 #@! TF.ProjectId,PCB-Horloge,5043422d-486f-4726-9c6f-67652e6b6963,1.0*
G04 #@! TF.SameCoordinates,Original*
G04 #@! TF.FileFunction,Copper,L1,Top*
G04 #@! TF.FilePolarity,Positive*
%FSLAX46Y46*%
G04 Gerber Fmt 4.6, Leading zero omitted, Abs format (unit mm)*
G04 Created by KiCad (PCBNEW 6.0.9-8da3e8f707~116~ubuntu22.04.1) date 2022-11-08 11:27:41*
%MOMM*%
%LPD*%
G01*
G04 APERTURE LIST*
G04 Aperture macros list*
%AMRoundRect*
0 Rectangle with rounded corners*
0 $1 Rounding radius*
0 $2 $3 $4 $5 $6 $7 $8 $9 X,Y pos of 4 corners*
0 Add a 4 corners polygon primitive as box body*
4,1,4,$2,$3,$4,$5,$6,$7,$8,$9,$2,$3,0*
0 Add four circle primitives for the rounded corners*
1,1,$1+$1,$2,$3*
1,1,$1+$1,$4,$5*
1,1,$1+$1,$6,$7*
1,1,$1+$1,$8,$9*
0 Add four rect primitives between the rounded corners*
20,1,$1+$1,$2,$3,$4,$5,0*
20,1,$1+$1,$4,$5,$6,$7,0*
20,1,$1+$1,$6,$7,$8,$9,0*
20,1,$1+$1,$8,$9,$2,$3,0*%
G04 Aperture macros list end*
G04 #@! TA.AperFunction,ComponentPad*
%ADD10R,1.700000X1.700000*%
G04 #@! TD*
G04 #@! TA.AperFunction,ComponentPad*
%ADD11O,1.700000X1.700000*%
G04 #@! TD*
G04 #@! TA.AperFunction,SMDPad,CuDef*
%ADD12RoundRect,0.250000X0.506458X0.227211X-0.056458X0.552211X-0.506458X-0.227211X0.056458X-0.552211X0*%
G04 #@! TD*
G04 #@! TA.AperFunction,SMDPad,CuDef*
%ADD13C,4.000000*%
G04 #@! TD*
G04 #@! TA.AperFunction,SMDPad,CuDef*
%ADD14RoundRect,0.250000X-0.450000X0.325000X-0.450000X-0.325000X0.450000X-0.325000X0.450000X0.325000X0*%
G04 #@! TD*
G04 #@! TA.AperFunction,SMDPad,CuDef*
%ADD15RoundRect,0.250000X0.227211X-0.506458X0.552211X0.056458X-0.227211X0.506458X-0.552211X-0.056458X0*%
G04 #@! TD*
G04 #@! TA.AperFunction,SMDPad,CuDef*
%ADD16RoundRect,0.250000X0.242612X-0.529784X0.580112X0.054784X-0.242612X0.529784X-0.580112X-0.054784X0*%
G04 #@! TD*
G04 #@! TA.AperFunction,SMDPad,CuDef*
%ADD17RoundRect,0.250000X0.350000X0.450000X-0.350000X0.450000X-0.350000X-0.450000X0.350000X-0.450000X0*%
G04 #@! TD*
G04 #@! TA.AperFunction,SMDPad,CuDef*
%ADD18RoundRect,0.250000X0.552211X-0.056458X0.227211X0.506458X-0.552211X0.056458X-0.227211X-0.506458X0*%
G04 #@! TD*
G04 #@! TA.AperFunction,SMDPad,CuDef*
%ADD19RoundRect,0.250000X-0.350000X-0.450000X0.350000X-0.450000X0.350000X0.450000X-0.350000X0.450000X0*%
G04 #@! TD*
G04 #@! TA.AperFunction,SMDPad,CuDef*
%ADD20RoundRect,0.250000X-0.506458X-0.227211X0.056458X-0.552211X0.506458X0.227211X-0.056458X0.552211X0*%
G04 #@! TD*
G04 #@! TA.AperFunction,SMDPad,CuDef*
%ADD21RoundRect,0.250000X-0.056458X-0.552211X0.506458X-0.227211X0.056458X0.552211X-0.506458X0.227211X0*%
G04 #@! TD*
G04 #@! TA.AperFunction,SMDPad,CuDef*
%ADD22RoundRect,0.250000X0.450000X-0.325000X0.450000X0.325000X-0.450000X0.325000X-0.450000X-0.325000X0*%
G04 #@! TD*
G04 #@! TA.AperFunction,SMDPad,CuDef*
%ADD23RoundRect,0.150000X-0.875000X-0.150000X0.875000X-0.150000X0.875000X0.150000X-0.875000X0.150000X0*%
G04 #@! TD*
G04 #@! TA.AperFunction,SMDPad,CuDef*
%ADD24RoundRect,0.250000X0.564711X-0.078109X0.214711X0.528109X-0.564711X0.078109X-0.214711X-0.528109X0*%
G04 #@! TD*
G04 #@! TA.AperFunction,SMDPad,CuDef*
%ADD25RoundRect,0.250000X-0.337500X-0.475000X0.337500X-0.475000X0.337500X0.475000X-0.337500X0.475000X0*%
G04 #@! TD*
G04 #@! TA.AperFunction,SMDPad,CuDef*
%ADD26RoundRect,0.250000X-0.325000X-0.450000X0.325000X-0.450000X0.325000X0.450000X-0.325000X0.450000X0*%
G04 #@! TD*
G04 #@! TA.AperFunction,SMDPad,CuDef*
%ADD27RoundRect,0.250000X-0.227211X0.506458X-0.552211X-0.056458X0.227211X-0.506458X0.552211X0.056458X0*%
G04 #@! TD*
G04 #@! TA.AperFunction,SMDPad,CuDef*
%ADD28RoundRect,0.250000X-0.580112X0.054784X-0.242612X-0.529784X0.580112X-0.054784X0.242612X0.529784X0*%
G04 #@! TD*
G04 #@! TA.AperFunction,SMDPad,CuDef*
%ADD29RoundRect,0.250000X-0.214711X0.528109X-0.564711X-0.078109X0.214711X-0.528109X0.564711X0.078109X0*%
G04 #@! TD*
G04 #@! TA.AperFunction,ViaPad*
%ADD30C,0.800000*%
G04 #@! TD*
G04 #@! TA.AperFunction,Conductor*
%ADD31C,0.250000*%
G04 #@! TD*
G04 APERTURE END LIST*
D10*
X134620000Y-77996867D03*
D11*
X137160000Y-77996867D03*
X139700000Y-77996867D03*
D12*
X129032000Y-109728000D03*
X127256648Y-108703000D03*
X146812000Y-76708000D03*
X145036648Y-75683000D03*
D13*
X147300000Y-96300000D03*
D14*
X116840000Y-90415000D03*
X116840000Y-92465000D03*
D13*
X126900000Y-96300000D03*
D14*
X134112000Y-96529000D03*
X134112000Y-98579000D03*
D15*
X121407500Y-85215676D03*
X122432500Y-83440324D03*
X118867500Y-83691676D03*
X119892500Y-81916324D03*
D16*
X150600000Y-98900000D03*
X151637500Y-97102998D03*
D17*
X130048000Y-85852000D03*
X128048000Y-85852000D03*
D18*
X119888000Y-101092000D03*
X118863000Y-99316648D03*
D19*
X144304000Y-83820000D03*
X146304000Y-83820000D03*
D18*
X155677499Y-82929528D03*
X154652499Y-81154176D03*
D20*
X128798648Y-106163000D03*
X130574000Y-107188000D03*
D18*
X153420500Y-84199676D03*
X152395500Y-82424324D03*
D21*
X127879657Y-76228141D03*
X129655009Y-75203141D03*
D22*
X154940000Y-92465000D03*
X154940000Y-90415000D03*
D19*
X144288000Y-85852000D03*
X146288000Y-85852000D03*
D12*
X148142568Y-74437882D03*
X146367216Y-73412882D03*
D23*
X132510000Y-82169000D03*
X132510000Y-83439000D03*
X132510000Y-84709000D03*
X132510000Y-85979000D03*
X132510000Y-87249000D03*
X132510000Y-88519000D03*
X132510000Y-89789000D03*
X132510000Y-91059000D03*
X132510000Y-92329000D03*
X132510000Y-93599000D03*
X141810000Y-93599000D03*
X141810000Y-92329000D03*
X141810000Y-91059000D03*
X141810000Y-89789000D03*
X141810000Y-88519000D03*
X141810000Y-87249000D03*
X141810000Y-85979000D03*
X141810000Y-84709000D03*
X141810000Y-83439000D03*
X141810000Y-82169000D03*
D22*
X136144000Y-102634000D03*
X136144000Y-100584000D03*
D24*
X145800000Y-92766025D03*
X144800000Y-91033975D03*
D22*
X138176000Y-102643000D03*
X138176000Y-100593000D03*
D14*
X140208000Y-96538000D03*
X140208000Y-98588000D03*
D25*
X136101000Y-80264000D03*
X138176000Y-80264000D03*
D14*
X119380000Y-90406000D03*
X119380000Y-92456000D03*
D21*
X126620324Y-74172500D03*
X128395676Y-73147500D03*
D22*
X136144000Y-98579000D03*
X136144000Y-96529000D03*
D17*
X130055527Y-83718305D03*
X128055527Y-83718305D03*
D26*
X136126000Y-71120000D03*
X138176000Y-71120000D03*
D17*
X130048000Y-81788000D03*
X128048000Y-81788000D03*
D26*
X136126000Y-111252000D03*
X138176000Y-111252000D03*
D17*
X130032000Y-87884000D03*
X128032000Y-87884000D03*
D14*
X138176000Y-96529000D03*
X138176000Y-98579000D03*
D27*
X153420500Y-98172324D03*
X152395500Y-99947676D03*
D26*
X136135000Y-108712000D03*
X138185000Y-108712000D03*
D15*
X154369539Y-100963676D03*
X155394539Y-99188324D03*
D26*
X136126000Y-73660000D03*
X138176000Y-73660000D03*
D28*
X122481250Y-97201499D03*
X123518750Y-98998501D03*
D18*
X121712500Y-99987676D03*
X120687500Y-98212324D03*
D22*
X157480000Y-92465000D03*
X157480000Y-90415000D03*
D21*
X145416324Y-107192500D03*
X147191676Y-106167500D03*
X146560648Y-109229000D03*
X148336000Y-108204000D03*
D29*
X129548000Y-91033975D03*
X128548000Y-92766025D03*
D30*
X138176000Y-104140000D03*
X139683070Y-99759190D03*
X142748000Y-100584000D03*
X144272000Y-108204000D03*
X147823701Y-80776299D03*
X154940000Y-97028000D03*
X149860000Y-83820000D03*
X144272000Y-77724000D03*
X126492000Y-81788000D03*
X156401999Y-89250000D03*
X150368000Y-82296000D03*
X132588000Y-95504000D03*
X126700000Y-103200000D03*
X132588000Y-101092000D03*
X118600000Y-97800000D03*
X124656387Y-84639613D03*
X140716000Y-100483690D03*
X141732000Y-102108000D03*
X120904000Y-96520000D03*
X118364000Y-93980000D03*
X125984000Y-107696000D03*
X127508000Y-105156000D03*
X121920000Y-88900000D03*
X125011587Y-83705355D03*
X131572000Y-108204000D03*
X134635922Y-99750278D03*
X132588000Y-97028000D03*
X142240000Y-94996000D03*
X138176000Y-94996000D03*
X137160000Y-89916000D03*
X139700000Y-91948000D03*
D31*
X137160000Y-77996867D02*
X137160000Y-78833786D01*
X137452893Y-79540893D02*
X138176000Y-80264000D01*
X137452886Y-79540900D02*
G75*
G02*
X137160000Y-78833786I707114J707100D01*
G01*
X136101000Y-80264000D02*
X136101000Y-79892081D01*
X132510000Y-82169000D02*
X133781786Y-82169000D01*
X135808107Y-79184974D02*
X134620000Y-77996867D01*
X134488893Y-81876107D02*
X136101000Y-80264000D01*
X134488900Y-81876114D02*
G75*
G02*
X133781786Y-82169000I-707100J707114D01*
G01*
X135808097Y-79184984D02*
G75*
G02*
X136101000Y-79892081I-707097J-707116D01*
G01*
X121412000Y-92477500D02*
X122169107Y-91720393D01*
X118579107Y-100799107D02*
X117986631Y-100206631D01*
X154010783Y-99481217D02*
X153837217Y-99654783D01*
X138176000Y-104140000D02*
X137327893Y-104988107D01*
X155394539Y-99188324D02*
X154717890Y-99188324D01*
X138502880Y-98579000D02*
X139683070Y-99759190D01*
X152052069Y-100291107D02*
X152395500Y-99947676D01*
X142748000Y-100584000D02*
X151344962Y-100584000D01*
X126716744Y-106971000D02*
X126485214Y-106971000D01*
X121412000Y-92477500D02*
X117986631Y-95902869D01*
X117631893Y-90707893D02*
X119380000Y-92456000D01*
X125778107Y-106678107D02*
X120192000Y-101092000D01*
X136144000Y-100584000D02*
X138149000Y-98579000D01*
X116840000Y-90415000D02*
X116924786Y-90415000D01*
X137035000Y-105695214D02*
X137035000Y-109928786D01*
X128739107Y-108579149D02*
X127423851Y-107263893D01*
X127448214Y-85852000D02*
X128048000Y-85852000D01*
X122462000Y-91013286D02*
X122462000Y-90838214D01*
X129755107Y-110451107D02*
X129032000Y-109728000D01*
X117693738Y-96609976D02*
X117693738Y-99499524D01*
X151347824Y-98900000D02*
X152395500Y-99947676D01*
X136126000Y-111252000D02*
X135910893Y-111036893D01*
X138176000Y-98579000D02*
X138502880Y-98579000D01*
X120192000Y-101092000D02*
X119888000Y-101092000D01*
X138149000Y-98579000D02*
X138176000Y-98579000D01*
X116840000Y-90415000D02*
X118574607Y-88680393D01*
X136742107Y-110635893D02*
X136126000Y-111252000D01*
X121390500Y-92456000D02*
X121412000Y-92477500D01*
X129032000Y-109728000D02*
X129032000Y-109286256D01*
X122754893Y-90131107D02*
X126741107Y-86144893D01*
X150600000Y-98900000D02*
X151347824Y-98900000D01*
X119380000Y-92456000D02*
X121390500Y-92456000D01*
X153130110Y-99947676D02*
X152395500Y-99947676D01*
X119888000Y-101092000D02*
X119286214Y-101092000D01*
X118867500Y-87973286D02*
X118867500Y-83691676D01*
X135203786Y-110744000D02*
X130462214Y-110744000D01*
X117693710Y-96609976D02*
G75*
G02*
X117986631Y-95902869I999990J-24D01*
G01*
X119286214Y-101091990D02*
G75*
G02*
X118579107Y-100799107I-14J999990D01*
G01*
X130462214Y-110743990D02*
G75*
G02*
X129755107Y-110451107I-14J999990D01*
G01*
X151344962Y-100583973D02*
G75*
G03*
X152052069Y-100291107I38J999973D01*
G01*
X122461990Y-91013286D02*
G75*
G02*
X122169107Y-91720393I-999990J-14D01*
G01*
X154717890Y-99188310D02*
G75*
G03*
X154010783Y-99481217I10J-999990D01*
G01*
X116924786Y-90415010D02*
G75*
G02*
X117631893Y-90707893I14J-999990D01*
G01*
X136742114Y-110635900D02*
G75*
G03*
X137035000Y-109928786I-707114J707100D01*
G01*
X135203786Y-110744010D02*
G75*
G02*
X135910893Y-111036893I14J-999990D01*
G01*
X122754886Y-90131100D02*
G75*
G03*
X122462000Y-90838214I707114J-707100D01*
G01*
X137035010Y-105695214D02*
G75*
G02*
X137327893Y-104988107I999990J14D01*
G01*
X125778100Y-106678114D02*
G75*
G03*
X126485214Y-106971000I707100J707114D01*
G01*
X129032031Y-109286256D02*
G75*
G03*
X128739107Y-108579149I-1000031J-44D01*
G01*
X117693710Y-99499524D02*
G75*
G03*
X117986631Y-100206631I999990J24D01*
G01*
X153130110Y-99947690D02*
G75*
G03*
X153837217Y-99654783I-10J999990D01*
G01*
X126741100Y-86144886D02*
G75*
G02*
X127448214Y-85852000I707100J-707114D01*
G01*
X118867490Y-87973286D02*
G75*
G02*
X118574607Y-88680393I-999990J-14D01*
G01*
X126716744Y-106970969D02*
G75*
G02*
X127423851Y-107263893I-44J-1000031D01*
G01*
X141917494Y-72859107D02*
X139391575Y-70333188D01*
X153420500Y-84199676D02*
X153192893Y-84427283D01*
X153192893Y-91992893D02*
X153372107Y-92172107D01*
X137252598Y-70333188D02*
X137200000Y-70385786D01*
X144272000Y-108204000D02*
X144713588Y-107762412D01*
X138176000Y-111252000D02*
X138176000Y-108721000D01*
X137200000Y-71634173D02*
X136850362Y-71983811D01*
X146519107Y-73564773D02*
X146367216Y-73412882D01*
X147104893Y-80057491D02*
X147823701Y-80776299D01*
X136461217Y-72145000D02*
X133930206Y-72145000D01*
X146367216Y-73412882D02*
X146106334Y-73152000D01*
X144713588Y-107762412D02*
X144846412Y-107762412D01*
X142151836Y-73036480D02*
X142062033Y-72976475D01*
X146106334Y-73152000D02*
X142624601Y-73152000D01*
X154940000Y-97028000D02*
X154940000Y-92465000D01*
X153420500Y-98172324D02*
X153795676Y-98172324D01*
X146812000Y-76708000D02*
X146812000Y-79350384D01*
X138185000Y-108712000D02*
X143482610Y-108712000D01*
X142624601Y-73152000D02*
X142614882Y-73151809D01*
X147413786Y-85852000D02*
X146288000Y-85852000D01*
X144846412Y-107762412D02*
X145416324Y-107192500D01*
X146812000Y-76708000D02*
X146812000Y-74271880D01*
X130043637Y-75203141D02*
X129655009Y-75203141D01*
X154079214Y-92465000D02*
X154940000Y-92465000D01*
X142242478Y-73074025D02*
X142151836Y-73036480D01*
X128395676Y-73147500D02*
X128395676Y-73529594D01*
X151637500Y-97102998D02*
X152351174Y-97102998D01*
X142439402Y-73132787D02*
X142430075Y-73130932D01*
X141924502Y-72865846D02*
X141917494Y-72859107D01*
X138684468Y-70040295D02*
X137959705Y-70040295D01*
X128688569Y-74236701D02*
X129655009Y-75203141D01*
X137200000Y-70385786D02*
X137200000Y-71634173D01*
X144189717Y-108419107D02*
X144846412Y-107762412D01*
X153795676Y-98172324D02*
X154940000Y-97028000D01*
X133223099Y-72437893D02*
X130750744Y-74910248D01*
X152900000Y-85134390D02*
X152900000Y-91285786D01*
X149860000Y-83820000D02*
X149946783Y-83906783D01*
X150653890Y-84199676D02*
X153420500Y-84199676D01*
X152351174Y-97102998D02*
X153420500Y-98172324D01*
X138176000Y-108721000D02*
X138185000Y-108712000D01*
X149860000Y-83820000D02*
X148120893Y-85559107D01*
X154079214Y-92464990D02*
G75*
G02*
X153372107Y-92172107I-14J999990D01*
G01*
X148120900Y-85559114D02*
G75*
G02*
X147413786Y-85852000I-707100J707114D01*
G01*
X146812012Y-79350384D02*
G75*
G03*
X147104894Y-80057490I999988J-16D01*
G01*
X144189712Y-108419102D02*
G75*
G02*
X143482610Y-108712000I-707112J707102D01*
G01*
X133223096Y-72437890D02*
G75*
G02*
X133930206Y-72145000I707104J-707110D01*
G01*
X149946793Y-83906773D02*
G75*
G03*
X150653890Y-84199676I707107J707073D01*
G01*
X139391592Y-70333171D02*
G75*
G03*
X138684468Y-70040295I-707092J-707129D01*
G01*
X146812014Y-74271880D02*
G75*
G03*
X146519107Y-73564773I-1000014J-20D01*
G01*
X141924502Y-72865846D02*
G75*
G03*
X142062033Y-72976474I693098J720846D01*
G01*
X128688561Y-74236709D02*
G75*
G02*
X128395676Y-73529594I707139J707109D01*
G01*
X142614882Y-73151809D02*
G75*
G02*
X142439402Y-73132787I19618J999909D01*
G01*
X130043637Y-75203155D02*
G75*
G03*
X130750744Y-74910248I-37J1000055D01*
G01*
X136850346Y-71983795D02*
G75*
G02*
X136461217Y-72145000I-389146J389095D01*
G01*
X137959705Y-70040300D02*
G75*
G03*
X137252598Y-70333188I-5J-1000000D01*
G01*
X152900010Y-91285786D02*
G75*
G03*
X153192893Y-91992893I999990J-14D01*
G01*
X153192898Y-84427288D02*
G75*
G03*
X152900000Y-85134390I707102J-707112D01*
G01*
X142242475Y-73074033D02*
G75*
G03*
X142430075Y-73130932I382625J923833D01*
G01*
X128048000Y-81788000D02*
X126492000Y-81788000D01*
X128144324Y-81691676D02*
X128048000Y-81788000D01*
X136126000Y-73660000D02*
X134526214Y-73660000D01*
X138149000Y-102643000D02*
X136652000Y-104140000D01*
X128144324Y-76492808D02*
X128144324Y-81691676D01*
X132588000Y-95504000D02*
X132672786Y-95504000D01*
X156401999Y-89250000D02*
X157480000Y-90328001D01*
X134112000Y-96529000D02*
X136144000Y-96529000D01*
X126700000Y-103200000D02*
X130065786Y-103200000D01*
X127879657Y-76228141D02*
X128144324Y-76492808D01*
X135343107Y-103847107D02*
X132588000Y-101092000D01*
X152395500Y-82424324D02*
X150496324Y-82424324D01*
X133379893Y-95796893D02*
X134112000Y-96529000D01*
X136126000Y-73660000D02*
X138373107Y-75907107D01*
X150496324Y-82424324D02*
X150368000Y-82296000D01*
X130772893Y-102907107D02*
X132588000Y-101092000D01*
X130200285Y-77157501D02*
X129223231Y-77157501D01*
X118863000Y-98063000D02*
X118600000Y-97800000D01*
X138176000Y-102643000D02*
X138149000Y-102643000D01*
X139080214Y-76200000D02*
X142333786Y-76200000D01*
X143040893Y-76492893D02*
X144272000Y-77724000D01*
X136652000Y-104140000D02*
X133896893Y-106895107D01*
X133189786Y-107188000D02*
X130574000Y-107188000D01*
X133819107Y-73952893D02*
X130907392Y-76864608D01*
X157480000Y-90328001D02*
X157480000Y-90415000D01*
X136652000Y-104140000D02*
X136050214Y-104140000D01*
X128516124Y-76864608D02*
X127879657Y-76228141D01*
X118863000Y-99316648D02*
X118863000Y-98063000D01*
X136144000Y-96529000D02*
X138176000Y-96529000D01*
X133819100Y-73952886D02*
G75*
G02*
X134526214Y-73660000I707100J-707114D01*
G01*
X139080214Y-76199990D02*
G75*
G02*
X138373107Y-75907107I-14J999990D01*
G01*
X136050214Y-104139990D02*
G75*
G02*
X135343107Y-103847107I-14J999990D01*
G01*
X130065786Y-103199990D02*
G75*
G03*
X130772893Y-102907107I14J999990D01*
G01*
X128516109Y-76864623D02*
G75*
G03*
X129223231Y-77157501I707091J707123D01*
G01*
X133379900Y-95796886D02*
G75*
G03*
X132672786Y-95504000I-707100J-707114D01*
G01*
X133189786Y-107187990D02*
G75*
G03*
X133896893Y-106895107I14J999990D01*
G01*
X130907399Y-76864615D02*
G75*
G02*
X130200285Y-77157501I-707099J707115D01*
G01*
X143040900Y-76492886D02*
G75*
G03*
X142333786Y-76200000I-707100J-707114D01*
G01*
X156464000Y-98708987D02*
X156464000Y-93895214D01*
X120687500Y-96736500D02*
X120904000Y-96520000D01*
X154369539Y-100963676D02*
X154811283Y-100963676D01*
X140208000Y-98588000D02*
X140423107Y-98803107D01*
X156529727Y-99085935D02*
X156498074Y-98967806D01*
X141732000Y-102108000D02*
X141813134Y-102108000D01*
X155528868Y-80424235D02*
X149835408Y-74730775D01*
X146521795Y-107230875D02*
X146521795Y-109190147D01*
X149065941Y-109080369D02*
X154076646Y-104069664D01*
X155821761Y-82785266D02*
X155821761Y-81131342D01*
X124758771Y-84639613D02*
X124656387Y-84639613D01*
X116840000Y-92465000D02*
X116849000Y-92465000D01*
X122205786Y-96520000D02*
X120904000Y-96520000D01*
X155722893Y-90707893D02*
X157480000Y-92465000D01*
X134719107Y-97971893D02*
X134112000Y-98579000D01*
X156563801Y-99625372D02*
X156563801Y-99344755D01*
X146704910Y-109373262D02*
X148358834Y-109373262D01*
X121470425Y-98212324D02*
X122481250Y-97201499D01*
X154369539Y-103362557D02*
X154369539Y-100963676D01*
X140716000Y-99510214D02*
X140716000Y-100483690D01*
X120687500Y-98212324D02*
X121470425Y-98212324D01*
X138884786Y-97679000D02*
X135426214Y-97679000D01*
X154940000Y-90415000D02*
X155015786Y-90415000D01*
X146560648Y-109229000D02*
X146704910Y-109373262D01*
X155384606Y-89970394D02*
X154940000Y-90415000D01*
X149128301Y-74437882D02*
X148142568Y-74437882D01*
X125772395Y-99607107D02*
X124140241Y-97974953D01*
X134112000Y-98579000D02*
X133083893Y-99607107D01*
X140208000Y-98588000D02*
X139591893Y-97971893D01*
X155677499Y-82929528D02*
X155821761Y-82785266D01*
X141813134Y-102108000D02*
X146228902Y-106523768D01*
X146521795Y-109190147D02*
X146560648Y-109229000D01*
X128055527Y-83718305D02*
X126508507Y-83718305D01*
X155677499Y-82929528D02*
X155677499Y-89263287D01*
X132376786Y-99900000D02*
X126479502Y-99900000D01*
X116849000Y-92465000D02*
X118364000Y-93980000D01*
X120687500Y-98212324D02*
X120687500Y-96736500D01*
X124051056Y-97951056D02*
X122912893Y-96812893D01*
X155518390Y-100670783D02*
X156563801Y-99625372D01*
X124140241Y-97974953D02*
X124051056Y-97951056D01*
X156756893Y-93188107D02*
X157480000Y-92465000D01*
X125801400Y-84011198D02*
X125465878Y-84346720D01*
X125465895Y-84346737D02*
G75*
G02*
X124758771Y-84639613I-707095J707137D01*
G01*
X148358834Y-109373297D02*
G75*
G03*
X149065941Y-109080369I-34J999997D01*
G01*
X156563813Y-99344755D02*
G75*
G03*
X156529727Y-99085935I-1000013J-45D01*
G01*
X154369497Y-103362557D02*
G75*
G02*
X154076646Y-104069664I-999997J-43D01*
G01*
X156756886Y-93188100D02*
G75*
G03*
X156464000Y-93895214I707114J-707100D01*
G01*
X155518393Y-100670786D02*
G75*
G02*
X154811283Y-100963676I-707093J707086D01*
G01*
X156498071Y-98967807D02*
G75*
G02*
X156464000Y-98708987I965929J258807D01*
G01*
X139591900Y-97971886D02*
G75*
G03*
X138884786Y-97679000I-707100J-707114D01*
G01*
X122912900Y-96812886D02*
G75*
G03*
X122205786Y-96520000I-707100J-707114D01*
G01*
X155015786Y-90415010D02*
G75*
G02*
X155722893Y-90707893I14J-999990D01*
G01*
X125801398Y-84011196D02*
G75*
G02*
X126508507Y-83718305I707102J-707104D01*
G01*
X125772394Y-99607108D02*
G75*
G03*
X126479502Y-99900000I707106J707108D01*
G01*
X133083900Y-99607114D02*
G75*
G02*
X132376786Y-99900000I-707100J707114D01*
G01*
X155821743Y-81131342D02*
G75*
G03*
X155528868Y-80424235I-999943J42D01*
G01*
X135426214Y-97679010D02*
G75*
G03*
X134719107Y-97971893I-14J-999990D01*
G01*
X146228888Y-106523782D02*
G75*
G02*
X146521795Y-107230875I-707088J-707118D01*
G01*
X140715990Y-99510214D02*
G75*
G03*
X140423107Y-98803107I-999990J14D01*
G01*
X155677490Y-89263287D02*
G75*
G02*
X155384606Y-89970394I-999990J-13D01*
G01*
X149128301Y-74437887D02*
G75*
G02*
X149835407Y-74730776I-1J-1000013D01*
G01*
X154652499Y-81154176D02*
X149384038Y-81154176D01*
X121712500Y-99987676D02*
X122529575Y-99987676D01*
X138176000Y-71120000D02*
X138176000Y-73660000D01*
X146304000Y-83820000D02*
X146304000Y-83618214D01*
X129969383Y-76372403D02*
X129811440Y-76372403D01*
X121407500Y-85215676D02*
X121407500Y-87973286D01*
X122529575Y-99987676D02*
X123518750Y-98998501D01*
X131787107Y-108419107D02*
X131572000Y-108204000D01*
X127508000Y-105156000D02*
X127791648Y-105156000D01*
X121920000Y-88900000D02*
X121920000Y-89480286D01*
X122339676Y-99987676D02*
X127508000Y-105156000D01*
X129219674Y-76249116D02*
X128780830Y-75489018D01*
X121627107Y-90187393D02*
X121412000Y-90402500D01*
X127149716Y-75351772D02*
X125304480Y-77197008D01*
X127256648Y-108703000D02*
X126991000Y-108703000D01*
X148676931Y-81447069D02*
X146304000Y-83820000D01*
X133828107Y-72927893D02*
X130676490Y-76079510D01*
X128621912Y-75281912D02*
X128398879Y-75058879D01*
X138176000Y-73660000D02*
X137443893Y-72927893D01*
X136135000Y-108712000D02*
X132494214Y-108712000D01*
X145036648Y-75683000D02*
X143306541Y-73952893D01*
X142599434Y-73660000D02*
X138176000Y-73660000D01*
X128398879Y-75058879D02*
X127856823Y-75058879D01*
X121700393Y-88680393D02*
X121920000Y-88900000D01*
X121712500Y-99987676D02*
X122339676Y-99987676D01*
X145036648Y-81522434D02*
X145036648Y-75683000D01*
X125011587Y-77904115D02*
X125011587Y-83705355D01*
X129552621Y-76338329D02*
X129219674Y-76249116D01*
X136736786Y-72635000D02*
X134535214Y-72635000D01*
X121408500Y-90406000D02*
X121412000Y-90402500D01*
X127791648Y-105156000D02*
X128798648Y-106163000D01*
X119380000Y-90406000D02*
X121408500Y-90406000D01*
X126991000Y-108703000D02*
X125984000Y-107696000D01*
X146011107Y-82911107D02*
X145329541Y-82229541D01*
X142599434Y-73659976D02*
G75*
G02*
X143306541Y-73952893I-34J-1000024D01*
G01*
X121700386Y-88680400D02*
G75*
G02*
X121407500Y-87973286I707114J707100D01*
G01*
X129552618Y-76338339D02*
G75*
G03*
X129811440Y-76372403I258782J965939D01*
G01*
X146011114Y-82911100D02*
G75*
G02*
X146304000Y-83618214I-707114J-707100D01*
G01*
X128621915Y-75281909D02*
G75*
G02*
X128780829Y-75489018I-707115J-707091D01*
G01*
X148676907Y-81447045D02*
G75*
G02*
X149384038Y-81154176I707093J-707155D01*
G01*
X121627114Y-90187400D02*
G75*
G03*
X121920000Y-89480286I-707114J707100D01*
G01*
X132494214Y-108711990D02*
G75*
G02*
X131787107Y-108419107I-14J999990D01*
G01*
X134535214Y-72635010D02*
G75*
G03*
X133828107Y-72927893I-14J-999990D01*
G01*
X130676499Y-76079519D02*
G75*
G02*
X129969383Y-76372403I-707099J707119D01*
G01*
X136736786Y-72635010D02*
G75*
G02*
X137443893Y-72927893I14J-999990D01*
G01*
X127856823Y-75058902D02*
G75*
G03*
X127149717Y-75351773I-23J-999998D01*
G01*
X145329568Y-82229514D02*
G75*
G02*
X145036648Y-81522434I707032J707114D01*
G01*
X125011602Y-77904115D02*
G75*
G02*
X125304481Y-77197009I999998J15D01*
G01*
X130000000Y-92600000D02*
X130000000Y-94025786D01*
X140208000Y-96538000D02*
X141324283Y-97654283D01*
X126427101Y-85119893D02*
X126202994Y-85344000D01*
X128342080Y-72009000D02*
X132547566Y-72009000D01*
X139205404Y-101208190D02*
X140764107Y-101208190D01*
X134635922Y-100711708D02*
X134635922Y-99750278D01*
X133254673Y-71716107D02*
X133342780Y-71628000D01*
X138176000Y-100593000D02*
X138498297Y-100915297D01*
X141617176Y-100607112D02*
X141617176Y-100593000D01*
X122725393Y-84925393D02*
X123707107Y-85907107D01*
X126202994Y-85344000D02*
X125639887Y-85907107D01*
X128414525Y-91620865D02*
X129606475Y-92309037D01*
X121201393Y-82209217D02*
X122432500Y-83440324D01*
X119892500Y-81916324D02*
X120494286Y-81916324D01*
X124932780Y-86200000D02*
X124414214Y-86200000D01*
X122432500Y-83440324D02*
X122432500Y-84218286D01*
X120185393Y-80607431D02*
X126620324Y-74172500D01*
X126620324Y-74172500D02*
X126620324Y-73730756D01*
X134635922Y-99750278D02*
X134972722Y-99750278D01*
X119892500Y-81916324D02*
X119892500Y-81314538D01*
X141617176Y-98361390D02*
X141617176Y-100593000D01*
X133342780Y-71628000D02*
X135636000Y-71628000D01*
X130292893Y-94732893D02*
X132588000Y-97028000D01*
X126913217Y-73023649D02*
X127634973Y-72301893D01*
X136144000Y-102625000D02*
X138176000Y-100593000D01*
X147191676Y-106167500D02*
X147191676Y-106645462D01*
X128324893Y-91531233D02*
X128414525Y-91620865D01*
X134972722Y-99750278D02*
X136144000Y-98579000D01*
X141617176Y-100593000D02*
X147191676Y-106167500D01*
X128973000Y-86528786D02*
X128973000Y-85358232D01*
X129709037Y-92309037D02*
X130000000Y-92600000D01*
X141194282Y-101030006D02*
X141617176Y-100607112D01*
X128680107Y-84870934D02*
X128835552Y-85026389D01*
X136144000Y-102634000D02*
X136144000Y-102625000D01*
X147484569Y-107352569D02*
X148336000Y-108204000D01*
X136144000Y-102634000D02*
X134928815Y-101418815D01*
X128636173Y-84827000D02*
X127134208Y-84827000D01*
X128032000Y-87884000D02*
X128032000Y-90824126D01*
X129606475Y-92309037D02*
X129709037Y-92309037D01*
X128680107Y-84870934D02*
X128636173Y-84827000D01*
X128032000Y-87884000D02*
X128680107Y-87235893D01*
X133254690Y-71716124D02*
G75*
G02*
X132547566Y-72009000I-707090J707124D01*
G01*
X138498297Y-100915297D02*
G75*
G03*
X139205404Y-101208190I707103J707097D01*
G01*
X128324906Y-91531220D02*
G75*
G02*
X128032000Y-90824126I707094J707120D01*
G01*
X125639897Y-85907117D02*
G75*
G02*
X124932780Y-86200000I-707097J707117D01*
G01*
X141194285Y-101030009D02*
G75*
G02*
X140764107Y-101208190I-430185J430209D01*
G01*
X130292886Y-94732900D02*
G75*
G02*
X130000000Y-94025786I707114J707100D01*
G01*
X147484545Y-107352593D02*
G75*
G02*
X147191676Y-106645462I707155J707093D01*
G01*
X120494286Y-81916327D02*
G75*
G02*
X121201393Y-82209217I14J-999973D01*
G01*
X123707100Y-85907114D02*
G75*
G03*
X124414214Y-86200000I707100J707114D01*
G01*
X127134208Y-84827006D02*
G75*
G03*
X126427101Y-85119893I-8J-999994D01*
G01*
X127634983Y-72301903D02*
G75*
G02*
X128342080Y-72009000I707117J-707097D01*
G01*
X128680114Y-87235900D02*
G75*
G03*
X128973000Y-86528786I-707114J707100D01*
G01*
X119892527Y-81314538D02*
G75*
G02*
X120185393Y-80607431I999973J38D01*
G01*
X126913244Y-73023676D02*
G75*
G03*
X126620324Y-73730756I707056J-707124D01*
G01*
X141617190Y-98361390D02*
G75*
G03*
X141324283Y-97654283I-999990J-10D01*
G01*
X134928824Y-101418806D02*
G75*
G02*
X134635922Y-100711708I707076J707106D01*
G01*
X122432510Y-84218286D02*
G75*
G03*
X122725393Y-84925393I999990J-14D01*
G01*
X128835566Y-85026375D02*
G75*
G02*
X128973000Y-85358232I-331866J-331825D01*
G01*
X141947107Y-93736107D02*
X141810000Y-93599000D01*
X142240000Y-94996000D02*
X142240000Y-94443214D01*
X142239990Y-94443214D02*
G75*
G03*
X141947107Y-93736107I-999990J14D01*
G01*
X133907000Y-94996000D02*
X132510000Y-93599000D01*
X138176000Y-94996000D02*
X133907000Y-94996000D01*
X129573000Y-91008975D02*
X129573000Y-91033975D01*
X130500082Y-90081893D02*
X129573000Y-91008975D01*
X132510000Y-89789000D02*
X131207189Y-89789000D01*
X130500088Y-90081899D02*
G75*
G02*
X131207189Y-89789000I707112J-707101D01*
G01*
X128255107Y-94944893D02*
X126900000Y-96300000D01*
X128548000Y-92766025D02*
X128548000Y-94237786D01*
X128547990Y-94237786D02*
G75*
G02*
X128255107Y-94944893I-999990J-14D01*
G01*
X141810000Y-85979000D02*
X144161000Y-85979000D01*
X144161000Y-85979000D02*
X144288000Y-85852000D01*
X141810000Y-84709000D02*
X143415000Y-84709000D01*
X143415000Y-84709000D02*
X144304000Y-83820000D01*
X132510000Y-83439000D02*
X131699000Y-83439000D01*
X131699000Y-83439000D02*
X130048000Y-81788000D01*
X132510000Y-84709000D02*
X131046222Y-84709000D01*
X131046222Y-84709000D02*
X130055527Y-83718305D01*
X130175000Y-85979000D02*
X130048000Y-85852000D01*
X132510000Y-85979000D02*
X130175000Y-85979000D01*
X132510000Y-87249000D02*
X130667000Y-87249000D01*
X130667000Y-87249000D02*
X130032000Y-87884000D01*
X137160000Y-89916000D02*
X137160000Y-86266214D01*
X139987214Y-83439000D02*
X141810000Y-83439000D01*
X137452893Y-85559107D02*
X139280107Y-83731893D01*
X137452886Y-85559100D02*
G75*
G03*
X137160000Y-86266214I707114J-707100D01*
G01*
X139280100Y-83731886D02*
G75*
G02*
X139987214Y-83439000I707100J-707114D01*
G01*
X139700000Y-91948000D02*
X139788107Y-92036107D01*
X140495214Y-92329000D02*
X141810000Y-92329000D01*
X140495214Y-92328990D02*
G75*
G02*
X139788107Y-92036107I-14J999990D01*
G01*
X141810000Y-87249000D02*
X144089959Y-87249000D01*
X145056584Y-82959411D02*
X140094040Y-77996867D01*
X145229000Y-86281498D02*
X145229000Y-83375660D01*
X144797066Y-86956107D02*
X145057403Y-86695770D01*
X140094040Y-77996867D02*
X139700000Y-77996867D01*
X145057410Y-86695777D02*
G75*
G03*
X145229000Y-86281498I-414310J414277D01*
G01*
X145229018Y-83375660D02*
G75*
G03*
X145056584Y-82959411I-588718J-40D01*
G01*
X144797086Y-86956127D02*
G75*
G02*
X144089959Y-87249000I-707086J707127D01*
G01*
X141810000Y-89789000D02*
X143140811Y-89789000D01*
X143847918Y-90081893D02*
X144800000Y-91033975D01*
X143140811Y-89788992D02*
G75*
G02*
X143847918Y-90081893I-11J-1000008D01*
G01*
X146092893Y-95092893D02*
X147300000Y-96300000D01*
X145800000Y-92766025D02*
X145800000Y-94385786D01*
X146092886Y-95092900D02*
G75*
G02*
X145800000Y-94385786I707114J707100D01*
G01*
G04 #@! TA.AperFunction,Conductor*
G36*
X140433026Y-79232621D02*
G01*
X140442223Y-79240954D01*
X142347173Y-81145905D01*
X142381199Y-81208217D01*
X142376134Y-81279033D01*
X142333587Y-81335868D01*
X142267067Y-81360679D01*
X142258078Y-81361000D01*
X142082115Y-81361000D01*
X142066876Y-81365475D01*
X142065671Y-81366865D01*
X142064000Y-81374548D01*
X142064000Y-82297000D01*
X142043998Y-82365121D01*
X141990342Y-82411614D01*
X141938000Y-82423000D01*
X140298122Y-82423000D01*
X140284591Y-82426973D01*
X140283456Y-82434871D01*
X140324107Y-82574790D01*
X140330352Y-82589221D01*
X140345811Y-82615361D01*
X140363270Y-82684177D01*
X140340753Y-82751509D01*
X140285409Y-82795978D01*
X140237357Y-82805500D01*
X140041218Y-82805500D01*
X140023463Y-82804243D01*
X140020871Y-82803874D01*
X140000587Y-82800987D01*
X139994100Y-82800919D01*
X139991349Y-82800890D01*
X139991346Y-82800890D01*
X139987223Y-82800847D01*
X139980306Y-82801684D01*
X139969953Y-82802936D01*
X139963059Y-82803578D01*
X139777666Y-82815727D01*
X139777662Y-82815728D01*
X139773550Y-82815997D01*
X139769511Y-82816800D01*
X139769506Y-82816801D01*
X139567578Y-82856964D01*
X139567574Y-82856965D01*
X139563532Y-82857769D01*
X139360763Y-82926597D01*
X139357074Y-82928416D01*
X139357072Y-82928417D01*
X139172411Y-83019479D01*
X139172406Y-83019482D01*
X139168713Y-83021303D01*
X138990668Y-83140266D01*
X138987564Y-83142988D01*
X138901859Y-83218147D01*
X138896012Y-83222971D01*
X138895567Y-83223316D01*
X138888745Y-83227351D01*
X138873008Y-83243088D01*
X138866991Y-83248724D01*
X138861723Y-83253344D01*
X138854299Y-83259372D01*
X138838418Y-83271296D01*
X138828869Y-83280646D01*
X138826325Y-83283890D01*
X138826320Y-83283896D01*
X138809648Y-83305158D01*
X138799590Y-83316506D01*
X137043118Y-85072977D01*
X137029677Y-85084641D01*
X137011195Y-85098518D01*
X137001646Y-85107869D01*
X136999105Y-85111110D01*
X136999102Y-85111113D01*
X136991024Y-85121416D01*
X136986627Y-85126718D01*
X136861266Y-85269668D01*
X136799659Y-85361872D01*
X136759355Y-85422193D01*
X136742303Y-85447713D01*
X136740482Y-85451406D01*
X136740479Y-85451411D01*
X136685081Y-85563751D01*
X136647597Y-85639763D01*
X136578769Y-85842532D01*
X136577965Y-85846574D01*
X136577964Y-85846578D01*
X136540401Y-86035438D01*
X136536997Y-86052550D01*
X136536728Y-86056660D01*
X136536727Y-86056665D01*
X136529284Y-86170246D01*
X136528561Y-86177796D01*
X136528471Y-86178508D01*
X136526500Y-86186184D01*
X136526500Y-86208610D01*
X136526232Y-86216827D01*
X136525790Y-86223570D01*
X136524806Y-86233050D01*
X136521987Y-86252859D01*
X136521847Y-86266223D01*
X136522344Y-86270328D01*
X136525587Y-86297125D01*
X136526500Y-86312264D01*
X136526500Y-89213476D01*
X136506498Y-89281597D01*
X136494142Y-89297779D01*
X136420960Y-89379056D01*
X136325473Y-89544444D01*
X136266458Y-89726072D01*
X136265768Y-89732633D01*
X136265768Y-89732635D01*
X136252357Y-89860234D01*
X136246496Y-89916000D01*
X136247186Y-89922565D01*
X136260476Y-90049008D01*
X136266458Y-90105928D01*
X136325473Y-90287556D01*
X136420960Y-90452944D01*
X136425378Y-90457851D01*
X136425379Y-90457852D01*
X136447558Y-90482484D01*
X136548747Y-90594866D01*
X136703248Y-90707118D01*
X136709276Y-90709802D01*
X136709278Y-90709803D01*
X136864840Y-90779063D01*
X136877712Y-90784794D01*
X136954082Y-90801027D01*
X137058056Y-90823128D01*
X137058061Y-90823128D01*
X137064513Y-90824500D01*
X137255487Y-90824500D01*
X137261939Y-90823128D01*
X137261944Y-90823128D01*
X137365918Y-90801027D01*
X137442288Y-90784794D01*
X137455160Y-90779063D01*
X137610722Y-90709803D01*
X137610724Y-90709802D01*
X137616752Y-90707118D01*
X137771253Y-90594866D01*
X137872442Y-90482484D01*
X137894621Y-90457852D01*
X137894622Y-90457851D01*
X137899040Y-90452944D01*
X137994527Y-90287556D01*
X138053542Y-90105928D01*
X138059525Y-90049008D01*
X138072814Y-89922565D01*
X138073504Y-89916000D01*
X138067643Y-89860234D01*
X138054232Y-89732635D01*
X138054232Y-89732633D01*
X138053542Y-89726072D01*
X137994527Y-89544444D01*
X137899040Y-89379056D01*
X137825863Y-89297785D01*
X137795147Y-89233779D01*
X137793500Y-89213476D01*
X137793500Y-86316224D01*
X137794578Y-86299779D01*
X137797127Y-86280420D01*
X137797127Y-86280416D01*
X137798118Y-86272888D01*
X137797284Y-86265334D01*
X137797600Y-86235058D01*
X137803822Y-86187791D01*
X137812334Y-86156024D01*
X137836253Y-86098277D01*
X137852698Y-86069794D01*
X137879060Y-86035438D01*
X137890861Y-86022121D01*
X137893365Y-86019669D01*
X137899389Y-86015046D01*
X137921369Y-85987610D01*
X137930609Y-85977295D01*
X139692688Y-84215217D01*
X139705080Y-84204349D01*
X139720567Y-84192466D01*
X139720569Y-84192464D01*
X139726594Y-84187841D01*
X139731368Y-84181882D01*
X139753002Y-84160696D01*
X139790797Y-84131696D01*
X139819278Y-84115253D01*
X139877024Y-84091334D01*
X139908795Y-84082822D01*
X139951796Y-84077162D01*
X139969556Y-84076091D01*
X139972995Y-84076127D01*
X139980522Y-84077118D01*
X139988068Y-84076285D01*
X139988072Y-84076285D01*
X140015462Y-84073261D01*
X140029287Y-84072500D01*
X140236776Y-84072500D01*
X140304897Y-84092502D01*
X140351390Y-84146158D01*
X140361494Y-84216432D01*
X140345231Y-84262636D01*
X140325855Y-84295399D01*
X140323644Y-84303010D01*
X140323643Y-84303012D01*
X140308472Y-84355231D01*
X140279438Y-84455169D01*
X140276500Y-84492498D01*
X140276500Y-84925502D01*
X140279438Y-84962831D01*
X140302293Y-85041500D01*
X140320737Y-85104983D01*
X140325855Y-85122601D01*
X140410547Y-85265807D01*
X140413229Y-85268489D01*
X140438502Y-85332861D01*
X140424600Y-85402484D01*
X140414428Y-85418312D01*
X140410547Y-85422193D01*
X140325855Y-85565399D01*
X140279438Y-85725169D01*
X140278934Y-85731574D01*
X140278933Y-85731579D01*
X140277093Y-85754960D01*
X140276500Y-85762498D01*
X140276500Y-86195502D01*
X140276693Y-86197950D01*
X140276693Y-86197958D01*
X140278788Y-86224571D01*
X140279438Y-86232831D01*
X140297878Y-86296301D01*
X140317782Y-86364812D01*
X140325855Y-86392601D01*
X140410547Y-86535807D01*
X140413229Y-86538489D01*
X140438502Y-86602861D01*
X140424600Y-86672484D01*
X140414428Y-86688312D01*
X140410547Y-86692193D01*
X140325855Y-86835399D01*
X140323644Y-86843010D01*
X140323643Y-86843012D01*
X140318723Y-86859948D01*
X140279438Y-86995169D01*
X140278934Y-87001574D01*
X140278933Y-87001579D01*
X140276693Y-87030042D01*
X140276500Y-87032498D01*
X140276500Y-87465502D01*
X140276693Y-87467950D01*
X140276693Y-87467958D01*
X140278921Y-87496261D01*
X140279438Y-87502831D01*
X140325855Y-87662601D01*
X140410547Y-87805807D01*
X140413229Y-87808489D01*
X140438502Y-87872861D01*
X140424600Y-87942484D01*
X140414428Y-87958312D01*
X140410547Y-87962193D01*
X140325855Y-88105399D01*
X140279438Y-88265169D01*
X140276500Y-88302498D01*
X140276500Y-88735502D01*
X140276693Y-88737950D01*
X140276693Y-88737958D01*
X140277358Y-88746401D01*
X140279438Y-88772831D01*
X140325855Y-88932601D01*
X140410547Y-89075807D01*
X140413229Y-89078489D01*
X140438502Y-89142861D01*
X140424600Y-89212484D01*
X140414428Y-89228312D01*
X140410547Y-89232193D01*
X140325855Y-89375399D01*
X140323644Y-89383010D01*
X140323643Y-89383012D01*
X140319322Y-89397885D01*
X140279438Y-89535169D01*
X140278934Y-89541574D01*
X140278933Y-89541579D01*
X140276693Y-89570042D01*
X140276500Y-89572498D01*
X140276500Y-90005502D01*
X140279438Y-90042831D01*
X140297769Y-90105928D01*
X140310881Y-90151058D01*
X140325855Y-90202601D01*
X140410547Y-90345807D01*
X140413229Y-90348489D01*
X140438502Y-90412861D01*
X140424600Y-90482484D01*
X140414428Y-90498312D01*
X140410547Y-90502193D01*
X140325855Y-90645399D01*
X140323644Y-90653010D01*
X140323643Y-90653012D01*
X140323079Y-90654954D01*
X140279438Y-90805169D01*
X140278934Y-90811574D01*
X140278933Y-90811579D01*
X140277622Y-90828240D01*
X140276500Y-90842498D01*
X140276500Y-91016174D01*
X140256498Y-91084295D01*
X140202842Y-91130788D01*
X140132568Y-91140892D01*
X140099251Y-91131281D01*
X139988319Y-91081891D01*
X139988318Y-91081891D01*
X139982288Y-91079206D01*
X139877808Y-91056998D01*
X139801944Y-91040872D01*
X139801939Y-91040872D01*
X139795487Y-91039500D01*
X139604513Y-91039500D01*
X139598061Y-91040872D01*
X139598056Y-91040872D01*
X139522192Y-91056998D01*
X139417712Y-91079206D01*
X139411682Y-91081891D01*
X139411681Y-91081891D01*
X139249278Y-91154197D01*
X139249276Y-91154198D01*
X139243248Y-91156882D01*
X139237907Y-91160762D01*
X139237906Y-91160763D01*
X139209747Y-91181222D01*
X139088747Y-91269134D01*
X139084326Y-91274044D01*
X139084325Y-91274045D01*
X138988338Y-91380650D01*
X138960960Y-91411056D01*
X138912303Y-91495333D01*
X138885563Y-91541648D01*
X138865473Y-91576444D01*
X138806458Y-91758072D01*
X138805768Y-91764633D01*
X138805768Y-91764635D01*
X138787186Y-91941435D01*
X138786496Y-91948000D01*
X138787186Y-91954565D01*
X138803283Y-92107715D01*
X138806458Y-92137928D01*
X138865473Y-92319556D01*
X138960960Y-92484944D01*
X138965378Y-92489851D01*
X138965379Y-92489852D01*
X139074009Y-92610498D01*
X139088747Y-92626866D01*
X139148036Y-92669942D01*
X139237564Y-92734988D01*
X139243248Y-92739118D01*
X139249276Y-92741802D01*
X139249278Y-92741803D01*
X139332609Y-92778904D01*
X139417712Y-92816794D01*
X139511113Y-92836647D01*
X139598056Y-92855128D01*
X139598061Y-92855128D01*
X139604513Y-92856500D01*
X139795487Y-92856500D01*
X139834026Y-92848308D01*
X139900720Y-92852241D01*
X140067626Y-92908895D01*
X140067633Y-92908897D01*
X140071534Y-92910221D01*
X140075576Y-92911025D01*
X140075580Y-92911026D01*
X140270323Y-92949760D01*
X140333233Y-92982666D01*
X140368365Y-93044361D01*
X140364566Y-93115256D01*
X140354200Y-93137470D01*
X140325855Y-93185399D01*
X140279438Y-93345169D01*
X140276500Y-93382498D01*
X140276500Y-93815502D01*
X140276693Y-93817950D01*
X140276693Y-93817958D01*
X140277725Y-93831060D01*
X140279438Y-93852831D01*
X140299084Y-93920454D01*
X140323562Y-94004707D01*
X140325855Y-94012601D01*
X140329890Y-94019423D01*
X140329892Y-94019427D01*
X140406509Y-94148980D01*
X140406511Y-94148983D01*
X140410547Y-94155807D01*
X140528193Y-94273453D01*
X140535016Y-94277488D01*
X140535020Y-94277491D01*
X140607427Y-94320312D01*
X140671399Y-94358145D01*
X140679010Y-94360356D01*
X140679012Y-94360357D01*
X140719292Y-94372059D01*
X140831169Y-94404562D01*
X140837574Y-94405066D01*
X140837579Y-94405067D01*
X140866042Y-94407307D01*
X140866050Y-94407307D01*
X140868498Y-94407500D01*
X141312488Y-94407500D01*
X141380609Y-94427502D01*
X141427102Y-94481158D01*
X141437206Y-94551432D01*
X141421607Y-94596499D01*
X141405473Y-94624444D01*
X141346458Y-94806072D01*
X141345768Y-94812633D01*
X141345768Y-94812635D01*
X141339957Y-94867926D01*
X141326496Y-94996000D01*
X141327186Y-95002565D01*
X141345266Y-95174582D01*
X141346458Y-95185928D01*
X141405473Y-95367556D01*
X141408776Y-95373278D01*
X141408777Y-95373279D01*
X141421936Y-95396071D01*
X141500960Y-95532944D01*
X141505378Y-95537851D01*
X141505379Y-95537852D01*
X141570943Y-95610668D01*
X141628747Y-95674866D01*
X141783248Y-95787118D01*
X141789276Y-95789802D01*
X141789278Y-95789803D01*
X141951681Y-95862109D01*
X141957712Y-95864794D01*
X142040278Y-95882344D01*
X142138056Y-95903128D01*
X142138061Y-95903128D01*
X142144513Y-95904500D01*
X142335487Y-95904500D01*
X142341939Y-95903128D01*
X142341944Y-95903128D01*
X142439722Y-95882344D01*
X142522288Y-95864794D01*
X142528319Y-95862109D01*
X142690722Y-95789803D01*
X142690724Y-95789802D01*
X142696752Y-95787118D01*
X142851253Y-95674866D01*
X142909057Y-95610668D01*
X142974621Y-95537852D01*
X142974622Y-95537851D01*
X142979040Y-95532944D01*
X143058064Y-95396071D01*
X143071223Y-95373279D01*
X143071224Y-95373278D01*
X143074527Y-95367556D01*
X143133542Y-95185928D01*
X143134735Y-95174582D01*
X143152814Y-95002565D01*
X143153504Y-94996000D01*
X143140043Y-94867926D01*
X143134232Y-94812635D01*
X143134232Y-94812633D01*
X143133542Y-94806072D01*
X143074527Y-94624444D01*
X143062432Y-94603494D01*
X143009160Y-94511226D01*
X142990204Y-94478392D01*
X142973466Y-94409398D01*
X142996686Y-94342306D01*
X143035182Y-94306941D01*
X143091807Y-94273453D01*
X143209453Y-94155807D01*
X143213489Y-94148983D01*
X143213491Y-94148980D01*
X143290108Y-94019427D01*
X143290110Y-94019423D01*
X143294145Y-94012601D01*
X143296439Y-94004707D01*
X143320916Y-93920454D01*
X143340562Y-93852831D01*
X143342276Y-93831060D01*
X143343307Y-93817958D01*
X143343307Y-93817950D01*
X143343500Y-93815502D01*
X143343500Y-93382498D01*
X143340562Y-93345169D01*
X143294145Y-93185399D01*
X143209453Y-93042193D01*
X143206771Y-93039511D01*
X143181498Y-92975139D01*
X143195400Y-92905516D01*
X143205572Y-92889688D01*
X143209453Y-92885807D01*
X143294145Y-92742601D01*
X143296415Y-92734790D01*
X143325674Y-92634075D01*
X143340562Y-92582831D01*
X143341525Y-92570604D01*
X143343307Y-92547958D01*
X143343307Y-92547950D01*
X143343500Y-92545502D01*
X143343500Y-92112498D01*
X143343124Y-92107715D01*
X143341067Y-92081579D01*
X143341066Y-92081574D01*
X143340562Y-92075169D01*
X143301709Y-91941435D01*
X143296357Y-91923012D01*
X143296356Y-91923010D01*
X143294145Y-91915399D01*
X143209453Y-91772193D01*
X143206771Y-91769511D01*
X143181498Y-91705139D01*
X143195400Y-91635516D01*
X143205572Y-91619688D01*
X143209453Y-91615807D01*
X143294145Y-91472601D01*
X143296357Y-91464988D01*
X143333461Y-91337274D01*
X143371674Y-91277439D01*
X143436170Y-91247761D01*
X143506473Y-91257664D01*
X143563576Y-91309426D01*
X143695972Y-91538742D01*
X143946813Y-91973212D01*
X143953608Y-91984982D01*
X143955516Y-91987615D01*
X144005703Y-92056885D01*
X144015995Y-92071091D01*
X144021150Y-92075659D01*
X144021152Y-92075662D01*
X144110922Y-92155222D01*
X144148362Y-92188404D01*
X144304165Y-92272120D01*
X144422371Y-92303683D01*
X144483025Y-92340582D01*
X144514102Y-92404416D01*
X144511600Y-92457921D01*
X144505529Y-92480659D01*
X144485371Y-92556154D01*
X144479624Y-92577676D01*
X144479413Y-92584990D01*
X144479413Y-92584992D01*
X144478207Y-92626866D01*
X144474530Y-92754474D01*
X144476008Y-92761642D01*
X144506879Y-92911364D01*
X144510247Y-92927701D01*
X144553208Y-93023518D01*
X144723069Y-93317726D01*
X144943079Y-93698795D01*
X144953608Y-93717032D01*
X145015995Y-93803141D01*
X145021150Y-93807709D01*
X145021152Y-93807712D01*
X145048608Y-93832045D01*
X145124073Y-93898927D01*
X145161785Y-93959077D01*
X145166500Y-93993222D01*
X145166500Y-94331782D01*
X145165243Y-94349537D01*
X145161987Y-94372413D01*
X145161847Y-94385777D01*
X145162343Y-94389875D01*
X145163936Y-94403047D01*
X145164578Y-94409941D01*
X145171590Y-94516944D01*
X145176997Y-94599450D01*
X145177800Y-94603489D01*
X145177801Y-94603494D01*
X145216845Y-94799794D01*
X145218769Y-94809468D01*
X145220093Y-94813369D01*
X145221163Y-94817362D01*
X145219266Y-94817870D01*
X145221926Y-94880878D01*
X145206025Y-94918025D01*
X145097438Y-95089131D01*
X145095754Y-95092710D01*
X145095750Y-95092717D01*
X144964733Y-95371144D01*
X144963044Y-95374734D01*
X144865505Y-95674928D01*
X144806359Y-95984980D01*
X144786540Y-96300000D01*
X144806359Y-96615020D01*
X144865505Y-96925072D01*
X144870039Y-96939027D01*
X144957964Y-97209630D01*
X144963044Y-97225266D01*
X144964731Y-97228852D01*
X144964733Y-97228856D01*
X145095750Y-97507283D01*
X145095754Y-97507290D01*
X145097438Y-97510869D01*
X145099562Y-97514215D01*
X145099562Y-97514216D01*
X145105889Y-97524185D01*
X145266568Y-97777375D01*
X145269093Y-97780427D01*
X145449459Y-97998451D01*
X145467767Y-98020582D01*
X145470657Y-98023296D01*
X145470658Y-98023297D01*
X145506999Y-98057423D01*
X145697860Y-98236654D01*
X145953221Y-98422184D01*
X145956690Y-98424091D01*
X145956693Y-98424093D01*
X146142228Y-98526092D01*
X146229821Y-98574247D01*
X146233490Y-98575700D01*
X146233495Y-98575702D01*
X146463868Y-98666913D01*
X146523298Y-98690443D01*
X146829025Y-98768940D01*
X147142179Y-98808500D01*
X147457821Y-98808500D01*
X147770975Y-98768940D01*
X148076702Y-98690443D01*
X148136132Y-98666913D01*
X148366505Y-98575702D01*
X148366510Y-98575700D01*
X148370179Y-98574247D01*
X148457772Y-98526092D01*
X148643307Y-98424093D01*
X148643310Y-98424091D01*
X148646779Y-98422184D01*
X148902140Y-98236654D01*
X149093001Y-98057423D01*
X149129342Y-98023297D01*
X149129343Y-98023296D01*
X149132233Y-98020582D01*
X149150542Y-97998451D01*
X149330907Y-97780427D01*
X149333432Y-97777375D01*
X149494111Y-97524185D01*
X149500438Y-97514216D01*
X149500438Y-97514215D01*
X149502562Y-97510869D01*
X149504246Y-97507290D01*
X149504250Y-97507283D01*
X149635267Y-97228856D01*
X149635269Y-97228852D01*
X149636956Y-97225266D01*
X149642037Y-97209630D01*
X149729961Y-96939027D01*
X149734495Y-96925072D01*
X149793641Y-96615020D01*
X149813460Y-96300000D01*
X149793641Y-95984980D01*
X149734495Y-95674928D01*
X149636956Y-95374734D01*
X149635267Y-95371144D01*
X149504250Y-95092717D01*
X149504246Y-95092710D01*
X149502562Y-95089131D01*
X149333432Y-94822625D01*
X149162506Y-94616012D01*
X149134758Y-94582470D01*
X149134757Y-94582469D01*
X149132233Y-94579418D01*
X148902140Y-94363346D01*
X148894982Y-94358145D01*
X148825852Y-94307920D01*
X148646779Y-94177816D01*
X148561604Y-94130990D01*
X148373648Y-94027660D01*
X148373647Y-94027659D01*
X148370179Y-94025753D01*
X148366510Y-94024300D01*
X148366505Y-94024298D01*
X148080372Y-93911010D01*
X148080371Y-93911010D01*
X148076702Y-93909557D01*
X147770975Y-93831060D01*
X147457821Y-93791500D01*
X147142179Y-93791500D01*
X146829025Y-93831060D01*
X146825183Y-93832047D01*
X146825175Y-93832048D01*
X146590835Y-93892216D01*
X146519880Y-93889784D01*
X146461504Y-93849376D01*
X146434241Y-93783823D01*
X146433500Y-93770175D01*
X146433500Y-93753005D01*
X146453502Y-93684884D01*
X146496500Y-93643886D01*
X146703833Y-93524182D01*
X146787609Y-93475814D01*
X146873718Y-93413427D01*
X146953086Y-93323876D01*
X146986173Y-93286544D01*
X146986175Y-93286541D01*
X146991032Y-93281061D01*
X147074748Y-93125257D01*
X147095852Y-93046221D01*
X147118488Y-92961447D01*
X147118489Y-92961442D01*
X147120376Y-92954374D01*
X147121236Y-92924547D01*
X147123196Y-92856500D01*
X147125470Y-92777576D01*
X147118094Y-92741803D01*
X147091143Y-92611089D01*
X147091142Y-92611086D01*
X147089753Y-92604349D01*
X147046792Y-92508532D01*
X146816724Y-92110042D01*
X146648020Y-91817837D01*
X146648016Y-91817831D01*
X146646392Y-91815018D01*
X146601080Y-91752477D01*
X146588048Y-91734489D01*
X146588047Y-91734488D01*
X146584005Y-91728909D01*
X146578850Y-91724341D01*
X146578848Y-91724338D01*
X146457116Y-91616451D01*
X146451638Y-91611596D01*
X146295835Y-91527880D01*
X146177629Y-91496317D01*
X146116975Y-91459418D01*
X146085898Y-91395584D01*
X146088400Y-91342077D01*
X146088658Y-91341113D01*
X146110940Y-91257664D01*
X146118488Y-91229396D01*
X146118488Y-91229393D01*
X146120376Y-91222324D01*
X146125470Y-91045526D01*
X146110894Y-90974831D01*
X146091143Y-90879039D01*
X146091142Y-90879036D01*
X146089753Y-90872299D01*
X146046792Y-90776482D01*
X145659648Y-90105928D01*
X145648020Y-90085787D01*
X145648016Y-90085781D01*
X145646392Y-90082968D01*
X145608451Y-90030600D01*
X145588048Y-90002439D01*
X145588047Y-90002438D01*
X145584005Y-89996859D01*
X145578850Y-89992291D01*
X145578848Y-89992288D01*
X145457116Y-89884401D01*
X145451638Y-89879546D01*
X145295835Y-89795830D01*
X145150616Y-89757054D01*
X145132022Y-89752089D01*
X145132021Y-89752089D01*
X145124951Y-89750201D01*
X145117638Y-89749990D01*
X145117636Y-89749990D01*
X145044174Y-89747874D01*
X144948153Y-89745108D01*
X144913295Y-89752295D01*
X144781662Y-89779435D01*
X144781661Y-89779435D01*
X144774926Y-89780824D01*
X144679109Y-89823786D01*
X144655171Y-89837607D01*
X144640231Y-89846232D01*
X144571235Y-89862969D01*
X144504144Y-89839748D01*
X144488137Y-89826207D01*
X144334055Y-89672125D01*
X144322389Y-89658681D01*
X144311000Y-89643512D01*
X144310995Y-89643506D01*
X144308515Y-89640203D01*
X144299164Y-89630654D01*
X144295919Y-89628110D01*
X144295915Y-89628106D01*
X144285476Y-89619921D01*
X144280147Y-89615500D01*
X144140469Y-89493004D01*
X144140463Y-89492999D01*
X144137361Y-89490279D01*
X143976829Y-89383012D01*
X143962748Y-89373603D01*
X143962745Y-89373601D01*
X143959319Y-89371312D01*
X143955628Y-89369492D01*
X143955625Y-89369490D01*
X143770961Y-89278422D01*
X143770958Y-89278421D01*
X143767272Y-89276603D01*
X143688905Y-89250000D01*
X143568405Y-89209094D01*
X143568397Y-89209092D01*
X143564506Y-89207771D01*
X143354490Y-89165994D01*
X143354719Y-89164845D01*
X143294461Y-89138186D01*
X143255372Y-89078920D01*
X143254529Y-89007928D01*
X143267382Y-88977855D01*
X143294145Y-88932601D01*
X143340562Y-88772831D01*
X143342643Y-88746401D01*
X143343307Y-88737958D01*
X143343307Y-88737950D01*
X143343500Y-88735502D01*
X143343500Y-88302498D01*
X143340562Y-88265169D01*
X143294145Y-88105399D01*
X143274769Y-88072637D01*
X143257311Y-88003822D01*
X143279828Y-87936491D01*
X143335173Y-87892022D01*
X143383224Y-87882500D01*
X144035953Y-87882500D01*
X144053713Y-87883758D01*
X144076569Y-87887012D01*
X144089933Y-87887153D01*
X144094674Y-87886579D01*
X144107188Y-87885066D01*
X144114085Y-87884423D01*
X144299490Y-87872279D01*
X144299493Y-87872279D01*
X144303609Y-87872009D01*
X144307652Y-87871205D01*
X144307659Y-87871204D01*
X144509588Y-87831045D01*
X144509590Y-87831044D01*
X144513630Y-87830241D01*
X144527551Y-87825516D01*
X144712503Y-87762741D01*
X144712511Y-87762738D01*
X144716402Y-87761417D01*
X144720092Y-87759598D01*
X144720098Y-87759595D01*
X144904761Y-87668537D01*
X144908456Y-87666715D01*
X145086505Y-87547754D01*
X145145043Y-87496421D01*
X145175550Y-87469669D01*
X145181396Y-87464846D01*
X145181604Y-87464684D01*
X145188428Y-87460649D01*
X145203970Y-87445107D01*
X145209992Y-87439466D01*
X145215637Y-87434516D01*
X145223059Y-87428491D01*
X145235442Y-87419194D01*
X145235446Y-87419191D01*
X145238746Y-87416713D01*
X145248295Y-87407362D01*
X145267512Y-87382856D01*
X145277566Y-87371512D01*
X145467183Y-87181894D01*
X145480624Y-87170230D01*
X145495819Y-87158821D01*
X145495821Y-87158819D01*
X145499115Y-87156346D01*
X145502053Y-87153468D01*
X145502058Y-87153464D01*
X145505717Y-87149880D01*
X145505720Y-87149876D01*
X145508663Y-87146994D01*
X145519843Y-87132735D01*
X145523137Y-87128709D01*
X145578008Y-87064459D01*
X145637456Y-87025649D01*
X145713486Y-87026695D01*
X145776608Y-87047631D01*
X145776610Y-87047631D01*
X145783139Y-87049797D01*
X145789975Y-87050497D01*
X145789978Y-87050498D01*
X145833031Y-87054909D01*
X145887600Y-87060500D01*
X146688400Y-87060500D01*
X146691646Y-87060163D01*
X146691650Y-87060163D01*
X146787308Y-87050238D01*
X146787312Y-87050237D01*
X146794166Y-87049526D01*
X146800702Y-87047345D01*
X146800704Y-87047345D01*
X146954998Y-86995868D01*
X146961946Y-86993550D01*
X147112348Y-86900478D01*
X147237305Y-86775303D01*
X147241146Y-86769072D01*
X147326275Y-86630968D01*
X147326276Y-86630966D01*
X147330115Y-86624738D01*
X147347571Y-86572110D01*
X147388002Y-86513750D01*
X147458924Y-86486047D01*
X147623335Y-86475273D01*
X147623340Y-86475272D01*
X147627450Y-86475003D01*
X147631489Y-86474200D01*
X147631494Y-86474199D01*
X147833422Y-86434036D01*
X147833426Y-86434035D01*
X147837468Y-86433231D01*
X148040237Y-86364403D01*
X148047345Y-86360898D01*
X148228589Y-86271521D01*
X148228594Y-86271518D01*
X148232287Y-86269697D01*
X148237487Y-86266223D01*
X148284135Y-86235054D01*
X148410332Y-86150734D01*
X148499141Y-86072853D01*
X148504988Y-86068029D01*
X148505433Y-86067684D01*
X148512255Y-86063649D01*
X148527992Y-86047912D01*
X148534009Y-86042276D01*
X148539277Y-86037656D01*
X148546702Y-86031627D01*
X148562582Y-86019704D01*
X148572131Y-86010354D01*
X148574675Y-86007110D01*
X148574680Y-86007104D01*
X148591352Y-85985842D01*
X148601410Y-85974494D01*
X149810499Y-84765405D01*
X149872811Y-84731379D01*
X149899594Y-84728500D01*
X149955487Y-84728500D01*
X149995611Y-84719971D01*
X150062310Y-84723904D01*
X150084330Y-84731379D01*
X150226297Y-84779573D01*
X150226301Y-84779574D01*
X150230195Y-84780896D01*
X150440211Y-84822674D01*
X150444316Y-84822943D01*
X150444323Y-84822944D01*
X150511171Y-84827326D01*
X150557904Y-84830389D01*
X150565445Y-84831112D01*
X150566185Y-84831206D01*
X150573860Y-84833176D01*
X150596300Y-84833176D01*
X150604541Y-84833446D01*
X150611208Y-84833883D01*
X150620724Y-84834871D01*
X150640520Y-84837689D01*
X150647520Y-84837762D01*
X150649758Y-84837786D01*
X150649761Y-84837786D01*
X150653884Y-84837829D01*
X150657974Y-84837334D01*
X150657976Y-84837334D01*
X150684801Y-84834088D01*
X150699937Y-84833176D01*
X152148210Y-84833176D01*
X152216331Y-84853178D01*
X152262824Y-84906834D01*
X152273940Y-84967417D01*
X152270225Y-85024105D01*
X152269288Y-85038394D01*
X152268564Y-85045945D01*
X152268470Y-85046685D01*
X152266500Y-85054360D01*
X152266500Y-85076799D01*
X152266230Y-85085038D01*
X152265793Y-85091707D01*
X152264806Y-85101218D01*
X152261987Y-85121020D01*
X152261847Y-85134384D01*
X152262342Y-85138474D01*
X152262342Y-85138476D01*
X152265588Y-85165301D01*
X152266500Y-85180437D01*
X152266500Y-91231782D01*
X152265243Y-91249537D01*
X152261987Y-91272413D01*
X152261847Y-91285777D01*
X152262343Y-91289875D01*
X152262343Y-91289878D01*
X152263958Y-91303231D01*
X152264600Y-91310124D01*
X152275877Y-91482205D01*
X152277007Y-91499449D01*
X152277810Y-91503488D01*
X152277811Y-91503493D01*
X152313486Y-91682854D01*
X152318779Y-91709466D01*
X152387606Y-91912233D01*
X152389434Y-91915939D01*
X152389434Y-91915940D01*
X152405244Y-91948000D01*
X152482312Y-92104282D01*
X152601274Y-92282326D01*
X152603991Y-92285424D01*
X152603997Y-92285432D01*
X152679053Y-92371019D01*
X152683879Y-92376868D01*
X152684315Y-92377431D01*
X152688351Y-92384255D01*
X152704203Y-92400107D01*
X152709832Y-92406115D01*
X152714269Y-92411175D01*
X152720291Y-92418593D01*
X152729816Y-92431280D01*
X152729822Y-92431287D01*
X152732296Y-92434582D01*
X152741646Y-92444131D01*
X152744888Y-92446673D01*
X152744890Y-92446675D01*
X152766157Y-92463351D01*
X152777503Y-92473408D01*
X152885977Y-92581882D01*
X152897641Y-92595323D01*
X152911518Y-92613805D01*
X152920869Y-92623354D01*
X152934555Y-92634085D01*
X152939869Y-92638492D01*
X153082674Y-92763726D01*
X153260718Y-92882688D01*
X153264427Y-92884517D01*
X153423090Y-92962759D01*
X153452767Y-92977394D01*
X153655534Y-93046221D01*
X153659576Y-93047025D01*
X153659580Y-93047026D01*
X153669616Y-93049022D01*
X153716984Y-93058443D01*
X153779893Y-93091349D01*
X153799547Y-93115719D01*
X153842667Y-93185399D01*
X153891522Y-93264348D01*
X154016697Y-93389305D01*
X154022927Y-93393145D01*
X154022928Y-93393146D01*
X154160095Y-93477697D01*
X154167262Y-93482115D01*
X154220168Y-93499663D01*
X154278527Y-93540094D01*
X154305764Y-93605658D01*
X154306500Y-93619256D01*
X154306500Y-96325476D01*
X154286498Y-96393597D01*
X154274142Y-96409779D01*
X154200960Y-96491056D01*
X154173928Y-96537877D01*
X154132176Y-96610194D01*
X154105473Y-96656444D01*
X154046458Y-96838072D01*
X154045768Y-96844633D01*
X154045768Y-96844635D01*
X154040829Y-96891628D01*
X154031284Y-96982450D01*
X154029093Y-97003293D01*
X154002080Y-97068950D01*
X153992878Y-97079218D01*
X153951914Y-97120182D01*
X153889602Y-97154208D01*
X153818787Y-97149143D01*
X153799824Y-97140209D01*
X153528891Y-96983785D01*
X153502922Y-96972181D01*
X153438102Y-96943218D01*
X153438100Y-96943217D01*
X153431808Y-96940406D01*
X153258518Y-96904993D01*
X153109717Y-96909540D01*
X153041019Y-96891628D01*
X153016775Y-96872694D01*
X152955396Y-96811315D01*
X152928319Y-96770173D01*
X152927157Y-96765853D01*
X152923681Y-96759410D01*
X152923679Y-96759406D01*
X152846645Y-96616636D01*
X152846644Y-96616635D01*
X152843169Y-96610194D01*
X152725624Y-96478034D01*
X152720053Y-96474009D01*
X152720049Y-96474005D01*
X152643109Y-96418412D01*
X152640510Y-96416534D01*
X151765190Y-95911168D01*
X151733322Y-95892769D01*
X151733321Y-95892769D01*
X151730490Y-95891134D01*
X151664771Y-95861769D01*
X151639701Y-95850567D01*
X151639699Y-95850566D01*
X151633407Y-95847755D01*
X151460117Y-95812342D01*
X151283330Y-95817743D01*
X151276265Y-95819643D01*
X151276263Y-95819643D01*
X151210779Y-95837251D01*
X151112526Y-95863670D01*
X150956868Y-95947658D01*
X150824707Y-96065202D01*
X150820682Y-96070773D01*
X150820679Y-96070776D01*
X150784530Y-96120807D01*
X150763208Y-96150317D01*
X150761606Y-96153092D01*
X150761600Y-96153101D01*
X150394227Y-96789410D01*
X150375308Y-96822179D01*
X150373976Y-96825161D01*
X150373975Y-96825162D01*
X150337649Y-96906459D01*
X150331928Y-96919262D01*
X150330549Y-96926012D01*
X150330548Y-96926014D01*
X150329487Y-96931206D01*
X150296515Y-97092552D01*
X150297971Y-97140206D01*
X150301550Y-97257317D01*
X150301917Y-97269340D01*
X150303816Y-97276404D01*
X150303817Y-97276408D01*
X150343862Y-97425339D01*
X150347843Y-97440143D01*
X150350197Y-97444505D01*
X150356710Y-97514223D01*
X150324049Y-97577261D01*
X150262492Y-97612634D01*
X150252665Y-97614536D01*
X150245830Y-97614745D01*
X150238765Y-97616645D01*
X150238763Y-97616645D01*
X150171671Y-97634685D01*
X150075026Y-97660672D01*
X149919368Y-97744660D01*
X149787207Y-97862204D01*
X149783182Y-97867775D01*
X149783179Y-97867778D01*
X149743639Y-97922502D01*
X149725708Y-97947319D01*
X149724106Y-97950094D01*
X149724100Y-97950103D01*
X149339442Y-98616350D01*
X149337808Y-98619181D01*
X149336476Y-98622163D01*
X149336475Y-98622164D01*
X149305484Y-98691522D01*
X149294428Y-98716264D01*
X149259015Y-98889554D01*
X149259239Y-98896874D01*
X149262368Y-98999274D01*
X149264417Y-99066342D01*
X149266316Y-99073406D01*
X149266317Y-99073410D01*
X149289765Y-99160614D01*
X149310343Y-99237145D01*
X149313819Y-99243588D01*
X149313821Y-99243592D01*
X149390855Y-99386362D01*
X149394331Y-99392804D01*
X149511876Y-99524964D01*
X149517447Y-99528989D01*
X149517451Y-99528993D01*
X149569493Y-99566596D01*
X149596990Y-99586464D01*
X149819978Y-99715206D01*
X149820281Y-99715381D01*
X149869274Y-99766763D01*
X149882710Y-99836477D01*
X149856324Y-99902388D01*
X149798492Y-99943570D01*
X149757281Y-99950500D01*
X143456200Y-99950500D01*
X143388079Y-99930498D01*
X143368853Y-99914157D01*
X143368580Y-99914460D01*
X143363668Y-99910037D01*
X143359253Y-99905134D01*
X143248661Y-99824784D01*
X143210094Y-99796763D01*
X143210093Y-99796762D01*
X143204752Y-99792882D01*
X143198724Y-99790198D01*
X143198722Y-99790197D01*
X143036319Y-99717891D01*
X143036318Y-99717891D01*
X143030288Y-99715206D01*
X142936888Y-99695353D01*
X142849944Y-99676872D01*
X142849939Y-99676872D01*
X142843487Y-99675500D01*
X142652513Y-99675500D01*
X142646061Y-99676872D01*
X142646056Y-99676872D01*
X142559112Y-99695353D01*
X142465712Y-99715206D01*
X142427924Y-99732030D01*
X142357558Y-99741464D01*
X142293261Y-99711358D01*
X142255448Y-99651269D01*
X142250676Y-99616923D01*
X142250676Y-98415379D01*
X142251933Y-98397626D01*
X142254608Y-98378831D01*
X142254608Y-98378830D01*
X142255189Y-98374748D01*
X142255329Y-98361384D01*
X142253268Y-98344357D01*
X142252628Y-98337486D01*
X142246171Y-98238982D01*
X142240188Y-98147709D01*
X142198410Y-97937691D01*
X142184993Y-97898166D01*
X142130900Y-97738824D01*
X142129576Y-97734923D01*
X142124752Y-97725140D01*
X142036689Y-97546577D01*
X142036687Y-97546574D01*
X142034863Y-97542875D01*
X141915894Y-97364832D01*
X141838120Y-97276152D01*
X141833294Y-97270302D01*
X141832857Y-97269739D01*
X141828825Y-97262921D01*
X141812975Y-97247071D01*
X141807342Y-97241058D01*
X141802905Y-97235999D01*
X141796875Y-97228573D01*
X141788882Y-97217928D01*
X141784865Y-97212578D01*
X141781978Y-97209630D01*
X141778397Y-97205973D01*
X141778391Y-97205968D01*
X141775514Y-97203030D01*
X141751017Y-97183823D01*
X141739666Y-97173762D01*
X141453405Y-96887501D01*
X141419379Y-96825189D01*
X141416500Y-96798406D01*
X141416500Y-96162600D01*
X141416037Y-96158136D01*
X141406238Y-96063692D01*
X141406237Y-96063688D01*
X141405526Y-96056834D01*
X141403330Y-96050250D01*
X141351868Y-95896002D01*
X141349550Y-95889054D01*
X141256478Y-95738652D01*
X141131303Y-95613695D01*
X141125072Y-95609854D01*
X140986968Y-95524725D01*
X140986966Y-95524724D01*
X140980738Y-95520885D01*
X140900995Y-95494436D01*
X140819389Y-95467368D01*
X140819387Y-95467368D01*
X140812861Y-95465203D01*
X140806025Y-95464503D01*
X140806022Y-95464502D01*
X140762969Y-95460091D01*
X140708400Y-95454500D01*
X139707600Y-95454500D01*
X139704354Y-95454837D01*
X139704350Y-95454837D01*
X139608692Y-95464762D01*
X139608688Y-95464763D01*
X139601834Y-95465474D01*
X139595298Y-95467655D01*
X139595296Y-95467655D01*
X139480696Y-95505889D01*
X139434054Y-95521450D01*
X139283652Y-95614522D01*
X139278479Y-95619704D01*
X139274883Y-95622554D01*
X139209072Y-95649190D01*
X139139308Y-95636018D01*
X139107607Y-95612984D01*
X139099303Y-95604695D01*
X139093075Y-95600856D01*
X139093070Y-95600852D01*
X139037067Y-95566332D01*
X138989573Y-95513560D01*
X138978149Y-95443489D01*
X138994062Y-95396074D01*
X139010527Y-95367556D01*
X139069542Y-95185928D01*
X139070735Y-95174582D01*
X139088814Y-95002565D01*
X139089504Y-94996000D01*
X139076043Y-94867926D01*
X139070232Y-94812635D01*
X139070232Y-94812633D01*
X139069542Y-94806072D01*
X139010527Y-94624444D01*
X138998432Y-94603494D01*
X138945160Y-94511226D01*
X138915040Y-94459056D01*
X138865974Y-94404562D01*
X138791675Y-94322045D01*
X138791674Y-94322044D01*
X138787253Y-94317134D01*
X138656592Y-94222203D01*
X138638094Y-94208763D01*
X138638093Y-94208762D01*
X138632752Y-94204882D01*
X138626724Y-94202198D01*
X138626722Y-94202197D01*
X138464319Y-94129891D01*
X138464318Y-94129891D01*
X138458288Y-94127206D01*
X138364887Y-94107353D01*
X138277944Y-94088872D01*
X138277939Y-94088872D01*
X138271487Y-94087500D01*
X138080513Y-94087500D01*
X138074061Y-94088872D01*
X138074056Y-94088872D01*
X137987112Y-94107353D01*
X137893712Y-94127206D01*
X137887682Y-94129891D01*
X137887681Y-94129891D01*
X137725278Y-94202197D01*
X137725276Y-94202198D01*
X137719248Y-94204882D01*
X137713907Y-94208762D01*
X137713906Y-94208763D01*
X137626739Y-94272094D01*
X137564747Y-94317134D01*
X137560332Y-94322037D01*
X137555420Y-94326460D01*
X137554295Y-94325211D01*
X137500986Y-94358051D01*
X137467800Y-94362500D01*
X134221595Y-94362500D01*
X134153474Y-94342498D01*
X134132500Y-94325595D01*
X133998355Y-94191450D01*
X133964329Y-94129138D01*
X133969394Y-94058323D01*
X133978996Y-94038216D01*
X133994145Y-94012601D01*
X133996439Y-94004707D01*
X134020916Y-93920454D01*
X134040562Y-93852831D01*
X134042276Y-93831060D01*
X134043307Y-93817958D01*
X134043307Y-93817950D01*
X134043500Y-93815502D01*
X134043500Y-93382498D01*
X134040562Y-93345169D01*
X133994145Y-93185399D01*
X133909453Y-93042193D01*
X133906513Y-93039253D01*
X133881180Y-92974734D01*
X133895079Y-92905111D01*
X133907126Y-92886364D01*
X133913090Y-92878676D01*
X133989648Y-92749221D01*
X133995893Y-92734790D01*
X134034939Y-92600395D01*
X134034899Y-92586294D01*
X134027630Y-92583000D01*
X130998122Y-92583000D01*
X130984591Y-92586973D01*
X130983456Y-92594871D01*
X131024107Y-92734790D01*
X131030352Y-92749221D01*
X131106911Y-92878677D01*
X131112871Y-92886360D01*
X131138820Y-92952444D01*
X131124922Y-93022067D01*
X131114579Y-93038161D01*
X131110547Y-93042193D01*
X131025855Y-93185399D01*
X130979438Y-93345169D01*
X130976500Y-93382498D01*
X130976500Y-93815502D01*
X130976693Y-93817950D01*
X130976693Y-93817958D01*
X130977725Y-93831060D01*
X130979438Y-93852831D01*
X130999084Y-93920454D01*
X131023562Y-94004707D01*
X131025855Y-94012601D01*
X131029890Y-94019423D01*
X131029892Y-94019427D01*
X131106509Y-94148980D01*
X131106511Y-94148983D01*
X131110547Y-94155807D01*
X131228193Y-94273453D01*
X131235016Y-94277488D01*
X131235020Y-94277491D01*
X131307427Y-94320312D01*
X131371399Y-94358145D01*
X131379010Y-94360356D01*
X131379012Y-94360357D01*
X131419292Y-94372059D01*
X131531169Y-94404562D01*
X131537574Y-94405066D01*
X131537579Y-94405067D01*
X131566042Y-94407307D01*
X131566050Y-94407307D01*
X131568498Y-94407500D01*
X132224364Y-94407500D01*
X132292485Y-94427502D01*
X132338978Y-94481158D01*
X132349082Y-94551432D01*
X132319588Y-94616012D01*
X132275613Y-94648607D01*
X132255818Y-94657420D01*
X132137278Y-94710197D01*
X132137276Y-94710198D01*
X132131248Y-94712882D01*
X131976747Y-94825134D01*
X131972326Y-94830044D01*
X131972325Y-94830045D01*
X131959502Y-94844287D01*
X131848960Y-94967056D01*
X131845661Y-94972769D01*
X131845658Y-94972774D01*
X131775136Y-95094922D01*
X131723753Y-95143915D01*
X131654040Y-95157351D01*
X131588129Y-95130964D01*
X131576922Y-95121017D01*
X130776217Y-94320312D01*
X130765349Y-94307920D01*
X130753466Y-94292433D01*
X130753464Y-94292431D01*
X130748841Y-94286406D01*
X130742882Y-94281632D01*
X130721696Y-94259998D01*
X130692696Y-94222203D01*
X130676251Y-94193719D01*
X130652334Y-94135976D01*
X130643822Y-94104205D01*
X130638162Y-94061204D01*
X130637091Y-94043444D01*
X130637127Y-94040005D01*
X130638118Y-94032478D01*
X130636678Y-94019427D01*
X130634261Y-93997538D01*
X130633500Y-93983713D01*
X130633500Y-92678767D01*
X130634027Y-92667584D01*
X130635702Y-92660091D01*
X130633562Y-92592000D01*
X130633500Y-92588043D01*
X130633500Y-92560144D01*
X130632996Y-92556153D01*
X130632063Y-92544311D01*
X130631033Y-92511520D01*
X130630674Y-92500111D01*
X130628462Y-92492497D01*
X130628461Y-92492492D01*
X130625023Y-92480659D01*
X130621012Y-92461295D01*
X130619467Y-92449064D01*
X130618474Y-92441203D01*
X130615557Y-92433836D01*
X130615556Y-92433831D01*
X130602198Y-92400092D01*
X130598354Y-92388865D01*
X130588230Y-92354022D01*
X130586018Y-92346407D01*
X130575707Y-92328972D01*
X130567012Y-92311224D01*
X130559552Y-92292383D01*
X130533564Y-92256613D01*
X130527048Y-92246693D01*
X130508578Y-92215463D01*
X130504542Y-92208638D01*
X130498936Y-92203031D01*
X130490220Y-92194315D01*
X130477379Y-92179281D01*
X130470131Y-92169305D01*
X130470130Y-92169304D01*
X130465472Y-92162893D01*
X130431401Y-92134707D01*
X130422622Y-92126718D01*
X130421211Y-92125307D01*
X130387185Y-92062995D01*
X130392250Y-91992180D01*
X130401187Y-91973212D01*
X130415744Y-91948000D01*
X130766142Y-91341091D01*
X130817524Y-91292098D01*
X130887238Y-91278662D01*
X130953149Y-91305048D01*
X130996258Y-91368937D01*
X131024107Y-91464790D01*
X131030352Y-91479221D01*
X131106912Y-91608678D01*
X131113189Y-91616770D01*
X131139139Y-91682854D01*
X131125241Y-91752477D01*
X131113189Y-91771230D01*
X131106912Y-91779322D01*
X131030352Y-91908779D01*
X131024107Y-91923210D01*
X130985061Y-92057605D01*
X130985101Y-92071706D01*
X130992370Y-92075000D01*
X132237885Y-92075000D01*
X132253124Y-92070525D01*
X132254329Y-92069135D01*
X132256000Y-92061452D01*
X132256000Y-92056885D01*
X132764000Y-92056885D01*
X132768475Y-92072124D01*
X132769865Y-92073329D01*
X132777548Y-92075000D01*
X134021878Y-92075000D01*
X134035409Y-92071027D01*
X134036544Y-92063129D01*
X133995893Y-91923210D01*
X133989648Y-91908779D01*
X133913088Y-91779322D01*
X133906811Y-91771230D01*
X133880861Y-91705146D01*
X133894759Y-91635523D01*
X133906811Y-91616770D01*
X133913088Y-91608678D01*
X133989648Y-91479221D01*
X133995893Y-91464790D01*
X134034939Y-91330395D01*
X134034899Y-91316294D01*
X134027630Y-91313000D01*
X132782115Y-91313000D01*
X132766876Y-91317475D01*
X132765671Y-91318865D01*
X132764000Y-91326548D01*
X132764000Y-92056885D01*
X132256000Y-92056885D01*
X132256000Y-90931000D01*
X132276002Y-90862879D01*
X132329658Y-90816386D01*
X132382000Y-90805000D01*
X134021878Y-90805000D01*
X134035409Y-90801027D01*
X134036544Y-90793129D01*
X133995893Y-90653210D01*
X133989648Y-90638779D01*
X133913089Y-90509323D01*
X133907129Y-90501640D01*
X133881180Y-90435556D01*
X133895078Y-90365933D01*
X133905421Y-90349839D01*
X133909453Y-90345807D01*
X133994145Y-90202601D01*
X134009120Y-90151058D01*
X134022231Y-90105928D01*
X134040562Y-90042831D01*
X134043500Y-90005502D01*
X134043500Y-89572498D01*
X134043307Y-89570042D01*
X134041067Y-89541579D01*
X134041066Y-89541574D01*
X134040562Y-89535169D01*
X134000678Y-89397885D01*
X133996357Y-89383012D01*
X133996356Y-89383010D01*
X133994145Y-89375399D01*
X133909453Y-89232193D01*
X133906771Y-89229511D01*
X133881498Y-89165139D01*
X133895400Y-89095516D01*
X133905572Y-89079688D01*
X133909453Y-89075807D01*
X133994145Y-88932601D01*
X134040562Y-88772831D01*
X134042643Y-88746401D01*
X134043307Y-88737958D01*
X134043307Y-88737950D01*
X134043500Y-88735502D01*
X134043500Y-88302498D01*
X134040562Y-88265169D01*
X133994145Y-88105399D01*
X133909453Y-87962193D01*
X133906771Y-87959511D01*
X133881498Y-87895139D01*
X133895400Y-87825516D01*
X133905572Y-87809688D01*
X133909453Y-87805807D01*
X133994145Y-87662601D01*
X134040562Y-87502831D01*
X134041080Y-87496261D01*
X134043307Y-87467958D01*
X134043307Y-87467950D01*
X134043500Y-87465502D01*
X134043500Y-87032498D01*
X134043307Y-87030042D01*
X134041067Y-87001579D01*
X134041066Y-87001574D01*
X134040562Y-86995169D01*
X134001277Y-86859948D01*
X133996357Y-86843012D01*
X133996356Y-86843010D01*
X133994145Y-86835399D01*
X133909453Y-86692193D01*
X133906771Y-86689511D01*
X133881498Y-86625139D01*
X133895400Y-86555516D01*
X133905572Y-86539688D01*
X133909453Y-86535807D01*
X133994145Y-86392601D01*
X134002219Y-86364812D01*
X134022122Y-86296301D01*
X134040562Y-86232831D01*
X134041213Y-86224571D01*
X134043307Y-86197958D01*
X134043307Y-86197950D01*
X134043500Y-86195502D01*
X134043500Y-85762498D01*
X134042907Y-85754960D01*
X134041067Y-85731579D01*
X134041066Y-85731574D01*
X134040562Y-85725169D01*
X133994145Y-85565399D01*
X133909453Y-85422193D01*
X133906771Y-85419511D01*
X133881498Y-85355139D01*
X133895400Y-85285516D01*
X133905572Y-85269688D01*
X133909453Y-85265807D01*
X133994145Y-85122601D01*
X133999264Y-85104983D01*
X134017707Y-85041500D01*
X134040562Y-84962831D01*
X134043500Y-84925502D01*
X134043500Y-84492498D01*
X134040562Y-84455169D01*
X134011528Y-84355231D01*
X133996357Y-84303012D01*
X133996356Y-84303010D01*
X133994145Y-84295399D01*
X133909453Y-84152193D01*
X133906771Y-84149511D01*
X133881498Y-84085139D01*
X133895400Y-84015516D01*
X133905572Y-83999688D01*
X133909453Y-83995807D01*
X133994145Y-83852601D01*
X133998990Y-83835926D01*
X134017541Y-83772070D01*
X134040562Y-83692831D01*
X134041344Y-83682905D01*
X134043307Y-83657958D01*
X134043307Y-83657950D01*
X134043500Y-83655502D01*
X134043500Y-83222498D01*
X134042330Y-83207632D01*
X134041067Y-83191579D01*
X134041066Y-83191574D01*
X134040562Y-83185169D01*
X134006201Y-83066897D01*
X133996357Y-83033012D01*
X133996356Y-83033010D01*
X133994145Y-83025399D01*
X133961282Y-82969831D01*
X133943824Y-82901018D01*
X133966341Y-82833687D01*
X134021685Y-82789217D01*
X134045156Y-82782117D01*
X134205468Y-82750231D01*
X134408237Y-82681403D01*
X134411928Y-82679583D01*
X134596589Y-82588521D01*
X134596594Y-82588518D01*
X134600287Y-82586697D01*
X134604764Y-82583706D01*
X134667143Y-82542026D01*
X134778332Y-82467734D01*
X134784919Y-82461958D01*
X134867141Y-82389853D01*
X134872988Y-82385029D01*
X134873433Y-82384684D01*
X134880255Y-82380649D01*
X134895992Y-82364912D01*
X134902009Y-82359276D01*
X134907277Y-82354656D01*
X134914702Y-82348627D01*
X134927284Y-82339180D01*
X134930582Y-82336704D01*
X134940131Y-82327354D01*
X134942675Y-82324110D01*
X134942680Y-82324104D01*
X134959352Y-82302842D01*
X134969410Y-82291494D01*
X135363299Y-81897605D01*
X140285061Y-81897605D01*
X140285101Y-81911706D01*
X140292370Y-81915000D01*
X141537885Y-81915000D01*
X141553124Y-81910525D01*
X141554329Y-81909135D01*
X141556000Y-81901452D01*
X141556000Y-81379116D01*
X141551525Y-81363877D01*
X141550135Y-81362672D01*
X141542452Y-81361001D01*
X140871017Y-81361001D01*
X140866080Y-81361195D01*
X140837664Y-81363430D01*
X140825069Y-81365730D01*
X140679210Y-81408107D01*
X140664779Y-81414352D01*
X140535322Y-81490911D01*
X140522896Y-81500551D01*
X140416551Y-81606896D01*
X140406911Y-81619322D01*
X140330352Y-81748779D01*
X140324107Y-81763210D01*
X140285061Y-81897605D01*
X135363299Y-81897605D01*
X135726499Y-81534405D01*
X135788811Y-81500379D01*
X135815594Y-81497500D01*
X136488900Y-81497500D01*
X136492146Y-81497163D01*
X136492150Y-81497163D01*
X136587808Y-81487238D01*
X136587812Y-81487237D01*
X136594666Y-81486526D01*
X136601202Y-81484345D01*
X136601204Y-81484345D01*
X136755498Y-81432868D01*
X136762446Y-81430550D01*
X136912848Y-81337478D01*
X137037805Y-81212303D01*
X137040602Y-81207765D01*
X137097853Y-81167176D01*
X137168776Y-81163946D01*
X137230187Y-81199572D01*
X137237562Y-81208068D01*
X137245598Y-81218207D01*
X137360329Y-81332739D01*
X137371740Y-81341751D01*
X137509743Y-81426816D01*
X137522924Y-81432963D01*
X137677210Y-81484138D01*
X137690586Y-81487005D01*
X137784938Y-81496672D01*
X137791354Y-81497000D01*
X137903885Y-81497000D01*
X137919124Y-81492525D01*
X137920329Y-81491135D01*
X137922000Y-81483452D01*
X137922000Y-81478884D01*
X138430000Y-81478884D01*
X138434475Y-81494123D01*
X138435865Y-81495328D01*
X138443548Y-81496999D01*
X138560595Y-81496999D01*
X138567114Y-81496662D01*
X138662706Y-81486743D01*
X138676100Y-81483851D01*
X138830284Y-81432412D01*
X138843462Y-81426239D01*
X138981307Y-81340937D01*
X138992708Y-81331901D01*
X139107239Y-81217171D01*
X139116251Y-81205760D01*
X139201316Y-81067757D01*
X139207463Y-81054576D01*
X139258638Y-80900290D01*
X139261505Y-80886914D01*
X139271172Y-80792562D01*
X139271500Y-80786146D01*
X139271500Y-80536115D01*
X139267025Y-80520876D01*
X139265635Y-80519671D01*
X139257952Y-80518000D01*
X138448115Y-80518000D01*
X138432876Y-80522475D01*
X138431671Y-80523865D01*
X138430000Y-80531548D01*
X138430000Y-81478884D01*
X137922000Y-81478884D01*
X137922000Y-80136000D01*
X137942002Y-80067879D01*
X137995658Y-80021386D01*
X138048000Y-80010000D01*
X139253384Y-80010000D01*
X139268623Y-80005525D01*
X139269828Y-80004135D01*
X139271499Y-79996452D01*
X139271499Y-79741905D01*
X139271162Y-79735386D01*
X139261243Y-79639794D01*
X139258351Y-79626400D01*
X139208168Y-79475982D01*
X139205584Y-79405032D01*
X139241768Y-79343949D01*
X139305232Y-79312124D01*
X139352810Y-79312635D01*
X139538597Y-79350434D01*
X139543772Y-79350624D01*
X139543774Y-79350624D01*
X139756673Y-79358431D01*
X139756677Y-79358431D01*
X139761837Y-79358620D01*
X139766957Y-79357964D01*
X139766959Y-79357964D01*
X139978288Y-79330892D01*
X139978289Y-79330892D01*
X139983416Y-79330235D01*
X140033387Y-79315243D01*
X140192429Y-79267528D01*
X140192434Y-79267526D01*
X140197384Y-79266041D01*
X140297698Y-79216897D01*
X140367669Y-79204891D01*
X140433026Y-79232621D01*
G37*
G04 #@! TD.AperFunction*
G04 #@! TA.AperFunction,Conductor*
G36*
X135039924Y-74313502D02*
G01*
X135086417Y-74367158D01*
X135091326Y-74379623D01*
X135105787Y-74422966D01*
X135109450Y-74433946D01*
X135202522Y-74584348D01*
X135327697Y-74709305D01*
X135333927Y-74713145D01*
X135333928Y-74713146D01*
X135471090Y-74797694D01*
X135478262Y-74802115D01*
X135544569Y-74824108D01*
X135639611Y-74855632D01*
X135639613Y-74855632D01*
X135646139Y-74857797D01*
X135652975Y-74858497D01*
X135652978Y-74858498D01*
X135696031Y-74862909D01*
X135750600Y-74868500D01*
X136386406Y-74868500D01*
X136454527Y-74888502D01*
X136475501Y-74905405D01*
X137886974Y-76316878D01*
X137898638Y-76330319D01*
X137912518Y-76348805D01*
X137921869Y-76358354D01*
X137935555Y-76369085D01*
X137940869Y-76373492D01*
X138083674Y-76498726D01*
X138261718Y-76617688D01*
X138265427Y-76619517D01*
X138431956Y-76701638D01*
X138453767Y-76712394D01*
X138656534Y-76781221D01*
X138660576Y-76782025D01*
X138660580Y-76782026D01*
X138705443Y-76790949D01*
X138768353Y-76823855D01*
X138803485Y-76885550D01*
X138799686Y-76956445D01*
X138771958Y-77001577D01*
X138640629Y-77139005D01*
X138534947Y-77293930D01*
X138532898Y-77296933D01*
X138477987Y-77341936D01*
X138407462Y-77350107D01*
X138343715Y-77318853D01*
X138323018Y-77294369D01*
X138242426Y-77169793D01*
X138236136Y-77161624D01*
X138092806Y-77004107D01*
X138085273Y-76997082D01*
X137918139Y-76865089D01*
X137909552Y-76859384D01*
X137723117Y-76756466D01*
X137713705Y-76752236D01*
X137512959Y-76681147D01*
X137502988Y-76678513D01*
X137431837Y-76665839D01*
X137418540Y-76667299D01*
X137414000Y-76681856D01*
X137414000Y-78124867D01*
X137393998Y-78192988D01*
X137340342Y-78239481D01*
X137288000Y-78250867D01*
X137032000Y-78250867D01*
X136963879Y-78230865D01*
X136917386Y-78177209D01*
X136906000Y-78124867D01*
X136906000Y-76679969D01*
X136902082Y-76666625D01*
X136887806Y-76664638D01*
X136849324Y-76670527D01*
X136839288Y-76672918D01*
X136636868Y-76739079D01*
X136627359Y-76743076D01*
X136438463Y-76841409D01*
X136429738Y-76846903D01*
X136259433Y-76974772D01*
X136251726Y-76981615D01*
X136174478Y-77062451D01*
X136112954Y-77097881D01*
X136042042Y-77094424D01*
X135984255Y-77053178D01*
X135965402Y-77019630D01*
X135923767Y-76908570D01*
X135920615Y-76900162D01*
X135833261Y-76783606D01*
X135716705Y-76696252D01*
X135580316Y-76645122D01*
X135518134Y-76638367D01*
X133721866Y-76638367D01*
X133659684Y-76645122D01*
X133523295Y-76696252D01*
X133406739Y-76783606D01*
X133319385Y-76900162D01*
X133268255Y-77036551D01*
X133261500Y-77098733D01*
X133261500Y-78895001D01*
X133268255Y-78957183D01*
X133319385Y-79093572D01*
X133406739Y-79210128D01*
X133523295Y-79297482D01*
X133659684Y-79348612D01*
X133721866Y-79355367D01*
X134933625Y-79355367D01*
X135001746Y-79375369D01*
X135048239Y-79429025D01*
X135058343Y-79499299D01*
X135053218Y-79521034D01*
X135032128Y-79584620D01*
X135015703Y-79634139D01*
X135005000Y-79738600D01*
X135005000Y-80411905D01*
X134984998Y-80480026D01*
X134968095Y-80501001D01*
X134076307Y-81392788D01*
X134063916Y-81403655D01*
X134042406Y-81420159D01*
X134037632Y-81426118D01*
X134015998Y-81447304D01*
X133978203Y-81476304D01*
X133949717Y-81492749D01*
X133911822Y-81508445D01*
X133841233Y-81516034D01*
X133792057Y-81494125D01*
X133791807Y-81494547D01*
X133788148Y-81492383D01*
X133774557Y-81484345D01*
X133676044Y-81426085D01*
X133648601Y-81409855D01*
X133640990Y-81407644D01*
X133640988Y-81407643D01*
X133588769Y-81392472D01*
X133488831Y-81363438D01*
X133482426Y-81362934D01*
X133482421Y-81362933D01*
X133453958Y-81360693D01*
X133453950Y-81360693D01*
X133451502Y-81360500D01*
X131568498Y-81360500D01*
X131566050Y-81360693D01*
X131566042Y-81360693D01*
X131537579Y-81362933D01*
X131537574Y-81362934D01*
X131531169Y-81363438D01*
X131431231Y-81392472D01*
X131379012Y-81407643D01*
X131379010Y-81407644D01*
X131371399Y-81409855D01*
X131346636Y-81424500D01*
X131277823Y-81441958D01*
X131210492Y-81419441D01*
X131166022Y-81364097D01*
X131156500Y-81316045D01*
X131156500Y-81287600D01*
X131155611Y-81279033D01*
X131146238Y-81188692D01*
X131146237Y-81188688D01*
X131145526Y-81181834D01*
X131138673Y-81161291D01*
X131091868Y-81021002D01*
X131089550Y-81014054D01*
X130996478Y-80863652D01*
X130871303Y-80738695D01*
X130865072Y-80734854D01*
X130726968Y-80649725D01*
X130726966Y-80649724D01*
X130720738Y-80645885D01*
X130640995Y-80619436D01*
X130559389Y-80592368D01*
X130559387Y-80592368D01*
X130552861Y-80590203D01*
X130546025Y-80589503D01*
X130546022Y-80589502D01*
X130502969Y-80585091D01*
X130448400Y-80579500D01*
X129647600Y-80579500D01*
X129644354Y-80579837D01*
X129644350Y-80579837D01*
X129548692Y-80589762D01*
X129548688Y-80589763D01*
X129541834Y-80590474D01*
X129535298Y-80592655D01*
X129535296Y-80592655D01*
X129439417Y-80624643D01*
X129374054Y-80646450D01*
X129223652Y-80739522D01*
X129174087Y-80789174D01*
X129137216Y-80826109D01*
X129074934Y-80860188D01*
X129004114Y-80855185D01*
X128959025Y-80826264D01*
X128876480Y-80743863D01*
X128871303Y-80738695D01*
X128865076Y-80734857D01*
X128865074Y-80734855D01*
X128837708Y-80717986D01*
X128790215Y-80665213D01*
X128777824Y-80610726D01*
X128777824Y-77887944D01*
X128797826Y-77819823D01*
X128851482Y-77773330D01*
X128928402Y-77764364D01*
X128978000Y-77774228D01*
X129009576Y-77780508D01*
X129127315Y-77788221D01*
X129134829Y-77788942D01*
X129135522Y-77789030D01*
X129143201Y-77791001D01*
X129165625Y-77791001D01*
X129173867Y-77791271D01*
X129180594Y-77791712D01*
X129190102Y-77792699D01*
X129205797Y-77794932D01*
X129209887Y-77795514D01*
X129216191Y-77795580D01*
X129219119Y-77795611D01*
X129219123Y-77795611D01*
X129223251Y-77795654D01*
X129247663Y-77792699D01*
X129254149Y-77791914D01*
X129269290Y-77791001D01*
X130146280Y-77791001D01*
X130164036Y-77792258D01*
X130182833Y-77794934D01*
X130182840Y-77794935D01*
X130186911Y-77795514D01*
X130193327Y-77795581D01*
X130196149Y-77795611D01*
X130196152Y-77795611D01*
X130200275Y-77795654D01*
X130207192Y-77794817D01*
X130217545Y-77793565D01*
X130224439Y-77792923D01*
X130409833Y-77780774D01*
X130409837Y-77780773D01*
X130413949Y-77780504D01*
X130417988Y-77779701D01*
X130417993Y-77779700D01*
X130619921Y-77739537D01*
X130619925Y-77739536D01*
X130623967Y-77738732D01*
X130766197Y-77690454D01*
X130822838Y-77671228D01*
X130822841Y-77671227D01*
X130826735Y-77669905D01*
X130861134Y-77652942D01*
X130927724Y-77620104D01*
X131018785Y-77575199D01*
X131034035Y-77565010D01*
X131115608Y-77510506D01*
X131196831Y-77456236D01*
X131285648Y-77378347D01*
X131291496Y-77373523D01*
X131291934Y-77373184D01*
X131298754Y-77369150D01*
X131314496Y-77353408D01*
X131320506Y-77347778D01*
X131321505Y-77346902D01*
X131325774Y-77343158D01*
X131333192Y-77337135D01*
X131349080Y-77325206D01*
X131352023Y-77322324D01*
X131352030Y-77322318D01*
X131355685Y-77318738D01*
X131358629Y-77315855D01*
X131377849Y-77291343D01*
X131387901Y-77280003D01*
X134231688Y-74436217D01*
X134244080Y-74425349D01*
X134259567Y-74413466D01*
X134259569Y-74413464D01*
X134265594Y-74408841D01*
X134270368Y-74402882D01*
X134292002Y-74381696D01*
X134329797Y-74352696D01*
X134358278Y-74336253D01*
X134416024Y-74312334D01*
X134447795Y-74303822D01*
X134490796Y-74298162D01*
X134508556Y-74297091D01*
X134511995Y-74297127D01*
X134519522Y-74298118D01*
X134527068Y-74297285D01*
X134527072Y-74297285D01*
X134554462Y-74294261D01*
X134568287Y-74293500D01*
X134971803Y-74293500D01*
X135039924Y-74313502D01*
G37*
G04 #@! TD.AperFunction*
M02*
