G04 #@! TF.GenerationSoftware,KiCad,Pcbnew,6.0.9-8da3e8f707~116~ubuntu22.04.1*
G04 #@! TF.CreationDate,2022-11-08T11:27:41+01:00*
G04 #@! TF.ProjectId,PCB-Horloge,5043422d-486f-4726-9c6f-67652e6b6963,1.0*
G04 #@! TF.SameCoordinates,Original*
G04 #@! TF.FileFunction,Legend,Bot*
G04 #@! TF.FilePolarity,Positive*
%FSLAX46Y46*%
G04 Gerber Fmt 4.6, Leading zero omitted, Abs format (unit mm)*
G04 Created by KiCad (PCBNEW 6.0.9-8da3e8f707~116~ubuntu22.04.1) date 2022-11-08 11:27:41*
%MOMM*%
%LPD*%
G01*
G04 APERTURE LIST*
G04 Aperture macros list*
%AMRoundRect*
0 Rectangle with rounded corners*
0 $1 Rounding radius*
0 $2 $3 $4 $5 $6 $7 $8 $9 X,Y pos of 4 corners*
0 Add a 4 corners polygon primitive as box body*
4,1,4,$2,$3,$4,$5,$6,$7,$8,$9,$2,$3,0*
0 Add four circle primitives for the rounded corners*
1,1,$1+$1,$2,$3*
1,1,$1+$1,$4,$5*
1,1,$1+$1,$6,$7*
1,1,$1+$1,$8,$9*
0 Add four rect primitives between the rounded corners*
20,1,$1+$1,$2,$3,$4,$5,0*
20,1,$1+$1,$4,$5,$6,$7,0*
20,1,$1+$1,$6,$7,$8,$9,0*
20,1,$1+$1,$8,$9,$2,$3,0*%
G04 Aperture macros list end*
%ADD10C,0.150000*%
%ADD11C,0.100000*%
%ADD12C,0.120000*%
%ADD13C,0.127000*%
%ADD14C,0.200000*%
%ADD15C,0.254000*%
%ADD16R,1.700000X1.700000*%
%ADD17O,1.700000X1.700000*%
%ADD18C,2.100000*%
%ADD19RoundRect,0.250000X-0.475000X0.337500X-0.475000X-0.337500X0.475000X-0.337500X0.475000X0.337500X0*%
%ADD20RoundRect,0.250000X0.337500X0.475000X-0.337500X0.475000X-0.337500X-0.475000X0.337500X-0.475000X0*%
%ADD21R,3.000000X1.600000*%
%ADD22R,0.650000X1.560000*%
%ADD23R,1.550000X0.700000*%
%ADD24R,3.000000X3.600000*%
%ADD25R,3.000000X2.600000*%
%ADD26RoundRect,0.250000X0.350000X0.450000X-0.350000X0.450000X-0.350000X-0.450000X0.350000X-0.450000X0*%
%ADD27RoundRect,0.250000X-0.337500X-0.475000X0.337500X-0.475000X0.337500X0.475000X-0.337500X0.475000X0*%
%ADD28RoundRect,0.250000X0.475000X-0.337500X0.475000X0.337500X-0.475000X0.337500X-0.475000X-0.337500X0*%
%ADD29R,1.800000X1.000000*%
G04 APERTURE END LIST*
D10*
X156909747Y-89861068D02*
X157616853Y-89153961D01*
X157448495Y-88985602D01*
X157313808Y-88918259D01*
X157179121Y-88918259D01*
X157078105Y-88951930D01*
X156909747Y-89052946D01*
X156808731Y-89153961D01*
X156707716Y-89322320D01*
X156674044Y-89423335D01*
X156674044Y-89558022D01*
X156741388Y-89692709D01*
X156909747Y-89861068D01*
X155899594Y-88850915D02*
X156269983Y-88480526D01*
X156370998Y-88446854D01*
X156472014Y-88480526D01*
X156606701Y-88615213D01*
X156640372Y-88716228D01*
X155933266Y-88817243D02*
X155966937Y-88918259D01*
X156135296Y-89086617D01*
X156236311Y-89120289D01*
X156337327Y-89086617D01*
X156404670Y-89019274D01*
X156438342Y-88918259D01*
X156404670Y-88817243D01*
X156236311Y-88648885D01*
X156202640Y-88547869D01*
X155259831Y-88211152D02*
X155630220Y-87840763D01*
X155731235Y-87807091D01*
X155832250Y-87840763D01*
X155966937Y-87975450D01*
X156000609Y-88076465D01*
X155293502Y-88177480D02*
X155327174Y-88278495D01*
X155495533Y-88446854D01*
X155596548Y-88480526D01*
X155697563Y-88446854D01*
X155764907Y-88379511D01*
X155798579Y-88278495D01*
X155764907Y-88177480D01*
X155596548Y-88009121D01*
X155562876Y-87908106D01*
X155394518Y-87403030D02*
X154923113Y-87874434D01*
X155327174Y-87470373D02*
X155327174Y-87403030D01*
X155293502Y-87302015D01*
X155192487Y-87200999D01*
X155091472Y-87167328D01*
X154990457Y-87200999D01*
X154620067Y-87571389D01*
X153744602Y-86695923D02*
X154451709Y-85988816D01*
X154283350Y-85820458D01*
X154148663Y-85753114D01*
X154013976Y-85753114D01*
X153912961Y-85786786D01*
X153744602Y-85887801D01*
X153643587Y-85988816D01*
X153542571Y-86157175D01*
X153508900Y-86258190D01*
X153508900Y-86392877D01*
X153576243Y-86527564D01*
X153744602Y-86695923D01*
X152801793Y-85685771D02*
X152835465Y-85786786D01*
X152970152Y-85921473D01*
X153071167Y-85955145D01*
X153172182Y-85921473D01*
X153441556Y-85652099D01*
X153475228Y-85551084D01*
X153441556Y-85450068D01*
X153306869Y-85315381D01*
X153205854Y-85281710D01*
X153104839Y-85315381D01*
X153037495Y-85382725D01*
X153306869Y-85786786D01*
X152431404Y-85382725D02*
X153138510Y-84675618D01*
X152633434Y-85046007D02*
X152162030Y-85113351D01*
X152633434Y-84641946D02*
X152633434Y-85180694D01*
X151757969Y-84709290D02*
X151858984Y-84742962D01*
X151926327Y-84742962D01*
X152027343Y-84709290D01*
X152229373Y-84507259D01*
X152263045Y-84406244D01*
X152263045Y-84338901D01*
X152229373Y-84237885D01*
X152128358Y-84136870D01*
X152027343Y-84103198D01*
X151959999Y-84103198D01*
X151858984Y-84136870D01*
X151656953Y-84338901D01*
X151623282Y-84439916D01*
X151623282Y-84507259D01*
X151656953Y-84608275D01*
X151757969Y-84709290D01*
X151690625Y-83699137D02*
X151219221Y-84170542D01*
X151623282Y-83766481D02*
X151623282Y-83699137D01*
X151589610Y-83598122D01*
X151488595Y-83497107D01*
X151387579Y-83463435D01*
X151286564Y-83497107D01*
X150916175Y-83867496D01*
X150579457Y-83530779D02*
X151050862Y-83059374D01*
X151286564Y-82823672D02*
X151286564Y-82891015D01*
X151219221Y-82891015D01*
X151219221Y-82823672D01*
X151286564Y-82823672D01*
X151219221Y-82891015D01*
X150714144Y-82722656D02*
X150242740Y-83194061D01*
X150646801Y-82790000D02*
X150646801Y-82722656D01*
X150613129Y-82621641D01*
X150512114Y-82520626D01*
X150411098Y-82486954D01*
X150310083Y-82520626D01*
X149939694Y-82891015D01*
X149771335Y-81779847D02*
X149198915Y-82352267D01*
X149165244Y-82453282D01*
X149165244Y-82520626D01*
X149198915Y-82621641D01*
X149299931Y-82722656D01*
X149400946Y-82756328D01*
X149333602Y-82217580D02*
X149367274Y-82318595D01*
X149501961Y-82453282D01*
X149602976Y-82486954D01*
X149670320Y-82486954D01*
X149771335Y-82453282D01*
X149973366Y-82251252D01*
X150007037Y-82150237D01*
X150007037Y-82082893D01*
X149973366Y-81981878D01*
X149838679Y-81847191D01*
X149737663Y-81813519D01*
X148424465Y-81375786D02*
X149131572Y-80668680D01*
X148020404Y-80971725D02*
X148727511Y-80870710D01*
X148727511Y-80264619D02*
X148727511Y-81072741D01*
X147717358Y-80668680D02*
X148188763Y-80197275D01*
X148054076Y-80331962D02*
X148087748Y-80230947D01*
X148087748Y-80163603D01*
X148054076Y-80062588D01*
X147986732Y-79995245D01*
X147043923Y-79927901D02*
X147077595Y-80028916D01*
X147212282Y-80163603D01*
X147313297Y-80197275D01*
X147414313Y-80163603D01*
X147683687Y-79894229D01*
X147717358Y-79793214D01*
X147683687Y-79692199D01*
X147549000Y-79557512D01*
X147447984Y-79523840D01*
X147346969Y-79557512D01*
X147279626Y-79624855D01*
X147549000Y-80028916D01*
X146673534Y-79624855D02*
X147380641Y-78917749D01*
X146875565Y-79288138D02*
X146404160Y-79355481D01*
X146875565Y-78884077D02*
X146875565Y-79422825D01*
X145865412Y-78749390D02*
X145899084Y-78850405D01*
X146033771Y-78985092D01*
X146134786Y-79018764D01*
X146235801Y-78985092D01*
X146505175Y-78715718D01*
X146538847Y-78614703D01*
X146505175Y-78513688D01*
X146370488Y-78379001D01*
X146269473Y-78345329D01*
X146168458Y-78379001D01*
X146101114Y-78446344D01*
X146370488Y-78850405D01*
X145394007Y-78345329D02*
X145495023Y-78379001D01*
X145596038Y-78345329D01*
X146202130Y-77739237D01*
X145191977Y-78075955D02*
X145090962Y-78042283D01*
X144956275Y-77907596D01*
X144922603Y-77806581D01*
X144956275Y-77705565D01*
X144989946Y-77671894D01*
X145090962Y-77638222D01*
X145191977Y-77671894D01*
X145292992Y-77772909D01*
X145394007Y-77806581D01*
X145495023Y-77772909D01*
X145528694Y-77739237D01*
X145562366Y-77638222D01*
X145528694Y-77537207D01*
X145427679Y-77436191D01*
X145326664Y-77402520D01*
X153565805Y-87379796D02*
X153128072Y-86942064D01*
X153094400Y-87447140D01*
X152993385Y-87346125D01*
X152892370Y-87312453D01*
X152825026Y-87312453D01*
X152724011Y-87346125D01*
X152555652Y-87514484D01*
X152521980Y-87615499D01*
X152521980Y-87682842D01*
X152555652Y-87783858D01*
X152757683Y-87985888D01*
X152858698Y-88019560D01*
X152926042Y-88019560D01*
X152117919Y-87346125D02*
X152825026Y-86639018D01*
X152589324Y-86403316D02*
X152185263Y-85999255D01*
X151680187Y-86908392D02*
X152387293Y-86201285D01*
X151242454Y-86470659D02*
X151949561Y-85763552D01*
X151478156Y-85292148D02*
X151343469Y-85157461D01*
X151242454Y-85123789D01*
X151107767Y-85123789D01*
X150939408Y-85224804D01*
X150703706Y-85460507D01*
X150602691Y-85628865D01*
X150602691Y-85763552D01*
X150636362Y-85864568D01*
X150771049Y-85999255D01*
X150872065Y-86032926D01*
X151006752Y-86032926D01*
X151175110Y-85931911D01*
X151410813Y-85696209D01*
X151511828Y-85527850D01*
X151511828Y-85393163D01*
X151478156Y-85292148D01*
X150973080Y-84787072D02*
X150569019Y-84383011D01*
X150063943Y-85292148D02*
X150771049Y-84585041D01*
X149760897Y-83709576D02*
X149760897Y-83642232D01*
X149727225Y-83541217D01*
X149558866Y-83372858D01*
X149457851Y-83339186D01*
X149390508Y-83339186D01*
X149289492Y-83372858D01*
X149222149Y-83440202D01*
X149154805Y-83574889D01*
X149154805Y-84383011D01*
X148717073Y-83945278D01*
X148986447Y-82800438D02*
X148919103Y-82733095D01*
X148818088Y-82699423D01*
X148750744Y-82699423D01*
X148649729Y-82733095D01*
X148481370Y-82834110D01*
X148313012Y-83002469D01*
X148211996Y-83170828D01*
X148178325Y-83271843D01*
X148178325Y-83339186D01*
X148211996Y-83440202D01*
X148279340Y-83507545D01*
X148380355Y-83541217D01*
X148447699Y-83541217D01*
X148548714Y-83507545D01*
X148717073Y-83406530D01*
X148885431Y-83238171D01*
X148986447Y-83069812D01*
X149020118Y-82968797D01*
X149020118Y-82901454D01*
X148986447Y-82800438D01*
X148414027Y-82362706D02*
X148414027Y-82295362D01*
X148380355Y-82194347D01*
X148211996Y-82025988D01*
X148110981Y-81992316D01*
X148043638Y-81992316D01*
X147942622Y-82025988D01*
X147875279Y-82093332D01*
X147807935Y-82228019D01*
X147807935Y-83036141D01*
X147370203Y-82598408D01*
X147740592Y-81689270D02*
X147740592Y-81621927D01*
X147706920Y-81520912D01*
X147538561Y-81352553D01*
X147437546Y-81318881D01*
X147370203Y-81318881D01*
X147269187Y-81352553D01*
X147201844Y-81419896D01*
X147134500Y-81554583D01*
X147134500Y-82362706D01*
X146696767Y-81924973D01*
D11*
X132610571Y-74592666D02*
X132634380Y-74568857D01*
X132658190Y-74497428D01*
X132658190Y-74449809D01*
X132634380Y-74378380D01*
X132586761Y-74330761D01*
X132539142Y-74306952D01*
X132443904Y-74283142D01*
X132372476Y-74283142D01*
X132277238Y-74306952D01*
X132229619Y-74330761D01*
X132182000Y-74378380D01*
X132158190Y-74449809D01*
X132158190Y-74497428D01*
X132182000Y-74568857D01*
X132205809Y-74592666D01*
X132158190Y-74759333D02*
X132158190Y-75068857D01*
X132348666Y-74902190D01*
X132348666Y-74973619D01*
X132372476Y-75021238D01*
X132396285Y-75045047D01*
X132443904Y-75068857D01*
X132562952Y-75068857D01*
X132610571Y-75045047D01*
X132634380Y-75021238D01*
X132658190Y-74973619D01*
X132658190Y-74830761D01*
X132634380Y-74783142D01*
X132610571Y-74759333D01*
X138767333Y-110541571D02*
X138791142Y-110565380D01*
X138862571Y-110589190D01*
X138910190Y-110589190D01*
X138981619Y-110565380D01*
X139029238Y-110517761D01*
X139053047Y-110470142D01*
X139076857Y-110374904D01*
X139076857Y-110303476D01*
X139053047Y-110208238D01*
X139029238Y-110160619D01*
X138981619Y-110113000D01*
X138910190Y-110089190D01*
X138862571Y-110089190D01*
X138791142Y-110113000D01*
X138767333Y-110136809D01*
X138576857Y-110136809D02*
X138553047Y-110113000D01*
X138505428Y-110089190D01*
X138386380Y-110089190D01*
X138338761Y-110113000D01*
X138314952Y-110136809D01*
X138291142Y-110184428D01*
X138291142Y-110232047D01*
X138314952Y-110303476D01*
X138600666Y-110589190D01*
X138291142Y-110589190D01*
D10*
X145639523Y-74893333D02*
X145639523Y-74588571D01*
X144999523Y-74588571D01*
X145639523Y-75441904D02*
X145639523Y-75076190D01*
X145639523Y-75259047D02*
X144999523Y-75259047D01*
X145090952Y-75198095D01*
X145151904Y-75137142D01*
X145182380Y-75076190D01*
D11*
X134694134Y-71166513D02*
X134694134Y-71571275D01*
X134670324Y-71618894D01*
X134646515Y-71642703D01*
X134598896Y-71666513D01*
X134503658Y-71666513D01*
X134456039Y-71642703D01*
X134432229Y-71618894D01*
X134408420Y-71571275D01*
X134408420Y-71166513D01*
X134194134Y-71214132D02*
X134170324Y-71190323D01*
X134122705Y-71166513D01*
X134003658Y-71166513D01*
X133956039Y-71190323D01*
X133932229Y-71214132D01*
X133908420Y-71261751D01*
X133908420Y-71309370D01*
X133932229Y-71380799D01*
X134217943Y-71666513D01*
X133908420Y-71666513D01*
X137540952Y-104608190D02*
X137540952Y-105012952D01*
X137517142Y-105060571D01*
X137493333Y-105084380D01*
X137445714Y-105108190D01*
X137350476Y-105108190D01*
X137302857Y-105084380D01*
X137279047Y-105060571D01*
X137255238Y-105012952D01*
X137255238Y-104608190D01*
X136755238Y-105108190D02*
X137040952Y-105108190D01*
X136898095Y-105108190D02*
X136898095Y-104608190D01*
X136945714Y-104679619D01*
X136993333Y-104727238D01*
X137040952Y-104751047D01*
X136960285Y-92697857D02*
X136984095Y-92769285D01*
X137007904Y-92793095D01*
X137055523Y-92816904D01*
X137126952Y-92816904D01*
X137174571Y-92793095D01*
X137198380Y-92769285D01*
X137222190Y-92721666D01*
X137222190Y-92531190D01*
X136722190Y-92531190D01*
X136722190Y-92697857D01*
X136746000Y-92745476D01*
X136769809Y-92769285D01*
X136817428Y-92793095D01*
X136865047Y-92793095D01*
X136912666Y-92769285D01*
X136936476Y-92745476D01*
X136960285Y-92697857D01*
X136960285Y-92531190D01*
X137079333Y-93007380D02*
X137079333Y-93245476D01*
X137222190Y-92959761D02*
X136722190Y-93126428D01*
X137222190Y-93293095D01*
X136722190Y-93388333D02*
X136722190Y-93674047D01*
X137222190Y-93531190D02*
X136722190Y-93531190D01*
X137222190Y-94102619D02*
X137222190Y-93816904D01*
X137222190Y-93959761D02*
X136722190Y-93959761D01*
X136793619Y-93912142D01*
X136841238Y-93864523D01*
X136865047Y-93816904D01*
X147784333Y-103350190D02*
X147951000Y-103112095D01*
X148070047Y-103350190D02*
X148070047Y-102850190D01*
X147879571Y-102850190D01*
X147831952Y-102874000D01*
X147808142Y-102897809D01*
X147784333Y-102945428D01*
X147784333Y-103016857D01*
X147808142Y-103064476D01*
X147831952Y-103088285D01*
X147879571Y-103112095D01*
X148070047Y-103112095D01*
X147593857Y-102897809D02*
X147570047Y-102874000D01*
X147522428Y-102850190D01*
X147403380Y-102850190D01*
X147355761Y-102874000D01*
X147331952Y-102897809D01*
X147308142Y-102945428D01*
X147308142Y-102993047D01*
X147331952Y-103064476D01*
X147617666Y-103350190D01*
X147308142Y-103350190D01*
X147784333Y-105382190D02*
X147951000Y-105144095D01*
X148070047Y-105382190D02*
X148070047Y-104882190D01*
X147879571Y-104882190D01*
X147831952Y-104906000D01*
X147808142Y-104929809D01*
X147784333Y-104977428D01*
X147784333Y-105048857D01*
X147808142Y-105096476D01*
X147831952Y-105120285D01*
X147879571Y-105144095D01*
X148070047Y-105144095D01*
X147308142Y-105382190D02*
X147593857Y-105382190D01*
X147451000Y-105382190D02*
X147451000Y-104882190D01*
X147498619Y-104953619D01*
X147546238Y-105001238D01*
X147593857Y-105025047D01*
X133306333Y-84760571D02*
X133330142Y-84784380D01*
X133401571Y-84808190D01*
X133449190Y-84808190D01*
X133520619Y-84784380D01*
X133568238Y-84736761D01*
X133592047Y-84689142D01*
X133615857Y-84593904D01*
X133615857Y-84522476D01*
X133592047Y-84427238D01*
X133568238Y-84379619D01*
X133520619Y-84332000D01*
X133449190Y-84308190D01*
X133401571Y-84308190D01*
X133330142Y-84332000D01*
X133306333Y-84355809D01*
X132853952Y-84308190D02*
X133092047Y-84308190D01*
X133115857Y-84546285D01*
X133092047Y-84522476D01*
X133044428Y-84498666D01*
X132925380Y-84498666D01*
X132877761Y-84522476D01*
X132853952Y-84546285D01*
X132830142Y-84593904D01*
X132830142Y-84712952D01*
X132853952Y-84760571D01*
X132877761Y-84784380D01*
X132925380Y-84808190D01*
X133044428Y-84808190D01*
X133092047Y-84784380D01*
X133115857Y-84760571D01*
X133306333Y-82728571D02*
X133330142Y-82752380D01*
X133401571Y-82776190D01*
X133449190Y-82776190D01*
X133520619Y-82752380D01*
X133568238Y-82704761D01*
X133592047Y-82657142D01*
X133615857Y-82561904D01*
X133615857Y-82490476D01*
X133592047Y-82395238D01*
X133568238Y-82347619D01*
X133520619Y-82300000D01*
X133449190Y-82276190D01*
X133401571Y-82276190D01*
X133330142Y-82300000D01*
X133306333Y-82323809D01*
X132877761Y-82442857D02*
X132877761Y-82776190D01*
X132996809Y-82252380D02*
X133115857Y-82609523D01*
X132806333Y-82609523D01*
X140233333Y-72528571D02*
X140257142Y-72552380D01*
X140328571Y-72576190D01*
X140376190Y-72576190D01*
X140447619Y-72552380D01*
X140495238Y-72504761D01*
X140519047Y-72457142D01*
X140542857Y-72361904D01*
X140542857Y-72290476D01*
X140519047Y-72195238D01*
X140495238Y-72147619D01*
X140447619Y-72100000D01*
X140376190Y-72076190D01*
X140328571Y-72076190D01*
X140257142Y-72100000D01*
X140233333Y-72123809D01*
X139757142Y-72576190D02*
X140042857Y-72576190D01*
X139900000Y-72576190D02*
X139900000Y-72076190D01*
X139947619Y-72147619D01*
X139995238Y-72195238D01*
X140042857Y-72219047D01*
X129560095Y-105425904D02*
X129798190Y-105425904D01*
X129298190Y-105259238D02*
X129560095Y-105425904D01*
X129298190Y-105592571D01*
X129798190Y-106021142D02*
X129798190Y-105735428D01*
X129798190Y-105878285D02*
X129298190Y-105878285D01*
X129369619Y-105830666D01*
X129417238Y-105783047D01*
X129441047Y-105735428D01*
X133306333Y-80696571D02*
X133330142Y-80720380D01*
X133401571Y-80744190D01*
X133449190Y-80744190D01*
X133520619Y-80720380D01*
X133568238Y-80672761D01*
X133592047Y-80625142D01*
X133615857Y-80529904D01*
X133615857Y-80458476D01*
X133592047Y-80363238D01*
X133568238Y-80315619D01*
X133520619Y-80268000D01*
X133449190Y-80244190D01*
X133401571Y-80244190D01*
X133330142Y-80268000D01*
X133306333Y-80291809D01*
X133139666Y-80244190D02*
X132806333Y-80244190D01*
X133020619Y-80744190D01*
D12*
X134847000Y-74414748D02*
X134847000Y-74937252D01*
X133377000Y-74414748D02*
X133377000Y-74937252D01*
X138945252Y-109447000D02*
X138422748Y-109447000D01*
X138945252Y-107977000D02*
X138422748Y-107977000D01*
D13*
X144500000Y-74920000D02*
X144500000Y-75080000D01*
X141500000Y-74920000D02*
X141500000Y-75080000D01*
D12*
X138721090Y-73268000D02*
X138721090Y-75718000D01*
X135501090Y-75068000D02*
X135501090Y-73268000D01*
D14*
X135560000Y-102432000D02*
X135560000Y-107332000D01*
X135560000Y-107332000D02*
X138760000Y-107332000D01*
X138760000Y-102432000D02*
X135560000Y-102432000D01*
X138760000Y-107332000D02*
X138760000Y-102432000D01*
X133660000Y-107487000D02*
X135210000Y-107487000D01*
D15*
X124973000Y-101780000D02*
X148763000Y-101780000D01*
X148763000Y-86180000D02*
X148763000Y-91780000D01*
X148763000Y-86180000D02*
X124973000Y-86180000D01*
X148763000Y-101780000D02*
X148763000Y-96180000D01*
X124973000Y-86180000D02*
X124973000Y-101780000D01*
D12*
X145007064Y-103859000D02*
X144552936Y-103859000D01*
X145007064Y-102389000D02*
X144552936Y-102389000D01*
X145007064Y-105891000D02*
X144552936Y-105891000D01*
X145007064Y-104421000D02*
X144552936Y-104421000D01*
X135882748Y-83865867D02*
X136405252Y-83865867D01*
X135882748Y-85335867D02*
X136405252Y-85335867D01*
X135882748Y-81833867D02*
X136405252Y-81833867D01*
X135882748Y-83303867D02*
X136405252Y-83303867D01*
X139473000Y-74937252D02*
X139473000Y-74414748D01*
X140943000Y-74937252D02*
X140943000Y-74414748D01*
X132447000Y-104989000D02*
X132447000Y-106339000D01*
X130697000Y-104989000D02*
X130697000Y-106339000D01*
X135882748Y-81271867D02*
X136405252Y-81271867D01*
X135882748Y-79801867D02*
X136405252Y-79801867D01*
%LPC*%
D16*
X134620000Y-77996867D03*
D17*
X137160000Y-77996867D03*
X139700000Y-77996867D03*
D18*
X115650000Y-86600000D03*
X158650000Y-86600000D03*
D19*
X134112000Y-73638500D03*
X134112000Y-75713500D03*
D20*
X139721500Y-108712000D03*
X137646500Y-108712000D03*
D21*
X143000000Y-73800000D03*
X143000000Y-76200000D03*
D22*
X138061090Y-75518000D03*
X137111090Y-75518000D03*
X136161090Y-75518000D03*
X136161090Y-72818000D03*
X138061090Y-72818000D03*
D23*
X134435000Y-106787000D03*
X134435000Y-105517000D03*
X134435000Y-104247000D03*
X134435000Y-102977000D03*
X139885000Y-102977000D03*
X139885000Y-104247000D03*
X139885000Y-105517000D03*
X139885000Y-106787000D03*
D24*
X148990000Y-93980000D03*
D25*
X127590000Y-93980000D03*
D26*
X145780000Y-103124000D03*
X143780000Y-103124000D03*
X145780000Y-105156000D03*
X143780000Y-105156000D03*
D27*
X135106500Y-84600867D03*
X137181500Y-84600867D03*
X135106500Y-82568867D03*
X137181500Y-82568867D03*
D28*
X140208000Y-75713500D03*
X140208000Y-73638500D03*
D29*
X131572000Y-106914000D03*
X131572000Y-104414000D03*
D27*
X135106500Y-80536867D03*
X137181500Y-80536867D03*
M02*
