<svg height="314.43823pt" viewBox="0 0 288.22372 314.43823" width="288.22372pt" xmlns="http://www.w3.org/2000/svg" xmlns:xlink="http://www.w3.org/1999/xlink"><symbol id="a" overflow="visible"><path d="m4.203125 0h-1v-6.3125c-.242187.230469-.554687.460938-.9375.6875-.386719.230469-.730469.402344-1.03125.515625v-.96875c.550781-.257813 1.03125-.570313 1.4375-.9375.414063-.375.710937-.734375.890625-1.078125h.640625zm0 0"/></symbol><symbol id="b" overflow="visible"><path d="m3.171875 0-3.125-8.0625h1.15625l2.09375 5.859375c.164063.46875.304687.90625.421875 1.3125.125-.4375.269531-.875.4375-1.3125l2.1875-5.859375h1.078125l-3.15625 8.0625zm0 0"/></symbol><symbol id="c" overflow="visible"><path d="m.875 0v-8.0625h2.765625c.632813 0 1.113281.039062 1.4375.109375.46875.105469.863281.296875 1.1875.578125.425781.367188.742187.828125.953125 1.390625.207031.554687.3125 1.1875.3125 1.90625 0 .617187-.074219 1.164063-.21875 1.640625-.136719.46875-.320312.859375-.546875 1.171875-.21875.304687-.464844.542969-.734375.71875-.261719.179687-.578125.3125-.953125.40625s-.808594.140625-1.296875.140625zm1.0625-.953125h1.71875c.53125 0 .945312-.046875 1.25-.140625.300781-.101562.546875-.242188.734375-.421875.25-.25.441406-.585937.578125-1.015625.144531-.425781.21875-.945312.21875-1.5625 0-.84375-.140625-1.488281-.421875-1.9375-.273437-.457031-.605469-.765625-1-.921875-.292969-.101563-.757813-.15625-1.390625-.15625h-1.6875zm0 0"/></symbol><symbol id="d" overflow="visible"><path d="m4.640625-3.15625v-.953125h3.421875v2.984375c-.53125.417969-1.078125.734375-1.640625.953125-.554687.2070312-1.121094.3125-1.703125.3125-.792969 0-1.511719-.1640625-2.15625-.5-.648438-.34375-1.136719-.835937-1.46875-1.484375-.335938-.644531-.5-1.363281-.5-2.15625 0-.78125.160156-1.507812.484375-2.1875.332031-.6875.804687-1.191406 1.421875-1.515625.625-.332031 1.335938-.5 2.140625-.5.582031 0 1.109375.09375 1.578125.28125s.835938.453125 1.109375.796875c.269531.335938.472656.773438.609375 1.3125l-.96875.265625c-.117188-.40625-.265625-.722656-.453125-.953125-.179687-.238281-.433594-.425781-.765625-.5625-.335938-.144531-.703125-.21875-1.109375-.21875-.492187 0-.914063.074219-1.265625.21875-.355469.148438-.640625.34375-.859375.59375-.21875.242188-.390625.5-.515625.78125-.199219.5-.296875 1.042969-.296875 1.625 0 .71875.117187 1.324219.359375 1.8125.25.480469.609375.839844 1.078125 1.078125.476563.230469.984375.34375 1.515625.34375.46875 0 .921875-.085937 1.359375-.265625.4375-.175781.769531-.363281 1-.5625v-1.5zm0 0"/></symbol><symbol id="e" overflow="visible"><path d="m.859375 0v-8.0625h1.09375l4.234375 6.328125v-6.328125h1.03125v8.0625h-1.109375l-4.234375-6.34375v6.34375zm0 0"/></symbol><symbol id="f" overflow="visible"><path d="m.875 0v-8.0625h3.03125c.539062 0 .953125.027344 1.234375.078125.394531.0625.722656.1875.984375.375.269531.1875.488281.449219.65625.78125.164062.335937.25.699219.25 1.09375 0 .6875-.21875 1.273437-.65625 1.75-.4375.46875-1.230469.703125-2.375.703125h-2.0625v3.28125zm1.0625-4.234375h2.078125c.695313 0 1.1875-.125 1.46875-.375.289063-.257813.4375-.625.4375-1.09375 0-.332031-.089844-.617187-.265625-.859375-.167969-.238281-.386719-.398438-.65625-.484375-.1875-.039063-.523438-.0625-1-.0625h-2.0625zm0 0"/></symbol><symbol id="g" overflow="visible"><path d="m.828125 0v-8.0625h3.015625c.625 0 1.117188.085938 1.484375.25.375.15625.664063.40625.875.75.21875.335938.328125.6875.328125 1.0625 0 .34375-.09375.667969-.28125.96875-.1875.304688-.476562.546875-.859375.734375.488281.148437.863281.390625 1.125.734375.269531.34375.40625.75.40625 1.21875 0 .386719-.085937.742188-.25 1.0625-.15625.324219-.355469.574219-.59375.75-.230469.179688-.523437.3125-.875.40625-.355469.0859375-.789063.125-1.296875.125zm1.0625-4.671875h1.75c.46875 0 .804687-.03125 1.015625-.09375.269531-.082031.472656-.21875.609375-.40625.132813-.1875.203125-.421875.203125-.703125 0-.269531-.0625-.503906-.1875-.703125-.125-.207031-.308594-.347656-.546875-.421875-.242187-.070312-.652344-.109375-1.234375-.109375h-1.609375zm0 3.71875h2.015625c.34375 0 .582031-.007813.71875-.03125.25-.050781.453125-.125.609375-.21875.164063-.101563.300781-.253906.40625-.453125.113281-.195312.171875-.425781.171875-.6875 0-.289062-.078125-.546875-.234375-.765625-.15625-.226563-.371094-.382813-.640625-.46875-.273438-.09375-.667969-.140625-1.1875-.140625h-1.859375zm0 0"/></symbol><symbol id="h" overflow="visible"><path d="m.46875-3.984375c0-.945313.097656-1.710937.296875-2.296875.195313-.582031.488281-1.03125.875-1.34375.382813-.3125.867187-.46875 1.453125-.46875.4375 0 .816406.089844 1.140625.265625.320313.167969.585937.417969.796875.75.21875.324219.382812.726563.5 1.203125.125.46875.1875 1.101562.1875 1.890625 0 .949219-.101562 1.714844-.296875 2.296875-.1875.585938-.476563 1.039062-.859375 1.359375-.386719.3125-.875.46875-1.46875.46875-.773438 0-1.382812-.28125-1.828125-.84375-.53125-.664063-.796875-1.757813-.796875-3.28125zm1.015625 0c0 1.335937.15625 2.21875.46875 2.65625s.691406.65625 1.140625.65625c.457031 0 .835938-.21875 1.140625-.65625.3125-.445313.46875-1.332031.46875-2.65625 0-1.320313-.15625-2.203125-.46875-2.640625-.304687-.4375-.683594-.65625-1.140625-.65625-.460938 0-.824219.195312-1.09375.578125-.34375.492187-.515625 1.398437-.515625 2.71875zm0 0"/></symbol><symbol id="i" overflow="visible"><path d="m5.671875-.953125v.953125h-5.328125c-.011719-.238281.023438-.46875.109375-.6875.132813-.363281.351563-.71875.65625-1.0625.300781-.351562.734375-.765625 1.296875-1.234375.875-.71875 1.460938-1.285156 1.765625-1.703125.3125-.414062.46875-.8125.46875-1.1875 0-.394531-.140625-.726562-.421875-1-.28125-.269531-.648438-.40625-1.09375-.40625-.480469 0-.867188.148438-1.15625.4375-.28125.28125-.421875.679688-.421875 1.1875l-1.015625-.109375c.0625-.757813.320312-1.335937.78125-1.734375.457031-.394531 1.066406-.59375 1.828125-.59375.78125 0 1.394531.214844 1.84375.640625.445313.429687.671875.960937.671875 1.59375 0 .324219-.070312.640625-.203125.953125-.125.3125-.34375.640625-.65625.984375-.304687.34375-.808594.820313-1.515625 1.421875-.59375.5-.980469.839844-1.15625 1.015625-.167969.179687-.304688.355469-.40625.53125zm0 0"/></symbol><symbol id="j" overflow="visible"><path d="m5.65625-.953125v.953125h-5.3125c-.011719-.238281.023438-.46875.109375-.6875.132813-.363281.347656-.71875.640625-1.0625.300781-.351562.738281-.765625 1.3125-1.234375.875-.707031 1.460938-1.269531 1.765625-1.6875.3125-.425781.46875-.828125.46875-1.203125 0-.382812-.140625-.710938-.421875-.984375-.28125-.269531-.648438-.40625-1.09375-.40625-.480469 0-.867188.148437-1.15625.4375-.28125.28125-.421875.671875-.421875 1.171875l-1.015625-.09375c.0625-.757812.320312-1.335938.78125-1.734375.457031-.40625 1.066406-.609375 1.828125-.609375.769531 0 1.378906.21875 1.828125.65625.457031.429688.6875.960938.6875 1.59375 0 .324219-.070312.640625-.203125.953125-.136719.304687-.355469.625-.65625.96875-.304687.34375-.808594.820313-1.515625 1.421875-.59375.5-.980469.839844-1.15625 1.015625-.167969.179687-.304688.355469-.40625.53125zm0 0"/></symbol><symbol id="k" overflow="visible"><path d="m.46875-2.125 1-.125c.101562.554688.289062.953125.5625 1.203125.28125.25.613281.375 1 .375.46875 0 .863281-.160156 1.1875-.484375.320312-.320312.484375-.722656.484375-1.203125 0-.445313-.152344-.816406-.453125-1.109375-.292969-.300781-.667969-.453125-1.125-.453125-.1875 0-.421875.039063-.703125.109375l.109375-.875c.0625.011719.113281.015625.15625.015625.425781 0 .804688-.109375 1.140625-.328125.332031-.21875.5-.554688.5-1.015625 0-.363281-.125-.660156-.375-.890625-.242187-.238281-.554687-.359375-.9375-.359375-.386719 0-.710937.121094-.96875.359375-.25.242188-.414063.601562-.484375 1.078125l-.984375-.171875c.113281-.664062.382813-1.179688.8125-1.546875.425781-.363281.960937-.546875 1.609375-.546875.4375 0 .835938.101562 1.203125.296875.375.1875.65625.445313.84375.765625.195313.324219.296875.667969.296875 1.03125 0 .355469-.09375.679688-.28125.96875-.179688.28125-.453125.507812-.828125.671875.476563.105469.847656.335937 1.109375.6875.269531.34375.40625.777344.40625 1.296875 0 .699219-.261719 1.292969-.78125 1.78125-.511719.492188-1.15625.734375-1.9375.734375-.710938 0-1.296875-.2070312-1.765625-.625-.460937-.425781-.726563-.972656-.796875-1.640625zm0 0"/></symbol><symbol id="l" overflow="visible"><path d="m3.640625 0v-1.921875h-3.5v-.90625l3.671875-5.21875h.8125v5.21875h1.09375v.90625h-1.09375v1.921875zm0-2.828125v-3.640625l-2.53125 3.640625zm0 0"/></symbol><symbol id="m" overflow="visible"><path d="m.46875-2.109375 1.03125-.09375c.082031.511719.265625.898437.546875 1.15625.28125.25.613281.375 1 .375.476563 0 .878906-.175781 1.203125-.53125.332031-.363281.5-.84375.5-1.4375 0-.5625-.15625-1.003906-.46875-1.328125-.3125-.332031-.730469-.5-1.25-.5-.3125 0-.601562.074219-.859375.21875-.25.148438-.449219.335938-.59375.5625l-.9375-.125.78125-4.125h4v.9375h-3.203125l-.4375 2.171875c.476562-.34375.984375-.515625 1.515625-.515625.707031 0 1.300781.246094 1.78125.734375.488281.492187.734375 1.117187.734375 1.875 0 .730469-.214844 1.359375-.640625 1.890625-.523437.65625-1.230469.984375-2.125.984375-.730469 0-1.328125-.203125-1.796875-.609375-.460938-.414062-.71875-.960938-.78125-1.640625zm0 0"/></symbol><symbol id="n" overflow="visible"><path d="m5.59375-6.078125-.984375.078125c-.085937-.394531-.210937-.675781-.375-.84375-.261719-.28125-.589844-.421875-.984375-.421875-.3125 0-.589844.085937-.828125.25-.3125.230469-.558594.5625-.734375 1-.179688.4375-.273438 1.058594-.28125 1.859375.238281-.363281.53125-.628906.875-.796875.34375-.175781.703125-.265625 1.078125-.265625.65625 0 1.210937.246094 1.671875.734375.46875.480469.703125 1.105469.703125 1.875 0 .5-.109375.96875-.328125 1.40625-.210938.429687-.507812.761719-.890625 1-.386719.2265625-.820313.34375-1.296875.34375-.824219 0-1.496094-.300781-2.015625-.90625-.523437-.613281-.78125-1.613281-.78125-3 0-1.5625.285156-2.691406.859375-3.390625.5-.625 1.175781-.9375 2.03125-.9375.632812 0 1.15625.183594 1.5625.546875.40625.355469.644531.84375.71875 1.46875zm-4.03125 3.46875c0 .34375.070312.671875.21875.984375.144531.304688.347656.539062.609375.703125.257813.167969.53125.25.8125.25.414063 0 .773437-.164063 1.078125-.5.300781-.34375.453125-.800781.453125-1.375 0-.5625-.152344-1-.453125-1.3125-.292969-.320313-.664062-.484375-1.109375-.484375-.449219 0-.828125.164062-1.140625.484375-.3125.3125-.46875.730469-.46875 1.25zm0 0"/></symbol><symbol id="o" overflow="visible"><path d="m.53125-7v-.953125h5.21875v.78125c-.511719.542969-1.023438 1.265625-1.53125 2.171875-.5.90625-.890625 1.835938-1.171875 2.78125-.199219.679688-.324219 1.417969-.375 2.21875h-1.015625c.00781-.632812.132812-1.398438.375-2.296875.238281-.894531.578125-1.757813 1.015625-2.59375.445313-.832031.925781-1.535156 1.4375-2.109375zm0 0"/></symbol><symbol id="p" overflow="visible"><path d="m4.1875 0h-.984375v-6.296875c-.242187.230469-.554687.460937-.9375.6875-.386719.21875-.734375.386719-1.046875.5v-.953125c.550781-.257812 1.035156-.570312 1.453125-.9375.414063-.375.707031-.738281.875-1.09375h.640625zm0 0"/></symbol><symbol id="q" overflow="visible"><path d="m.875 0v-8.046875h3.03125c.53125 0 .9375.027344 1.21875.078125.394531.0625.726562.1875 1 .375.269531.179688.484375.433594.640625.765625.164063.335937.25.703125.25 1.109375 0 .679688-.21875 1.257812-.65625 1.734375-.4375.46875-1.226563.703125-2.359375.703125h-2.0625v3.28125zm1.0625-4.21875h2.078125c.6875 0 1.175781-.128906 1.46875-.390625.289063-.257813.4375-.617187.4375-1.078125 0-.34375-.089844-.632812-.265625-.875-.167969-.238281-.390625-.394531-.671875-.46875-.179687-.050781-.507813-.078125-.984375-.078125h-2.0625zm0 0"/></symbol><symbol id="r" overflow="visible"><path d="m-.015625 0 3.09375-8.046875h1.140625l3.296875 8.046875h-1.203125l-.953125-2.4375h-3.359375l-.890625 2.4375zm2.328125-3.3125h2.71875l-.828125-2.21875c-.261719-.675781-.453125-1.234375-.578125-1.671875-.105469.511719-.25 1.023437-.4375 1.53125zm0 0"/></symbol><symbol id="s" overflow="visible"><path d="m1.984375-4.359375c-.40625-.15625-.710937-.367187-.90625-.640625-.199219-.28125-.296875-.617188-.296875-1.015625 0-.582031.207031-1.070313.625-1.46875.425781-.40625.988281-.609375 1.6875-.609375.695312 0 1.257812.210938 1.6875.625.4375.40625.65625.902344.65625 1.484375 0 .375-.101562.703125-.296875.984375-.199219.273438-.496094.484375-.890625.640625.488281.15625.863281.417969 1.125.78125.257812.355469.390625.78125.390625 1.28125 0 .6875-.246094 1.265625-.734375 1.734375-.492188.46875-1.132812.703125-1.921875.703125-.792969 0-1.433594-.234375-1.921875-.703125-.492188-.476562-.734375-1.066406-.734375-1.765625 0-.519531.128906-.957031.390625-1.3125.269531-.351563.648438-.59375 1.140625-.71875zm-.1875-1.6875c0 .386719.117187.699219.359375.9375.25.242187.566406.359375.953125.359375.382813 0 .695313-.117188.9375-.359375.25-.238281.375-.53125.375-.875 0-.363281-.132813-.664063-.390625-.90625-.25-.25-.558594-.375-.921875-.375-.386719 0-.703125.121094-.953125.359375-.242188.242188-.359375.527344-.359375.859375zm-.328125 3.71875c0 .28125.066406.558594.203125.828125.132813.261719.332031.464844.59375.609375.269531.148437.554687.21875.859375.21875.46875 0 .851562-.148437 1.15625-.453125.3125-.3125.46875-.703125.46875-1.171875s-.164062-.859375-.484375-1.171875c-.3125-.3125-.703125-.46875-1.171875-.46875s-.859375.15625-1.171875.46875c-.304687.304688-.453125.683594-.453125 1.140625zm0 0"/></symbol><symbol id="t" overflow="visible"><path d="m.609375-1.859375.953125-.09375c.082031.449219.238281.777344.46875.984375.226562.199219.519531.296875.875.296875.300781 0 .566406-.066406.796875-.203125.226563-.144531.414063-.332031.5625-.5625.144531-.238281.265625-.554688.359375-.953125.101562-.394531.15625-.796875.15625-1.203125 0-.039062 0-.109375 0-.203125-.199219.324219-.46875.585937-.8125.78125-.34375.1875-.71875.28125-1.125.28125-.667969 0-1.230469-.238281-1.6875-.71875-.460938-.488281-.6875-1.125-.6875-1.90625 0-.820313.238281-1.484375.71875-1.984375.476562-.5 1.082031-.75 1.8125-.75.519531 0 1 .148438 1.4375.4375.4375.28125.765625.683594.984375 1.203125.226563.523437.34375 1.277344.34375 2.265625 0 1.03125-.117187 1.855469-.34375 2.46875-.21875.605469-.554687 1.070312-1 1.390625-.4375.3125-.953125.46875-1.546875.46875-.625 0-1.140625-.171875-1.546875-.515625-.398437-.351562-.636719-.847656-.71875-1.484375zm4.046875-3.5625c0-.5625-.152344-1.007813-.453125-1.34375-.304687-.332031-.664063-.5-1.078125-.5-.4375 0-.824219.183594-1.15625.546875-.324219.355469-.484375.820312-.484375 1.390625 0 .511719.148437.929687.453125 1.25.3125.3125.695312.46875 1.15625.46875.457031 0 .832031-.15625 1.125-.46875.289062-.320313.4375-.769531.4375-1.34375zm0 0"/></symbol><symbol id="u" overflow="visible"><path d="m.828125 0v-8.046875h3.015625c.613281 0 1.109375.085937 1.484375.25.375.15625.664063.40625.875.75.207031.335937.3125.683594.3125 1.046875 0 .34375-.09375.671875-.28125.984375-.1875.304687-.46875.546875-.84375.734375.488281.136719.863281.382812 1.125.734375.257813.34375.390625.75.390625 1.21875 0 .375-.085938.726563-.25 1.046875-.15625.324219-.355469.574219-.59375.75-.230469.179688-.523438.3125-.875.40625-.355469.0859375-.789062.125-1.296875.125zm1.0625-4.671875h1.734375c.476562 0 .816406-.03125 1.015625-.09375.269531-.082031.472656-.210937.609375-.390625.144531-.1875.21875-.421875.21875-.703125 0-.269531-.070312-.503906-.203125-.703125-.125-.207031-.308594-.347656-.546875-.421875-.242188-.082031-.648438-.125-1.21875-.125h-1.609375zm0 3.71875h2c.34375 0 .585937-.007813.734375-.03125.238281-.050781.441406-.125.609375-.21875.164063-.101563.300781-.253906.40625-.453125.101563-.195312.15625-.421875.15625-.671875 0-.300781-.078125-.5625-.234375-.78125-.148438-.226563-.359375-.382813-.640625-.46875-.273437-.09375-.664063-.140625-1.171875-.140625h-1.859375zm0 0"/></symbol><symbol id="v" overflow="visible"><path d="m6.609375-2.828125 1.0625.28125c-.21875.875-.621094 1.542969-1.203125 2-.574219.4609375-1.28125.6875-2.125.6875-.867188 0-1.574219-.1757812-2.125-.53125-.542969-.351563-.953125-.863281-1.234375-1.53125-.28125-.675781-.421875-1.398437-.421875-2.171875 0-.832031.15625-1.5625.46875-2.1875.320312-.625.78125-1.097656 1.375-1.421875.59375-.320313 1.242188-.484375 1.953125-.484375.800781 0 1.476563.210938 2.03125.625.550781.40625.9375.980469 1.15625 1.71875l-1.046875.25c-.1875-.582031-.464844-1.007812-.828125-1.28125-.355469-.269531-.796875-.40625-1.328125-.40625-.625 0-1.148438.152344-1.5625.453125-.40625.292969-.699219.6875-.875 1.1875-.167969.5-.25 1.015625-.25 1.546875 0 .6875.097656 1.289062.296875 1.796875.195313.511719.503906.890625.921875 1.140625.425781.25.882812.375 1.375.375.601562 0 1.109375-.171875 1.515625-.515625.414063-.34375.695313-.851563.84375-1.53125zm0 0"/></symbol><symbol id="w" overflow="visible"><path d="m.46875-3.96875c0-.957031.097656-1.722656.296875-2.296875.195313-.582031.488281-1.03125.875-1.34375.382813-.320313.867187-.484375 1.453125-.484375.425781 0 .800781.089844 1.125.265625.332031.179687.601562.433594.8125.765625.21875.324219.382812.71875.5 1.1875.125.46875.1875 1.105469.1875 1.90625 0 .949219-.101562 1.714844-.296875 2.296875-.1875.574219-.476563 1.023437-.859375 1.34375-.386719.3125-.875.46875-1.46875.46875-.78125 0-1.390625-.28125-1.828125-.84375-.53125-.664063-.796875-1.753906-.796875-3.265625zm1.015625 0c0 1.324219.148437 2.203125.453125 2.640625.3125.4375.695312.65625 1.15625.65625.457031 0 .835938-.21875 1.140625-.65625.3125-.445313.46875-1.328125.46875-2.640625 0-1.320312-.15625-2.203125-.46875-2.640625-.304687-.4375-.6875-.65625-1.15625-.65625-.449219 0-.808594.195313-1.078125.578125-.34375.492188-.515625 1.398438-.515625 2.71875zm0 0"/></symbol><symbol id="x" overflow="visible"><path d="m0 .140625 2.328125-8.328125h.796875l-2.328125 8.328125zm0 0"/></symbol><symbol id="y" overflow="visible"><path d="m.890625 0v-8.046875h3.5625c.71875 0 1.265625.074219 1.640625.21875.375.136719.671875.390625.890625.765625.226563.367188.34375.765625.34375 1.203125 0 .574219-.1875 1.058594-.5625 1.453125-.367187.386719-.9375.636719-1.71875.75.289063.136719.507813.265625.65625.390625.300781.292969.59375.652344.875 1.078125l1.40625 2.1875h-1.34375l-1.0625-1.671875c-.3125-.488281-.574219-.859375-.78125-1.109375-.199219-.257812-.375-.441406-.53125-.546875-.15625-.101563-.320313-.171875-.484375-.203125-.125-.03125-.324219-.046875-.59375-.046875h-1.234375v3.578125zm1.0625-4.5h2.28125c.488281 0 .867187-.046875 1.140625-.140625.28125-.101563.488281-.265625.625-.484375.144531-.226562.21875-.472656.21875-.734375 0-.375-.140625-.679687-.421875-.921875-.273437-.25-.703125-.375-1.296875-.375h-2.546875zm0 0"/></symbol><symbol id="z" overflow="visible"><path d="m.890625 0v-8.046875h5.828125v.9375h-4.765625v2.46875h4.453125v.953125h-4.453125v2.734375h4.953125v.953125zm0 0"/></symbol><symbol id="A" overflow="visible"><path d="m.5-2.59375 1.015625-.078125c.039063.398437.148437.726563.328125.984375.175781.261719.445312.476562.8125.640625.363281.15625.773438.234375 1.234375.234375.40625 0 .765625-.0625 1.078125-.1875s.539062-.289062.6875-.5c.15625-.207031.234375-.4375.234375-.6875s-.074219-.46875-.21875-.65625c-.148437-.1875-.390625-.347656-.734375-.484375-.210938-.082031-.683594-.210937-1.421875-.390625-.742187-.175781-1.261719-.34375-1.5625-.5-.386719-.195312-.671875-.445312-.859375-.75-.1875-.300781-.28125-.632812-.28125-1 0-.40625.113281-.785156.34375-1.140625.226562-.351563.5625-.617187 1-.796875.445312-.1875.941406-.28125 1.484375-.28125.601563 0 1.128906.101562 1.578125.296875.457031.1875.804688.46875 1.046875.84375.25.367187.382813.789063.40625 1.265625l-1.015625.078125c-.0625-.507813-.25-.894531-.5625-1.15625-.3125-.257813-.78125-.390625-1.40625-.390625-.648438 0-1.117188.121094-1.40625.359375-.292969.230469-.4375.511719-.4375.84375 0 .292969.101562.53125.3125.71875.207031.1875.742188.382813 1.609375.578125.863281.199219 1.457031.371094 1.78125.515625.46875.210937.8125.480469 1.03125.8125.226563.335937.34375.714844.34375 1.140625 0 .4375-.125.84375-.375 1.21875-.242187.375-.59375.671875-1.0625.890625-.460937.2070312-.976563.3125-1.546875.3125-.730469 0-1.339844-.1054688-1.828125-.3125-.492187-.21875-.875-.539063-1.15625-.96875-.28125-.425781-.433594-.910156-.453125-1.453125zm0 0"/></symbol><symbol id="B" overflow="visible"><path d="m2.921875 0v-7.109375h-2.65625v-.9375h6.375v.9375h-2.65625v7.109375zm0 0"/></symbol><symbol id="C" overflow="visible"><path d="m6.15625-8.046875h1.0625v4.640625c0 .8125-.09375 1.460938-.28125 1.9375-.179688.46875-.507812.855469-.984375 1.15625-.480469.3046875-1.105469.453125-1.875.453125-.761719 0-1.382813-.1328125-1.859375-.390625-.480469-.257812-.824219-.632812-1.03125-1.125-.199219-.5-.296875-1.175781-.296875-2.03125v-4.640625h1.0625v4.640625c0 .699219.0625 1.214844.1875 1.546875.132813.335937.359375.589844.671875.765625.320312.179688.710938.265625 1.171875.265625.78125 0 1.335937-.175781 1.671875-.53125.332031-.351563.5-1.035156.5-2.046875zm0 0"/></symbol><symbol id="D" overflow="visible"><path d="m.875 0v-8.046875h2.765625c.625 0 1.101563.039063 1.4375.109375.457031.105469.847656.296875 1.171875.578125.425781.355469.742188.8125.953125 1.375.21875.5625.328125 1.199219.328125 1.90625 0 .617187-.074219 1.164063-.21875 1.640625-.148438.46875-.335938.859375-.5625 1.171875-.21875.304687-.464844.542969-.734375.71875-.261719.179687-.578125.3125-.953125.40625s-.804688.140625-1.28125.140625zm1.0625-.953125h1.71875c.53125 0 .945312-.046875 1.25-.140625.300781-.101562.539062-.242188.71875-.421875.25-.25.441406-.585937.578125-1.015625.144531-.425781.21875-.945312.21875-1.5625 0-.832031-.140625-1.472656-.421875-1.921875-.273438-.457031-.605469-.765625-1-.921875-.28125-.113281-.742188-.171875-1.375-.171875h-1.6875zm0 0"/></symbol><symbol id="E" overflow="visible"><path d="m1.046875 0v-8.046875h1.0625v8.046875zm0 0"/></symbol><symbol id="F" overflow="visible"><path d="m.046875 0 3.125-4.203125-2.75-3.84375h1.265625l1.453125 2.0625c.3125.429687.53125.757813.65625.984375.175781-.289062.390625-.597656.640625-.921875l1.609375-2.125h1.171875l-2.828125 3.796875 3.046875 4.25h-1.328125l-2.015625-2.875c-.117188-.164062-.234375-.34375-.359375-.53125-.179687.292969-.308594.492188-.390625.59375l-2.015625 2.8125zm0 0"/></symbol><symbol id="G" overflow="visible"><path d="m.828125 0v-8.046875h1.0625v7.09375h3.96875v.953125zm0 0"/></symbol><symbol id="H" overflow="visible"><path d="m.828125 0v-8.046875h1.0625v3.984375l4-3.984375h1.4375l-3.375 3.25 3.53125 4.796875h-1.40625l-2.875-4.078125-1.3125 1.28125v2.796875zm0 0"/></symbol><symbol id="I" overflow="visible"><path d="m.546875-3.921875c0-1.332031.359375-2.378906 1.078125-3.140625.71875-.757812 1.644531-1.140625 2.78125-1.140625.738281 0 1.40625.183594 2 .546875.601562.355469 1.0625.851562 1.375 1.484375.3125.636719.46875 1.355469.46875 2.15625 0 .8125-.167969 1.542969-.5 2.1875-.335938.648437-.804688 1.136719-1.40625 1.46875-.605469.3359375-1.257812.5-1.953125.5-.761719 0-1.4375-.1796875-2.03125-.546875-.59375-.375-1.046875-.875-1.359375-1.5-.304688-.632812-.453125-1.304688-.453125-2.015625zm1.09375.015625c0 .96875.257813 1.734375.78125 2.296875.519531.554687 1.175781.828125 1.96875.828125.800781 0 1.457031-.28125 1.96875-.84375.519531-.5625.78125-1.359375.78125-2.390625 0-.65625-.109375-1.226563-.328125-1.71875-.21875-.488281-.542969-.867187-.96875-1.140625-.429688-.269531-.90625-.40625-1.4375-.40625-.75 0-1.402344.261719-1.953125.78125-.542969.523438-.8125 1.386719-.8125 2.59375zm0 0"/></symbol><symbol id="J" overflow="visible"><path d="m3.765625-2.5625v-.765625l2.765625-.015625v2.4375c-.417969.335938-.855469.589844-1.3125.765625-.449219.1640625-.914062.25-1.390625.25-.648437 0-1.230469-.1328125-1.75-.40625-.523437-.28125-.917969-.679687-1.1875-1.203125-.273437-.519531-.40625-1.097656-.40625-1.734375 0-.644531.128906-1.238281.390625-1.78125.269531-.550781.65625-.960937 1.15625-1.234375.5-.269531 1.078125-.40625 1.734375-.40625.46875 0 .894531.078125 1.28125.234375.382813.15625.679687.371094.890625.640625.21875.273438.382812.625.5 1.0625l-.78125.21875c-.09375-.332031-.214844-.59375-.359375-.78125-.148437-.1875-.355469-.335938-.625-.453125-.273437-.113281-.574219-.171875-.90625-.171875-.398437 0-.742187.0625-1.03125.1875-.28125.117188-.511719.273438-.6875.46875-.179687.1875-.320313.402344-.421875.640625-.167969.40625-.25.84375-.25 1.3125 0 .585937.097656 1.074219.296875 1.46875.207031.398437.503906.6875.890625.875.382812.1875.789062.28125 1.21875.28125.375 0 .738281-.070313 1.09375-.21875.351562-.144531.625-.296875.8125-.453125v-1.21875zm0 0"/></symbol><symbol id="K" overflow="visible"><path d="m.703125 0v-6.546875h2.46875c.4375 0 .769531.023437 1 .0625.320313.054687.585937.15625.796875.3125.21875.148437.394531.355469.53125.625.132812.273437.203125.570313.203125.890625 0 .5625-.179687 1.039062-.53125 1.421875-.355469.386719-.996094.578125-1.921875.578125h-1.671875v2.65625zm.875-3.4375h1.6875c.5625 0 .957031-.101562 1.1875-.3125.238281-.207031.359375-.5.359375-.875 0-.269531-.074219-.503906-.21875-.703125-.136719-.195313-.320312-.328125-.546875-.390625-.148437-.03125-.414063-.046875-.796875-.046875h-1.671875zm0 0"/></symbol><symbol id="L" overflow="visible"><path d="m.859375 0v-6.546875h.859375v6.546875zm0 0"/></symbol><symbol id="M" overflow="visible"><path d="m.4375-3.1875c0-1.082031.289062-1.929688.875-2.546875.582031-.613281 1.335938-.921875 2.265625-.921875.601563 0 1.144531.148438 1.625.4375.488281.28125.859375.683594 1.109375 1.203125.257812.511719.390625 1.09375.390625 1.75 0 .667969-.136719 1.261719-.40625 1.78125-.273437.523437-.652344.917969-1.140625 1.1875-.492188.2734375-1.015625.40625-1.578125.40625-.625 0-1.183594-.1445312-1.671875-.4375-.480469-.300781-.84375-.707031-1.09375-1.21875-.25-.519531-.375-1.066406-.375-1.640625zm.890625.015625c0 .792969.210937 1.417969.640625 1.875.425781.449219.957031.671875 1.59375.671875.65625 0 1.191406-.226562 1.609375-.6875.425781-.457031.640625-1.109375.640625-1.953125 0-.53125-.09375-.992187-.28125-1.390625-.179688-.394531-.4375-.703125-.78125-.921875s-.734375-.328125-1.171875-.328125c-.617187 0-1.148437.210938-1.59375.625-.4375.417969-.65625 1.121094-.65625 2.109375zm0 0"/></symbol><symbol id="N" overflow="visible"/><symbol id="O" overflow="visible"><path d="m2.578125 0-2.53125-6.546875h.9375l1.6875 4.75c.144531.386719.257813.746094.34375 1.078125.101563-.351562.222656-.710938.359375-1.078125l1.765625-4.75h.890625l-2.5625 6.546875zm0 0"/></symbol><symbol id="P" overflow="visible"><path d="m.703125 0v-6.546875h2.25c.507813 0 .898437.03125 1.171875.09375.375.09375.691406.25.953125.46875.34375.292969.597656.667969.765625 1.125.175781.449219.265625.964844.265625 1.546875 0 .5-.058594.945312-.171875 1.328125-.117188.386719-.265625.703125-.453125.953125-.179687.25-.375.449219-.59375.59375-.210937.148438-.46875.257812-.78125.328125-.304687.0742188-.652344.109375-1.046875.109375zm.875-.765625h1.390625c.425781 0 .765625-.039063 1.015625-.125.25-.082031.445313-.195313.59375-.34375.195313-.207031.351563-.484375.46875-.828125.113281-.34375.171875-.765625.171875-1.265625 0-.675781-.117188-1.195313-.34375-1.5625-.21875-.375-.492188-.625-.8125-.75-.230469-.082031-.601562-.125-1.109375-.125h-1.375zm0 0"/></symbol><symbol id="Q" overflow="visible"><path d="m.609375 1.8125v-6.546875h.71875v.609375c.175781-.238281.375-.414062.59375-.53125.21875-.125.476563-.1875.78125-.1875.40625 0 .765625.105469 1.078125.3125.3125.210938.546875.507812.703125.890625.15625.375.234375.789063.234375 1.234375 0 .492188-.089844.929688-.265625 1.3125-.167969.386719-.417969.683594-.75.890625-.335937.20703125-.683594.3125-1.046875.3125-.273438 0-.515625-.0585938-.734375-.171875-.210937-.113281-.382813-.253906-.515625-.421875v2.296875zm.71875-4.15625c0 .617188.125 1.070312.375 1.359375.25.292969.546875.4375.890625.4375.363281 0 .671875-.148437.921875-.453125.25-.300781.375-.769531.375-1.40625 0-.601562-.125-1.054688-.375-1.359375-.242187-.300781-.53125-.453125-.875-.453125s-.652344.164062-.921875.484375c-.261719.3125-.390625.777344-.390625 1.390625zm0 0"/></symbol><symbol id="R" overflow="visible"><path d="m.296875-2.375c0-.875.242187-1.523438.734375-1.953125.40625-.34375.90625-.515625 1.5-.515625.644531 0 1.175781.214844 1.59375.640625.414062.429687.625 1.015625.625 1.765625 0 .617188-.09375 1.101562-.28125 1.453125-.179688.34375-.445312.617187-.796875.8125-.355469.1875-.734375.28125-1.140625.28125-.667969 0-1.210938-.210937-1.625-.640625-.40625-.425781-.609375-1.039062-.609375-1.84375zm.828125 0c0 .617188.128906 1.074219.390625 1.375.269531.304688.609375.453125 1.015625.453125.394531 0 .722656-.148437.984375-.453125.269531-.3125.40625-.773438.40625-1.390625 0-.59375-.136719-1.039063-.40625-1.34375-.261719-.300781-.589844-.453125-.984375-.453125-.40625 0-.746094.152344-1.015625.453125-.261719.304687-.390625.757813-.390625 1.359375zm0 0"/></symbol><symbol id="S" overflow="visible"><path d="m1.484375 0-1.453125-4.734375h.828125l.75 2.734375.28125 1.015625c.00781-.050781.09375-.378906.25-.984375l.75-2.765625h.828125l.703125 2.75.234375.90625.28125-.921875.8125-2.734375h.78125l-1.484375 4.734375h-.828125l-.765625-2.84375-.171875-.796875-.96875 3.640625zm0 0"/></symbol><symbol id="T" overflow="visible"><path d="m3.84375-1.53125.828125.109375c-.125.480469-.367187.855469-.71875 1.125-.355469.2734375-.808594.40625-1.359375.40625-.699219 0-1.25-.210937-1.65625-.640625-.40625-.425781-.609375-1.023438-.609375-1.796875 0-.800781.203125-1.421875.609375-1.859375.414062-.4375.953125-.65625 1.609375-.65625.632813 0 1.148437.21875 1.546875.65625.40625.429688.609375 1.03125.609375 1.8125v.203125h-3.53125c.019531.523437.160156.921875.421875 1.203125.269531.28125.601562.421875 1 .421875.300781 0 .554688-.078125.765625-.234375.207031-.15625.367187-.40625.484375-.75zm-2.640625-1.296875h2.65625c-.042969-.394531-.148437-.691406-.3125-.890625-.25-.3125-.578125-.46875-.984375-.46875-.375 0-.6875.125-.9375.375-.25.242188-.390625.570312-.421875.984375zm0 0"/></symbol><symbol id="U" overflow="visible"><path d="m.59375 0v-4.734375h.71875v.71875c.1875-.34375.359375-.566406.515625-.671875.15625-.101562.328125-.15625.515625-.15625.269531 0 .546875.085938.828125.25l-.28125.75c-.199219-.113281-.398437-.171875-.59375-.171875-.167969 0-.324219.054687-.46875.15625-.136719.105469-.234375.25-.296875.4375-.09375.292969-.140625.605469-.140625.9375v2.484375zm0 0"/></symbol><symbol id="V" overflow="visible"><path d="m3.671875 0v-.59375c-.292969.46875-.730469.703125-1.3125.703125-.386719 0-.742187-.10546875-1.0625-.3125-.3125-.207031-.558594-.5-.734375-.875-.167969-.375-.25-.800781-.25-1.28125 0-.476563.078125-.910156.234375-1.296875.15625-.382812.390625-.675781.703125-.875.320312-.207031.675781-.3125 1.0625-.3125.289062 0 .546875.0625.765625.1875.226563.117188.410156.265625.546875.453125v-2.34375h.796875v6.546875zm-2.53125-2.359375c0 .605469.125 1.058594.375 1.359375.257813.304688.5625.453125.90625.453125.351563 0 .648437-.144531.890625-.4375.25-.289063.375-.726563.375-1.3125 0-.644531-.125-1.117187-.375-1.421875-.25-.3125-.558594-.46875-.921875-.46875-.355469 0-.652344.148438-.890625.4375-.242188.292969-.359375.757812-.359375 1.390625zm0 0"/></symbol><symbol id="W" overflow="visible"><path d="m.609375 0v-4.734375h.71875v.65625c.144531-.226563.335937-.410156.578125-.546875.25-.144531.535156-.21875.859375-.21875.34375 0 .625.074219.84375.21875.226563.148438.390625.351562.484375.609375.375-.550781.863281-.828125 1.46875-.828125.46875 0 .828125.132812 1.078125.390625.257813.261719.390625.664063.390625 1.203125v3.25h-.8125v-2.984375c0-.320313-.027344-.550781-.078125-.6875-.054687-.144531-.148437-.257813-.28125-.34375-.136719-.09375-.296875-.140625-.484375-.140625-.335938 0-.609375.117188-.828125.34375-.21875.21875-.328125.574219-.328125 1.0625v2.75h-.796875v-3.078125c0-.351563-.070313-.617187-.203125-.796875-.125-.1875-.339844-.28125-.640625-.28125-.230469 0-.4375.0625-.625.1875-.1875.117188-.328125.289062-.421875.515625-.085938.230469-.125.5625-.125 1v2.453125zm0 0"/></symbol><symbol id="X" overflow="visible"><path d="m3.703125-.578125c-.304687.25-.59375.429687-.875.53125-.273437.1015625-.5625.15625-.875.15625-.523437 0-.921875-.125-1.203125-.375-.28125-.257813-.421875-.585937-.421875-.984375 0-.226562.050781-.4375.15625-.625.101563-.195312.238281-.351562.40625-.46875.175781-.113281.375-.203125.59375-.265625.15625-.039063.394531-.082031.71875-.125.644531-.070313 1.117187-.164063 1.421875-.28125.007812-.101563.015625-.171875.015625-.203125 0-.320312-.078125-.550781-.234375-.6875-.210938-.1875-.515625-.28125-.921875-.28125-.375 0-.652344.070312-.828125.203125-.179688.136719-.3125.371094-.40625.703125l-.78125-.109375c.070312-.332031.1875-.601563.34375-.8125.164062-.207031.40625-.363281.71875-.46875.3125-.113281.671875-.171875 1.078125-.171875s.734375.046875.984375.140625.429688.214844.546875.359375c.125.148438.210937.328125.265625.546875.019531.136719.03125.382813.03125.734375v1.078125c0 .75.015625 1.226563.046875 1.421875.039063.199219.109375.386719.203125.5625h-.828125c-.085937-.164062-.136719-.359375-.15625-.578125zm-.078125-1.796875c-.292969.117188-.730469.214844-1.3125.296875-.324219.054687-.558594.109375-.703125.171875-.136719.054688-.242187.136719-.3125.25-.074219.117188-.109375.246094-.109375.390625 0 .210937.078125.386719.234375.53125.164063.148437.40625.21875.71875.21875s.585937-.066406.828125-.203125c.238281-.132812.414062-.320312.53125-.5625.082031-.175781.125-.441406.125-.796875zm0 0"/></symbol><symbol id="Y" overflow="visible"><path d="m.609375-5.625v-.921875h.796875v.921875zm0 5.625v-4.734375h.796875v4.734375zm0 0"/></symbol><symbol id="Z" overflow="visible"><path d="m.609375 0v-4.734375h.71875v.671875c.34375-.519531.84375-.78125 1.5-.78125.289063 0 .554687.054688.796875.15625.238281.09375.414062.226562.53125.390625.125.167969.207031.367187.25.59375.03125.15625.046875.417969.046875.78125v2.921875h-.796875v-2.890625c0-.320313-.03125-.5625-.09375-.71875-.0625-.164063-.179688-.296875-.34375-.390625-.15625-.101562-.339844-.15625-.546875-.15625-.34375 0-.640625.109375-.890625.328125s-.375.632813-.375 1.234375v2.59375zm0 0"/></symbol><symbol id="aa" overflow="visible"><path d="m5.375-2.296875.859375.21875c-.179687.710937-.507813 1.25-.984375 1.625-.46875.375-1.042969.5625-1.71875.5625-.710938 0-1.289062-.140625-1.734375-.421875-.4375-.289062-.773437-.707031-1-1.25-.230469-.550781-.34375-1.140625-.34375-1.765625 0-.675781.128906-1.265625.390625-1.765625.257812-.507812.628906-.894531 1.109375-1.15625.476563-.269531 1.007813-.40625 1.59375-.40625.65625 0 1.203125.167969 1.640625.5.445312.335938.757812.804688.9375 1.40625l-.84375.203125c-.15625-.476563-.382812-.820313-.671875-1.03125-.28125-.21875-.640625-.328125-1.078125-.328125-.511719 0-.933594.121094-1.265625.359375-.335937.242187-.574219.5625-.71875.96875-.136719.40625-.203125.824219-.203125 1.25 0 .5625.078125 1.054687.234375 1.46875.164063.40625.421875.714844.765625.921875.34375.210938.710938.3125 1.109375.3125.488281 0 .898437-.140625 1.234375-.421875.332031-.28125.5625-.695313.6875-1.25zm0 0"/></symbol><symbol id="ab" overflow="visible"><path d="m.578125 0v-6.546875h.8125v6.546875zm0 0"/></symbol><symbol id="ac" overflow="visible"><path d="m.296875-2.375c0-.875.242187-1.523438.734375-1.953125.40625-.34375.90625-.515625 1.5-.515625.644531 0 1.175781.214844 1.59375.640625.414062.429687.625 1.015625.625 1.765625 0 .617188-.09375 1.101562-.28125 1.453125-.179688.34375-.445312.617187-.796875.8125-.355469.1875-.734375.28125-1.140625.28125-.667969 0-1.210938-.210937-1.625-.640625-.40625-.425781-.609375-1.039062-.609375-1.84375zm.828125 0c0 .617188.128906 1.074219.390625 1.375.269531.304688.609375.453125 1.015625.453125.394531 0 .722656-.148437.984375-.453125.269531-.3125.40625-.773438.40625-1.390625 0-.59375-.136719-1.039063-.40625-1.34375-.261719-.300781-.589844-.453125-.984375-.453125-.40625 0-.746094.152344-1.015625.453125-.261719.304687-.390625.757813-.390625 1.359375zm0 0"/></symbol><symbol id="ad" overflow="visible"><path d="m3.703125-1.734375.78125.09375c-.085937.554687-.304687.984375-.65625 1.296875-.355469.3046875-.792969.453125-1.3125.453125-.648437 0-1.167969-.210937-1.5625-.640625-.398437-.425781-.59375-1.035156-.59375-1.828125 0-.507813.082031-.953125.25-1.328125.164063-.382812.421875-.671875.765625-.859375.351562-.195313.734375-.296875 1.140625-.296875.519531 0 .941406.132812 1.265625.390625.320312.261719.53125.632813.625 1.109375l-.78125.109375c-.074219-.3125-.203125-.546875-.390625-.703125-.1875-.164062-.417969-.25-.6875-.25-.40625 0-.734375.148438-.984375.4375-.25.292969-.375.75-.375 1.375 0 .636719.117188 1.101562.359375 1.390625.25.292969.566406.4375.953125.4375.320312 0 .585938-.097656.796875-.296875.207031-.195312.34375-.492188.40625-.890625zm0 0"/></symbol><symbol id="ae" overflow="visible"><path d="m.609375 0v-6.546875h.796875v3.734375l1.90625-1.921875h1.046875l-1.8125 1.75 1.984375 2.984375h-.984375l-1.5625-2.421875-.578125.546875v1.875zm0 0"/></symbol><symbol id="af" overflow="visible"><path d="m.8125 0v-.921875h.921875v.921875c0 .332031-.0625.601562-.1875.8125-.117187.207031-.304687.367188-.5625.484375l-.21875-.34375c.164063-.074219.285156-.183594.359375-.328125.082031-.148438.128906-.355469.140625-.625zm0 0"/></symbol><symbol id="ag" overflow="visible"><path d="m.59375 0v-4.734375h.71875v.71875c.1875-.34375.359375-.566406.515625-.671875.15625-.101562.328125-.15625.515625-.15625.269531 0 .546875.085938.828125.25l-.28125.75c-.199219-.113281-.398437-.171875-.59375-.171875-.167969 0-.324219.054687-.46875.15625-.136719.105469-.234375.25-.296875.4375-.09375.292969-.140625.605469-.140625.9375v2.484375zm0 0"/></symbol><symbol id="ah" overflow="visible"><path d="m.5625 1.828125-.078125-.75c.164063.039063.316406.0625.453125.0625.175781 0 .316406-.03125.421875-.09375.113281-.054687.203125-.136719.265625-.25.050781-.074219.132812-.273437.25-.59375.007812-.042969.035156-.1054688.078125-.1875l-1.8125-4.75h.875l.984375 2.734375c.125.355469.238281.726562.34375 1.109375.09375-.375.203125-.738281.328125-1.09375l1.015625-2.75h.796875l-1.796875 4.8125c-.199219.519531-.351562.878906-.453125 1.078125-.148437.257812-.3125.453125-.5.578125-.179687.125-.398437.1875-.65625.1875-.148437 0-.320313-.03125-.515625-.09375zm0 0"/></symbol><symbol id="ai" overflow="visible"><path d="m.28125-1.421875.796875-.125c.039063.324219.160156.574219.359375.75.207031.167969.492188.25.859375.25.375 0 .648437-.070313.828125-.21875.175781-.15625.265625-.335937.265625-.546875 0-.175781-.078125-.316406-.234375-.421875-.117188-.070313-.390625-.164063-.828125-.28125-.585937-.144531-.992187-.269531-1.21875-.375-.230469-.113281-.402344-.265625-.515625-.453125-.117188-.195312-.171875-.410156-.171875-.640625 0-.207031.046875-.398437.140625-.578125.09375-.1875.222656-.335938.390625-.453125.125-.09375.296875-.171875.515625-.234375s.445312-.09375.6875-.09375c.375 0 .703125.054688.984375.15625.28125.105469.488281.25.625.4375.132813.179688.226563.421875.28125.734375l-.796875.109375c-.03125-.25-.136719-.441406-.3125-.578125-.167969-.132813-.40625-.203125-.71875-.203125-.367188 0-.632812.0625-.796875.1875-.15625.117188-.234375.257812-.234375.421875 0 .105469.035156.199219.109375.28125.0625.085937.160156.15625.296875.21875.082031.03125.320312.101563.71875.203125.5625.15625.953125.28125 1.171875.375.226563.09375.40625.234375.53125.421875.132813.1875.203125.417969.203125.6875 0 .273437-.078125.527344-.234375.765625-.15625.230469-.386719.414062-.6875.546875-.292969.125-.621094.1875-.984375.1875-.617188 0-1.085938-.125-1.40625-.375-.324219-.257813-.53125-.644531-.625-1.15625zm0 0"/></symbol><symbol id="aj" overflow="visible"><path d="m2.359375-.71875.109375.703125c-.21875.0507812-.421875.078125-.609375.078125-.292969 0-.515625-.046875-.671875-.140625s-.273438-.210937-.34375-.359375c-.0625-.15625-.09375-.472656-.09375-.953125v-2.71875h-.59375v-.625h.59375v-1.171875l.796875-.484375v1.65625h.8125v.625h-.8125v2.765625c0 .230469.015625.382812.046875.453125.03125.0625.078125.117187.140625.15625.0625.03125.148437.046875.265625.046875.09375 0 .210938-.007812.359375-.03125zm0 0"/></symbol><symbol id="ak" overflow="visible"><path d="m3.703125-.578125c-.304687.25-.59375.429687-.875.53125-.273437.1015625-.5625.15625-.875.15625-.523437 0-.921875-.125-1.203125-.375-.28125-.257813-.421875-.585937-.421875-.984375 0-.226562.050781-.4375.15625-.625.101563-.195312.238281-.351562.40625-.46875.175781-.113281.375-.203125.59375-.265625.15625-.039063.394531-.082031.71875-.125.644531-.070313 1.117187-.164063 1.421875-.28125.007812-.101563.015625-.171875.015625-.203125 0-.320312-.078125-.550781-.234375-.6875-.210938-.1875-.515625-.28125-.921875-.28125-.375 0-.652344.070312-.828125.203125-.179688.136719-.3125.371094-.40625.703125l-.78125-.109375c.070312-.332031.1875-.601563.34375-.8125.164062-.207031.40625-.363281.71875-.46875.3125-.113281.671875-.171875 1.078125-.171875s.734375.046875.984375.140625.429688.214844.546875.359375c.125.148438.210937.328125.265625.546875.019531.136719.03125.382813.03125.734375v1.078125c0 .75.015625 1.226563.046875 1.421875.039063.199219.109375.386719.203125.5625h-.828125c-.085937-.164062-.136719-.359375-.15625-.578125zm-.078125-1.796875c-.292969.117188-.730469.214844-1.3125.296875-.324219.054687-.558594.109375-.703125.171875-.136719.054688-.242187.136719-.3125.25-.074219.117188-.109375.246094-.109375.390625 0 .210937.078125.386719.234375.53125.164063.148437.40625.21875.71875.21875s.585937-.066406.828125-.203125c.238281-.132812.414062-.320312.53125-.5625.082031-.175781.125-.441406.125-.796875zm0 0"/></symbol><symbol id="al" overflow="visible"><path d="m.703125 0v-6.546875h2.46875c.4375 0 .769531.023437 1 .0625.320313.054687.585937.15625.796875.3125.21875.148437.394531.355469.53125.625.132812.273437.203125.570313.203125.890625 0 .5625-.179687 1.039062-.53125 1.421875-.355469.386719-.996094.578125-1.921875.578125h-1.671875v2.65625zm.875-3.4375h1.6875c.5625 0 .957031-.101562 1.1875-.3125.238281-.207031.359375-.5.359375-.875 0-.269531-.074219-.503906-.21875-.703125-.136719-.195313-.320312-.328125-.546875-.390625-.148437-.03125-.414063-.046875-.796875-.046875h-1.671875zm0 0"/></symbol><symbol id="am" overflow="visible"><path d="m.453125.390625.78125.125c.03125.238281.125.410156.28125.515625.195313.15625.46875.234375.8125.234375.375 0 .660156-.078125.859375-.234375.195312-.148438.332031-.355469.40625-.625.039062-.15625.0625-.5.0625-1.03125-.355469.417969-.792969.625-1.3125.625-.65625 0-1.164062-.234375-1.515625-.703125-.355469-.46875-.53125-1.03125-.53125-1.6875 0-.457031.078125-.875.234375-1.25.164062-.382813.40625-.679687.71875-.890625.3125-.207031.675781-.3125 1.09375-.3125.5625 0 1.023438.226562 1.390625.671875v-.5625h.734375v4.09375c0 .7382812-.078125 1.257813-.234375 1.5625-.148437.3125-.382813.554687-.703125.734375-.324219.175781-.726562.265625-1.203125.265625-.5625 0-1.023437-.132813-1.375-.390625-.34375-.25-.511719-.632812-.5-1.140625zm.671875-2.84375c0 .625.117188 1.078125.359375 1.359375.25.28125.5625.421875.9375.421875.363281 0 .671875-.140625.921875-.421875s.375-.722656.375-1.328125c0-.582031-.132812-1.019531-.390625-1.3125-.25-.300781-.558594-.453125-.921875-.453125-.355469 0-.65625.148438-.90625.4375-.25.292969-.375.726562-.375 1.296875zm0 0"/></symbol><symbol id="an" overflow="visible"><path d="m.609375 0v-4.734375h.71875v.65625c.144531-.226563.335937-.410156.578125-.546875.25-.144531.535156-.21875.859375-.21875.34375 0 .625.074219.84375.21875.226563.148438.390625.351562.484375.609375.375-.550781.863281-.828125 1.46875-.828125.46875 0 .828125.132812 1.078125.390625.257813.261719.390625.664063.390625 1.203125v3.25h-.8125v-2.984375c0-.320313-.027344-.550781-.078125-.6875-.054687-.144531-.148437-.257813-.28125-.34375-.136719-.09375-.296875-.140625-.484375-.140625-.335938 0-.609375.117188-.828125.34375-.21875.21875-.328125.574219-.328125 1.0625v2.75h-.796875v-3.078125c0-.351563-.070313-.617187-.203125-.796875-.125-.1875-.339844-.28125-.640625-.28125-.230469 0-.4375.0625-.625.1875-.1875.117188-.328125.289062-.421875.515625-.085938.230469-.125.5625-.125 1v2.453125zm0 0"/></symbol><symbol id="ao" overflow="visible"><path d="m.609375-5.625v-.921875h.796875v.921875zm0 5.625v-4.734375h.796875v4.734375zm0 0"/></symbol><symbol id="ap" overflow="visible"><path d="m.609375 0v-4.734375h.71875v.671875c.34375-.519531.84375-.78125 1.5-.78125.289063 0 .554687.054688.796875.15625.238281.09375.414062.226562.53125.390625.125.167969.207031.367187.25.59375.03125.15625.046875.417969.046875.78125v2.921875h-.796875v-2.890625c0-.320313-.03125-.5625-.09375-.71875-.0625-.164063-.179688-.296875-.34375-.390625-.15625-.101562-.339844-.15625-.546875-.15625-.34375 0-.640625.109375-.890625.328125s-.375.632813-.375 1.234375v2.59375zm0 0"/></symbol><symbol id="aq" overflow="visible"><path d="m.703125 0v-6.546875h2.25c.507813 0 .898437.03125 1.171875.09375.375.09375.691406.25.953125.46875.34375.292969.597656.667969.765625 1.125.175781.449219.265625.964844.265625 1.546875 0 .5-.058594.945312-.171875 1.328125-.117188.386719-.265625.703125-.453125.953125-.179687.25-.375.449219-.59375.59375-.210937.148438-.46875.257812-.78125.328125-.304687.0742188-.652344.109375-1.046875.109375zm.875-.765625h1.390625c.425781 0 .765625-.039063 1.015625-.125.25-.082031.445313-.195313.59375-.34375.195313-.207031.351563-.484375.46875-.828125.113281-.34375.171875-.765625.171875-1.265625 0-.675781-.117188-1.195313-.34375-1.5625-.21875-.375-.492188-.625-.8125-.75-.230469-.082031-.601562-.125-1.109375-.125h-1.375zm0 0"/></symbol><symbol id="ar" overflow="visible"><path d="m3.84375-1.53125.828125.109375c-.125.480469-.367187.855469-.71875 1.125-.355469.2734375-.808594.40625-1.359375.40625-.699219 0-1.25-.210937-1.65625-.640625-.40625-.425781-.609375-1.023438-.609375-1.796875 0-.800781.203125-1.421875.609375-1.859375.414062-.4375.953125-.65625 1.609375-.65625.632813 0 1.148437.21875 1.546875.65625.40625.429688.609375 1.03125.609375 1.8125v.203125h-3.53125c.019531.523437.160156.921875.421875 1.203125.269531.28125.601562.421875 1 .421875.300781 0 .554688-.078125.765625-.234375.207031-.15625.367187-.40625.484375-.75zm-2.640625-1.296875h2.65625c-.042969-.394531-.148437-.691406-.3125-.890625-.25-.3125-.578125-.46875-.984375-.46875-.375 0-.6875.125-.9375.375-.25.242188-.390625.570312-.421875.984375zm0 0"/></symbol><symbol id="as" overflow="visible"><path d="m1.34375 0h-.75v-6.546875h.8125v2.34375c.332031-.425781.765625-.640625 1.296875-.640625.289063 0 .566406.058594.828125.171875.257812.117187.472656.28125.640625.5.164063.210937.296875.464844.390625.765625.09375.304688.140625.625.140625.96875 0 .8125-.203125 1.445312-.609375 1.890625-.398438.4375-.875.65625-1.4375.65625-.554688 0-.992188-.234375-1.3125-.703125zm-.015625-2.40625c0 .574219.078125.984375.234375 1.234375.257812.417969.601562.625 1.03125.625.351562 0 .65625-.148437.90625-.453125.257812-.3125.390625-.769531.390625-1.375 0-.613281-.125-1.066406-.375-1.359375-.242187-.300781-.539063-.453125-.890625-.453125-.34375 0-.648438.15625-.90625.46875-.261719.304688-.390625.742188-.390625 1.3125zm0 0"/></symbol><symbol id="at" overflow="visible"><path d="m3.703125 0v-.703125c-.367187.542969-.867187.8125-1.5.8125-.28125 0-.542969-.0546875-.78125-.15625-.242187-.113281-.421875-.25-.546875-.40625-.117188-.164063-.195312-.363281-.234375-.59375-.042969-.164063-.0625-.414063-.0625-.75v-2.9375h.8125v2.625c0 .417969.015625.699219.046875.84375.050781.210937.15625.375.3125.5.164062.125.367188.1875.609375.1875.25 0 .476563-.0625.6875-.1875.207031-.125.351563-.289063.4375-.5.09375-.21875.140625-.53125.140625-.9375v-2.53125h.796875v4.734375zm0 0"/></symbol><symbol id="au" overflow="visible"><path d="m.71875 0v-6.546875h2.90625c.582031 0 1.023438.0625 1.328125.1875.300781.117187.539063.324219.71875.625.1875.292969.28125.621094.28125.984375 0 .460938-.152344.851562-.453125 1.171875-.304688.3125-.765625.511719-1.390625.59375.226563.117187.398437.226563.515625.328125.25.242188.488281.53125.71875.875l1.140625 1.78125h-1.09375l-.859375-1.359375c-.25-.394531-.460938-.695313-.625-.90625-.167969-.207031-.320312-.351563-.453125-.4375-.125-.082031-.25-.140625-.375-.171875-.105469-.019531-.265625-.03125-.484375-.03125h-1.015625v2.90625zm.859375-3.65625h1.875c.394531 0 .703125-.039062.921875-.125.21875-.082031.382812-.210938.5-.390625.125-.175781.1875-.367187.1875-.578125 0-.3125-.117188-.566406-.34375-.765625-.21875-.195313-.574219-.296875-1.0625-.296875h-2.078125zm0 0"/></symbol><symbol id="av" overflow="visible"><path d="m.859375 0v-6.546875h.859375v6.546875zm0 0"/></symbol><symbol id="aw" overflow="visible"><path d="m.609375 1.8125v-6.546875h.71875v.609375c.175781-.238281.375-.414062.59375-.53125.21875-.125.476563-.1875.78125-.1875.40625 0 .765625.105469 1.078125.3125.3125.210938.546875.507812.703125.890625.15625.375.234375.789063.234375 1.234375 0 .492188-.089844.929688-.265625 1.3125-.167969.386719-.417969.683594-.75.890625-.335937.20703125-.683594.3125-1.046875.3125-.273438 0-.515625-.0585938-.734375-.171875-.210937-.113281-.382813-.253906-.515625-.421875v2.296875zm.71875-4.15625c0 .617188.125 1.070312.375 1.359375.25.292969.546875.4375.890625.4375.363281 0 .671875-.148437.921875-.453125.25-.300781.375-.769531.375-1.40625 0-.601562-.125-1.054688-.375-1.359375-.242187-.300781-.53125-.453125-.875-.453125s-.652344.164062-.921875.484375c-.261719.3125-.390625.777344-.390625 1.390625zm0 0"/></symbol><symbol id="ax" overflow="visible"/><symbol id="ay" overflow="visible"><path d="m3.765625-2.5625v-.765625l2.765625-.015625v2.4375c-.417969.335938-.855469.589844-1.3125.765625-.449219.1640625-.914062.25-1.390625.25-.648437 0-1.230469-.1328125-1.75-.40625-.523437-.28125-.917969-.679687-1.1875-1.203125-.273437-.519531-.40625-1.097656-.40625-1.734375 0-.644531.128906-1.238281.390625-1.78125.269531-.550781.65625-.960937 1.15625-1.234375.5-.269531 1.078125-.40625 1.734375-.40625.46875 0 .894531.078125 1.28125.234375.382813.15625.679687.371094.890625.640625.21875.273438.382812.625.5 1.0625l-.78125.21875c-.09375-.332031-.214844-.59375-.359375-.78125-.148437-.1875-.355469-.335938-.625-.453125-.273437-.113281-.574219-.171875-.90625-.171875-.398437 0-.742187.0625-1.03125.1875-.28125.117188-.511719.273438-.6875.46875-.179687.1875-.320313.402344-.421875.640625-.167969.40625-.25.84375-.25 1.3125 0 .585937.097656 1.074219.296875 1.46875.207031.398437.503906.6875.890625.875.382812.1875.789062.28125 1.21875.28125.375 0 .738281-.070313 1.09375-.21875.351562-.144531.625-.296875.8125-.453125v-1.21875zm0 0"/></symbol><symbol id="az" overflow="visible"><path d="m3.671875 0v-.59375c-.292969.46875-.730469.703125-1.3125.703125-.386719 0-.742187-.10546875-1.0625-.3125-.3125-.207031-.558594-.5-.734375-.875-.167969-.375-.25-.800781-.25-1.28125 0-.476563.078125-.910156.234375-1.296875.15625-.382812.390625-.675781.703125-.875.320312-.207031.675781-.3125 1.0625-.3125.289062 0 .546875.0625.765625.1875.226563.117188.410156.265625.546875.453125v-2.34375h.796875v6.546875zm-2.53125-2.359375c0 .605469.125 1.058594.375 1.359375.257813.304688.5625.453125.90625.453125.351563 0 .648437-.144531.890625-.4375.25-.289063.375-.726563.375-1.3125 0-.644531-.125-1.117187-.375-1.421875-.25-.3125-.558594-.46875-.921875-.46875-.355469 0-.652344.148438-.890625.4375-.242188.292969-.359375.757812-.359375 1.390625zm0 0"/></symbol><symbol id="aA" overflow="visible"><path d="m-.015625 0 2.515625-6.546875h.9375l2.671875 6.546875h-.984375l-.765625-1.984375h-2.734375l-.71875 1.984375zm1.890625-2.6875h2.21875l-.6875-1.8125c-.210938-.550781-.359375-1.003906-.453125-1.359375-.085937.429687-.203125.84375-.359375 1.25zm0 0"/></symbol><symbol id="aB" overflow="visible"><path d="m.796875 0v-4.109375h-.71875v-.625h.71875v-.515625c0-.3125.023437-.546875.078125-.703125.082031-.207031.21875-.375.40625-.5.195312-.132813.472656-.203125.828125-.203125.226563 0 .476563.027344.75.078125l-.125.703125c-.167969-.03125-.324219-.046875-.46875-.046875-.25 0-.429687.054687-.53125.15625-.09375.105469-.140625.304687-.140625.59375v.4375h.921875v.625h-.921875v4.109375zm0 0"/></symbol><symbol id="aC" overflow="visible"><path d="m.703125 0v-6.5625h2.265625c.507812 0 .898438.03125 1.171875.09375.375.085938.691406.242188.953125.46875.351562.292969.613281.667969.78125 1.125.175781.449219.265625.96875.265625 1.5625 0 .492188-.0625.929688-.1875 1.3125-.117187.386719-.265625.710938-.453125.96875-.179688.25-.375.449219-.59375.59375-.210938.148438-.46875.257812-.78125.328125-.304688.0742188-.652344.109375-1.046875.109375zm.875-.78125h1.40625c.425781 0 .757813-.035156 1-.109375.25-.082031.453125-.195313.609375-.34375.195312-.207031.351562-.484375.46875-.828125.113281-.351562.171875-.773438.171875-1.265625 0-.6875-.117187-1.210937-.34375-1.578125-.21875-.375-.492187-.625-.8125-.75-.230469-.09375-.605469-.140625-1.125-.140625h-1.375zm0 0"/></symbol><symbol id="aD" overflow="visible"><path d="m.609375-5.640625v-.921875h.8125v.921875zm0 5.640625v-4.75h.8125v4.75zm0 0"/></symbol><symbol id="aE" overflow="visible"><path d="m.453125.390625.78125.125c.039063.238281.132813.410156.28125.515625.195313.15625.46875.234375.8125.234375.375 0 .660156-.078125.859375-.234375.207031-.148438.347656-.355469.421875-.625.039063-.15625.0625-.5.0625-1.03125-.355469.417969-.796875.625-1.328125.625-.648438 0-1.152344-.234375-1.515625-.703125-.355469-.476563-.53125-1.046875-.53125-1.703125 0-.445312.078125-.863281.234375-1.25.164062-.382812.40625-.679688.71875-.890625.3125-.207031.679688-.3125 1.109375-.3125.5625 0 1.023437.226563 1.390625.671875v-.5625h.734375v4.109375c0 .7382812-.078125 1.257813-.234375 1.5625-.148438.3125-.386719.554687-.71875.734375-.324219.1875-.71875.28125-1.1875.28125-.574219 0-1.039062-.132812-1.390625-.390625-.34375-.25-.511719-.636719-.5-1.15625zm.671875-2.859375c0 .625.125 1.085938.375 1.375.25.28125.554688.421875.921875.421875.375 0 .6875-.140625.9375-.421875s.375-.726562.375-1.34375c0-.582031-.132813-1.019531-.390625-1.3125-.261719-.300781-.574219-.453125-.9375-.453125-.355469 0-.65625.148437-.90625.4375-.25.292969-.375.726563-.375 1.296875zm0 0"/></symbol><symbol id="aF" overflow="visible"><path d="m2.359375-.71875.125.703125c-.230469.0507812-.433594.078125-.609375.078125-.292969 0-.523438-.046875-.6875-.140625-.15625-.09375-.273438-.210937-.34375-.359375-.0625-.15625-.09375-.472656-.09375-.953125v-2.734375h-.59375v-.625h.59375v-1.1875l.796875-.484375v1.671875h.8125v.625h-.8125v2.78125c0 .230469.015625.375.046875.4375s.078125.117188.140625.15625c.0625.042969.15625.0625.28125.0625.082031 0 .195313-.007812.34375-.03125zm0 0"/></symbol><symbol id="aG" overflow="visible"><path d="m3.703125-.59375c-.292969.261719-.578125.445312-.859375.546875-.273438.1015625-.570312.15625-.890625.15625-.523437 0-.921875-.125-1.203125-.375-.28125-.257813-.421875-.585937-.421875-.984375 0-.238281.050781-.453125.15625-.640625.113281-.195313.253906-.351563.421875-.46875.175781-.113281.367188-.203125.578125-.265625.15625-.039062.394531-.078125.71875-.109375.65625-.082031 1.132813-.175781 1.4375-.28125 0-.113281 0-.1875 0-.21875 0-.320313-.074219-.550781-.21875-.6875-.210937-.1875-.515625-.28125-.921875-.28125-.375 0-.65625.070313-.84375.203125-.179688.136719-.308594.371094-.390625.703125l-.796875-.109375c.070312-.332031.191406-.601562.359375-.8125.164063-.207031.398437-.363281.703125-.46875.3125-.113281.671875-.171875 1.078125-.171875s.734375.046875.984375.140625c.257812.09375.445312.214844.5625.359375.125.148437.210938.328125.265625.546875.019531.136719.03125.386719.03125.75v1.0625c0 .75.015625 1.230469.046875 1.4375.039062.199219.113281.386719.21875.5625h-.84375c-.085938-.164062-.140625-.363281-.171875-.59375zm-.0625-1.796875c-.292969.125-.730469.230469-1.3125.3125-.335937.042969-.570313.09375-.703125.15625-.136719.0625-.246094.152344-.328125.265625-.074219.117188-.109375.242188-.109375.375 0 .21875.078125.402344.234375.546875.164063.136719.410156.203125.734375.203125.300781 0 .570312-.066406.8125-.203125.25-.132813.429688-.316406.546875-.546875.082031-.1875.125-.457031.125-.8125zm0 0"/></symbol><symbol id="aH" overflow="visible"><path d="m.59375 0v-6.5625h.796875v6.5625zm0 0"/></symbol><symbol id="aI" overflow="visible"><path d="m.796875 0v-4.125h-.71875v-.625h.71875v-.515625c0-.3125.023437-.546875.078125-.703125.082031-.207031.21875-.375.40625-.5.195312-.132812.472656-.203125.828125-.203125.226563 0 .476563.027344.75.078125l-.109375.703125c-.167969-.03125-.328125-.046875-.484375-.046875-.242187 0-.414063.054688-.515625.15625-.105469.105469-.15625.304688-.15625.59375v.4375h.9375v.625h-.9375v4.125zm0 0"/></symbol><symbol id="aJ" overflow="visible"><path d="m3.71875 0v-.703125c-.367188.542969-.867188.8125-1.5.8125-.28125 0-.546875-.0546875-.796875-.15625-.242187-.113281-.421875-.25-.546875-.40625-.117188-.164063-.195312-.367187-.234375-.609375-.03125-.15625-.046875-.40625-.046875-.75v-2.9375h.796875v2.625c0 .429688.015625.714844.046875.859375.050781.210937.160156.375.328125.5.164063.117187.367187.171875.609375.171875.238281 0 .460938-.054688.671875-.171875.21875-.125.367187-.289063.453125-.5.09375-.21875.140625-.53125.140625-.9375v-2.546875h.796875v4.75zm0 0"/></symbol><symbol id="aK" overflow="visible"><path d="m.609375 0v-4.75h.71875v.671875c.351563-.519531.859375-.78125 1.515625-.78125.289062 0 .554688.054687.796875.15625.238281.105469.414063.242187.53125.40625.125.167969.207031.367187.25.59375.03125.148437.046875.40625.046875.78125v2.921875h-.8125v-2.890625c0-.332031-.03125-.578125-.09375-.734375-.0625-.164062-.171875-.296875-.328125-.390625-.15625-.101563-.34375-.15625-.5625-.15625-.34375 0-.640625.109375-.890625.328125s-.375.636719-.375 1.25v2.59375zm0 0"/></symbol><symbol id="aL" overflow="visible"><path d="m3.703125-1.734375.796875.09375c-.085938.554687-.308594.984375-.671875 1.296875-.355469.3046875-.792969.453125-1.3125.453125-.648437 0-1.167969-.210937-1.5625-.640625-.398437-.425781-.59375-1.035156-.59375-1.828125 0-.507813.082031-.957031.25-1.34375.175781-.382813.4375-.671875.78125-.859375.34375-.195312.722656-.296875 1.140625-.296875.507812 0 .925781.132813 1.25.390625.332031.261719.546875.632812.640625 1.109375l-.78125.125c-.074219-.320313-.210937-.5625-.40625-.71875-.1875-.164063-.414063-.25-.671875-.25-.40625 0-.742188.148437-1 .4375-.25.292969-.375.757813-.375 1.390625 0 .636719.117188 1.101562.359375 1.390625.25.28125.570313.421875.96875.421875.3125 0 .570313-.09375.78125-.28125.21875-.195312.351563-.492188.40625-.890625zm0 0"/></symbol><symbol id="aM" overflow="visible"><path d="m.296875-2.375c0-.882812.242187-1.535156.734375-1.953125.414062-.351563.914062-.53125 1.5-.53125.65625 0 1.191406.214844 1.609375.640625.414063.429688.625 1.023438.625 1.78125 0 .605469-.09375 1.085938-.28125 1.4375-.1875.355469-.460937.632812-.8125.828125-.34375.1875-.726563.28125-1.140625.28125-.667969 0-1.210938-.210937-1.625-.640625-.40625-.425781-.609375-1.039062-.609375-1.84375zm.84375 0c0 .605469.128906 1.058594.390625 1.359375.269531.304687.601562.453125 1 .453125.40625 0 .738281-.148438 1-.453125.269531-.300781.40625-.765625.40625-1.390625 0-.582031-.136719-1.023438-.40625-1.328125-.273438-.3125-.605469-.46875-1-.46875-.398438 0-.730469.152344-1 .453125-.261719.304688-.390625.761719-.390625 1.375zm0 0"/></symbol><symbol id="aN" overflow="visible"><path d="m.5625 1.828125-.078125-.75c.175781.039063.328125.0625.453125.0625.175781 0 .316406-.03125.421875-.09375.113281-.054687.207031-.132813.28125-.234375.039063-.085938.117187-.289062.234375-.609375.019531-.042969.046875-.1054688.078125-.1875l-1.8125-4.765625h.875l.984375 2.75c.132812.34375.25.710938.34375 1.09375.09375-.363281.207031-.722656.34375-1.078125l1.015625-2.765625h.796875l-1.796875 4.828125c-.199219.519531-.351563.878906-.453125 1.078125-.148438.269531-.3125.46875-.5.59375s-.40625.1875-.65625.1875c-.15625 0-.335938-.039062-.53125-.109375zm0 0"/></symbol><g transform="translate(-164.98662 -147.58168)"><g fill-rule="evenodd"><path d="m61.137014 175.67682h85.043686v-175.396737h-85.043686zm0 0" style="fill:#fff;stroke:#000;stroke-width:.56306;stroke-linecap:round;stroke-linejoin:round;stroke-miterlimit:10" transform="matrix(1.250001 0 0 1.250001 165.05914 147.58349)"/><path d="m228.19531 221.02344v13.28515l13.28516-13.28515zm0 0" fill="#00b0f0"/><path d="m241.48047 234.30859v-13.28515l-13.28516 13.28515zm0 0" fill="#91cf4f"/></g><path d="m50.508898 69.380027h10.631241v-10.631241h-10.631241zm0 0" style="fill:none;stroke:#000;stroke-width:.56306;stroke-linecap:round;stroke-linejoin:round;stroke-miterlimit:10" transform="matrix(1.250001 0 0 1.250001 165.05914 147.58349)"/><path d="m228.19531 240.95312v13.28516l13.28516-13.28516zm0 0" fill="#00b0f0" fill-rule="evenodd"/><path d="m241.48047 254.23828v-13.28516l-13.28516 13.28516zm0 0" fill="#91cf4f" fill-rule="evenodd"/><path d="m50.508898 85.323765h10.631241v-10.628117h-10.631241zm0 0" style="fill:none;stroke:#000;stroke-width:.56306;stroke-linecap:round;stroke-linejoin:round;stroke-miterlimit:10" transform="matrix(1.250001 0 0 1.250001 165.05914 147.58349)"/><use x="252.07881" xlink:href="#a" y="171.56979"/><use x="252.06934" xlink:href="#j" y="191.51042"/><use x="252.06934" xlink:href="#k" y="211.46043"/><use x="252.06934" xlink:href="#l" y="231.40106"/><use x="252.06934" xlink:href="#m" y="251.35106"/><use x="252.06934" xlink:href="#n" y="271.27292"/><use x="252.06934" xlink:href="#o" y="291.22293"/><use x="329.01935" xlink:href="#p" y="311.16354"/><use x="334.64432" xlink:href="#k" y="311.16354"/><use x="329.01715" xlink:href="#a" y="351.03543"/><use x="334.64258" xlink:href="#a" y="351.03543"/><use x="329.01935" xlink:href="#p" y="331.10419"/><use x="334.64435" xlink:href="#j" y="331.10419"/><use x="329.01935" xlink:href="#p" y="291.22293"/><use x="334.64435" xlink:href="#l" y="291.22293"/><path d="m50.508898 21.542566h10.631241v-10.628117h-10.631241zm0 0" style="fill:#ffbf00;fill-rule:evenodd;stroke:#000;stroke-width:.56306;stroke-linecap:round;stroke-linejoin:round;stroke-miterlimit:10" transform="matrix(1.250001 0 0 1.250001 165.05914 147.58349)"/><path d="m146.17132 21.542566h10.63124v-10.628117h-10.63124zm0 0" style="fill-rule:evenodd;stroke:#000;stroke-width:.56306;stroke-linecap:round;stroke-linejoin:round;stroke-miterlimit:10" transform="matrix(1.250001 0 0 1.250001 165.05914 147.58349)"/><use x="197.2532" xlink:href="#b" y="171.56979"/><use x="205.67445" xlink:href="#c" y="171.56979"/><use x="213.40804" xlink:href="#c" y="171.56979"/><use x="367.88791" xlink:href="#d" y="171.56979"/><use x="376.30914" xlink:href="#e" y="171.56979"/><use x="384.04272" xlink:href="#c" y="171.56979"/><use x="367.89349" xlink:href="#q" y="231.40106"/><use x="374.21597" xlink:href="#r" y="231.40106"/><use x="382.29349" xlink:href="#p" y="231.40106"/><use x="367.89349" xlink:href="#q" y="211.46043"/><use x="374.21597" xlink:href="#r" y="211.46043"/><use x="382.29349" xlink:href="#j" y="211.46043"/><use x="201.60724" xlink:href="#q" y="191.51042"/><use x="207.96349" xlink:href="#r" y="191.51042"/><use x="215.99597" xlink:href="#l" y="191.51042"/><use x="201.60724" xlink:href="#q" y="211.46043"/><use x="207.96349" xlink:href="#r" y="211.46043"/><use x="215.99597" xlink:href="#m" y="211.46043"/><use x="201.60724" xlink:href="#q" y="251.35106"/><use x="207.96349" xlink:href="#r" y="251.35106"/><use x="215.99597" xlink:href="#o" y="251.35106"/><use x="201.60724" xlink:href="#q" y="231.40106"/><use x="207.96349" xlink:href="#r" y="231.40106"/><use x="215.99597" xlink:href="#n" y="231.40106"/><use x="367.89255" xlink:href="#f" y="351.03543"/><use x="374.21695" xlink:href="#g" y="351.03543"/><use x="381.65741" xlink:href="#h" y="351.03543"/><use x="252.07042" xlink:href="#s" y="311.16354"/><use x="252.07042" xlink:href="#t" y="331.10419"/><use x="249.26158" xlink:href="#a" y="351.03543"/><use x="254.88702" xlink:href="#h" y="351.03543"/><use x="329.01505" xlink:href="#p" y="271.27289"/><use x="334.64005" xlink:href="#m" y="271.27289"/><use x="329.01288" xlink:href="#i" y="171.56978"/><use x="334.63831" xlink:href="#h" y="171.56978"/><use x="329.01508" xlink:href="#p" y="191.51041"/><use x="334.64008" xlink:href="#t" y="191.51041"/><use x="329.01508" xlink:href="#p" y="211.4604"/><use x="334.64008" xlink:href="#s" y="211.4604"/><use x="329.01508" xlink:href="#p" y="231.40103"/><use x="334.64008" xlink:href="#o" y="231.40103"/><use x="329.01508" xlink:href="#p" y="251.35103"/><use x="334.64008" xlink:href="#n" y="251.35103"/><use x="202.2318" xlink:href="#f" y="351.0354"/><use x="208.56746" xlink:href="#g" y="351.0354"/><use x="215.99666" xlink:href="#a" y="351.0354"/><use x="202.2397" xlink:href="#q" y="291.22293"/><use x="208.56219" xlink:href="#u" y="291.22293"/><use x="215.99844" xlink:href="#l" y="291.22293"/><use x="202.2397" xlink:href="#q" y="271.27289"/><use x="208.56219" xlink:href="#u" y="271.27289"/><use x="215.99844" xlink:href="#m" y="271.27289"/><use x="367.89597" xlink:href="#q" y="331.10416"/><use x="374.21844" xlink:href="#v" y="331.10416"/><use x="381.65469" xlink:href="#w" y="331.10416"/><use x="367.89597" xlink:href="#q" y="291.2229"/><use x="374.21848" xlink:href="#v" y="291.2229"/><use x="381.65472" xlink:href="#j" y="291.2229"/><use x="367.896" xlink:href="#q" y="271.27289"/><use x="374.21851" xlink:href="#v" y="271.27289"/><use x="381.65475" xlink:href="#k" y="271.27289"/><use x="367.89603" xlink:href="#q" y="311.16351"/><use x="374.21854" xlink:href="#v" y="311.16351"/><use x="381.65479" xlink:href="#p" y="311.16351"/><path d="m228.19531 320.66797v13.29687l13.28516-13.29687zm0 0" fill="#00b0f0" fill-rule="evenodd"/><path d="m241.48047 333.96484v-13.29687l-13.28516 13.29687zm0 0" fill="#bdbdbd" fill-rule="evenodd"/><path d="m50.508898 149.10496h10.631241v-10.63124h-10.631241zm0 0" style="fill:none;stroke:#000;stroke-width:.56306;stroke-linecap:round;stroke-linejoin:round;stroke-miterlimit:10" transform="matrix(1.250001 0 0 1.250001 165.05914 147.58349)"/><path d="m228.19531 300.74609v13.28516l13.28516-13.28516zm0 0" fill="#00b0f0" fill-rule="evenodd"/><path d="m241.48047 314.03125v-13.28516l-13.28516 13.28516zm0 0" fill="#bdbdbd" fill-rule="evenodd"/><path d="m50.508898 133.1581h10.631241v-10.62812h-10.631241zm0 0" style="fill:none;stroke:#000;stroke-width:.56306;stroke-linecap:round;stroke-linejoin:round;stroke-miterlimit:10" transform="matrix(1.250001 0 0 1.250001 165.05914 147.58349)"/><path d="m228.19531 181.16016v13.28515l13.28516-13.28515zm0 0" fill="#00b0f0" fill-rule="evenodd"/><path d="m241.48047 194.44531v-13.28515l-13.28516 13.28515zm0 0" fill="#91cf4f" fill-rule="evenodd"/><path d="m50.508898 37.489428h10.631241v-10.631241h-10.631241zm0 0" style="fill:none;stroke:#000;stroke-width:.56306;stroke-linecap:round;stroke-linejoin:round;stroke-miterlimit:10" transform="matrix(1.250001 0 0 1.250001 165.05914 147.58349)"/><path d="m228.19531 201.08984v13.28516l13.28516-13.28516zm0 0" fill="#00b0f0" fill-rule="evenodd"/><path d="m241.48047 214.375v-13.28516l-13.28516 13.28516zm0 0" fill="#91cf4f" fill-rule="evenodd"/><path d="m50.508898 53.433165h10.631241v-10.628116h-10.631241zm0 0" style="fill:none;stroke:#000;stroke-width:.56306;stroke-linecap:round;stroke-linejoin:round;stroke-miterlimit:10" transform="matrix(1.250001 0 0 1.250001 165.05914 147.58349)"/><path d="m228.19531 260.88672v13.28125l13.28516-13.28125zm0 0" fill="#00b0f0" fill-rule="evenodd"/><path d="m241.48047 274.16797v-13.28125l-13.28516 13.28125zm0 0" fill="#91cf4f" fill-rule="evenodd"/><path d="m50.508898 101.2675h10.631241v-10.628115h-10.631241zm0 0" style="fill:none;stroke:#000;stroke-width:.56306;stroke-linecap:round;stroke-linejoin:round;stroke-miterlimit:10" transform="matrix(1.250001 0 0 1.250001 165.05914 147.58349)"/><path d="m228.19531 280.81641v13.28515l13.28516-13.28515zm0 0" fill="#00b0f0" fill-rule="evenodd"/><path d="m241.48047 294.10156v-13.28515l-13.28516 13.28515zm0 0" fill="#91cf4f" fill-rule="evenodd"/><g stroke="#000" stroke-linecap="round" stroke-linejoin="round" stroke-miterlimit="10" stroke-width=".56306" transform="matrix(1.250001 0 0 1.250001 165.05914 147.58349)"><path d="m50.508898 117.21436h10.631241v-10.63124h-10.631241zm0 0" fill="none"/><g fill-rule="evenodd"><g fill="#00b0f0"><path d="m146.17132 101.2675h10.63124v-10.628115h-10.63124zm0 0"/><path d="m146.17132 117.21436h10.63124v-10.63124h-10.63124zm0 0"/><path d="m146.17132 133.1581h10.63124v-10.62812h-10.63124zm0 0"/><path d="m146.17132 149.10496h10.63124v-10.63124h-10.63124zm0 0"/></g><path d="m66.45576 8.255076c0-1.462498 1.184374-2.656247 2.653123-2.656247 1.471874 0 2.656248 1.193749 2.656248 2.656247 0 1.468749-1.184374 2.662498-2.656248 2.662498-1.468749 0-2.653123-1.193749-2.653123-2.662498zm0 0"/></g></g><use x="367.896" xlink:href="#q" y="251.35106"/><use x="374.21851" xlink:href="#r" y="251.35106"/><use x="382.29599" xlink:href="#w" y="251.35106"/><use x="387.90976" xlink:href="#x" y="251.35106"/><use x="391.026" xlink:href="#y" y="251.35106"/><use x="398.75473" xlink:href="#z" y="251.35106"/><use x="405.07724" xlink:href="#A" y="251.35106"/><use x="411.39975" xlink:href="#z" y="251.35106"/><use x="418.41974" xlink:href="#B" y="251.35106"/><use x="425.43973" xlink:href="#x" y="251.35106"/><use x="428.55597" xlink:href="#C" y="251.35106"/><use x="437.00473" xlink:href="#q" y="251.35106"/><use x="442.65222" xlink:href="#D" y="251.35106"/><use x="451.10098" xlink:href="#E" y="251.35106"/><use x="367.89603" xlink:href="#q" y="191.51042"/><use x="374.21854" xlink:href="#r" y="191.51042"/><use x="382.29602" xlink:href="#k" y="191.51042"/><use x="387.90976" xlink:href="#x" y="191.51042"/><use x="391.02603" xlink:href="#z" y="191.51042"/><use x="398.52975" xlink:href="#F" y="191.51042"/><use x="406.03351" xlink:href="#B" y="191.51042"/><use x="412.90726" xlink:href="#v" y="191.51042"/><use x="421.02975" xlink:href="#G" y="191.51042"/><use x="427.28476" xlink:href="#H" y="191.51042"/><use x="164.72099" xlink:href="#B" y="330.66364"/><use x="171.74098" xlink:href="#I" y="330.66364"/><use x="179.46974" xlink:href="#A" y="330.66364"/><use x="185.79224" xlink:href="#v" y="330.66364"/><use x="193.47598" xlink:href="#j" y="330.66364"/><use x="199.101" xlink:href="#x" y="312.66357"/><use x="202.23975" xlink:href="#q" y="311.16357"/><use x="208.56224" xlink:href="#u" y="311.16357"/><use x="215.99849" xlink:href="#k" y="311.16357"/><use x="164.72099" xlink:href="#B" y="311.6041"/><use x="171.74098" xlink:href="#I" y="311.6041"/><use x="179.46974" xlink:href="#A" y="311.6041"/><use x="185.79224" xlink:href="#v" y="311.6041"/><use x="193.47598" xlink:href="#p" y="311.6041"/><use x="199.101" xlink:href="#x" y="331.10419"/><use x="202.23975" xlink:href="#q" y="331.10419"/><use x="208.56224" xlink:href="#u" y="331.10419"/><use x="215.99849" xlink:href="#j" y="331.10419"/><path d="m347.77344 240.95312v13.28516l13.29297-13.28516zm0 0" fill="#00b0f0" fill-rule="evenodd"/><path d="m361.06641 254.23828v-13.28516l-13.29297 13.28516zm0 0" fill="#006ebf" fill-rule="evenodd"/><path d="m146.17132 85.323765h10.63124v-10.628117h-10.63124zm0 0" style="fill:none;stroke:#000;stroke-width:.56306;stroke-linecap:round;stroke-linejoin:round;stroke-miterlimit:10" transform="matrix(1.250001 0 0 1.250001 165.05914 147.58349)"/><g fill-rule="evenodd"><path d="m361.06641 194.44531v-13.28515l-13.29297 13.28515zm0 0" fill="#bfbfbf"/><path d="m361.06641 181.16016-6.64454 6.63671 6.64454 6.64844zm0 0" fill="#91cf4f"/><path d="m347.77344 181.16016h13.29297l-13.29297 13.28515zm0 0" fill="#00b0f0"/></g><path d="m146.17132 37.489428h10.63124v-10.631241h-10.63124zm0 0" style="fill:none;stroke:#000;stroke-width:.56306;stroke-linecap:round;stroke-linejoin:round;stroke-miterlimit:10" transform="matrix(1.250001 0 0 1.250001 165.05914 147.58349)"/><path d="m347.77344 221.02344v13.28515l13.29297-13.28515zm0 0" fill="#00b0f0" fill-rule="evenodd"/><path d="m361.06641 234.30859v-13.28515l-13.29297 13.28515zm0 0" fill="#91cf4f" fill-rule="evenodd"/><path d="m146.17132 69.380027h10.63124v-10.631241h-10.63124zm0 0" style="fill:none;stroke:#000;stroke-width:.56306;stroke-linecap:round;stroke-linejoin:round;stroke-miterlimit:10" transform="matrix(1.250001 0 0 1.250001 165.05914 147.58349)"/><path d="m347.77344 201.08984v13.28516l13.29297-13.28516zm0 0" fill="#00b0f0" fill-rule="evenodd"/><path d="m361.06641 214.375v-13.28516l-13.29297 13.28516zm0 0" fill="#91cf4f" fill-rule="evenodd"/><path d="m146.17132 53.433165h10.63124v-10.628116h-10.63124zm0 0" style="fill:none;stroke:#000;stroke-width:.56306;stroke-linecap:round;stroke-linejoin:round;stroke-miterlimit:10" transform="matrix(1.250001 0 0 1.250001 165.05914 147.58349)"/><path d="m228.19531 340.60156v13.29297l13.28516-13.29297zm0 0" fill="#00b0f0" fill-rule="evenodd"/><path d="m241.48047 353.89453v-13.29297l-13.28516 13.29297zm0 0" fill="#91cf4f" fill-rule="evenodd"/><path d="m50.508898 165.0487h10.631241v-10.62812h-10.631241zm0 0" style="fill:none;stroke:#000;stroke-width:.56306;stroke-linecap:round;stroke-linejoin:round;stroke-miterlimit:10" transform="matrix(1.250001 0 0 1.250001 165.05914 147.58349)"/><path d="m347.77344 340.60156v13.29297l13.29297-13.29297zm0 0" fill="#00b0f0" fill-rule="evenodd"/><path d="m361.06641 353.89453v-13.29297l-13.29297 13.29297zm0 0" fill="#91cf4f" fill-rule="evenodd"/><path d="m146.17132 165.0487h10.63124v-10.62812h-10.63124zm0 0" style="fill:none;stroke:#000;stroke-width:.56306;stroke-linecap:round;stroke-linejoin:round;stroke-miterlimit:10" transform="matrix(1.250001 0 0 1.250001 165.05914 147.58349)"/><path d="m180.19317 75.755022h28.69998" style="fill:none;stroke:#000;stroke-width:.56306;stroke-linecap:round;stroke-linejoin:round;stroke-miterlimit:10" transform="matrix(1.250001 0 0 1.250001 165.05914 147.58349)"/><use x="195.59033" xlink:href="#J" y="439.29956"/><use x="202.70174" xlink:href="#K" y="439.29956"/><use x="208.79852" xlink:href="#L" y="439.29956"/><use x="211.3396" xlink:href="#M" y="439.29956"/><use x="218.44186" xlink:href="#N" y="439.29956"/><use x="220.98294" xlink:href="#O" y="439.29956"/><use x="227.07973" xlink:href="#P" y="439.29956"/><use x="233.67924" xlink:href="#P" y="439.29956"/><use x="240.27876" xlink:href="#N" y="439.29956"/><use x="242.81985" xlink:href="#Q" y="439.29956"/><use x="247.90204" xlink:href="#R" y="439.29956"/><use x="252.98421" xlink:href="#S" y="439.29956"/><use x="259.58374" xlink:href="#T" y="439.29956"/><use x="264.66592" xlink:href="#U" y="439.29956"/><use x="267.71887" xlink:href="#N" y="439.29956"/><use x="270.25995" xlink:href="#V" y="439.29956"/><use x="275.34213" xlink:href="#R" y="439.29956"/><use x="280.42432" xlink:href="#W" y="439.29956"/><use x="288.03845" xlink:href="#X" y="439.29956"/><use x="293.12061" xlink:href="#Y" y="439.29956"/><use x="295.14984" xlink:href="#Z" y="439.29956"/><use x="330.25891" xlink:href="#aa" y="418.04645"/><use x="337.2789" xlink:href="#ab" y="418.04645"/><use x="339.38126" xlink:href="#ac" y="418.04645"/><use x="344.29892" xlink:href="#ad" y="418.04645"/><use x="349.20743" xlink:href="#ae" y="418.04645"/><use x="353.7229" xlink:href="#af" y="418.04645"/><use x="358.93307" xlink:href="#ad" y="418.04645"/><use x="363.84158" xlink:href="#ag" y="418.04645"/><use x="366.65692" xlink:href="#ah" y="418.04645"/><use x="371.56543" xlink:href="#ai" y="418.04645"/><use x="375.78839" xlink:href="#aj" y="418.04645"/><use x="378.59457" xlink:href="#ak" y="418.04645"/><use x="384.20691" xlink:href="#ab" y="418.04645"/><use x="330.25894" xlink:href="#al" y="399.43704"/><use x="336.5751" xlink:href="#ag" y="399.43704"/><use x="339.39041" xlink:href="#ac" y="399.43704"/><use x="345.00278" xlink:href="#am" y="399.43704"/><use x="349.92044" xlink:href="#ag" y="399.43704"/><use x="353.43045" xlink:href="#ak" y="399.43704"/><use x="358.34808" xlink:href="#an" y="399.43704"/><use x="366.07193" xlink:href="#an" y="399.43704"/><use x="373.79578" xlink:href="#ao" y="399.43704"/><use x="375.8981" xlink:href="#ap" y="399.43704"/><use x="381.51047" xlink:href="#am" y="399.43704"/><use x="386.55609" xlink:href="#af" y="399.43704"/><use x="391.75711" xlink:href="#aq" y="399.43704"/><use x="398.80453" xlink:href="#ar" y="399.43704"/><use x="403.7496" xlink:href="#as" y="399.43704"/><use x="408.6947" xlink:href="#at" y="399.43704"/><use x="414.33447" xlink:href="#am" y="399.43704"/><use x="419.41666" xlink:href="#af" y="399.43704"/><use x="424.61768" xlink:href="#au" y="399.43704"/><use x="431.6377" xlink:href="#ar" y="399.43704"/><use x="436.55536" xlink:href="#ai" y="399.43704"/><use x="441.46387" xlink:href="#ar" y="399.43704"/><use x="446.38153" xlink:href="#aj" y="399.43704"/><path d="m8.443306 204.48929h10.628117v-10.62811h-10.628117zm0 0" style="fill:#ffa100;fill-rule:evenodd;stroke:#000;stroke-width:.56306;stroke-linecap:round;stroke-linejoin:round;stroke-miterlimit:10" transform="matrix(1.250001 0 0 1.250001 165.05914 147.58349)"/><use x="195.59007" xlink:href="#av" y="399.43707"/><use x="198.39626" xlink:href="#ap" y="399.43707"/><use x="203.3139" xlink:href="#aw" y="399.43707"/><use x="208.92625" xlink:href="#at" y="399.43707"/><use x="213.84392" xlink:href="#aj" y="399.43707"/><use x="218.76158" xlink:href="#ai" y="399.43707"/><use x="223.6701" xlink:href="#at" y="399.43707"/><use x="228.58775" xlink:href="#aw" y="399.43707"/><use x="234.2001" xlink:href="#aw" y="399.43707"/><use x="239.11777" xlink:href="#ab" y="399.43707"/><use x="241.22011" xlink:href="#ah" y="399.43707"/><path d="m8.443306 220.43616h10.628117v-10.63125h-10.628117zm0 0" style="fill-rule:evenodd;stroke:#000;stroke-width:.56306;stroke-linecap:round;stroke-linejoin:round;stroke-miterlimit:10" transform="matrix(1.250001 0 0 1.250001 165.05914 147.58349)"/><use x="195.59006" xlink:href="#ay" y="419.35898"/><use x="202.61922" xlink:href="#ag" y="419.35898"/><use x="206.12921" xlink:href="#ac" y="419.35898"/><use x="211.04688" xlink:href="#at" y="419.35898"/><use x="216.65923" xlink:href="#ap" y="419.35898"/><use x="221.57689" xlink:href="#az" y="419.35898"/><path d="m323.49219 403.19531v-13.28515l-13.29297 13.28515zm0 0" fill="#0078bf" fill-rule="evenodd"/><path d="m310.19922 389.91016v13.28515l13.29297-13.28515zm0 0" fill="#fff" fill-rule="evenodd"/><path d="m116.11197 204.48929h10.62812v-10.62811h-10.62812zm0 0" style="fill:none;stroke:#000;stroke-width:.56306;stroke-linecap:round;stroke-linejoin:round;stroke-miterlimit:10" transform="matrix(1.250001 0 0 1.250001 165.05914 147.58349)"/><path d="m323.49219 421.80469v-13.29297l-13.29297 13.29297zm0 0" fill="#c7c7ca" fill-rule="evenodd"/><path d="m310.19922 408.51172v13.29297l13.29297-13.29297zm0 0" fill="#fff" fill-rule="evenodd"/><path d="m116.11197 219.37678h10.62812v-10.62811h-10.62812zm0 0" style="fill:none;stroke:#000;stroke-width:.56306;stroke-linecap:round;stroke-linejoin:round;stroke-miterlimit:10" transform="matrix(1.250001 0 0 1.250001 165.05914 147.58349)"/><use x="330.25891" xlink:href="#aA" y="457.91837"/><use x="336.35571" xlink:href="#ap" y="457.91837"/><use x="341.4379" xlink:href="#ak" y="457.91837"/><use x="346.52008" xlink:href="#ab" y="457.91837"/><use x="348.54932" xlink:href="#ac" y="457.91837"/><use x="353.6315" xlink:href="#am" y="457.91837"/><use x="358.72284" xlink:href="#ax" y="457.91837"/><use x="361.26395" xlink:href="#aB" y="457.91837"/><use x="363.80502" xlink:href="#at" y="457.91837"/><use x="368.88721" xlink:href="#ap" y="457.91837"/><use x="373.96942" xlink:href="#ad" y="457.91837"/><use x="378.53973" xlink:href="#aj" y="457.91837"/><use x="381.08081" xlink:href="#ao" y="457.91837"/><use x="383.11005" xlink:href="#ac" y="457.91837"/><use x="388.19223" xlink:href="#ap" y="457.91837"/><path d="m323.49219 461.66797v-13.29297l-13.29297 13.29297zm0 0" fill="#7ab81c" fill-rule="evenodd"/><path d="m310.19922 448.375v13.29297l13.29297-13.29297zm0 0" fill="#fff" fill-rule="evenodd"/><path d="m116.11197 251.26738h10.62812v-10.62812h-10.62812zm0 0" style="fill:none;stroke:#000;stroke-width:.56306;stroke-linecap:round;stroke-linejoin:round;stroke-miterlimit:10" transform="matrix(1.250001 0 0 1.250001 165.05914 147.58349)"/><use x="330.26224" xlink:href="#aC" y="437.96832"/><use x="337.28192" xlink:href="#aD" y="437.96832"/><use x="339.38049" xlink:href="#aE" y="437.96832"/><use x="344.30161" xlink:href="#aD" y="437.96832"/><use x="346.40018" xlink:href="#aF" y="437.96832"/><use x="349.20438" xlink:href="#aG" y="437.96832"/><use x="354.12549" xlink:href="#aH" y="437.96832"/><use x="359.02826" xlink:href="#aI" y="437.96832"/><use x="361.13599" xlink:href="#aJ" y="437.96832"/><use x="366.75357" xlink:href="#aK" y="437.96832"/><use x="371.67468" xlink:href="#aL" y="437.96832"/><use x="376.58661" xlink:href="#aF" y="437.96832"/><use x="379.39084" xlink:href="#aD" y="437.96832"/><use x="381.48941" xlink:href="#aM" y="437.96832"/><use x="386.41049" xlink:href="#aK" y="437.96832"/><use x="394.1358" xlink:href="#aM" y="437.96832"/><use x="399.75339" xlink:href="#aK" y="437.96832"/><use x="404.6745" xlink:href="#aH" y="437.96832"/><use x="406.77307" xlink:href="#aN" y="437.96832"/><path d="m323.49219 441.73828v-13.29687l-13.29297 13.29687zm0 0" fill="#00b3e6" fill-rule="evenodd"/><path d="m310.19922 428.44141v13.29687l13.29297-13.29687zm0 0" fill="#fff" fill-rule="evenodd"/><path d="m116.11197 235.32364h10.62812v-10.63124h-10.62812zm0 0" style="fill:none;stroke:#000;stroke-width:.56306;stroke-linecap:round;stroke-linejoin:round;stroke-miterlimit:10" transform="matrix(1.250001 0 0 1.250001 165.05914 147.58349)"/><path d="m175.61328 429.77344v13.28515l13.28516-13.28515zm0 0" fill="#00b3e6" fill-rule="evenodd"/><path d="m188.89844 443.05859v-13.28515l-13.28516 13.28515zm0 0" fill="#fff" fill-rule="evenodd"/><path d="m8.443306 236.37989h10.628117v-10.62811h-10.628117zm0 0" style="fill:none;stroke:#000;stroke-width:.56306;stroke-linecap:round;stroke-linejoin:round;stroke-miterlimit:10" transform="matrix(1.250001 0 0 1.250001 165.05914 147.58349)"/></g></svg>